<?xml version="1.0" encoding="utf-8"?>
<!-- Generator: Adobe Illustrator 23.0.3, SVG Export Plug-In . SVG Version: 6.00 Build 0)  -->
<svg version="1.1" id="Layer_1" xmlns="http://www.w3.org/2000/svg" xmlns:xlink="http://www.w3.org/1999/xlink" x="0px" y="0px"
	 viewBox="0 0 530.7 526.8" style="enable-background:new 0 0 530.7 526.8;" xml:space="preserve">
<style type="text/css">
	.st0{fill:#F37C23;}
	.st1{fill:#827442;}
	.st2{fill:#75BEE9;}
	.st3{fill:#F58220;}
</style>
<path class="st0" d="M373.7,267.4c0.6,0,1.1,0,1.6,0.1c5.7,0.6,8.6,4,8.1,9.7c-0.4,5.7-2.1,11-6,15.4c-5.2,6-11.6,10.1-19.5,11.5
	c-3.2,0.6-3.8-0.1-3.3-3.2c1.3-7.5,2.7-15,4-22.6c0.9-5.4,4-8.6,9.1-10.1C369.7,267.7,371.7,267.5,373.7,267.4z"/>
<g>
	<path class="st1" d="M278.3,262.5c-9.3-0.2-18.8-1.1-27.9-4.5c-4.2-1.5-8.2-3.4-11.4-6.7c-0.3-0.3-0.5-0.6-0.8-0.9
		c-0.2-0.3-0.5-0.5-0.2-0.9c0.2-0.2,0.5,0,0.7,0.1c0.3,0.2,0.6,0.3,0.9,0.5c9.4,5.7,19.6,7.2,30.3,6.4c13.7-1,26.6-5.2,39.2-10.6
		c0.4-0.2,0.8-0.4,1.2-0.6c2.8-1.4,3-2.1,1.1-4.5c-1.8-2.2-3.6-4.4-5.8-6.3c-1.6-1.4-1.6-2.3-0.2-3.7c6.7-6.5,10.1-14.5,10.4-23.7
		c0.5-16.7-10.5-31.8-26.6-34c-8.1-1.1-15.3,1.2-21.7,6.2c-2.1,1.6-2.4,1.6-4.5-0.1c-10-8.2-24.3-8.6-34.6-0.9
		c-8.9,6.7-13.2,15.7-13.5,26.8c-0.2,9.7,3.1,18.1,9.8,25.1c1.4,1.4,1.4,2.2-0.1,3.6c-3.6,3.5-7.1,7.2-9.6,11.7
		c-1.4,2.4-2.6,4.9-3.6,7.4c-0.8,2-1.6,2.4-3.6,1.8c-8.6-2.6-16.7-6.3-24.3-11c-2-1.3-3.1-2.8-3.4-5.3c-1.3-13.2,4.3-26.6,16.3-33.5
		c2.8-1.6,5.8-2.7,9-3.2c1.7-0.3,2.5-1.2,3.1-2.8c3.2-10.3,8.6-19.3,16.2-27.1c0.3-0.3,0.5-0.5,0.8-0.8c1.4-1.5,1.4-2.2,0-3.8
		c-4.4-4.7-8.1-9.9-11-15.6c-4.3-8.5-6.8-17.5-7.5-27c-1.3-18.3,3.7-34.7,15.2-49.1c10.3-12.8,23.8-19.9,40.2-21.3
		c16-1.4,30.2,3.2,42.3,13.6c9.5,8.1,14.9,18.7,16.2,31.1c1.4,13.2-2.1,25-10.4,35.3c-7.2,8.8-16.6,13.7-28.1,14.5
		c-11.6,0.8-21.8-2.7-30.2-10.6c-7.4-7-10.8-15.9-10.1-26.1c0.7-10.8,5.3-19.5,14.5-25.5c9.6-6.2,23.6-5.4,32.5,1.7
		c3.8,3,4.5,7.9,1.8,11.8c-2.4,3.4-7.5,4.2-11.4,1.7c-2.1-1.4-4.2-2.6-6.8-2.8c-5.8-0.4-10.5,2.7-12.9,8.3c-3.5,8.3-0.3,17.2,7.8,22
		c10.3,6,23.2,3.5,30.4-6c11.2-14.7,7.9-34.6-7.6-45.4c-14.7-10.2-34.9-9.7-48.8,1.5c-10.7,8.6-16.4,20.1-18.1,33.6
		c-1.8,13.9,1.7,26.5,9.7,37.9c0.6,0.8,1.3,1.6,2,2.4c0.3,0.3,0.6,0.8,1.1,0.5c0.4-0.3,0.3-0.8,0.2-1.2c-0.2-0.7-0.4-1.5-0.6-2.2
		c-2.9-8.9-3.5-18.1-2.6-27.4c0-0.3,0.1-0.6,0.1-0.8c0.1-0.4,0.2-1,0.7-1c0.6,0,0.6,0.5,0.8,0.9c0.8,3,1.6,6,2.8,8.8
		c2.7,6.3,6.7,11.6,11.7,16.2c1.3,1.2,2,1.1,3.1-0.3c0.2-0.3,0.4-0.5,0.6-0.8c1.5-1.5,2.5-1.4,3.4,0.5c1.4,2.9,3.3,5.3,6.2,6.8
		c1.7,0.9,3.4,1.4,5.4,1.5c11.6,0.6,22,4.5,31.2,11.6c10.9,8.3,18.3,19.2,22.5,32.2c0.5,1.7,1.4,2.8,3.3,3
		c14.3,1.6,25,13.8,26.9,28.3c0.4,3.1,0.5,6.2,0.1,9.4c-0.3,2-1.2,3.3-2.9,4.3c-5.5,3.3-11.3,5.7-17.2,8
		c-11.9,4.6-24.1,7.9-36.8,9.6C289.8,262,284.2,262.4,278.3,262.5z"/>
	<path class="st1" d="M267.8,241.7c-7.8,0.1-12.9-1.8-17.4-5.4c-0.6-0.5-1.2-1-1.7-1.6c-1.4-1.7-1.4-3.8,0-5.2
		c1.4-1.4,3.3-1.6,5.1-0.3c0.7,0.5,1.3,1,2,1.5c6.8,5,15.1,4.6,21.3-1.1c0.5-0.4,1-0.9,1.6-1.2c1.6-0.8,3.6-0.5,4.7,0.8
		c1.1,1.3,1.2,3.2,0.2,4.8c-0.9,1.4-2.3,2.4-3.6,3.3C275.7,240.3,271.2,241.7,267.8,241.7z"/>
</g>
<g>
	<path class="st2" d="M178,29.1c6.8,0,12.4,1.5,18.1,2.9c5.1,1.3,10.2,2.6,15.5,3.4c6.9,1,13.1-0.6,18.9-4.1
		c5.6-3.4,10.5-7.6,15.8-11.3c3.7-2.6,7.5-5.2,11.8-6.9c6.4-2.4,12.6-2.1,18.7,0.8c6.6,3.2,12.1,7.8,17.9,12
		c2.2,1.6,4.5,3.2,6.8,4.7c6.6,4.4,13.7,5.9,21.5,4.5c6.1-1.1,12.1-2.8,18.2-4.2c4.6-1.1,9.1-1.9,13.9-1.9c6.9,0,12.3,3,16.7,8
		c4,4.5,6.8,9.7,9.9,14.8c2.2,3.7,4.4,7.3,6.9,10.8c4.2,5.9,9.9,9.6,16.9,11.3c6.4,1.6,13,2.2,19.5,3.3c5.1,0.8,10,1.9,14.7,4.2
		c4.5,2.3,7.6,5.9,9.6,10.5c2.6,5.9,3.4,12.3,4.3,18.6c0.6,4,1.2,7.9,2,11.9c1.7,8.6,6.1,15.3,13.4,20.2c5,3.3,10.3,6.2,15.3,9.4
		c4.3,2.7,8.6,5.6,11.9,9.5c3.9,4.6,5.2,10,4.8,15.8c-0.3,5.4-1.6,10.6-3,15.9c-1,3.9-1.9,7.8-2.8,11.7c-1.9,8.9-0.4,17,4.7,24.5
		c3.4,4.9,7.1,9.5,10.5,14.4c2.5,3.5,4.8,7.1,6.4,11.1c2.6,6.3,2.2,12.4-0.7,18.5c-2.1,4.5-4.9,8.5-7.8,12.4c-3.4,4.6-7,9.2-10,14.1
		c-3.6,6-4.6,12.4-3.7,19.2c1.1,7.5,3.5,14.6,5,22c0.8,3.9,1.5,7.9,1.2,11.9c-0.5,7.9-4.9,13.4-11,17.9c-5.5,4.1-11.7,7.3-17.5,10.9
		c-3.6,2.2-7.1,4.7-10,7.8c-4.7,5-6.4,11.3-7.6,17.8c-1.4,7.5-1.8,15.1-3.9,22.4c-1.2,4.5-3,8.6-6.4,11.9c-3.3,3.2-7.2,4.9-11.5,6.1
		c-7.3,2-15,2.5-22.4,3.9c-6.5,1.2-12.8,2.9-17.8,7.6c-3.1,2.9-5.6,6.4-7.8,10c-3.6,5.8-6.7,11.9-10.8,17.4
		c-2.5,3.4-5.4,6.5-9.2,8.6c-5.1,2.8-10.6,3-16.2,2.1c-6.8-1-13.4-3.1-20.1-4.6c-2.8-0.6-5.7-1.1-8.6-1.5c-8.3-1-15.3,2.2-21.8,6.9
		c-4.3,3.1-8.6,6.3-12.9,9.5c-3,2.2-6.2,4-9.5,5.6c-8,3.7-15.6,2.3-23-2c-4.8-2.9-9.3-6.3-13.7-9.7c-2.6-2-5.3-3.9-8.1-5.7
		c-6.9-4.5-14.3-5.5-22.3-4c-6.3,1.2-12.5,3.1-18.8,4.5c-4.8,1-9.7,2-14.7,1.3c-5.7-0.7-10.1-3.4-13.8-7.6
		c-4.3-4.8-7.4-10.4-10.6-15.9c-1.9-3.3-4-6.5-6.1-9.6c-4.7-6.8-11.2-10.5-19.1-12.2c-6.7-1.4-13.6-2-20.4-3.3
		c-3.1-0.6-6.1-1.4-9.1-2.5c-6.6-2.4-10.9-7-13.2-13.6c-2.3-6.6-3-13.5-4-20.4c-0.8-5.2-1.6-10.3-3.5-15.2c-1.7-4.5-4.7-8-8.4-11
		c-5.4-4.4-11.6-7.6-17.5-11.1c-3.4-2.1-6.8-4.3-9.8-7c-6.5-5.6-8.5-12.8-7.5-21.1c0.8-6.7,2.8-13.1,4.3-19.6
		c0.9-3.6,1.6-7.2,2-10.9c0.6-6-0.8-11.5-3.8-16.6c-2.5-4.3-5.6-8.3-8.6-12.3c-3.1-4.1-6.1-8.3-8.6-12.9c-4.6-8.5-3.8-16.7,0.9-24.8
		c3.5-6.1,8.1-11.5,12.2-17.2c1.5-2.1,2.9-4.3,4.2-6.5c4.1-6.8,4.5-14.1,3-21.7c-1.3-6.2-3.1-12.3-4.5-18.4
		c-0.7-3.4-1.2-6.8-1.3-10.3c-0.3-7.9,3.1-13.9,9-18.7c5.3-4.3,11.3-7.5,17.1-11c3.2-1.9,6.3-4,9.3-6.3c5.5-4.3,8.4-10.2,9.9-16.8
		c1.4-6,1.9-12,3-18.1c0.6-3.6,1.3-7.2,2.5-10.8c2.6-7.8,7.9-12.7,15.8-15.1c5.4-1.6,10.8-2.3,16.4-3.1c3.6-0.5,7.2-1.1,10.7-1.8
		c8.8-1.7,15.5-6.4,20.4-13.9c4-6.1,7.3-12.5,11.4-18.5c2-2.9,4.1-5.6,6.7-7.9C168.3,30.5,173.3,28.9,178,29.1z M266.7,45.3
		C147.2,45,51.7,140.9,48.2,256.3c-3.8,125.4,96,224.2,215.1,225.6c123,1.5,220.2-96.8,221.5-215.7C486.2,142.5,385.9,45,266.7,45.3
		z"/>
	<path class="st2" d="M265.9,321.9c-26,0-51-5-75.2-14.5c-2.4-0.9-3.5-2.3-3.8-4.9c-1.2-8.7-2.5-17.4-3.8-26.1
		c-0.2-1.1-0.8-2.6,0.4-3.4c1.1-0.8,2.2,0.2,3.2,0.6c18.8,7.7,38.2,12.5,58.3,14.7c10.2,1.1,20.4,1.2,30.6,0.8
		c17.8-0.7,35.3-3.8,52.3-9.2c5.6-1.8,11-3.7,16.5-5.9c2.2-0.9,2.9-0.4,2.6,2c-1,7-2.1,14-3.1,21.1c-0.3,2.1-0.7,4.2-0.9,6.4
		c-0.2,2.5-1.4,3.9-3.7,4.8c-11.7,4.4-23.6,7.9-35.8,10.2C291,320.7,278.5,322,265.9,321.9z"/>
	<path class="st2" d="M274.7,202.4c0-7,4.3-12.8,10.9-14.2c2.3-0.5,4.6-0.4,6.8,0.5c1.9,0.8,2.1,1.4,0.8,3c-1.3,1.7-1.8,3.5-1,5.6
		c1.1,2.9,4,3.8,6.6,2c1.7-1.2,2.4-0.9,2.8,1.1c1.5,7.6-3.5,15.4-11,16.9c-5,1-9.2-0.7-12.5-4.6
		C275.7,209.8,274.6,206.5,274.7,202.4z"/>
	<path class="st2" d="M229.5,202.7c0-7.4,4.3-13.1,11-14.5c2.2-0.5,4.5-0.4,6.6,0.5c1.6,0.7,1.7,1.4,0.5,2.6
		c-2.3,2.4-2.5,5.3-0.4,7.5c1.9,1.9,4.3,1.9,6.2-0.1c0.4-0.5,0.8-1.2,1.5-1.1c0.8,0.2,1,1,1.1,1.7c1.8,6.9-2.4,16.4-10.7,18
		c-7.6,1.5-15.5-4.6-15.9-12.7C229.4,204,229.5,203.3,229.5,202.7z"/>
	<g>
		<path class="st2" d="M292.3,417.9c1-0.1,1.9,0.5,2.7,1.2c1.5,1.3,3.1,2.7,4.6,4c0.4,0.4,1,0.9,1.6,0.5c0.6-0.4,0.4-1.1,0.3-1.7
			c-0.2-1.1-0.5-2.3-0.6-3.4c-0.2-1.8,0.4-2.5,2.5-2.9c1.7-0.3,2.5,0.1,2.9,1.8c1,4.7,1.9,9.5,2.8,14.2c0.2,0.9,0.1,1.8-0.9,2.3
			c-1.4,0.6-2.9,1-4.2,0c-1.6-1.1-3-2.4-4.4-3.7c-0.6-0.5-1.2-1.1-1.9-1.5c-1.1-0.7-1.7-0.3-1.6,1c0.1,1.4,0.5,2.8,0.7,4.2
			c0.3,1.9-0.1,2.4-2.2,2.9c-2,0.4-2.8,0.1-3.2-1.8c-1-4.7-1.9-9.5-2.8-14.2C288.3,418.8,289.6,417.9,292.3,417.9z"/>
		<path class="st2" d="M321.4,410.4c4.7-0.1,7.9,2.3,9.3,6.4c1.3,4.2,0.1,8.2-3.4,10.6c-2.7,1.9-5.9,2.7-9,3.7
			c-1.2,0.4-1.9-0.4-2.3-1.4c-0.7-1.7-1.2-3.4-1.9-5.1c-1-2.8-2-5.6-2.9-8.4c-0.6-1.9-0.4-2.6,1.5-3.3
			C315.7,411.9,318.6,410.7,321.4,410.4z M321.1,415.7c-2.2,0-3.6,1-3.2,2.5c0.5,1.8,1.1,3.5,1.8,5.3c0.4,1,1.3,1.3,2.3,1
			c2.1-0.5,3.6-2.7,3.3-4.9C325.2,417.3,323.4,415.7,321.1,415.7z"/>
		<path class="st2" d="M165.1,384.9c5.8,0,10.5,4.7,10.5,10.3c-0.1,5.4-4.6,9.9-10,9.8c-5.9-0.1-10.5-4.8-10.4-10.6
			C155.2,388.9,159.4,384.9,165.1,384.9z M160.7,395.2c0,2.4,2.1,4.5,4.4,4.5c2.5,0,4.9-2.5,4.8-5.1c0-2.4-2.1-4.4-4.5-4.3
			C162.9,390.3,160.7,392.6,160.7,395.2z"/>
		<path class="st2" d="M368.3,382.9c1.1,0,1.7,0.9,2.2,1.8c0.5,0.9,0.2,1.7-0.6,2.4c-1.2,1-2.5,2-3.7,3c-0.4,0.3-0.8,0.7-1.2,1.1
			c-0.4,0.5-0.5,1-0.1,1.5c0.4,0.5,1,0.4,1.5,0.1c1.3-1,2.6-2,4-3c1.3-1,2.4-0.8,3.3,0.3c0.9,1.1,0.8,2.1-0.2,3c-1.2,1-2.5,2-3.7,3
			c-0.6,0.5-1.3,1.1-0.7,1.9c0.7,0.9,1.5,0.4,2.2-0.1c1.4-1,2.8-2.1,4.2-3.2c1.5-1.1,2.5-1,3.6,0.3c1,1.3,0.9,2.4-0.5,3.5
			c-2.8,2.2-5.6,4.4-8.5,6.6c-1.1,0.9-2.2,1-3.1-0.2c-3.1-3.9-6.2-7.9-9.2-11.8c-0.8-1-0.7-2.1,0.4-2.9c2.9-2.3,5.8-4.5,8.7-6.8
			C367.1,383.2,367.6,382.9,368.3,382.9z"/>
		<path class="st2" d="M231.7,417.5c0,2.1-1.1,3.1-3.2,2.6c-1.7-0.4-3.3-0.9-4.9-1.3c-0.8-0.2-1.8-0.5-2.1,0.7
			c-0.3,1.1,0.6,1.4,1.5,1.6c1.3,0.4,2.6,0.7,4,1.1c1.6,0.5,2.1,1.4,1.7,2.8c-0.4,1.5-1.2,1.9-2.9,1.5c-1.4-0.4-2.9-0.8-4.3-1.1
			c-0.8-0.2-1.8-0.2-2,0.8c-0.2,1,0.7,1.3,1.4,1.5c1.7,0.5,3.5,1,5.2,1.5c1.7,0.5,2.2,1.3,1.7,2.9c-0.5,1.7-1.2,2.1-3,1.7
			c-3.5-0.9-7-1.9-10.5-2.9c-1.4-0.4-2-1.4-1.6-2.8c1.3-4.7,2.6-9.4,3.9-14.1c0.4-1.4,1.4-1.9,2.8-1.5c3.6,1,7.1,2,10.6,3
			C231,415.9,231.7,416.4,231.7,417.5z"/>
		<path class="st2" d="M246.8,430.4c-1.4-0.2-2.7-0.4-4.1-0.6c-1-0.1-2.2-0.4-2.4,0.9c-0.2,1.4,1.1,1.4,2,1.6
			c1.6,0.3,3.3,0.5,4.9,0.7c1.7,0.3,2.3,1.1,2.1,2.7c-0.2,1.6-1,2.2-2.8,2c-3.5-0.5-7.1-1-10.6-1.6c-1.7-0.3-2.3-1-2-2.7
			c0.7-4.7,1.3-9.4,2.1-14c0.3-1.9,1-2.4,2.8-2.1c3.4,0.5,6.9,1,10.3,1.5c1.8,0.3,2.4,1.1,2.2,2.8c-0.2,1.6-1.1,2.2-2.8,1.9
			c-1.7-0.2-3.4-0.5-5.1-0.7c-0.8-0.1-1.8-0.2-2,0.9c-0.2,1.1,0.8,1.3,1.6,1.5c1.5,0.3,2.9,0.4,4.4,0.7c1.5,0.2,2.1,1.1,1.9,2.6
			C249,429.9,248.2,430.6,246.8,430.4z"/>
		<path class="st2" d="M394.2,382.3c-2.3-1.1-3.7,0.5-5.3,2c-1.2,1.2-1.7,2.4-1.2,4.1c0.4,1.5-1.1,3.8-2.6,4.3
			c-0.9,0.2-1.4-0.2-1.7-0.9c-2.2-5.2-4.5-10.4-6.5-15.7c-0.9-2.4,2.1-5.5,4.5-4.6c5.3,1.9,10.4,4,15.6,6.2c1.3,0.5,1.5,1.6,0.5,2.6
			C396.7,381.2,395.9,382.3,394.2,382.3z M386.3,379.9c-0.1-0.7-0.6-1.1-1.2-1.1c-0.6-0.1-0.9,0.3-0.9,0.9c0.1,0.7,0.4,1.2,1.1,1.2
			C385.9,380.9,386.2,380.5,386.3,379.9z"/>
		<path class="st2" d="M282.3,438.4c-1.2,0.1-2.2-0.3-2.9-1.6c-0.6-1.2-1.6-1.6-2.9-1.5c-0.9,0.1-1.8,0.1-2.6,0.1
			c-1.4,0-2.3,0.6-2.9,1.8c-0.9,1.7-3,2.4-4.8,1.6c-1.3-0.6-0.9-1.6-0.6-2.5c1.5-4.2,3.1-8.5,4.6-12.7c0.1-0.3,0.2-0.6,0.4-0.9
			c1.1-2.9,2.1-3.5,5.2-3.2c1.1,0.1,1.7,0.7,2.1,1.6c2.3,4.8,4.7,9.7,6.9,14.6C285.8,437.5,285,438.4,282.3,438.4z M275.9,429.5
			c-0.1-0.6-0.3-1.2-1-1.2c-0.7,0-0.9,0.6-0.9,1.1c0,0.7,0.2,1.2,1,1.2C275.6,430.6,275.8,430.1,275.9,429.5z"/>
		<path class="st2" d="M148.6,370.1c4.9,0,9.4,3.9,10.1,8.8c0.1,1,0.3,2.2-1,2.7c-1.3,0.5-3.4-0.1-3.9-1.2c-0.3-0.5-0.4-1-0.6-1.5
			c-0.8-2.2-2.5-3.3-4.7-3c-2.1,0.3-4.1,2.4-4.3,4.6c-0.2,1.8,1.2,3.8,3.4,4.3c1.7,0.4,2.6,1.3,2.7,3c0.2,1.8-0.4,2.5-2.3,2.5
			c-4-0.1-8.2-3.7-9-7.9C137.5,376,142.2,370.1,148.6,370.1z"/>
		<path class="st2" d="M174,411.8c0-0.9,0.4-1.5,0.7-2.1c2.2-3.8,4.3-7.5,6.5-11.3c1.3-2.2,2.1-2.4,4.3-1.1c2.8,1.6,5.5,3.1,8.3,4.7
			c1.8,1,2.1,1.9,1.2,3.5c-0.9,1.6-1.8,1.9-3.5,0.9c-1.3-0.7-2.6-1.5-3.9-2.2c-0.9-0.5-2-1.3-2.7,0.1c-0.7,1.3,0.6,1.8,1.4,2.4
			c1.1,0.7,2.2,1.3,3.3,1.9c1.3,0.7,1.6,1.7,0.9,3c-0.8,1.5-1.8,1.8-3.3,1.1c-1.3-0.7-2.5-1.4-3.7-2.1c-1.3-0.7-2.3-0.4-3.1,0.9
			c-0.3,0.5-0.5,1-0.8,1.4c-0.5,0.8-1,1.7-2.1,1.6c-1.3-0.2-2.4-0.8-3.2-1.9C174,412.2,174,411.9,174,411.8z"/>
		<path class="st2" d="M209.2,418.7c0,2-1.5,3.1-3.4,2.4c-1.3-0.5-2.6-1.1-4-1.6c-1.3-0.5-2.2-0.1-2.8,1.2c-0.2,0.4-0.4,0.8-0.5,1.2
			c-0.9,2.7-2.5,2.8-5,1.1c-0.8-0.5-0.9-1.4-0.5-2.2c1.9-4.7,3.9-9.3,5.8-14c0.5-1.2,1.5-1.5,2.7-1c3.4,1.4,6.9,2.9,10.3,4.4
			c1.4,0.6,1.5,1.7,1,3c-0.7,1.5-1.5,2-3,1.4c-1.6-0.6-3.2-1.3-4.9-2c-0.9-0.3-1.9-0.6-2.4,0.6c-0.4,1.1,0.6,1.5,1.3,1.9
			c1.2,0.6,2.5,1.1,3.8,1.6C208.5,417.1,209.2,417.6,209.2,418.7z"/>
		<path class="st2" d="M352.7,394.4c1.4,0.1,1.8,1,2.3,2c0.4,0.9,0.2,1.7-0.6,2.3c0,0-0.1,0.1-0.1,0.1c-2.9,2.4-2.9,2.4-1,5.6
			c1.2,2.1,2.5,4.1,3.7,6.2c1,1.8,0.8,2.7-1.1,3.8c-1.8,1.1-2.6,0.9-3.7-0.8c-1.5-2.4-2.9-4.9-4.4-7.3c-1.3-2.2-1.8-2.3-4.1-1.1
			c-1.9,1-3,0.6-3.8-1.3c-0.4-1-0.3-1.9,0.6-2.5c3.7-2.4,7.4-4.7,11.3-6.7C352.1,394.5,352.4,394.5,352.7,394.4z"/>
		<path class="st2" d="M404.2,351.3c2.6,0,4.6,2,4.6,4.6c0,2.5-2.2,4.6-4.7,4.6c-2.5,0-4.7-2.2-4.6-4.6
			C399.6,353.2,401.6,351.3,404.2,351.3z"/>
		<path class="st2" d="M133.8,356.3c0,2.7-2,4.8-4.6,4.7c-2.4,0-4.5-2.1-4.6-4.5c0-2.6,2-4.7,4.5-4.7
			C131.7,351.8,133.7,353.8,133.8,356.3z"/>
	</g>
</g>
<g>
	<path class="st3" d="M267.7,378.9c0-2.3,0-4.5,0-6.8c0-1.4-0.6-2.3-2.1-2.4c-1.5-0.1-2.3,0.6-2.5,2.2c-0.2,1.6-0.4,3.3-0.3,4.9
		c0.1,3-0.1,6-0.4,9.1c-0.1,1.1-0.4,2.2-1.8,2c-1.3-0.2-1.3-1.2-1.2-2.3c0.3-4.3,0.5-8.7,0.7-13c0.1-2-0.5-2.8-2-3
		c-1.7-0.2-2.4,0.2-2.6,1.9c-0.5,4-0.9,8.1-1.3,12.1c-0.1,0.8-0.2,1.5-0.4,2.3c-0.2,0.9-0.8,1.4-1.8,1.3c-1-0.2-1.2-0.9-1.1-1.7
		c0.3-2.6,0.6-5.2,0.9-7.9c0.2-1.8,0.5-3.6,0.7-5.4c0.2-2-0.3-2.9-1.7-3.2c-1.6-0.3-2.5,0.4-2.9,2.3c-0.7,3.5-1.2,6.9-1.9,10.4
		c-0.1,0.6-0.2,1.3-0.3,2c-0.2,1.1-0.4,2.5-2,2.2c-1.6-0.3-1.3-1.7-1.1-2.8c0.7-3.9,1.5-7.9,2.3-11.8c0.3-1.3,0.4-2.6-1.4-3
		c-1.8-0.4-2.7,0.1-3.2,1.9c-0.9,3.5-1.7,7.1-2.6,10.6c-0.1,0.6-0.3,1.2-0.5,1.8c-0.3,1-0.9,1.9-2.1,1.5c-1.3-0.4-1.2-1.4-0.9-2.4
		c1-3.7,2-7.4,3-11.1c0.3-1.3,0.8-2.7-1.1-3.3c-1.7-0.6-2.8,0-3.5,2c-0.7,2.1-1.4,4.3-2.1,6.4c-0.5,1.5-1,3-1.5,4.5
		c-0.4,1-0.9,1.9-2.2,1.5c-1.3-0.4-1.3-1.5-0.9-2.6c1.1-3.1,2.2-6.2,3.3-9.3c0.1-0.4,0.3-0.7,0.4-1.1c0.4-1.2,0.5-2.3-1-2.9
		c-1.6-0.6-2.8-0.3-3.5,1.2c-0.8,1.7-1.4,3.5-2.1,5.2c-0.7,1.6-1.3,3.3-2,4.9c-0.5,1.1-1.1,2.1-2.4,1.5c-1.4-0.6-1-1.8-0.5-2.8
		c1.2-2.9,2.5-5.8,3.7-8.6c0.8-1.8,0.6-2.6-0.7-3.2c-1.7-0.7-2.9-0.3-3.7,1.3c-1.2,2.5-2.4,4.9-3.6,7.4c-0.2,0.4-0.4,0.9-0.7,1.3
		c-0.5,0.9-1.2,1.5-2.3,0.9c-1-0.5-0.9-1.4-0.5-2.3c1-2.1,2.1-4.1,3.1-6.2c0.3-0.6,0.6-1.1,0.9-1.7c0.5-1.1,0.8-2.1-0.5-2.9
		c-1.5-0.9-2.9-0.9-3.8,0.5c-1.1,1.7-2.1,3.5-3.1,5.2c-0.4,0.8-0.9,1.5-1.3,2.3c-0.6,1-1.4,1.7-2.6,1c-1.1-0.7-0.8-1.7-0.3-2.6
		c1.2-2,2.5-4,3.7-6.1c1.1-1.8,1-2.6-0.2-3.4c-1.5-1-2.8-0.7-3.9,0.9c-1.3,1.8-2.6,3.7-3.8,5.6c-0.6,0.9-1.4,1.7-2.6,0.9
		c-1.2-0.8-0.7-1.8-0.1-2.7c1.2-1.8,2.5-3.6,3.8-5.4c0.7-1,0.9-2-0.3-2.9c-1.4-1-2.6-1.2-3.5-0.1c-1.2,1.3-2.3,2.8-3.4,4.2
		c-0.3,0.4-0.7,0.9-1,1.3c-0.6,0.7-1.4,1.2-2.3,0.5c-0.9-0.7-0.8-1.7-0.2-2.5c1.2-1.6,2.5-3.1,3.7-4.6c1.3-1.6,1.1-2.7-0.6-3.8
		c-1.1-0.7-2-0.6-2.9,0.3c-1.3,1.4-2.6,2.9-3.9,4.3c-0.7,0.8-1.6,1.6-2.7,0.7c-1.1-1-0.5-2,0.3-2.9c1.2-1.3,2.5-2.7,3.7-4
		c1.2-1.3,1.2-2.1-0.1-3.4c-1.3-1.3-2.1-1.3-3.4-0.1c-1.4,1.3-2.8,2.6-4.3,3.9c-0.7,0.7-1.6,1.1-2.5,0.3c-0.9-0.9-0.6-1.8,0.2-2.6
		c1.4-1.3,2.8-2.6,4.2-4c1.4-1.4,1.4-2.4,0.1-3.8c-1-1.1-1.8-1.1-3.4,0.2c-1.3,1-2.5,2.1-3.8,3.2c-0.9,0.8-2,1.8-3.1,0.4
		c-1.2-1.4,0.2-2.2,1.1-2.9c1.5-1.3,3-2.4,4.5-3.6c1.4-1.2,1.5-2.1,0.5-3.6c-0.9-1.3-1.7-1.6-3-0.7c-1.7,1.1-3.3,2.4-5,3.6
		c-0.4,0.3-0.9,0.6-1.4,0.9c-0.8,0.4-1.5,0.2-2-0.5c-0.5-0.7-0.3-1.4,0.3-1.9c0.4-0.4,0.9-0.8,1.4-1.1c1.8-1.3,3.6-2.5,5.4-3.8
		c1.3-1,1.4-2.3,0.5-3.8c-0.9-1.4-2.1-0.9-3.2-0.3c-2.1,1.3-4.2,2.6-6.3,3.9c-1,0.6-2.1,1.1-2.8-0.2c-0.7-1.2,0.2-2,1.1-2.5
		c2.4-1.4,4.8-2.9,7.2-4.3c0.8-0.5,1.6-1,1.6-2.1c0-1-0.2-2-1.1-2.7c-0.9-0.7-1.8-0.1-2.6,0.4c-2.6,1.4-5.1,2.8-7.7,4.1
		c-1,0.5-2.1,1.1-2.8-0.4c-0.6-1.4,0.4-2,1.4-2.5c2.9-1.5,5.9-3,8.8-4.4c0.8-0.4,1.7-0.9,1.8-1.9c0.1-1,0-2-0.8-2.8
		c-0.8-0.8-1.7-0.3-2.4,0c-2.6,1.1-5.2,2.3-7.8,3.5c-0.9,0.4-1.8,0.8-2.8,1.1c-0.9,0.3-1.7,0.1-2.1-0.8c-0.3-0.9,0.1-1.5,0.8-1.9
		c0.5-0.3,1-0.5,1.5-0.7c3.1-1.3,6.3-2.6,9.4-4c0.5-0.2,0.9-0.4,1.3-0.6c1.3-0.8,1.6-2.1,0.9-3.4c-0.7-1.3-1.7-1.2-2.8-0.8
		c-3.7,1.3-7.3,2.7-11,4c-0.6,0.2-1.2,0.4-1.7,0.5c-0.8,0.1-1.4-0.3-1.6-1.1c-0.3-0.8,0.1-1.4,0.8-1.8c0.5-0.3,1.1-0.5,1.7-0.7
		c3.4-1.1,6.8-2.3,10.2-3.4c0.7-0.2,1.5-0.5,2.1-0.9c1.2-0.7,1.6-1.9,1-3.3c-0.5-1.3-1.5-1.3-2.6-1c-4.1,1.2-8.2,2.4-12.4,3.5
		c-1.2,0.3-2.5,1-3.3-0.7c-0.5-1.1,0.4-1.8,2.5-2.4c4.2-1.1,8.4-2.2,12.6-3.3c1-0.3,1.9-0.6,2.1-1.8c0.3-2-0.8-3.2-2.9-2.8
		c-3.9,0.8-7.7,1.6-11.6,2.5c-0.9,0.2-1.8,0.4-2.8,0.5c-0.9,0.1-1.7-0.1-1.9-1.1c-0.3-1.1,0.4-1.7,1.3-1.9c0.7-0.2,1.5-0.4,2.2-0.5
		c4.1-0.8,8.2-1.5,12.3-2.4c2-0.4,2.6-1.9,1.7-3.6c-0.7-1.3-1.8-1.1-2.9-0.9c-4.2,0.6-8.4,1.2-12.6,1.8c-0.7,0.1-1.4,0.2-2.1,0.2
		c-0.7,0-1.3-0.4-1.4-1.1c-0.1-0.7,0.2-1.3,0.8-1.6c0.6-0.3,1.4-0.4,2.1-0.5c4.3-0.5,8.5-1,12.8-1.5c2.1-0.3,2.6-0.8,2.4-2.3
		c-0.2-1.8-1.2-2.5-3.1-2.3c-4.3,0.3-8.7,0.6-13,0.9c-0.5,0-1,0-1.5,0c-0.8-0.1-1.3-0.6-1.3-1.4c0-0.8,0.4-1.3,1.1-1.4
		c1.2-0.2,2.4-0.4,3.6-0.4c3.4-0.2,6.8-0.3,10.2-0.4c2-0.1,2.8-0.7,2.7-2.3c-0.1-1.8-0.8-2.4-2.8-2.4c-4,0-7.9,0-11.9,0
		c-0.6,0-1.2,0-1.8-0.1c-0.8-0.1-1.4-0.6-1.5-1.5c0-0.9,0.6-1.4,1.4-1.6c0.5-0.1,1.1-0.1,1.6-0.1c3.6,0.1,7.1-0.2,10.7,0.3
		c2.1,0.2,2.8-0.3,2.9-1.7c0.2-2.1-0.8-3.1-2.8-3.2c-3.6-0.2-7.2-0.5-10.9-0.7c-0.4,0-0.9-0.1-1.3-0.2c-0.8-0.3-1.4-0.7-1.3-1.7
		c0.1-1,0.8-1.3,1.6-1.3c1.9,0.1,3.7,0.2,5.6,0.4c1.6,0.1,3.3,0.4,4.9,0.5c1.2,0.1,2.6,0.3,2.8-1.5c0.2-1.7-0.7-3.1-2.3-3.4
		c-2.4-0.4-4.9-0.7-7.4-1c-0.9-0.1-1.9-0.2-2.8-0.4c-1-0.2-1.6-0.8-1.5-1.8c0.1-1.1,1-1.4,2-1.3c2.5,0.4,5,0.8,7.5,1.1
		c1.1,0.1,2.5,0.8,3.1-0.9c0.5-1.6-0.6-3.5-2.3-4c-1.9-0.5-3.9-0.9-5.8-1.3c-0.4-0.1-0.9-0.2-1.3-0.3c-1-0.3-1.9-0.8-1.6-2.1
		c0.3-1.1,1.3-1.3,2.3-1.1c1.8,0.4,3.5,0.8,5.3,1.2c1.2,0.3,2.6,0.7,3.1-1.1c0.6-2.1,0-3.2-2-3.8c-1.7-0.5-3.4-1-5.1-1.5
		c-1-0.3-1.8-0.9-1.4-2c0.3-1.3,1.4-1.3,2.4-1c1.7,0.5,3.5,1.1,5.2,1.6c2,0.5,3.6-0.8,3.6-2.8c0-0.8-0.5-1.3-1.2-1.6
		c-1-0.4-2.1-0.8-3.1-1.2c-1-0.4-2.1-0.7-3.1-1.2c-0.9-0.4-1.5-1-1.1-2c0.4-1.1,1.4-1.2,2.3-0.9c2.3,0.8,4.6,1.7,6.9,2.6
		c1.3,0.5,2.4,0.2,3.4-0.8c1.5-1.5,1.4-2.4-0.5-3.2c-2.3-1.1-4.6-2.1-6.9-3.1c-0.4-0.2-0.8-0.4-1.2-0.6c-0.8-0.5-1.2-1.1-0.8-2.1
		c0.4-0.9,1.2-1.2,2.1-0.8c1.8,0.8,3.6,1.6,5.4,2.4c1.7,0.8,3.5,1.6,5.2,2.4c0.7,0.3,1.5,0.5,2.2,0.2c1-0.5,2.2-0.8,2.4-2
		c0.2-1.2-1.1-1.6-1.9-2c-3.1-1.7-6.3-3.3-9.5-5c-2-1-2.6-2-2-3.1c0.6-1.1,1.5-1.1,3.6,0.1c3.9,2.2,7.9,4.4,11.8,6.7
		c1.3,0.8,2.7,1.3,4.2,0.5c0.7-0.4,1.5-0.6,1.6-1.5c0.1-0.8-0.7-1.2-1.3-1.6c-4.2-2.6-8.4-5.3-12.6-7.9c-0.8-0.5-1.6-1-2.3-1.5
		c-0.7-0.5-1.1-1.3-0.5-2.1c0.5-0.8,1.3-0.9,2.2-0.5c0.4,0.1,0.7,0.3,1,0.6c5.1,3.4,10.3,6.8,15.4,10.2c1.9,1.3,2.1,2,0.7,3.9
		c-2.6,3.7-4.6,7.8-5.8,12.1c-0.5,1.8-1.5,3.1-2.9,4.2c-4.5,3.6-6.3,8.3-5.4,14c2,12,4,24,6.1,36c1.8,10.6,3.6,21.1,5.9,31.6
		c4.7,21.4,17.7,35.3,38,42.6c11,3.9,22.4,6,34,7.1c6.7,0.6,13.4,0.9,20.1,0.6c15.6-0.7,31-2.5,45.7-8.4c11.5-4.6,21-11.6,28-22
		c1.6-2.4,3.6-3.6,6.4-4.1c10.1-2,19.7-5.6,28.1-11.7c7.7-5.6,13.7-12.6,16.9-21.7c2.5-7.2,3.5-14.6,1.2-22
		c-3.3-11-10.8-17.3-22-19.3c-2.8-0.5-5.7-0.5-8.5-0.2c-2.3,0.3-2.9-0.4-2.6-2.7c0.4-2.8,1.4-5.4,1.4-8.3c-0.1-4.1-1.5-7.7-4.4-10.5
		c-1.6-1.5-2.7-3.2-3.2-5.4c-1-3.7-2.7-7.1-4.7-10.3c-1.2-2-1-2.6,1-3.8c5.2-3.3,10.4-6.6,15.6-9.8c0.5-0.3,0.9-0.6,1.4-0.8
		c0.7-0.3,1.4-0.2,1.9,0.5c0.5,0.7,0.4,1.5-0.3,2.1c-0.5,0.4-1.1,0.8-1.6,1.1c-4.2,2.5-8.5,5-12.7,7.6c-0.9,0.5-2.4,0.8-2,2.4
		c0.2,0.9,2.7,1.9,3.9,1.5c0.7-0.2,1.4-0.6,2.1-1c3.8-2,7.7-4.1,11.5-6.2c0.5-0.3,1.1-0.5,1.7-0.7c0.7-0.2,1.3,0,1.7,0.6
		c0.4,0.7,0.4,1.4-0.3,1.9c-0.5,0.4-1,0.7-1.5,1c-3.1,1.6-6.3,3.1-9.4,4.7c-1,0.5-2.4,0.8-1.9,2.4c0.3,1,2.4,2.1,3.6,1.9
		c0.7-0.1,1.4-0.4,2-0.7c2.7-1.2,5.3-2.4,8-3.6c1.1-0.5,2.4-1.4,3.3,0.1c0.6,1,0,1.9-2,2.8c-2.3,1-4.6,1.9-6.8,2.9
		c-1,0.5-2.3,0.9-1.7,2.5c0.6,1.6,2,2.5,3.5,2c2-0.6,4-1.4,6.1-2.1c0.6-0.2,1.2-0.5,1.9-0.6c1-0.3,1.9-0.3,2.4,0.8
		c0.4,1.2-0.4,1.8-1.3,2.1c-2.2,0.8-4.4,1.5-6.5,2.3c-2,0.7-2.4,1.8-1.4,3.7c0.6,1.3,1.6,1.4,2.8,1c1.9-0.5,3.8-1.1,5.7-1.6
		c0.5-0.2,1.1-0.3,1.6-0.4c0.9-0.1,1.5,0.2,1.8,1.1c0.3,0.9-0.2,1.5-1,1.8c-0.9,0.4-1.9,0.6-2.8,0.9c-1.7,0.5-3.4,0.9-5.1,1.4
		c-1.5,0.4-1.9,1.6-1.7,3c0.3,1.4,1.3,1.9,2.6,1.7c2.2-0.3,4.4-0.8,6.6-1.3c0.5-0.1,1.1-0.2,1.6-0.3c0.7-0.1,1.3,0.2,1.6,0.9
		c0.3,0.6,0.1,1.2-0.3,1.7c-1.2,1.7-1.2,1.7,0.6,2.7c2.3,1.3,4.4,2.7,6.5,4.3c0.5,0.4,1.1,1.1,1.9,0.7c0.8-0.4,0.6-1.4,0.5-2.1
		c-0.9-7.3-2.6-14.5-4.8-21.6c-5.5-17.7-14.4-33.5-26.6-47.5c-12.8-14.7-28.1-26-45.9-34c-1.1-0.5-2.2-1-3.3-1.5
		c-1.8-0.8-2-1.5-0.8-3.2c1.8-2.4,3.5-4.9,5-7.6c3.9-7.1,6-14.7,6.5-22.8c0.6-10.1-1.5-19.7-6.2-28.6c-0.1-0.2-0.2-0.4-0.3-0.6
		c-0.3-0.6-0.7-1.2-0.2-1.9c0.5-0.7,1.3-0.4,2-0.2c5.9,1.7,11.7,3.8,17.4,6.2c19.1,7.9,36.6,18.5,52.4,31.9
		c17.9,15.3,32.7,33.1,44.3,53.7c12.6,22.4,20.4,46.5,23.5,72c1.2,9.7,1.7,19.4,1.4,29.1c-0.9,26.1-6.5,51.2-17.3,75.1
		c-8.3,18.2-19,34.7-32.3,49.6c-14.9,16.7-32.1,30.4-51.7,41.2c-14.5,8-29.7,14-45.7,18.1c-10.9,2.8-22.1,4.6-33.3,5.4
		c-6.2,0.5-12.4,0.8-18.6,0.6c-18.2-0.4-36.1-3.1-53.6-8.5c-10.7-3.3-21-7.3-30.9-12.4c-15.3-7.8-29.4-17.4-42.2-28.9
		C119.1,394,105,376.3,94.1,356c-11.5-21.4-18.6-44.1-21.7-68.2c-1.4-11.2-1.7-22.5-1.2-33.8c0.9-20.6,5.1-40.5,12.4-59.8
		c7.8-20.5,18.7-39.1,32.7-55.8c16.5-19.8,36.2-35.7,59-47.8c10.6-5.6,21.6-10.1,33-13.8c0.8-0.3,1.6-0.5,2.4-0.7
		c0.7-0.2,1.4-0.6,2,0.1c0.6,0.7,0,1.4-0.4,1.9c-3.7,5.9-6.7,12.1-8.8,18.8c-1.9,6.3-3,12.7-3.4,19.3c-0.5,9.5,0.9,18.6,3.8,27.6
		c0.7,2.2,0.4,2.8-1.6,3.9c-12.9,7.1-24.2,16.2-34,27.1c-18.6,20.7-29.7,44.9-33.2,72.5c-2.9,23.3,0.2,45.8,9.3,67.4
		c5.8,13.9,13.9,26.5,24,37.7c11.2,12.4,24.4,22.4,39.3,29.8c15,7.5,30.8,11.9,47.5,13.3c26.2,2.2,50.9-2.9,74-15.3
		c22.5-12.1,40-29.4,52.7-51.6c0.7-1.2,1.4-2.5,2-3.8c0.2-0.4,0.4-1,0-1.4c-0.4-0.3-0.9-0.1-1.2,0.1c-3,1.7-6.1,3.3-9.1,5
		c-0.7,0.4-1.1,1-1.5,1.7c-0.6,1.1-1.5,1.6-2.8,1.1c-1.7-0.6-3.3,0.1-4.7,0.8c-1.1,0.5-1.1,1.3-0.2,2.1c0.6,0.6,1.3,1,1.9,1.6
		c0.7,0.7,0.9,1.5,0.2,2.3c-0.6,0.8-1.5,0.7-2.2,0.1c-1.5-1-2.9-2.1-4.4-3.2c-1.6-1.3-3.3-0.9-5-0.2c-1.1,0.5-1.2,1.4-0.1,2.4
		c1.7,1.5,3.5,2.9,5.1,4.4c0.9,0.8,2.4,1.6,1.3,3.2c-0.7,1-1.7,0.7-3.3-0.7c-1.6-1.4-3.2-2.7-4.7-4.1c-1.4-1.2-2.3-1.3-3.4-0.1
		c-1.2,1.3-1.3,2.3,0,3.6c1.2,1.3,2.5,2.4,3.8,3.6c0.4,0.4,0.9,0.8,1.3,1.2c0.8,0.9,1.4,1.8,0.4,2.9c-1,0.9-1.9,0.4-2.7-0.4
		c-1.6-1.5-3.1-3.1-4.6-4.8c-1.5-1.7-2.6-1.7-4.1,0.1c-0.8,1-0.7,1.9,0,2.8c1.5,1.7,3,3.4,4.5,5.1c0.2,0.2,0.4,0.4,0.6,0.6
		c0.6,0.8,0.9,1.7,0.1,2.5c-0.9,0.8-1.7,0.5-2.4-0.3c-1.7-1.9-3.3-3.8-5-5.7c-1.2-1.3-2-1.3-3.4-0.2c-1.2,0.9-1.4,1.9-0.5,3.1
		c0.9,1.2,1.9,2.4,2.8,3.6c0.6,0.8,1.2,1.6,1.8,2.4c0.7,0.9,1,1.9-0.1,2.7c-1.1,0.8-1.9,0-2.5-0.8c-1.6-2.1-3.1-4.1-4.6-6.2
		c-0.9-1.2-2-1.4-3.3-0.6c-1.4,0.9-1.7,1.7-0.8,3.1c1.3,2,2.7,4,4,6.1c0.3,0.4,0.6,0.8,0.8,1.3c0.4,0.8,0.3,1.6-0.5,2.2
		c-0.8,0.5-1.5,0.3-2.1-0.4c-0.4-0.5-0.8-1.1-1.1-1.6c-1.3-2-2.6-4.1-3.9-6.1c-0.9-1.4-2.1-1.6-3.6-0.7c-1.3,0.8-1.4,1.6-0.5,3.2
		c1.2,2.2,2.5,4.3,3.7,6.4c0.3,0.5,0.5,1,0.8,1.5c0.3,0.8,0.3,1.5-0.5,2c-0.8,0.5-1.6,0.3-2.2-0.5c-0.5-0.6-0.9-1.3-1.2-1.9
		c-1.3-2.3-2.5-4.5-3.7-6.8c-0.9-1.6-2-1.8-3.6-0.9c-1.5,0.8-1.2,1.9-0.6,3.1c1.2,2.5,2.4,5.1,3.6,7.6c0.2,0.5,0.5,1,0.7,1.5
		c0.3,0.8,0.1,1.6-0.7,2c-0.8,0.4-1.6,0.2-2-0.6c-0.6-1-1.1-2-1.6-3.1c-1.1-2.3-2.2-4.7-3.3-7c-0.6-1.3-1.6-1.7-3-1.4
		c-1.6,0.4-2.1,1.3-1.5,2.8c1.1,3,2.4,5.9,3.6,8.9c0.2,0.6,0.5,1.2,0.7,1.9c0.2,0.9-0.1,1.7-1,2c-0.9,0.3-1.5-0.1-1.9-0.9
		c-0.2-0.4-0.4-0.8-0.5-1.2c-1.2-3.2-2.5-6.5-3.7-9.7c-0.5-1.2-1.1-2.2-2.6-2c-1.9,0.2-2.6,1.2-2.1,3c1,3.2,2,6.3,3,9.4
		c0.2,0.6,0.4,1.1,0.5,1.7c0.3,1,0.3,2.1-0.9,2.5c-1.3,0.4-1.8-0.5-2.1-1.5c-1.2-3.9-2.4-7.8-3.6-11.7c-0.3-1.1-0.9-2-2.3-2
		c-2,0-2.9,1-2.4,2.9c0.9,3.6,1.8,7.3,2.7,10.9c0.1,0.5,0.3,1.1,0.4,1.6c0.1,0.9,0,1.8-1.1,2.1c-1.1,0.3-1.6-0.4-1.9-1.3
		c-0.1-0.4-0.2-0.8-0.3-1.3c-0.9-3.8-1.7-7.6-2.6-11.4c-0.2-1-0.5-2.1-1.7-2.3c-2.1-0.4-3.3,0.7-3,2.9c0.6,3.7,1.3,7.5,2,11.2
		c0.1,0.9,0.3,1.7,0.3,2.6c0,0.7-0.5,1.2-1.2,1.4c-0.8,0.2-1.4-0.2-1.6-0.9c-0.3-0.8-0.5-1.7-0.6-2.6c-0.6-3.7-1.1-7.5-1.7-11.3
		c-0.1-0.9-0.3-1.9-1.2-2.4c-0.9-0.5-1.8-0.4-2.7,0c-0.9,0.5-1,1.4-0.9,2.3c0.4,4.2,0.9,8.4,1.3,12.6c0,0.3,0.1,0.7,0.1,1
		c0,1.1-0.1,2.1-1.4,2.2c-1.3,0.1-1.7-0.9-1.8-1.9c-0.2-2.7-0.5-5.5-0.7-8.2c-0.1-1.8-0.2-3.6-0.4-5.4c-0.2-1.8-0.9-2.5-2.7-2.3
		c-1.7,0.2-2.1,0.9-2.1,2.7c0.2,4.2,0.3,8.5,0.4,12.7c0,0.4,0,0.9-0.1,1.3c-0.1,0.9-0.5,1.6-1.5,1.7c-1.1,0-1.5-0.7-1.7-1.7
		c-0.1-0.5-0.1-1-0.1-1.5C267.7,382.9,267.7,380.9,267.7,378.9C267.7,378.9,267.7,378.9,267.7,378.9z M268,450.5
		c4.6-0.3,10.9-0.3,17.2-1c24-2.5,46.6-9.3,68-20.5c24.7-13,45.4-30.7,62.3-52.8c7.4-9.7,13.8-20.1,19.1-31.2
		c0.7-1.4,1.3-2.8,0.9-4.4c-0.9-3.4-3.8-5.2-7.2-4.2c-3.2,0.9-6.4,2-9.6,2.9c-4.4,1.3-6.6,0.4-8.9-3.6c-1.8-3-3.5-6.1-5.3-9.2
		c-1.2-2.1-2.8-3.6-5.4-3.5c-2.6,0.1-4.2,1.6-5.3,3.9c-8.1,16.1-18.8,30.3-32.3,42.4c-14.2,12.8-30.3,22.4-48.4,28.6
		c-17.8,6.2-36.2,8.7-55,7.5c-6.9-0.4-13.8-1.3-20.6-2.7c-18.6-3.9-35.8-11.3-51.5-22.1c-9.5-6.5-18-14.1-25.6-22.7
		c-8.4-9.4-15.4-19.9-21.1-31.2c-1.1-2.1-2.7-3.7-5.2-3.8c-2.5-0.1-4.2,1.3-5.4,3.5c-1.8,3.2-3.6,6.4-5.5,9.6
		c-2,3.3-4.5,4.4-8.2,3.3c-3.3-1-6.5-2-9.8-3c-2.4-0.7-4.6-0.4-6.3,1.6c-1.7,2-1.7,4.3-0.5,6.6c1.6,3,3.1,6.1,4.7,9.1
		c10.7,19.4,24.5,36.4,41.2,50.9c13.8,12,29,21.8,45.7,29.3C214.1,444.9,239.6,450.3,268,450.5z M106.8,303.1
		c-0.8-0.1-1.5,0.2-1.7-0.4c-0.2-0.7,0.6-0.9,1.1-1.2c0.5-0.3,1-0.5,1.5-0.7c5.4-2.4,10.8-4.8,16.3-7.3c2.5-1.1,2.9-2,2.3-4.8
		c-0.5-2.7-1.3-3.3-4-3.5c-4.6-0.2-9.1-0.5-13.7-0.7c-2-0.1-3.9-0.3-5.9-0.5c-0.5,0-1.1-0.1-1.1-0.8c0-0.5,0.6-0.6,1-0.7
		c2-0.4,4-0.8,6-1.2c4.2-0.8,8.4-1.5,12.7-2.3c2.4-0.5,3-1.3,2.5-3.7c-0.2-1.2-0.4-2.4-0.7-3.6c-0.5-2.3-1.4-2.9-3.6-2.5
		c-11.6,2.1-23.2,4.2-34.7,6.3c-2.3,0.4-2.8,1.3-2.4,3.6c0.5,3,1.1,6,1.6,8.9c0.5,2.6,1.4,3.3,4.1,3.4c2.7,0.1,5.5,0.2,8.2,0.4
		c1.9,0.1,3.7,0.2,5.6,0.4c0.5,0,1.2,0.2,1.2,0.9c0.1,0.6-0.4,0.8-0.9,1.1c-0.4,0.2-0.8,0.4-1.2,0.6c-3.9,1.7-7.8,3.5-11.8,5.2
		c-2.3,1.1-2.8,1.9-2.3,4.4c0.5,2.8,1,5.6,1.5,8.4c0.6,3,1.2,3.4,4.3,2.9c6.7-1.2,13.4-2.4,20.1-3.6c4.6-0.8,9.2-1.7,13.8-2.5
		c2.4-0.4,3-1.3,2.6-3.7c-0.2-1.3-0.4-2.6-0.7-3.9c-0.5-2-1.3-2.6-3.3-2.3c-2,0.3-3.9,0.7-5.8,1
		C115.2,301.6,110.9,302.4,106.8,303.1z M364.6,157.8c1,0,1.6-0.8,2.2-1.6c1.5-2.1,2.9-4.1,4.4-6.2c5.3-7.6,10.6-15.1,15.9-22.7
		c1.3-1.9,1.2-2.9-0.7-4.3c-2.5-1.8-5.1-3.6-7.7-5.4c-1.9-1.3-2.7-1.2-4.4,0.3c-3.2,2.8-6.4,5.7-9.7,8.4c-0.7,0.6-1.5,2-2.6,1.3
		c-1.1-0.8-0.1-2,0.3-3c1.5-4,3.1-8,4.6-12c0.8-2.1,0.4-2.9-1.4-4.2c-2.6-1.8-5.2-3.7-7.9-5.5c-1.7-1.2-2.7-1-3.9,0.7
		c-6.9,9.8-13.8,19.6-20.6,29.5c-1,1.4-0.8,2.5,0.6,3.6c0.9,0.7,1.8,1.3,2.7,1.9c2.9,2.1,3.5,1.9,5.5-0.9c3.3-4.7,6.6-9.4,10-14.1
		c0.5-0.7,1.1-1.9,1.9-1.5c0.8,0.4,0,1.6-0.3,2.4c-2.3,5.9-4.6,11.8-6.8,17.7c-0.9,2.4-0.6,3.3,1.5,4.7c2.5,1.8,3.3,1.8,5.4,0
		c2.2-2,4.4-4,6.7-5.9c2.7-2.4,5.5-4.7,8.2-7.1c0.4-0.3,0.8-0.8,1.3-0.4c0.6,0.4,0.2,1-0.1,1.5c-1,1.5-2,3-3,4.5
		c-2.6,3.7-5.3,7.5-7.8,11.2c-1.3,1.9-1.1,2.7,0.6,4c1.2,0.9,2.4,1.7,3.6,2.6C363.4,157.5,363.9,157.8,364.6,157.8z M87.5,219.5
		c-0.2,2.2,0.9,2.8,2.3,3.2c7.9,2.6,15.8,5.2,23.7,7.8c3.3,1.1,6.6,2.2,9.9,3.2c1.9,0.6,3,0.2,3.5-1.4c0.6-1.6,1.1-3.3,1.6-5
		c0.4-1.3-0.2-2.3-1.4-2.8c-0.7-0.3-1.4-0.5-2.2-0.8c-4.2-1.4-8.4-2.7-12.5-4.1c-0.7-0.2-1.8-0.4-1.6-1.3c0.1-0.9,1.2-0.8,1.9-0.9
		c1.9-0.2,3.8-0.3,5.7-0.4c3.7-0.3,7.4-0.6,11.2-0.8c1.9-0.1,3-1.1,3.6-2.9c0.5-1.6,1.1-3.2,1.6-4.9c1-3.1,0.6-3.9-2.5-4.9
		c-10.5-3.4-21-6.9-31.5-10.3c-0.5-0.2-0.9-0.3-1.4-0.4c-2.2-0.6-3-0.2-3.8,2c-0.4,1.2-0.8,2.4-1.2,3.6c-0.6,2.2-0.2,3.1,1.9,3.8
		c2.7,0.9,5.3,1.7,8,2.6c2.2,0.7,4.5,1.5,6.7,2.3c0.5,0.2,1.3,0.4,1.2,1.2c-0.1,0.7-0.9,0.7-1.5,0.7c-1.5,0.1-3.1,0.3-4.6,0.4
		c-4.5,0.3-9,0.7-13.5,1c-1,0.1-1.9,0.4-2.3,1.3C88.9,214.3,88.1,217.1,87.5,219.5z M401.9,212.6c0.6,0,1.3-0.4,2-0.7
		c10.4-5.2,20.7-10.5,31.1-15.7c0.2-0.1,0.4-0.2,0.6-0.3c1.5-0.9,1.8-1.7,1.1-3.3c-0.5-1.2-1.1-2.3-1.7-3.4c-1.3-2.7-2.3-2.9-5-1.6
		c-3.9,2-7.7,4-11.6,5.9c-0.5,0.3-1.1,0.5-1.6,0.8c-0.5,0.2-1.2,0.6-1.7,0.1c-0.5-0.6,0.1-1.1,0.4-1.6c0.5-0.7,1-1.3,1.6-1.9
		c3.3-3.8,6.6-7.6,9.9-11.3c1.5-1.6,1.7-3.3,0.6-5.3c-0.8-1.5-1.5-3-2.3-4.6c-1.3-2.5-2-2.7-4.6-1.5c-8.1,4-16.2,8.1-24.3,12.2
		c-2.4,1.2-4.7,2.3-7.1,3.6c-1.8,0.9-2.2,2-1.3,3.8c0.6,1.3,1.2,2.6,1.9,3.8c1,1.8,1.9,2.1,3.8,1.2c1.6-0.8,3.2-1.6,4.9-2.4
		c2.8-1.4,5.6-2.8,8.4-4.2c0.7-0.4,1.7-1.2,2.4-0.3c0.6,0.8-0.4,1.5-0.9,2.1c-1.1,1.4-2.4,2.8-3.6,4.1c-2.5,2.9-5,5.7-7.5,8.6
		c-0.9,1.1-1.7,2.2-1,3.7c1.1,2.3,2.2,4.5,3.4,6.8C400.1,212.1,400.7,212.6,401.9,212.6z M110.2,265.4c9.2,0,14-4,15.2-11.9
		c0.2-1,0.3-2,0.4-2.9c0.1-7.4-2.9-12.8-10.9-14.5c-1-0.2-2.1-0.3-3.1-0.4c-4.8-0.4-9.6-0.8-14.5-1.3c-6.9-0.7-12.3,2.8-14.4,9.4
		c-0.4,1.3-0.6,2.7-0.8,4c-1.1,8.7,3.2,14.8,11.8,16C99.7,264.7,105.6,265,110.2,265.4z M411.8,224.2c0.5,0.1,1,0.1,1.4,0.2
		c1.2,0.4,2.8,0.5,3.2,2c0.3,1.3-0.9,2.1-1.7,3c-2.1,2.3-4.4,4.3-6.4,6.7c-1.1,1.3-1.4,2.7-1,4.3c0.5,1.8,0.8,3.5,1.3,5.3
		c0.2,0.9,0.3,2,1.3,2.3c1.1,0.4,1.7-0.6,2.3-1.2c4.6-4.8,9.3-9.6,13.8-14.4c1.2-1.3,2.5-1.7,4.1-1c0.7,0.3,1.4,0.6,2.1,0.9
		c4.6,1.9,9.2,3.9,13.8,5.8c2.1,0.9,3.1,0.1,2.6-2.2c-0.3-1.8-0.9-3.5-1.2-5.3c-0.4-2.2-1.7-3.6-3.8-4.4c-3.4-1.3-6.8-2.8-10.2-4.3
		c-0.8-0.3-1.9-0.5-1.8-1.6c0.1-1.1,1.3-1,2.1-1.2c2.5-0.6,5-1.2,7.5-1.8c2.1-0.6,2.6-1.4,2.2-3.5c-0.2-1.2-0.5-2.4-0.8-3.5
		c-0.7-2.8-1.4-3.2-4.2-2.6c-6.1,1.4-12.1,2.8-18.2,4.2c-5.2,1.2-10.5,2.4-15.7,3.7c-2.3,0.5-2.8,1.3-2.4,3.5c0.2,1.4,0.6,2.8,1,4.2
		c0.5,2,1.4,2.5,3.4,2.1C408.5,225,410.2,224.6,411.8,224.2z M107.8,172.7c-0.9,0-1.6,0.5-2,1.2c-0.9,1.3-1.7,2.7-2.5,4.1
		c-1,1.7-0.8,2.6,1,3.7c10,6.2,20,12.4,30.1,18.5c2.3,1.4,3.1,1.2,4.6-1.1c0.1-0.1,0.2-0.3,0.3-0.4c3.2-5.2,3.3-5.2-1.9-8.3
		c-1.5-0.9-2.6-2.2-3.3-3.8c-0.8-2.1-0.3-2.9,1.9-2.9c3.5,0.1,6.9-0.4,10.4-0.4c1.5,0,2.7-0.6,3.5-1.9c1.1-1.7,2.2-3.4,3.2-5.2
		c0.5-0.8,1.2-1.7,0.6-2.7c-0.6-1-1.6-0.8-2.5-0.8c-5-0.1-10,0.5-15,0.3c-1.3,0-2.6,0.1-3.9,0.2c-3,0.3-3.7-0.1-4.9-2.9
		c-2-4.9-4.1-9.9-6.1-14.8c-0.4-0.9-0.7-2-1.9-2c-1.1-0.1-1.5,1-2,1.7c-0.9,1.4-1.7,3-2.7,4.4c-1.3,1.8-1.3,3.6-0.4,5.6
		c1.5,3.5,2.9,7,4.4,10.5c0.3,0.7,0.7,1.5,0.1,2.2c-0.7,0.7-1.5,0-2.1-0.3c-2.3-1.3-4.5-2.7-6.8-4.1
		C109.1,173.1,108.5,172.7,107.8,172.7z M370.7,162.8c-0.1,2.3,0.6,4.3,1.7,6.3c1.2,2.2,2.9,4.1,4.7,5.9c4.8,4.6,10.7,5.2,16.2,1.4
		c0.6-0.4,1.3-0.9,1.9-1.4c4.1-3.4,8.3-6.9,12.4-10.4c4.8-4.1,6.2-9.4,4-14.8c-1.7-4.1-4.7-7.2-8.5-9.6c-1.7-1.1-3.7-1.6-5.8-1.6
		c-3.8,0-6.8,1.8-9.6,4.1c-4,3.3-8,6.6-11.9,10C372.7,155.4,370.7,158.6,370.7,162.8z M429.7,250.6c-5.9,0-11.9,0-17.8,0
		c-2,0-2.8,0.6-2.8,2.4c0,7.8,0,15.6,0,23.4c0,1.6,0.9,2.4,2.5,2.5c1.2,0.1,2.4,0.1,3.6,0c3.1,0,3.8-0.7,3.8-3.8c0-3.8,0-7.6,0-11.4
		c0-2.1,0.9-2.9,2.9-2.9c1.9,0,2.8,0.8,2.9,2.8c0.1,2.5,0,4.9,0.1,7.4c0,1.8,0.7,2.5,2.5,2.6c1.4,0.1,2.7,0,4.1,0
		c2.5,0,3.2-0.8,3.2-3.3c0-2.3,0-4.6,0.1-6.9c0.1-1.8,1-2.6,2.7-2.6c2.1,0,3.2,1.1,3,3.4c-0.4,3.9-0.2,7.8-0.1,11.7
		c0,2.2,0.9,3,3.1,3c1,0,2,0,3,0c3.5,0,4.2-0.7,4.2-4.1c0-6.9,0-13.7,0-20.6c0-3-0.7-3.7-3.7-3.7
		C441.1,250.6,435.4,250.6,429.7,250.6z M175,152.5c0-0.8-0.4-1.4-0.9-1.9c-1-1-1.9-2-2.9-2.9c-1.7-1.6-2.7-1.6-4.3,0
		c-2.8,2.8-5.6,5.6-8.4,8.4c-1.6,1.5-2.9,1.6-4.3,0.2c-1.4-1.4-1.3-2.7,0.2-4.3c1.6-1.7,3.3-3.3,4.9-4.9c1.3-1.3,1.2-2.4,0-3.8
		c-0.9-1-1.9-2-2.9-2.9c-1.7-1.6-2.5-1.6-4.2,0c-1.6,1.6-3.2,3.2-4.8,4.7c-1.3,1.2-2.7,1.3-3.9,0.4c-1.8-1.3-1.9-3-0.3-4.6
		c2.7-2.8,5.5-5.5,8.3-8.3c1.7-1.7,1.7-2.7,0-4.5c-0.8-0.8-1.6-1.6-2.4-2.5c-1.9-1.8-2.6-1.8-4.5,0.1c-5.1,5-10.1,10.1-15.2,15.2
		c-2.1,2.1-2.1,2.9,0,5.1c8.3,8.2,16.6,16.4,24.9,24.6c0.1,0.1,0.2,0.2,0.4,0.3c1.1,1.1,2.3,1,3.3-0.1c5.4-5.5,10.9-10.9,16.3-16.4
		C174.6,153.8,175,153.2,175,152.5z M449,290c0-1.8-0.6-2.4-2.1-2.3c-0.6,0-1.2,0.2-1.8,0.3c-6.7,1.4-13.4,2.7-20,4.1
		c-2.2,0.5-4.3,0.5-6.5-0.1c-2.9-0.7-5.8-1.3-8.7-2c-2.4-0.5-3.2,0-3.8,2.3c-0.4,1.8-0.8,3.5-1.2,5.3c-0.4,2.1,0,3,2.2,3.5
		c2.7,0.7,5.4,1.4,8.2,1.9c2.8,0.5,5.1,1.7,7.4,3.4c5.5,4.2,11.1,8.4,16.6,12.5c2,1.5,3,1.1,3.6-1.3c0.4-1.8,0.8-3.5,1.2-5.3
		c0.5-1.9-0.1-3.3-1.7-4.4c-2.2-1.4-4.4-3-6.5-4.5c-0.7-0.5-1.5-0.9-1.4-1.9c0.2-1,1.2-1,2-1.1c2.7-0.5,5.4-0.9,8.1-1.3
		c1.2-0.2,2.2-0.7,2.7-1.9C448.2,294.8,448.6,292.3,449,290z M174.3,116.6c0,0.9,0.1,1.5-0.5,1.8c-0.6,0.4-1.2,0-1.7-0.3
		c-2.3-1.6-4.6-3.2-6.8-4.9c-1.6-1.2-3.1-1.4-4.8-0.2c-1.4,1-2.9,1.8-4.3,2.8c-2.5,1.6-2.6,2.6,0,4.3c6.1,4,12.1,8,18.2,11.9
		c1.5,1,2.7,2.2,3.7,3.7c1.7,2.7,3.4,5.4,5.2,8.1c1.5,2.2,2.3,2.4,4.5,1c1.6-1,3.2-2,4.7-3c1.6-1.1,1.7-2,0.8-3.6
		c-0.7-1.1-1.3-2.3-2.1-3.3c-3.6-4.7-5.4-10-6-15.9c-0.5-5.4-1.5-10.8-2.3-16.2c-0.4-2.4-1.4-2.8-3.4-1.6c-1.4,0.8-2.8,1.7-4.2,2.6
		c-2.5,1.6-2.9,2.4-2.3,5.3C173.4,111.6,173.9,114.2,174.3,116.6z"/>
	<path class="st3" d="M57.5,265.8c-0.2-32.1,6-60.7,18.1-87.9c8.3-18.7,19.3-35.8,32.7-51.3c16.3-18.8,35.3-34.3,57.1-46.3
		c19.3-10.7,39.8-18,61.5-22.2c1-0.2,2.6-0.8,3,0.2c0.5,1.1-1.1,1.7-1.9,2.3c-2.7,2-5.1,4.3-7.4,6.8c-1.1,1.2-2.4,1.9-3.9,2.3
		c-21.2,5.4-41,14.1-59.4,26.1c-9,5.9-17.5,12.5-25.5,19.8c-11.6,10.5-21.9,22.3-30.7,35.2C89.7,167.6,81,185.7,75,205.2
		c-4.1,13.4-6.7,27-7.9,40.9c-1.4,15.6-0.9,31.1,1.4,46.5c3.2,22,10,42.8,20.2,62.5c7.3,14.2,16.3,27.3,26.7,39.3
		c15.9,18.2,34.4,33.2,55.6,44.8c22.4,12.2,46.3,19.9,71.7,22.9c6.6,0.8,13.2,1.2,19.9,1.3c30.4,0.7,59.3-5.5,86.9-18
		c18.3-8.3,34.8-19.2,49.8-32.6c17.7-15.8,32.2-34.1,43.4-55c12.4-23,19.9-47.5,22.7-73.5c0.6-5.5,0.8-11.1,1-16.6
		c0.6-23.3-2.9-46-10.3-68.1c-7.8-23.1-19.4-44-34.9-62.8c-16.9-20.5-37-37.1-60.4-49.7c-13.5-7.3-27.7-12.9-42.5-16.9
		c-1.9-0.5-3.5-1.4-4.8-3c-2-2.4-4.5-4.4-6.9-6.3c-0.8-0.7-2.4-1.3-1.9-2.3c0.5-1.1,2-0.4,3-0.2c9.1,1.8,18.1,4.2,26.9,7.2
		c13,4.5,25.5,10.2,37.4,17.2c11.7,6.9,22.6,14.8,32.8,23.7c14.2,12.5,26.4,26.6,36.7,42.4c12.3,18.7,21.3,38.8,27,60.4
		c3.4,12.7,5.5,25.7,6.5,38.8c2.5,35.1-3.4,68.8-17.7,101c-8.1,18.1-18.6,34.7-31.5,49.8c-16.5,19.3-35.9,35.3-58.2,47.6
		c-23.9,13.2-49.5,21.4-76.6,24.6c-10.2,1.2-20.5,1.7-30.8,1.4c-20.8-0.7-41.2-4.2-61-11c-25.2-8.6-47.9-21.5-68.2-38.7
		c-19.9-16.9-36.1-36.9-48.6-59.9c-12.7-23.4-20.6-48.4-23.7-74.9C57.8,280.1,57.2,271.8,57.5,265.8z"/>
	<path class="st3" d="M279.3,125.8c-3.9-0.1-7.3-1.3-10.3-3.7c-3.6-3-4.8-8.8-2.5-12.9c2-3.6,5.3-4.4,8.7-2.1
		c4.2,2.8,8.6,3.9,13.6,2.4c2.7-0.8,4.8-2.4,6.7-4.3c0.4-0.4,0.8-1,1.5-0.7c0.7,0.3,0.6,1,0.6,1.6
		C298.3,116.2,289.2,125.9,279.3,125.8z"/>
	<path class="st3" d="M351.2,172.9c-0.1,0.9-0.7,1.5-1.3,2.2c-4.1,4.4-8.3,8.8-12.4,13.2c-1.7,1.8-3.4,3.6-5.1,5.4
		c-0.4,0.4-0.8,0.8-1.2,1.1c-0.7,0.5-1.4,0.8-2.1,0.1c-0.6-0.7-0.1-1.3,0.4-1.9c4.3-4.9,8.7-9.8,13-14.6c1.6-1.8,3.1-3.5,4.7-5.3
		c0.5-0.6,1-1.2,1.7-1.6C350,170.8,351.2,171.6,351.2,172.9z"/>
	<path class="st3" d="M203.6,191.1c0,0.6-0.1,1-0.5,1.3c-0.6,0.3-1.1,0.1-1.5-0.3c-1-1-2-2-3-3.1c-4.8-5.3-9.6-10.6-14.3-15.9
		c-0.7-0.7-1.4-1.5-0.7-2.6c0.6-1,1.8-1,2.9,0.2c2.5,2.7,4.8,5.5,7.3,8.3c2.7,3.2,5.5,6.3,8.2,9.5
		C202.7,189.2,203.5,190,203.6,191.1z"/>
	<path class="st3" d="M343.1,165.6c1.2,0,1.9,1.2,1.4,2.3c-0.4,0.8-0.9,1.5-1.5,2.2c-4.8,5.9-9.6,11.8-14.4,17.6
		c-0.7,0.8-1.4,2.2-2.6,1.2c-1.1-0.9-0.1-2,0.5-2.9c4.9-6.4,9.8-12.7,14.8-19C341.8,166.3,342.3,165.6,343.1,165.6z"/>
	<path class="st3" d="M178.9,175.6c0.7,0,1.2,0.4,1.7,0.9c5.8,5.9,11.6,11.8,17.4,17.8c0.6,0.6,1.1,1.2,0.5,2
		c-0.6,0.7-1.4,0.4-2.1,0c-0.6-0.3-1.1-0.8-1.5-1.2c-4.9-4.7-9.7-9.5-14.6-14.3c-0.8-0.8-1.7-1.5-2.5-2.4c-0.5-0.6-0.7-1.3-0.3-2
		C177.7,175.9,178.2,175.6,178.9,175.6z"/>
	<path class="st3" d="M337.1,197.7c-0.5,0-0.9-0.1-1.1-0.6c-0.3-0.6-0.2-1.1,0.2-1.5c1-1.1,2-2.2,3.1-3.2c3.1-2.6,5.8-5.7,8.8-8.5
		c2-1.9,4.1-3.8,6.1-5.8c0.8-0.8,1.7-1.4,2.7-0.5c1,1,0.4,1.9-0.4,2.7c-3.5,3.3-7.1,6.6-10.6,9.9c-2.3,2.1-4.5,4.2-6.8,6.2
		C338.5,197.1,337.9,197.6,337.1,197.7z"/>
	<path class="st3" d="M192.2,198.8c0,0.9-0.6,1.2-1.4,1.1c-0.7-0.1-1.3-0.5-1.9-1c-5.3-4.5-10.7-8.9-16-13.4
		c-0.2-0.1-0.3-0.3-0.5-0.4c-0.8-0.8-1.5-1.6-0.6-2.7c0.9-1,1.9-0.6,2.7,0.2c2.3,2,4.6,3.9,6.8,5.9c3.3,2.9,6.5,5.7,9.7,8.6
		C191.5,197.6,192.1,198,192.2,198.8z"/>
	<path class="st3" d="M343.6,201.3c-1.2,0-1.7-1-1.2-1.9c0.3-0.5,0.8-0.9,1.2-1.3c5.2-4.4,10.5-8.9,15.8-13.3
		c0.3-0.2,0.5-0.4,0.8-0.6c0.8-0.6,1.7-0.9,2.5,0c0.8,0.9,0.4,1.8-0.4,2.4c-2.5,2.1-5.1,4.2-7.7,6.3c-3,2.4-6,4.8-9,7.3
		C344.9,200.7,344.3,201.2,343.6,201.3z"/>
	<path class="st3" d="M322.1,181.2c0.1-0.9,0.4-1.5,0.8-2.1c3.9-5.7,7.7-11.5,11.6-17.2c0.6-0.9,1.4-1.9,2.7-1c1.2,0.9,0.6,2,0,2.9
		c-4.1,5.8-8.2,11.6-12.2,17.3c-0.2,0.3-0.5,0.6-0.7,0.9c-0.4,0.4-0.8,0.6-1.3,0.4C322.2,182.2,322,181.6,322.1,181.2z"/>
	<path class="st3" d="M206.9,184.1c0,0.5-0.1,1-0.6,1.3c-0.6,0.3-1.1,0.1-1.5-0.3c-0.9-1-1.7-2-2.5-3.1c-3.7-4.7-7.4-9.4-11.1-14.1
		c-0.8-1-1.9-2.1-0.5-3.3c1.5-1.2,2.3,0.3,3,1.3c4.1,5.4,8.1,10.8,12.2,16.2C206.3,182.7,206.8,183.3,206.9,184.1z"/>
	<path class="st3" d="M186.4,203.1c-0.1,1-0.7,1.4-1.6,1.3c-0.6-0.1-1.1-0.5-1.6-0.8c-5.1-3.7-10.3-7.4-15.4-11.1
		c-1-0.8-2.6-1.6-1.5-3.1c1.1-1.6,2.4-0.3,3.4,0.5c5.1,3.8,10.1,7.6,15.1,11.5C185.5,201.8,186.2,202.2,186.4,203.1z"/>
	<path class="st3" d="M349,206c-0.5,0-0.9-0.2-1.2-0.6c-0.3-0.5-0.3-1,0.1-1.4c0.4-0.5,0.8-0.9,1.3-1.2c5.1-3.7,10.2-7.5,15.3-11.2
		c1-0.7,2.1-1.9,3.4-0.5c0.8,0.9,0.3,1.9-1.5,3.1c-5.2,3.6-10.4,7.2-15.5,10.8C350.3,205.5,349.7,205.9,349,206z"/>
	<path class="st3" d="M210.8,177.3c0,0.7-0.2,1.2-0.7,1.5c-0.6,0.3-1.1,0-1.5-0.4c-0.3-0.3-0.5-0.6-0.7-0.9
		c-3.3-4.9-6.6-9.7-9.9-14.6c-0.7-1-1.8-2.2-0.3-3.3c1.5-1.1,2.3,0.4,2.9,1.4c3.1,4.8,6.2,9.6,9.3,14.4
		C210.4,176,210.7,176.7,210.8,177.3z"/>
	<path class="st3" d="M317.7,174.1c0.2-0.3,0.4-0.9,0.6-1.3c2.9-5.1,5.9-10.3,8.9-15.4c0.2-0.4,0.5-0.7,0.8-1
		c0.5-0.5,1.2-0.5,1.8-0.1c0.6,0.4,0.9,1,0.7,1.7c-0.1,0.3-0.2,0.6-0.4,0.9c-3.3,5.4-6.5,10.8-9.8,16.2c-0.4,0.6-0.9,1.2-1.7,0.9
		C317.8,175.6,317.7,175,317.7,174.1z"/>
	<path class="st3" d="M215.5,170.9c0,0.9-0.2,1.4-0.9,1.7c-0.9,0.3-1.4-0.3-1.7-0.9c-2-3.4-3.9-6.7-5.9-10.1
		c-0.7-1.2-1.5-2.5-2.2-3.7c-0.5-0.9-1-2,0.2-2.8c1.2-0.7,2,0.1,2.5,1.1c2.5,4.6,5.1,9.1,7.6,13.7
		C215.4,170.2,215.5,170.7,215.5,170.9z"/>
	<path class="st3" d="M312.7,168c0.1-0.3,0.3-0.9,0.5-1.4c2.1-4.3,4.2-8.7,6.3-13c0.1-0.3,0.3-0.6,0.5-0.9c0.5-0.7,1.2-1.2,2.1-0.8
		c1,0.5,1.1,1.3,0.7,2.2c-0.9,1.9-1.9,3.9-2.8,5.8c-1.5,3-3.1,5.9-4.6,8.9c-0.3,0.7-0.8,1.3-1.7,0.9
		C312.9,169.5,312.7,168.9,312.7,168z"/>
	<path class="st3" d="M315.2,150c-0.1,0.3-0.2,0.7-0.3,1.1c-1.6,3.8-3.3,7.7-4.9,11.5c-0.4,0.9-0.8,2.1-2.1,1.5
		c-1.2-0.5-1-1.6-0.6-2.6c1.6-4,3.2-8,4.8-11.9c0.4-0.9,0.9-1.5,2-1.3C314.8,148.5,315.2,149,315.2,150z"/>
	<path class="st3" d="M300.5,157.3c0.9-2.3,1.2-5.1,2.7-7.5c0.2-0.3,0.5-0.6,0.8-0.8c0.6-0.4,1.2-1,1.9-0.4c0.6,0.5,0.2,1.2,0,1.8
		c-0.9,2.5-1.8,5.1-2.7,7.6c-0.2,0.7-0.7,1.4-1.5,1.2C300.9,159.1,300.6,158.4,300.5,157.3z"/>
	<path class="st3" d="M109.1,255.1c-4.3-0.2-8.7-0.4-12.9-1c-3.2-0.5-4.3-2.1-4.1-5.3c0.2-2.7,1.7-4.1,4.4-4.2
		c5.1-0.1,10.1,0.5,15.1,1.2c3.6,0.5,5.1,3.9,3.5,7.2c-0.6,1.3-1.7,1.9-3,2C111.1,255.2,110.1,255.1,109.1,255.1z"/>
	<path class="st3" d="M381.3,163.5c0-1.6,0.6-2.8,1.7-3.8c3.6-3.2,7.2-6.4,11.2-9.2c2.5-1.8,4.8-1.4,6.6,0.7
		c1.8,2.1,1.7,4.5-0.5,6.6c-3.7,3.4-7.4,6.7-11.5,9.6c-1.5,1-3.1,1.4-4.8,0.3C382.3,166.6,381.4,165.2,381.3,163.5z"/>
</g>
</svg>
