<?xml version="1.0" encoding="utf-8"?>
<!-- Generator: Adobe Illustrator 23.0.3, SVG Export Plug-In . SVG Version: 6.00 Build 0)  -->
<svg version="1.1" id="Layer_1" xmlns="http://www.w3.org/2000/svg" xmlns:xlink="http://www.w3.org/1999/xlink" x="0px" y="0px"
	 viewBox="0 0 295.8 199.9" style="enable-background:new 0 0 295.8 199.9;" xml:space="preserve">
<style type="text/css">
	.st0{fill:#C49A6C;}
	.st1{fill:#FFFFFF;}
</style>
<g>
	<g>
		<path d="M68.9,118.8c0.4,0,1.3,0,2.6,0c0,0,0.1,0,0.1-0.2c0-0.1,0-0.9,0-1.2c0-0.2-0.1-0.3-0.4-0.4c-0.1,0-0.2-0.1-0.2-0.1
			c0,0,0.1-0.1,0.2-0.1c0.1,0,0.5,0,0.7,0c0.2,0,0.6,0,0.6,0c0.1,0,0.2,0,0.2,0.1c0,0-0.1,0.1-0.2,0.1c-0.3,0.1-0.3,0.2-0.4,0.4
			c0,0.3-0.1,1-0.1,2.1c0,0.3,0,0.9,0,1c0,0.3,0.1,0.3,0.4,0.4c0.1,0,0.2,0.1,0.2,0.1c0,0.1-0.1,0.1-0.2,0.1c-0.1,0-0.4,0-0.6,0
			c-0.2,0-0.7,0-0.8,0c-0.1,0-0.2,0-0.2-0.1c0-0.1,0.1-0.1,0.2-0.1c0.4-0.1,0.4-0.2,0.4-0.6c0-0.3,0-0.7,0-1c0-0.1,0-0.1-0.1-0.1
			c-1.1,0-2.4,0-2.6,0c0,0-0.1,0.1-0.1,0.1c0,0.2,0,1,0,1.2c0,0.3,0.1,0.4,0.4,0.5c0.2,0,0.2,0.1,0.2,0.1c0,0.1-0.1,0.1-0.2,0.1
			c0,0-0.5,0-0.7,0c-0.2,0-0.4,0-0.7,0c-0.2,0-0.2,0-0.2-0.1c0-0.1,0.1-0.1,0.2-0.1c0.4-0.1,0.4-0.2,0.4-0.4c0-0.3,0.1-1,0.1-2.1
			c0-0.1,0-0.7,0-1c0-0.2-0.1-0.3-0.3-0.4c-0.1,0-0.2-0.1-0.2-0.1c0,0,0.1-0.1,0.2-0.1c0.2,0,0.4,0,0.6,0c0.3,0,0.5,0,0.7,0
			c0.1,0,0.2,0,0.2,0.1c0,0.1-0.1,0.1-0.2,0.1c-0.3,0.1-0.3,0.2-0.4,0.4c0,0.2,0,1.1,0,1.2C68.9,118.8,68.9,118.8,68.9,118.8z"/>
		<path d="M77.9,116.9c0.1,0.2,0.2,0.5,0.3,0.8c0.4,0.9,0.9,2.2,1,2.5c0.2,0.5,0.3,0.6,0.6,0.7c0.1,0,0.2,0.1,0.2,0.1
			c0,0,0,0.1-0.2,0.1c-0.2,0-0.6,0-0.9,0c-0.2,0-0.3,0-0.5,0c-0.2,0-0.2,0-0.2-0.1c0,0,0-0.1,0.2-0.1c0.3-0.1,0.3-0.2,0.3-0.3
			c-0.1-0.3-0.2-0.7-0.4-1.1c0,0,0-0.1-0.2-0.1c-0.4,0-1,0-1.1,0c0,0-0.1,0-0.1,0.1c-0.2,0.4-0.4,1-0.4,1.1c0,0.1,0,0.2,0.3,0.3
			c0.1,0,0.2,0.1,0.2,0.1c0,0.1-0.1,0.1-0.2,0.1c-0.1,0-0.3,0-0.5,0c-0.3,0-0.6,0-0.7,0c-0.1,0-0.2,0-0.2-0.1s0-0.1,0.2-0.1
			c0.3-0.1,0.4-0.1,0.6-0.6c0.2-0.3,0.9-2.3,1.2-3c0-0.1,0-0.1,0-0.1c0,0,0,0,0-0.1c0.1-0.1,0.2-0.2,0.2-0.3c0-0.1,0.1-0.1,0.1-0.1
			C77.8,116.7,77.8,116.8,77.9,116.9z M78.1,119c-0.1-0.3-0.5-1.3-0.5-1.4c0,0,0,0-0.1,0c-0.1,0.3-0.5,1.2-0.5,1.4c0,0,0,0,0,0
			C77.3,119.1,77.8,119.1,78.1,119C78.1,119.1,78.1,119,78.1,119z"/>
		<path d="M82.6,116.8c0.2,0,0.5,0,0.8,0c0,0,0.1,0,0.1,0.1c0.1,0.1,0.3,0.3,0.5,0.6c0.3,0.4,1.8,1.9,2.3,2.4c0,0,0.1,0,0.1,0
			c0-0.2,0-0.9,0-1.8c0-0.2,0-0.4,0-0.6c0-0.1-0.1-0.3-0.4-0.4c-0.1,0-0.2-0.1-0.2-0.1c0,0,0.1-0.1,0.2-0.1c0.2,0,0.4,0,0.6,0
			c0.2,0,0.5,0,0.6,0c0.1,0,0.2,0,0.2,0.1c0,0,0,0.1-0.2,0.1c-0.3,0.1-0.4,0.1-0.4,0.5c0,0.2-0.1,1.5-0.1,2.6c0,0.3,0,0.8,0,0.9
			c0,0.1,0,0.1-0.1,0.1c-0.1,0-0.2-0.1-0.3-0.2c-0.1-0.1-0.2-0.3-0.4-0.5c-0.6-0.7-1.8-2-2.5-2.7c0,0-0.1,0-0.1,0c0,0.2,0,0.4,0,0.9
			c0,0.6,0,1.6,0,1.8c0,0.3,0.1,0.4,0.4,0.5c0.1,0,0.2,0.1,0.2,0.1c0,0.1-0.1,0.1-0.2,0.1c-0.2,0-0.5,0-0.7,0c-0.2,0-0.3,0-0.4,0
			c-0.1,0-0.2,0-0.2-0.1c0-0.1,0.1-0.1,0.1-0.1c0.3-0.1,0.5-0.1,0.5-0.6c0-0.5,0.1-2.1,0.1-2.6c0-0.2,0-0.3,0-0.3
			c-0.2-0.2-0.3-0.2-0.6-0.3c-0.1,0-0.2-0.1-0.2-0.1C82.4,116.9,82.5,116.8,82.6,116.8z"/>
		<path d="M94.2,117.4c0.4,0.3,0.6,0.9,0.6,1.4c0,0.9-0.6,1.6-1.1,1.9c-0.4,0.2-1,0.4-1.6,0.4c-0.3,0-0.9,0-1.4-0.1
			c-0.1,0-0.3,0-0.4,0c-0.2,0-0.2,0-0.2-0.1c0-0.1,0.1-0.1,0.2-0.1c0.5-0.1,0.5-0.2,0.5-0.7c0-0.3,0-0.5,0-0.9c0-0.4,0-1.1,0-1.7
			c0-0.4,0-0.5-0.4-0.6c-0.1,0-0.2-0.1-0.2-0.1c0-0.1,0.1-0.1,0.2-0.1h0.2c0.3,0,1.1-0.1,1.7-0.1C93.2,116.8,93.9,117.2,94.2,117.4z
			 M91.5,117.1C91.4,117.1,91.4,117.1,91.5,117.1c-0.1,0.2-0.1,0.7-0.1,1.3v0.9c0,0.5,0,0.8,0,1.1c0,0.2,0.1,0.3,0.2,0.3
			c0.1,0.1,0.4,0.2,0.6,0.2c0.3,0,0.9-0.1,1.3-0.4c0.4-0.3,0.7-0.9,0.7-1.6c0-0.6-0.3-1.2-0.7-1.5c-0.3-0.2-0.9-0.4-1.4-0.4
			C91.7,117,91.5,117,91.5,117.1z"/>
		<path d="M101.3,116.8c0.2,0,0.4,0.1,0.5,0.1c0,0,0.1,0,0.1,0.2c0,0.1,0,0.4,0,0.6c0,0.1,0,0.2-0.1,0.2c0,0-0.1-0.1-0.1-0.2
			c-0.1-0.2-0.2-0.4-0.3-0.5c-0.4-0.3-0.7-0.3-1.1-0.3c-1.1,0-1.8,0.9-1.8,1.8c0,0.4,0.1,0.8,0.2,1.1c0.4,0.7,1.2,1,1.7,1
			c0.1,0,0.5,0,0.8-0.2c0.3-0.1,0.5-0.4,0.6-0.6c0.1-0.1,0.1-0.2,0.1-0.2c0.1,0,0.1,0.1,0.1,0.2c0,0.2-0.2,0.5-0.3,0.7
			c0,0.1-0.1,0.1-0.2,0.2c-0.1,0-0.7,0.2-1.3,0.2c-1,0-1.7-0.5-2-0.8c-0.3-0.3-0.6-0.8-0.6-1.5c0-0.7,0.5-1.3,0.8-1.6
			c0.6-0.5,1.2-0.6,1.9-0.6C100.7,116.7,101,116.8,101.3,116.8z"/>
		<path d="M107.7,118.8c0,0-0.2,0.1-0.2,0.1c0,0,0,0.1,0,0.1c0.1,0.2,0.6,1,1.1,1.5c0.2,0.2,0.4,0.3,0.7,0.4c0.1,0,0.1,0.1,0.1,0.1
			c0,0-0.1,0.1-0.1,0.1c-0.1,0-0.2,0-0.4,0c-0.3,0-0.7-0.2-0.9-0.4c-0.2-0.3-0.6-0.8-0.9-1.2c-0.1-0.1-0.2-0.3-0.3-0.3
			c0,0-0.3-0.1-0.5-0.1c0,0-0.1,0.1-0.1,0.1c0,0.1,0,0.9,0,1.3c0,0.3,0.1,0.4,0.4,0.4c0.1,0,0.2,0.1,0.2,0.1c0,0.1-0.1,0.1-0.2,0.1
			c-0.3,0-0.4,0-0.9,0c-0.1,0-0.5,0-0.6,0c-0.1,0-0.2,0-0.2-0.1c0-0.1,0.1-0.1,0.2-0.1c0.3-0.1,0.4-0.1,0.4-0.4c0-0.2,0-0.9,0-1.3
			c0-1,0-1.6,0-1.8c0-0.2-0.1-0.3-0.4-0.3c-0.1,0-0.2-0.1-0.2-0.1c0,0,0-0.1,0.2-0.1c0.2,0,0.2,0,0.4,0c0.3,0,0.7,0,1.1,0
			c0.5,0,0.8,0.1,1.1,0.3c0.2,0.2,0.4,0.5,0.4,0.8C108.2,118.3,108,118.6,107.7,118.8z M107.3,117.3c-0.2-0.1-0.5-0.2-0.7-0.2
			c0,0-0.3,0-0.3,0c0,0-0.1,0.1-0.1,0.1c0,0.2,0,1.5,0,1.6c0,0.1,0.1,0.1,0.1,0.1c0.4,0,0.8-0.1,0.9-0.2c0.2-0.1,0.5-0.4,0.5-0.8
			C107.6,117.8,107.5,117.5,107.3,117.3z"/>
		<path d="M114,116.9c0.1,0.2,0.2,0.5,0.3,0.8c0.4,0.9,0.9,2.2,1,2.5c0.2,0.5,0.3,0.6,0.6,0.7c0.1,0,0.2,0.1,0.2,0.1
			c0,0,0,0.1-0.2,0.1c-0.2,0-0.6,0-0.9,0c-0.2,0-0.3,0-0.5,0c-0.2,0-0.2,0-0.2-0.1c0,0,0-0.1,0.2-0.1c0.3-0.1,0.3-0.2,0.3-0.3
			c-0.1-0.3-0.2-0.7-0.4-1.1c0,0,0-0.1-0.2-0.1c-0.4,0-1,0-1.1,0c0,0-0.1,0-0.1,0.1c-0.2,0.4-0.4,1-0.4,1.1c0,0.1,0,0.2,0.3,0.3
			c0.1,0,0.2,0.1,0.2,0.1c0,0.1-0.1,0.1-0.2,0.1c-0.1,0-0.3,0-0.5,0c-0.3,0-0.6,0-0.7,0c-0.1,0-0.2,0-0.2-0.1s0-0.1,0.2-0.1
			c0.3-0.1,0.4-0.1,0.6-0.6c0.2-0.3,0.9-2.3,1.2-3c0-0.1,0-0.1,0-0.1c0,0,0,0,0-0.1c0.1-0.1,0.2-0.2,0.2-0.3c0-0.1,0.1-0.1,0.1-0.1
			C113.9,116.7,114,116.8,114,116.9z M114.2,119c-0.1-0.3-0.5-1.3-0.5-1.4c0,0,0,0-0.1,0c-0.1,0.3-0.5,1.2-0.5,1.4c0,0,0,0,0,0
			C113.4,119.1,114,119.1,114.2,119C114.2,119.1,114.2,119,114.2,119z"/>
		<path d="M120.6,116.9c0.4,0,1,0,1.1,0c0,0,0.1,0,0.1,0.1c0,0.2,0,0.4,0,0.6c0,0.1,0,0.2-0.1,0.2c-0.1,0-0.1-0.1-0.2-0.2
			c-0.1-0.3-0.2-0.4-0.4-0.4c-0.2,0-0.9,0-1.1,0c-0.1,0-0.1,0.1-0.1,0.1c0,0.2,0,1,0,1.4c0,0.2,0,0.2,0.1,0.2c0.3,0,0.8,0,1,0
			c0.2,0,0.3-0.1,0.4-0.3c0-0.1,0.1-0.2,0.1-0.2c0,0,0.1,0.1,0.1,0.1c0,0.1,0,0.3,0,0.4c0,0.3,0,0.4,0,0.5c0,0.1,0,0.2-0.1,0.2
			c0,0-0.1,0-0.1-0.1c-0.1-0.2-0.2-0.3-0.3-0.3c-0.1,0-0.3,0-0.5,0c-0.1,0-0.5,0-0.6,0c0,0,0,0.1-0.1,0.1c0,0.1,0,1,0,1.2
			c0,0.2,0,0.3,0.5,0.4c0.1,0,0.2,0.1,0.2,0.1c0,0-0.1,0.1-0.2,0.1c-0.2,0-0.4,0-0.7,0c-0.3,0-0.7,0-0.8,0c-0.1,0-0.2,0-0.2-0.1
			c0,0,0.1-0.1,0.2-0.1c0.4-0.1,0.4-0.2,0.4-0.3c0-0.2,0.1-0.7,0.1-2c0-0.6,0-1,0-1.2c0-0.2-0.1-0.3-0.4-0.4c-0.1,0-0.2-0.1-0.2-0.1
			c0-0.1,0.1-0.1,0.2-0.1c0.3,0,0.6,0,0.8,0H120.6z"/>
		<path d="M128.3,116.9c0.2,0,0.4-0.1,0.5-0.1c0,0,0.1,0,0.1,0c0,0,0.1,0.1,0,0.1c-0.1,0.2-0.1,0.4-0.2,0.7c0,0.1-0.1,0.1-0.1,0.1
			c0,0-0.1,0-0.1-0.2c0-0.3-0.1-0.4-0.6-0.4c-0.1,0-0.9,0-1,0c0,0-0.1,0.1-0.1,0.1c0,0.3,0,1,0,1.6c0,0.8,0,1.4,0,1.6
			c0,0.3,0.1,0.4,0.5,0.5c0.1,0,0.2,0.1,0.2,0.1c0,0.1-0.1,0.1-0.2,0.1c-0.1,0-0.5,0-0.8,0c-0.3,0-0.7,0-0.8,0c-0.1,0-0.2,0-0.2-0.1
			c0,0,0.1-0.1,0.1-0.1c0.5-0.1,0.5-0.2,0.5-0.7c0-0.4,0-1.7,0-2.2c0-0.4,0-0.5,0-0.8c0-0.1,0-0.1-0.1-0.1c-0.1,0-0.7,0-0.9,0
			c-0.3,0-0.4,0-0.5,0.1c0,0-0.1,0.1-0.2,0.3c-0.1,0.1-0.1,0.1-0.1,0.1c0,0-0.1-0.1-0.1-0.2c0-0.1,0.1-0.5,0.1-0.9
			c0,0,0.1-0.1,0.1-0.1c0,0,0,0,0.1,0.1c0,0,0.1,0.1,0.2,0.1c0.2,0,0.7,0,1.6,0C127.1,116.9,128.1,116.9,128.3,116.9z"/>
		<path d="M133.9,116.9c0.2,0,0.5,0,0.6,0c0,0,0.1,0,0.1,0.1c0,0.3,0,0.5,0,0.6c0,0.1,0,0.2-0.1,0.2c-0.1,0-0.1-0.1-0.1-0.2
			c-0.1-0.3-0.2-0.4-0.5-0.4c-0.2,0-0.7,0-1,0c0,0-0.1,0-0.1,0.2c0,0.2,0,1.4,0,1.5c0,0,0,0.1,0,0.1h0.4c0.6,0,0.7,0,0.8-0.3
			c0-0.1,0.1-0.1,0.1-0.1c0,0,0.1,0.1,0.1,0.1c0,0.2,0,0.3,0,0.5c0,0.2,0,0.3,0,0.4c0,0.1,0,0.2-0.1,0.2c0,0-0.1-0.1-0.1-0.1
			c-0.1-0.3-0.1-0.3-0.5-0.3c-0.2,0-0.5,0-0.7,0c0,0-0.1,0-0.1,0.1c0,0.1,0,0.7,0,1c0,0.2,0,0.4,0.1,0.5c0,0.1,0.1,0.1,0.1,0.1
			c0.1,0,0.4,0,0.6,0c0.1,0,0.5,0,0.7,0c0.2-0.1,0.4-0.2,0.6-0.5c0.1-0.1,0.1-0.2,0.2-0.2c0,0,0.1,0.1,0.1,0.2
			c0,0.1-0.2,0.6-0.2,0.7c0,0-0.1,0.1-0.1,0.1c-0.1,0-1.1-0.1-2.2-0.1c-0.4,0-0.5,0-0.8,0c-0.1,0-0.2,0-0.2-0.1c0,0,0.1-0.1,0.2-0.1
			c0.3-0.1,0.5-0.1,0.5-0.5c0-0.3,0.1-1,0.1-1.8c0-0.8,0-0.9,0-1.1c0-0.3-0.1-0.4-0.4-0.4c-0.1,0-0.2-0.1-0.2-0.1
			c0-0.1,0.1-0.1,0.2-0.1c0.3,0,0.6,0,1.1,0H133.9z"/>
		<path d="M141.8,117.4c0.4,0.3,0.6,0.9,0.6,1.4c0,0.9-0.6,1.6-1.1,1.9c-0.4,0.2-1,0.4-1.6,0.4c-0.3,0-0.9,0-1.4-0.1
			c-0.1,0-0.3,0-0.4,0c-0.2,0-0.2,0-0.2-0.1c0-0.1,0.1-0.1,0.2-0.1c0.5-0.1,0.5-0.2,0.5-0.7c0-0.3,0-0.5,0-0.9c0-0.4,0-1.1,0-1.7
			c0-0.4,0-0.5-0.4-0.6c-0.1,0-0.2-0.1-0.2-0.1c0-0.1,0.1-0.1,0.2-0.1h0.2c0.3,0,1.1-0.1,1.7-0.1
			C140.8,116.8,141.5,117.2,141.8,117.4z M139.1,117.1C139,117.1,139,117.1,139.1,117.1c-0.1,0.2-0.1,0.7-0.1,1.3v0.9
			c0,0.5,0,0.8,0,1.1c0,0.2,0.1,0.3,0.2,0.3c0.1,0.1,0.4,0.2,0.6,0.2c0.3,0,0.9-0.1,1.3-0.4c0.4-0.3,0.7-0.9,0.7-1.6
			c0-0.6-0.3-1.2-0.7-1.5c-0.3-0.2-0.9-0.4-1.4-0.4C139.3,117,139.1,117,139.1,117.1z"/>
		<path d="M150.7,116.9c0.4,0,1,0,1.1,0c0,0,0.1,0,0.1,0.1c0,0.2,0,0.4,0,0.6c0,0.1,0,0.2-0.1,0.2c-0.1,0-0.1-0.1-0.2-0.2
			c-0.1-0.3-0.2-0.4-0.4-0.4c-0.2,0-0.9,0-1.1,0c-0.1,0-0.1,0.1-0.1,0.1c0,0.2,0,1,0,1.4c0,0.2,0,0.2,0.1,0.2c0.3,0,0.8,0,1,0
			c0.2,0,0.3-0.1,0.4-0.3c0-0.1,0.1-0.2,0.1-0.2c0,0,0.1,0.1,0.1,0.1c0,0.1,0,0.3,0,0.4c0,0.3,0,0.4,0,0.5c0,0.1,0,0.2-0.1,0.2
			c0,0-0.1,0-0.1-0.1c-0.1-0.2-0.2-0.3-0.3-0.3c-0.1,0-0.3,0-0.5,0c-0.1,0-0.5,0-0.6,0c0,0,0,0.1-0.1,0.1c0,0.1,0,1,0,1.2
			c0,0.2,0,0.3,0.5,0.4c0.1,0,0.2,0.1,0.2,0.1c0,0-0.1,0.1-0.2,0.1c-0.2,0-0.4,0-0.7,0c-0.3,0-0.7,0-0.8,0c-0.1,0-0.2,0-0.2-0.1
			c0,0,0.1-0.1,0.2-0.1c0.4-0.1,0.4-0.2,0.4-0.3c0-0.2,0.1-0.7,0.1-2c0-0.6,0-1,0-1.2c0-0.2-0.1-0.3-0.4-0.4c-0.1,0-0.2-0.1-0.2-0.1
			c0-0.1,0.1-0.1,0.2-0.1c0.3,0,0.6,0,0.8,0H150.7z"/>
		<path d="M159.6,118.9c0,0.9-0.5,1.5-1,1.9c-0.4,0.3-1,0.4-1.4,0.4c-0.7,0-1.4-0.3-1.8-0.7c-0.4-0.4-0.6-0.9-0.6-1.5
			c0-0.8,0.4-1.4,0.9-1.7c0.3-0.3,0.9-0.5,1.4-0.5C158.5,116.7,159.6,117.7,159.6,118.9z M156.1,117.3c-0.3,0.3-0.5,0.8-0.5,1.5
			c0,1,0.8,2.1,1.9,2.1c0.6,0,0.8-0.2,0.9-0.3c0.3-0.2,0.6-0.8,0.6-1.5c0-0.7-0.3-1.4-0.8-1.8c-0.3-0.2-0.7-0.4-1-0.4
			C156.7,117,156.3,117.1,156.1,117.3z"/>
		<path d="M167.3,118.9c0,0.9-0.5,1.5-1,1.9c-0.4,0.3-1,0.4-1.4,0.4c-0.7,0-1.4-0.3-1.8-0.7c-0.4-0.4-0.6-0.9-0.6-1.5
			c0-0.8,0.4-1.4,0.9-1.7c0.3-0.3,0.9-0.5,1.4-0.5C166.2,116.7,167.3,117.7,167.3,118.9z M163.8,117.3c-0.3,0.3-0.5,0.8-0.5,1.5
			c0,1,0.8,2.1,1.9,2.1c0.6,0,0.8-0.2,0.9-0.3c0.3-0.2,0.6-0.8,0.6-1.5c0-0.7-0.3-1.4-0.8-1.8c-0.3-0.2-0.7-0.4-1-0.4
			C164.5,117,164.1,117.1,163.8,117.3z"/>
		<path d="M174.2,117.4c0.4,0.3,0.6,0.9,0.6,1.4c0,0.9-0.6,1.6-1.1,1.9c-0.4,0.2-1,0.4-1.6,0.4c-0.3,0-0.9,0-1.4-0.1
			c-0.1,0-0.3,0-0.4,0c-0.2,0-0.2,0-0.2-0.1c0-0.1,0.1-0.1,0.2-0.1c0.5-0.1,0.5-0.2,0.5-0.7c0-0.3,0-0.5,0-0.9c0-0.4,0-1.1,0-1.7
			c0-0.4,0-0.5-0.4-0.6c-0.1,0-0.2-0.1-0.2-0.1c0-0.1,0.1-0.1,0.2-0.1h0.2c0.3,0,1.1-0.1,1.7-0.1
			C173.3,116.8,173.9,117.2,174.2,117.4z M171.5,117.1C171.5,117.1,171.5,117.1,171.5,117.1c-0.1,0.2-0.1,0.7-0.1,1.3v0.9
			c0,0.5,0,0.8,0,1.1c0,0.2,0.1,0.3,0.2,0.3c0.1,0.1,0.4,0.2,0.6,0.2c0.3,0,0.9-0.1,1.3-0.4c0.4-0.3,0.7-0.9,0.7-1.6
			c0-0.6-0.3-1.2-0.7-1.5c-0.3-0.2-0.9-0.4-1.4-0.4C171.7,117,171.6,117,171.5,117.1z"/>
		<path d="M183.4,118.5C183.4,118.5,183.4,118.5,183.4,118.5c0.1-0.1,0.1-0.2,0.2-0.2c0,0,0.1-0.1,0.1-0.1c0,0,0.2,0,0.3,0.1
			c0,0,0,0,0,0.1c-0.1,0.2-0.7,1.6-0.8,2.1c0,0.1,0,0.2,0.1,0.2c0.1,0,0.4-0.2,0.5-0.3c0.1-0.1,0.1-0.1,0.1,0c0,0,0,0.1-0.1,0.2
			c-0.3,0.4-0.7,0.7-1,0.7c-0.2,0-0.3-0.1-0.3-0.3c0-0.1,0.2-0.4,0.2-0.7c0,0,0-0.1,0-0.1c-0.3,0.4-1,1-1.5,1
			c-0.1,0-0.3-0.1-0.3-0.3c0-0.2,0.1-0.4,0.3-0.8c0.4-0.6,0.9-1.2,1.5-1.6c0.1-0.1,0.3-0.1,0.3-0.1
			C183.2,118.4,183.3,118.4,183.4,118.5z M182.2,119.2c-0.2,0.3-0.6,1-0.6,1.3c0,0.1,0.1,0.2,0.1,0.2c0.2,0,0.4-0.2,0.7-0.5
			c0.3-0.3,0.6-0.8,0.8-1.2c0-0.1,0.1-0.2,0-0.2c-0.1-0.1-0.2-0.1-0.2-0.1C182.8,118.7,182.5,118.9,182.2,119.2z"/>
		<path d="M189.5,118.6c0,0.1,0,0.2-0.1,0.4c-0.2,0.4-0.6,1.3-0.6,1.4c-0.1,0.1-0.1,0.2,0,0.2c0.1,0,0.4-0.2,0.6-0.4
			c0.1,0,0.1-0.1,0.1,0c0,0.1,0,0.1-0.1,0.2c-0.2,0.4-0.9,0.8-1.1,0.8c-0.1,0-0.1,0-0.2-0.1c0,0-0.1-0.1,0-0.2c0.1-0.1,0.9-1.8,1-2
			c0.1-0.2,0-0.3-0.1-0.3c-0.2,0-0.4,0.2-0.8,0.6c-0.3,0.3-0.9,1.4-1.1,1.7c-0.2,0.3-0.3,0.4-0.4,0.4c-0.1,0-0.2-0.1-0.2-0.2
			c0-0.1,0.2-0.5,0.2-0.6c0.2-0.4,0.5-1.1,0.7-1.6c0-0.1,0-0.1-0.1-0.1c-0.2,0-0.4,0.2-0.5,0.3c0,0-0.1,0.1-0.1,0.1c0,0,0,0,0-0.1
			c0-0.2,0.3-0.7,0.9-0.7c0.1,0,0.2,0.1,0.3,0.1c0,0,0,0.1,0,0.2c0,0.1-0.4,0.9-0.4,1c0,0.1,0.1,0.1,0.1,0c0.1-0.2,0.6-0.8,0.9-1
			c0.3-0.3,0.6-0.3,0.7-0.3C189.4,118.2,189.5,118.5,189.5,118.6z"/>
		<path d="M193.6,118.4c0.2-0.1,0.5-0.2,0.5-0.2c0.1,0,0.3,0.1,0.4,0.2c0,0,0.1,0,0.1,0c0.1-0.3,0.3-0.8,0.5-1.6
			c0.1-0.2,0-0.3-0.1-0.3c-0.1-0.1-0.2-0.1-0.2-0.1c0,0,0.1-0.1,0.1-0.1c0.1,0,0.6-0.1,0.8-0.1c0,0,0,0.1,0,0.3
			c-0.1,0.4-0.4,1.2-0.7,2.2c-0.2,0.7-0.4,1.4-0.6,1.9c0,0.1,0,0.2,0.1,0.2c0.1,0,0.4-0.2,0.6-0.5c0-0.1,0.1,0,0.1,0
			c0,0,0,0.1,0,0.1c-0.1,0.4-0.7,0.9-1,0.9c-0.1,0-0.2-0.2-0.2-0.3c0-0.2,0.2-0.7,0.2-0.9c0,0,0-0.1-0.1-0.1
			c-0.5,0.7-1.1,1.2-1.6,1.2c-0.1,0-0.2,0-0.3-0.1c-0.1-0.1-0.1-0.2-0.1-0.4C192.2,120,192.9,118.8,193.6,118.4z M192.8,120.8
			c0.2,0,0.7-0.3,1.1-0.8c0.2-0.3,0.4-0.7,0.5-0.9c0.1-0.2,0.1-0.4,0-0.5c0-0.1-0.1-0.1-0.2-0.1c-0.1,0-0.4,0.1-0.7,0.5
			c-0.5,0.5-0.8,1.3-0.8,1.7C192.7,120.8,192.8,120.8,192.8,120.8z"/>
		<path d="M204,116.6c0,0,0.1,0.1,0.1,0.1c0,0.1,0.1,0.5,0.1,0.6c0,0.1,0,0.2,0,0.2c-0.1,0-0.1,0-0.2-0.1c-0.1-0.2-0.3-0.5-0.3-0.5
			c-0.1-0.1-0.3-0.2-0.5-0.2c-0.5,0-0.8,0.3-0.8,0.8c0,0.5,0.4,0.7,1,1.1c0.5,0.4,1,0.7,1,1.3c0,0.3-0.2,0.7-0.6,1
			c-0.2,0.1-0.6,0.2-0.9,0.2c-0.2,0-0.7-0.1-0.9-0.2c-0.1,0-0.2-0.2-0.2-0.2c0-0.2-0.1-0.5-0.1-0.6c0,0,0.1-0.1,0.1-0.1
			c0.1,0,0.2,0.2,0.3,0.4c0.2,0.4,0.6,0.6,0.9,0.6c0.5,0,0.8-0.3,0.8-0.8c0-0.3-0.1-0.6-0.9-1.1c-0.6-0.4-1-0.8-1-1.4
			c0-0.3,0.1-0.6,0.4-0.8c0.2-0.2,0.5-0.3,1-0.3C203.5,116.5,203.9,116.6,204,116.6z"/>
		<path d="M208.6,116.7c-0.1,0-0.1,0-0.2,0.1c0,0-0.1,0.1-0.1,0.3c0,0.1,0,1,0,1.8c0,0.6,0,1.2,0,1.4c0,0.4,0.1,0.5,0.4,0.6
			c0.1,0,0.2,0.1,0.2,0.1c0,0.1-0.1,0.1-0.2,0.1c-0.2,0-0.4,0-0.7,0c-0.2,0-0.5,0-0.7,0c-0.1,0-0.2,0-0.2-0.1c0,0,0.1-0.1,0.1-0.1
			c0.4-0.1,0.5-0.2,0.5-0.5c0-0.3,0-0.9,0-1.2c0-0.2,0-1.7,0-1.9c0-0.2,0-0.3-0.4-0.4c-0.1,0-0.2-0.1-0.2-0.1c0-0.1,0.1-0.1,0.2-0.1
			c0,0,0.2,0,0.2,0c0.3,0,0.8-0.1,1.2-0.1c0.6,0,1,0.2,1.3,0.4c0.3,0.3,0.4,0.7,0.4,0.9c0,0.6-0.3,0.9-0.5,1.1
			c-0.2,0.2-0.5,0.3-0.8,0.3c-0.1,0-0.3,0-0.4,0c-0.1,0-0.1-0.1-0.1-0.1c0,0,0-0.1,0.1-0.1c0.1,0,0.1,0,0.2,0c0.4,0,0.9-0.3,0.9-1.1
			C209.8,117.3,209.3,116.7,208.6,116.7z"/>
		<path d="M213.8,117.3c0-0.3,0-0.4-0.4-0.5c-0.2,0-0.2-0.1-0.2-0.1c0-0.1,0.1-0.1,0.2-0.1c0.2,0,0.5,0,0.8,0c0.3,0,0.5,0,0.7,0
			c0.1,0,0.2,0,0.2,0.1c0,0.1-0.1,0.1-0.2,0.1c-0.4,0.1-0.4,0.3-0.4,0.4c0,0.2,0,0.7,0,2c0,0.4,0,0.8,0,1c0,0.4,0.1,0.5,0.5,0.6
			c0.1,0,0.2,0.1,0.2,0.1c0,0.1-0.1,0.1-0.2,0.1c-0.4,0-0.8,0-1,0c-0.2,0-0.3,0-0.5,0c-0.1,0-0.2-0.1-0.2-0.1c0,0,0.1-0.1,0.2-0.1
			c0.3-0.1,0.4-0.2,0.4-0.5c0-0.2,0-1,0-1.5C213.8,118.4,213.8,117.5,213.8,117.3z"/>
		<path d="M220.5,118.7c0,0-0.2,0.1-0.2,0.1c0,0,0,0.1,0,0.1c0.1,0.2,0.6,1.1,1.1,1.6c0.2,0.2,0.4,0.3,0.7,0.4
			c0.1,0,0.1,0.1,0.1,0.1c0,0-0.1,0.1-0.1,0.1c-0.1,0-0.2,0-0.4,0c-0.3,0-0.7-0.2-0.9-0.4c-0.2-0.3-0.6-0.9-0.9-1.3
			c-0.1-0.1-0.2-0.3-0.3-0.3c0,0-0.3-0.1-0.5-0.1c-0.1,0-0.1,0.1-0.1,0.1c0,0.1,0,1,0,1.4c0,0.3,0.1,0.4,0.4,0.5
			c0.1,0,0.2,0.1,0.2,0.1c0,0.1-0.1,0.1-0.2,0.1c-0.3,0-0.4,0-0.9,0c-0.1,0-0.5,0-0.6,0c-0.1,0-0.2,0-0.2-0.1c0-0.1,0.1-0.1,0.2-0.1
			c0.3-0.1,0.4-0.1,0.4-0.4c0-0.2,0-0.9,0-1.4c0-1.1,0-1.7,0-2c0-0.3-0.1-0.3-0.4-0.3c-0.1,0-0.2-0.1-0.2-0.1c0,0,0-0.1,0.2-0.1
			c0.2,0,0.2,0,0.4,0c0.3,0,0.7,0,1.1,0c0.5,0,0.8,0.1,1.1,0.3c0.2,0.2,0.4,0.5,0.4,0.9C221.1,118.1,220.9,118.5,220.5,118.7z
			 M220.2,117c-0.2-0.2-0.5-0.3-0.7-0.3c0,0-0.3,0-0.3,0c0,0-0.1,0.1-0.1,0.1c0,0.2,0,1.6,0,1.7c0,0.1,0.1,0.1,0.1,0.1
			c0.4,0,0.8-0.1,0.9-0.2c0.2-0.1,0.5-0.4,0.5-0.9C220.5,117.6,220.4,117.2,220.2,117z"/>
		<path d="M225.1,117.3c0-0.3,0-0.4-0.4-0.5c-0.2,0-0.2-0.1-0.2-0.1c0-0.1,0.1-0.1,0.2-0.1c0.2,0,0.5,0,0.8,0c0.3,0,0.5,0,0.7,0
			c0.1,0,0.2,0,0.2,0.1c0,0.1-0.1,0.1-0.2,0.1c-0.4,0.1-0.4,0.3-0.4,0.4c0,0.2,0,0.7,0,2c0,0.4,0,0.8,0,1c0,0.4,0.1,0.5,0.5,0.6
			c0.1,0,0.2,0.1,0.2,0.1c0,0.1-0.1,0.1-0.2,0.1c-0.4,0-0.8,0-1,0c-0.2,0-0.3,0-0.5,0c-0.1,0-0.2-0.1-0.2-0.1c0,0,0.1-0.1,0.2-0.1
			c0.3-0.1,0.4-0.2,0.4-0.5c0-0.2,0-1,0-1.5C225.1,118.4,225.1,117.5,225.1,117.3z"/>
		<path d="M232.8,116.6c0.2,0,0.4-0.1,0.5-0.1c0,0,0.1,0,0.1,0c0,0,0.1,0.1,0,0.2c-0.1,0.2-0.1,0.4-0.2,0.8c0,0.1-0.1,0.1-0.1,0.1
			c0,0-0.1,0-0.1-0.2c0-0.4-0.1-0.4-0.6-0.4c-0.1,0-0.9,0-1,0c0,0-0.1,0.1-0.1,0.1c0,0.3,0,1.1,0,1.7c0,0.8,0,1.5,0,1.7
			c0,0.3,0.1,0.4,0.5,0.5c0.1,0,0.2,0.1,0.2,0.1c0,0.1-0.1,0.1-0.2,0.1c-0.1,0-0.5,0-0.8,0c-0.3,0-0.7,0-0.8,0c-0.1,0-0.2,0-0.2-0.1
			c0,0,0.1-0.1,0.1-0.1c0.5-0.1,0.5-0.2,0.5-0.7c0-0.4,0-1.8,0-2.3c0-0.4,0-0.5,0-0.8c0-0.1,0-0.1-0.1-0.1c-0.1,0-0.7,0-0.9,0
			c-0.3,0-0.4,0-0.5,0.2c0,0-0.1,0.1-0.2,0.4c-0.1,0.1-0.1,0.1-0.1,0.1c0,0-0.1-0.1-0.1-0.2c0-0.1,0.1-0.5,0.1-0.9
			c0,0,0.1-0.1,0.1-0.1c0,0,0,0,0.1,0.1c0,0,0.1,0.1,0.2,0.1c0.2,0,0.7,0,1.6,0C231.6,116.6,232.5,116.6,232.8,116.6z"/>
		<path d="M238.4,116.6c0,0,0.1,0.1,0.1,0.1c0,0.1,0.1,0.5,0.1,0.6c0,0.1,0,0.2,0,0.2c-0.1,0-0.1,0-0.2-0.1
			c-0.1-0.2-0.3-0.5-0.3-0.5c-0.1-0.1-0.3-0.2-0.5-0.2c-0.5,0-0.8,0.3-0.8,0.8c0,0.5,0.3,0.7,1,1.1c0.5,0.4,1,0.7,1,1.3
			c0,0.3-0.2,0.7-0.6,1c-0.2,0.1-0.6,0.2-0.9,0.2c-0.2,0-0.7-0.1-0.9-0.2c-0.1,0-0.2-0.2-0.2-0.2c0-0.2-0.1-0.5-0.1-0.6
			c0,0,0.1-0.1,0.1-0.1c0.1,0,0.2,0.2,0.3,0.4c0.2,0.4,0.6,0.6,0.9,0.6c0.5,0,0.8-0.3,0.8-0.8c0-0.3-0.1-0.6-0.9-1.1
			c-0.6-0.4-1-0.8-1-1.4c0-0.3,0.1-0.6,0.4-0.8c0.2-0.2,0.5-0.3,1-0.3C237.9,116.5,238.3,116.6,238.4,116.6z"/>
	</g>
	<path d="M146.9,173.5c0,0-0.3-3.8,1-6.1c1.3-2.3,3.1-3,3.9-2.2c0.8,0.8,0.1,1.5-0.3,1.5c-0.3,0.1-0.5,0-0.5,0s0.7,0.7,2,0.1
		c1.3-0.7,1.4-2.2,0.3-3.5c-1.1-1.2-3.4-0.4-4.2,0.6c-0.8,1-1.9,2.6-2.2,4.9C146.6,171.1,146.9,173.5,146.9,173.5z"/>
	<path class="st0" d="M164.3,153.1c0,0-0.5-0.3-0.3-0.1c0.1,0.2,0.2,0.2,0.2,0.2s0.2,0,0.7,0.4c0.5,0.4,1,1.2,0.7,1.8
		c-0.3,0.7-0.9,0.5-1.1,0.3c-0.2-0.3-0.1-0.5-0.1-0.5s0.1,0.2,0.3,0.2c0.2,0,0.5-0.2,0.3-0.6c-0.2-0.4-0.8-0.2-0.9,0.2
		c-0.2,0.5,0.2,1.3,1,1.2c0.8-0.1,1-1.2,1-1.2s0.5,1,0.3,1.9c-0.2,1-1,1.4-1.7,1.3c-0.6-0.1-0.8-0.6-0.8-0.7c0-0.1,0-0.1,0-0.1
		s0.2,0.2,0.5,0.1s0.3-0.7-0.2-0.7c-0.5,0-0.8,0.8-0.4,1.3c0.5,0.6,1.3,0.7,1.9,0.3c0.5-0.3,1-1.1,0.9-2c-0.1-0.7-0.4-1.5-0.4-1.5
		s0.4,1.1,1.3,1.4c0.8,0.2,1.4-0.3,1.3-0.9c-0.1-0.5-1-0.5-1.1-0.1c-0.1,0.4,0.4,0.6,0.5,0.5c0.2-0.1,0.2-0.2,0.2-0.2
		s-0.2,0.5-0.8,0.5c-0.6,0-1.1-0.6-1.4-1.2c-0.4-0.9-1.2-1.5-1.2-1.5s0.3,0.3-0.2-0.1C164.2,153,164.3,153.1,164.3,153.1z"/>
	<path class="st0" d="M166.5,156.1c0,0-0.5-0.3-0.4-0.1c0.2,0.2,0.2,0.2,0.2,0.2s0.2,0,0.8,0.5c0.6,0.4,1.1,1.2,0.8,2
		c-0.3,0.7-1,0.6-1.2,0.3c-0.2-0.3-0.2-0.6-0.2-0.6s0.1,0.2,0.3,0.2c0.2,0,0.6-0.3,0.3-0.7c-0.3-0.4-0.8-0.2-1,0.3
		c-0.2,0.5,0.3,1.4,1.1,1.2c0.9-0.1,1-1.3,1-1.3s0.5,1.1,0.4,2.1c-0.2,1.1-1.1,1.6-1.7,1.4c-0.6-0.1-0.9-0.7-0.9-0.7
		c0-0.1,0-0.1,0-0.1s0.3,0.3,0.6,0.1c0.3-0.2,0.3-0.8-0.2-0.8c-0.5,0-0.8,0.9-0.4,1.4c0.6,0.7,1.5,0.7,2.1,0.3
		c0.6-0.4,1-1.2,0.9-2.2c-0.1-0.8-0.4-1.6-0.4-1.6s0.5,1.2,1.4,1.5c0.9,0.2,1.5-0.4,1.3-1c-0.2-0.6-1.1-0.5-1.2-0.1
		c-0.1,0.4,0.4,0.6,0.6,0.5c0.2-0.1,0.2-0.2,0.2-0.2s-0.1,0.6-0.8,0.5c-0.7,0-1.2-0.7-1.5-1.3c-0.4-1-1.3-1.6-1.3-1.6
		s0.3,0.3-0.2-0.1C166.5,156,166.5,156.1,166.5,156.1z"/>
	<path d="M168.8,160.3c0,0-0.4-0.1-0.2,0c0.1,0.1,0.2,0.1,0.2,0.1s0.1,0,0.6,0.1c0.4,0.2,1,0.5,0.9,1.1c-0.1,0.5-0.5,0.6-0.7,0.4
		c-0.2-0.1-0.2-0.3-0.2-0.3s0.1,0.1,0.2,0.1c0.2,0,0.3-0.3,0.1-0.5c-0.2-0.2-0.6,0-0.6,0.4c0,0.4,0.4,0.8,1,0.6c0.5-0.3,0.4-1,0.4-1
		s0.6,0.6,0.6,1.2c0.1,0.8-0.4,1.2-0.8,1.3c-0.4,0.1-0.7-0.2-0.7-0.3c0,0,0,0,0,0s0.2,0.1,0.4-0.1c0.2-0.2,0-0.5-0.3-0.4
		c-0.3,0.1-0.4,0.7,0.1,1c0.5,0.3,1.1,0.1,1.4-0.2c0.3-0.4,0.4-1,0.1-1.6c-0.2-0.5-0.6-0.9-0.6-0.9s0.6,0.7,1.2,0.6
		c0.6,0,0.9-0.6,0.6-0.9c-0.2-0.3-0.8-0.1-0.7,0.2c0,0.3,0.4,0.3,0.5,0.2c0.1-0.1,0.1-0.2,0.1-0.2s0,0.4-0.4,0.5
		c-0.4,0.1-0.9-0.2-1.2-0.5c-0.5-0.5-1.2-0.8-1.2-0.8s0.3,0.1-0.1,0C168.8,160.3,168.8,160.3,168.8,160.3z"/>
	<path d="M146.5,172.7c0,0-0.7-3.4,0.6-7.5c1.3-4.1,4.7-6.9,5.8-8c1.2-1.1,2.4-2,4.8-3c2.4-1,5.1-1.4,7.5-0.8
		c2.4,0.7,5.7,2.7,6.9,6.1c1.2,3.4-0.1,6.8-2.1,8.8c-2,2-6.3,3.1-9.1,0.6c-2.7-2.4-3.4-5.7-0.8-7.6c2.5-1.9,4.9-0.2,4.6,1.8
		c-0.3,2-2.1,2-2.5,1.7c-0.4-0.3-0.4-0.3-0.4-0.3s0.8,0.1,1.1-0.8c0.3-0.9-0.9-1.7-1.8-0.9c-1,0.8,0.1,2.8,1.9,2.8
		c1.8,0.1,3.4-2.1,2.2-4.3c-1.1-2.1-3.9-2.3-5.7-0.9c-1.8,1.4-3.5,4.1-1.5,7.4c2,3.4,5.7,4,8.6,3.4c2.9-0.6,4.9-3,5.5-4.1
		c0.6-1.1,1.6-3.6,1-6.6c-0.6-2.9-2.8-5.9-6.1-7.2c-3.3-1.3-5.9-1.1-8.9-0.1c-3.3,1.1-7.7,5-9.2,7.8c-1.4,2.7-2.5,5.8-2.4,8.4
		C146.5,172,146.5,172.7,146.5,172.7z"/>
	<path class="st0" d="M149,161.4c0,0,0.9-0.7,2-0.9c1.1-0.2,3.2,0.4,4.4,0.2c1.1-0.2,1.7-1,1.5-1.6c-0.3-0.6-0.9-0.4-1.1-0.2
		c-0.2,0.2,0,0.4,0,0.4s0.2-0.5,0.5-0.2c0.3,0.3,0,1.2-1.2,1.2c-1.2,0.1-2.1-0.4-3.4-0.2C150.3,160.5,149,161.4,149,161.4z"/>
	<path d="M150.5,158.6c0,0,0.6-0.7,0.8-1.2c0.2-0.5,0.2-0.7,0.2-0.7s0.8-0.3,1.6-1.3c0.8-1,1.1-2.8,0.2-4c-0.9-1.2-2.1-0.6-2.4,0
		c-0.3,0.6,0,1.3,0,1.3s0-0.3,0.5-0.5c0.4-0.1,1.1,0.3,0.8,1.1c-0.3,0.8-1.4,0.8-1.8-0.1c-0.5-0.9-0.1-2.6,1.5-2.7
		c1.6-0.1,2.3,2,2.3,2s0.5-2.3-0.2-3.9c-0.8-2-2.5-2.4-3.6-1.9c-1.1,0.5-1.3,1.6-1.3,1.7c0,0.2,0,0.2,0,0.2s0.4-0.6,1-0.4
		c0.6,0.2,0.8,1.3-0.1,1.5c-0.9,0.2-1.8-1.3-1.2-2.5c0.7-1.5,2.3-1.8,3.5-1.3c1.2,0.5,2.3,1.8,2.4,3.7c0.1,1.5-0.1,3.1-0.1,3.1
		s0.4-2.4,1.9-3.2s2.8,0.1,2.7,1.3c-0.1,1.2-1.7,1.3-2,0.6c-0.3-0.7,0.5-1.3,0.8-1.2c0.4,0.1,0.5,0.3,0.5,0.3s-0.5-1-1.6-0.7
		c-1.1,0.3-1.9,1.7-2.1,3c-0.4,1.9-1.7,3.5-1.7,3.5s0.1,0-0.7,0.8C151.3,157.8,150.5,158.6,150.5,158.6z"/>
	<path d="M169.9,152.8c0,0-0.3,0.1,0-0.1c0.3-0.2,0.3-0.2,0.3-0.2s0.2,0.1,1-0.1c0.8-0.2,1.7-0.6,1.8-1.5c0.1-0.9-0.6-1.1-1-0.9
		c-0.4,0.2-0.5,0.5-0.5,0.5s0.2-0.1,0.4,0c0.2,0.1,0.4,0.5-0.1,0.8c-0.5,0.3-0.9-0.2-0.8-0.8c0.1-0.6,1-1.2,1.7-0.7
		c0.8,0.6,0.2,1.8,0.2,1.8s1.1-0.8,1.5-1.9c0.4-1.2-0.2-2.1-0.9-2.3c-0.7-0.2-1.2,0.2-1.3,0.3c-0.1,0.1-0.1,0.1-0.1,0.1
		s0.4-0.1,0.6,0.2c0.2,0.3-0.1,0.9-0.6,0.6c-0.5-0.3-0.3-1.3,0.4-1.6c0.9-0.4,1.7,0.1,2.1,0.7c0.3,0.7,0.3,1.7-0.4,2.6
		c-0.6,0.7-1.3,1.3-1.3,1.3s1.1-1,2.1-0.7c1,0.2,1.2,1.1,0.7,1.6c-0.5,0.5-1.3-0.1-1.1-0.5c0.2-0.5,0.7-0.4,0.8-0.2
		c0.1,0.2,0.1,0.3,0.1,0.3s0.2-0.6-0.5-0.9c-0.6-0.3-1.5,0-2.1,0.5c-0.9,0.7-2.1,0.9-2.1,0.9s0,0-0.6,0.1
		C169.8,152.9,169.9,152.8,169.9,152.8z"/>
	<path d="M159.9,151.8c0,0-0.5,0.2-0.3,0c0.1-0.2,0.2-0.2,0.2-0.2s0.2,0,0.7-0.4c0.5-0.4,1.1-1.1,0.8-1.8c-0.2-0.7-0.8-0.6-1-0.4
		c-0.2,0.3-0.2,0.5-0.2,0.5s0.1-0.2,0.3-0.2c0.2,0,0.5,0.3,0.2,0.6c-0.2,0.4-0.7,0.2-0.9-0.3c-0.1-0.5,0.3-1.3,1.1-1.1
		c0.8,0.2,0.8,1.3,0.8,1.3s0.5-1,0.5-1.9c-0.1-1-0.8-1.5-1.4-1.4c-0.6,0.1-0.8,0.6-0.9,0.6c0,0.1,0,0.1,0,0.1s0.3-0.2,0.5-0.1
		c0.2,0.2,0.2,0.7-0.3,0.7c-0.5,0-0.7-0.8-0.2-1.3c0.5-0.6,1.3-0.5,1.8-0.1c0.5,0.4,0.8,1.2,0.6,2.1c-0.2,0.7-0.5,1.4-0.5,1.4
		s0.5-1.1,1.3-1.3c0.8-0.2,1.3,0.4,1.1,1c-0.2,0.5-1,0.4-1,0c0-0.4,0.4-0.5,0.6-0.4c0.2,0.1,0.2,0.2,0.2,0.2s-0.1-0.5-0.7-0.5
		c-0.6,0-1.1,0.5-1.4,1.1c-0.4,0.9-1.3,1.4-1.3,1.4s0.3-0.2-0.1,0.1C159.8,151.8,159.9,151.8,159.9,151.8z"/>
	<path d="M196.1,138.2c0,0-0.5,0-0.3-0.1c0.2-0.1,0.2-0.1,0.2-0.1s0.1,0.1,0.7,0c0.6-0.1,1.3-0.3,1.4-1c0.1-0.6-0.4-0.8-0.6-0.7
		c-0.3,0.1-0.4,0.3-0.4,0.3s0.1-0.1,0.3,0c0.2,0.1,0.2,0.4-0.1,0.6c-0.3,0.2-0.7-0.2-0.5-0.6c0.1-0.4,0.8-0.8,1.3-0.4
		c0.5,0.5,0,1.3,0,1.3s0.9-0.5,1.2-1.2c0.4-0.8,0-1.5-0.5-1.7c-0.5-0.2-0.9,0.1-0.9,0.1c-0.1,0-0.1,0-0.1,0s0.3-0.1,0.4,0.2
		c0.1,0.2-0.2,0.6-0.5,0.4c-0.3-0.2-0.1-0.9,0.4-1.1c0.7-0.2,1.3,0.2,1.5,0.7c0.2,0.5,0.1,1.2-0.4,1.9c-0.4,0.5-1,0.9-1,0.9
		s0.9-0.6,1.6-0.4c0.7,0.2,0.8,0.9,0.4,1.2c-0.4,0.3-0.9-0.1-0.8-0.4c0.1-0.3,0.5-0.2,0.6-0.1c0.1,0.1,0,0.2,0,0.2s0.2-0.4-0.3-0.7
		c-0.4-0.3-1.1-0.1-1.6,0.2c-0.7,0.5-1.6,0.5-1.6,0.5s0.3,0-0.1,0C196,138.2,196.1,138.2,196.1,138.2z"/>
	<path d="M165.2,163.9c0,0-0.5-0.2-0.3,0c0.2,0.2,0.2,0.2,0.2,0.2s0.2,0,0.8,0.3c0.6,0.3,1.3,0.9,1.1,1.6c-0.2,0.7-0.8,0.7-1,0.5
		c-0.3-0.2-0.3-0.5-0.3-0.5s0.1,0.1,0.3,0.1c0.2,0,0.5-0.3,0.2-0.7c-0.3-0.3-0.8-0.1-0.9,0.4c0,0.5,0.5,1.2,1.3,0.9
		c0.8-0.3,0.6-1.4,0.6-1.4s0.7,0.9,0.7,1.8c0,1-0.7,1.6-1.3,1.6c-0.6,0-0.9-0.4-1-0.5c0-0.1,0-0.1,0-0.1s0.3,0.2,0.5,0
		c0.2-0.2,0.1-0.7-0.4-0.6c-0.5,0.1-0.6,0.9-0.1,1.4c0.6,0.5,1.5,0.3,1.9-0.1c0.5-0.5,0.7-1.3,0.4-2.2c-0.3-0.7-0.7-1.3-0.7-1.3
		s0.7,1,1.6,1.1c0.9,0,1.3-0.7,1-1.1c-0.3-0.5-1.1-0.2-1.1,0.2c0,0.4,0.5,0.5,0.6,0.4c0.2-0.1,0.2-0.2,0.2-0.2s0,0.5-0.6,0.6
		c-0.6,0.1-1.2-0.4-1.6-0.9c-0.6-0.8-1.5-1.2-1.5-1.2s0.4,0.2-0.2,0C165.1,163.9,165.2,163.9,165.2,163.9z"/>
	<path d="M191.8,139.6C191.8,139.6,191.6,139.8,191.8,139.6c0.3,0,0.4,0,0.4,0s0.1-0.2,0.6-0.6c0.6-0.4,1.4-0.8,2.1-0.3
		c0.6,0.5,0.4,1,0,1.2c-0.3,0.1-0.6,0-0.6,0s0.2,0,0.3-0.2c0.1-0.2-0.1-0.6-0.6-0.4c-0.5,0.1-0.4,0.7,0.1,1c0.5,0.3,1.4,0.1,1.5-0.8
		c0.1-0.8-1.1-1.2-1.1-1.2s1.2-0.2,2.1,0.1c1,0.4,1.3,1.3,1,1.9c-0.2,0.6-0.8,0.7-0.9,0.7c-0.1,0-0.1,0-0.1,0s0.3-0.2,0.2-0.5
		c-0.1-0.3-0.7-0.4-0.8,0.1c-0.1,0.5,0.7,0.9,1.3,0.6c0.8-0.4,1-1.2,0.7-1.8c-0.3-0.6-0.9-1.2-2-1.3c-0.8-0.1-1.6,0.1-1.6,0.1
		s1.3-0.2,1.7-1c0.4-0.8-0.1-1.5-0.7-1.4c-0.6,0-0.7,0.9-0.3,1c0.4,0.2,0.7-0.2,0.6-0.4c0-0.2-0.2-0.2-0.2-0.2s0.5,0.3,0.4,0.8
		c-0.2,0.6-0.9,1-1.6,1.1c-1,0.2-1.9,0.9-1.9,0.9s0,0-0.4,0.4C191.6,139.7,191.8,139.6,191.8,139.6z"/>
	<path class="st0" d="M186,152.3c0,0-0.4-0.2-0.2-0.2c0.2,0,0.2,0,0.2,0s0.1,0.1,0.6,0.2c0.5,0.1,1.2,0.2,1.5-0.3
		c0.3-0.5,0-0.8-0.3-0.8c-0.3,0-0.4,0.1-0.4,0.1s0.1,0,0.2,0.1c0.1,0.1,0.1,0.4-0.3,0.5c-0.3,0-0.5-0.4-0.2-0.7
		c0.3-0.3,0.9-0.4,1.2,0.1c0.3,0.6-0.4,1.1-0.4,1.1s0.9-0.1,1.4-0.6c0.6-0.6,0.5-1.2,0.2-1.6c-0.3-0.3-0.8-0.2-0.8-0.2
		c-0.1,0-0.1,0-0.1,0s0.3,0.1,0.3,0.3c0,0.2-0.4,0.5-0.6,0.2c-0.2-0.3,0.2-0.8,0.7-0.8c0.6,0.1,1,0.6,1,1.1c0,0.5-0.3,1.1-1,1.4
		c-0.5,0.3-1.1,0.4-1.1,0.4s1-0.2,1.4,0.2c0.5,0.4,0.3,1-0.1,1.2c-0.4,0.1-0.7-0.4-0.5-0.6c0.2-0.2,0.5,0,0.6,0.1c0,0.1,0,0.2,0,0.2
		s0.3-0.3,0-0.7c-0.3-0.4-0.9-0.4-1.4-0.3c-0.8,0.1-1.5-0.1-1.5-0.1s0.3,0.1-0.1-0.1C186,152.3,186,152.3,186,152.3z"/>
	<path class="st0" d="M182,151.9C182,151.9,181.7,152,182,151.9c0.3,0.1,0.3,0.1,0.3,0.1s0.1-0.1,0.7-0.3c0.6-0.1,1.4-0.1,1.8,0.5
		c0.4,0.6,0,1-0.4,1c-0.3,0-0.5-0.2-0.5-0.2s0.2,0,0.3-0.1c0.1-0.2,0.1-0.5-0.3-0.6c-0.4,0-0.6,0.4-0.3,0.8c0.3,0.4,1.1,0.5,1.5-0.1
		c0.3-0.7-0.5-1.3-0.5-1.3s1.1,0.2,1.7,0.8c0.7,0.7,0.6,1.5,0.2,1.9c-0.4,0.4-0.9,0.3-1,0.2c-0.1,0-0.1,0-0.1,0s0.3-0.1,0.3-0.3
		c0-0.3-0.4-0.6-0.7-0.2c-0.3,0.4,0.2,1,0.9,1c0.8,0,1.2-0.7,1.2-1.2c0-0.6-0.4-1.3-1.2-1.7c-0.7-0.3-1.4-0.5-1.4-0.5
		s1.1,0.3,1.8-0.2c0.6-0.5,0.4-1.2-0.1-1.4c-0.5-0.2-0.9,0.5-0.6,0.7c0.3,0.3,0.6,0,0.7-0.1c0-0.2-0.1-0.3-0.1-0.3s0.3,0.4,0,0.8
		c-0.3,0.4-1.1,0.5-1.7,0.4c-0.9-0.2-1.8,0.1-1.8,0.1s0,0-0.5,0.1C181.9,152,182,151.9,182,151.9z"/>
	<path d="M190.2,141.6c0,0,0.5-0.8,0.5-1.3c0-0.5,0-0.7,0-0.7s0.7-0.5,1.2-1.7c0.5-1.2,0.4-2.9-0.8-3.9c-1.2-1-2.2-0.1-2.3,0.6
		c-0.1,0.7,0.4,1.2,0.4,1.2s-0.1-0.3,0.3-0.6c0.4-0.2,1.1,0,1.1,0.9c-0.1,0.9-1.1,1.1-1.8,0.3c-0.7-0.7-0.8-2.5,0.8-3
		c1.5-0.5,2.7,1.4,2.7,1.4s-0.1-2.3-1.2-3.8c-1.3-1.7-3-1.8-4-1c-0.9,0.7-0.9,1.8-0.8,2c0,0.2,0,0.2,0,0.2s0.2-0.7,0.8-0.6
		c0.6,0.1,1.1,1.1,0.2,1.5c-0.8,0.4-2.1-0.8-1.8-2.1c0.3-1.6,1.8-2.3,3-2.1c1.3,0.2,2.6,1.2,3.3,3c0.5,1.5,0.6,3,0.6,3
		s-0.2-2.5,1-3.6c1.2-1.1,2.7-0.5,3,0.6c0.2,1.1-1.3,1.7-1.8,1c-0.5-0.6,0.1-1.4,0.5-1.4c0.4,0,0.5,0.2,0.5,0.2s-0.7-0.8-1.7-0.3
		c-1,0.6-1.4,2.1-1.3,3.4c0.1,2-0.7,3.8-0.7,3.8s0.1,0-0.5,1C190.9,140.6,190.2,141.6,190.2,141.6z"/>
	<path class="st0" d="M159.9,160.1c0,0,2-0.8,2.1-2.2c0.1-1.4-0.9-1.9-1.5-1.9c-0.6,0-1,0.4-1.2,0.7c-0.1,0.3,0,0.5,0,0.5
		s0.1-0.5,0.6-0.4c0.5,0,0.8,0.7,0.2,1c-0.6,0.3-1.1-0.5-1-1c0.1-0.6,0.6-1.5,1.8-1.4c1.4,0,2.2,1.9,1.8,3c-0.4,1.1-1.2,1.4-1.4,1.5
		c-0.2,0.1-1,0.2-1,0.2L159.9,160.1z"/>
	<path d="M190.9,140.2c0,0-0.9,3-2.7,4.9c-1.8,1.9-3.6,2.5-5.7,2.3c-2.2-0.2-3.8-2.2-3.1-4.4c0.7-2.2,2.7-2.4,3.7-2.2
		c1,0.2,2.1,1.2,1.6,2.7c-0.5,1.5-1.6,2-2.9,1.6c-1.3-0.5-1.2-2.1-0.8-2.6c0.4-0.5,0.9-0.6,0.9-0.6s-1-0.4-1.7,0.3
		c-0.7,0.7-0.2,1.5-0.2,1.5s-1.1-1.8-3.1-1.7c-2,0-2.7,2.3-2.7,2.3s1.4-1.9,3.1-1.1c1.7,0.8,3.1,2.6,5,2.5c1.9-0.1,2.7-1.5,2.9-2.4
		c0.1-0.9-0.1-1.5-0.1-1.5s0.8,0.3,1.7-0.6c0.9-0.9,0.9-1.8,0.9-1.8s-0.6,1.7-2.1,1.5c-1.5-0.1-2.4-1-4.1-0.6
		c-1.7,0.5-3.1,2.8-2.2,5.1c0.9,2.3,4.5,3.6,7.5,1.6c3-2,4.3-5.4,4.3-5.4L190.9,140.2z"/>
	<path d="M152.4,156.6c0,0,2.1-3.4,6.7-4.9c4.6-1.5,6.3-1.2,8.6-2.3c2.3-1.2,3.2-3.2,3-4.7c-0.2-1.5-1-1.9-1.5-1.9
		c-0.5,0-0.9,0.2-0.9,0.2s-0.1-1.8-2-1.8c-2,0-3.7,2.6-2.6,4.5c0.9,1.5,2.5,0.9,2.5,0.9s-0.9,0.1-1-0.6c-0.1-1,1-1.1,1.5-0.5
		c0.6,0.8,0,1.7-1.4,1.8c-2,0.1-3.7-2.8-2.2-5.1c1.1-1.7,4-3.1,6.5-1.3c2.5,1.8,2.5,5.2,1.3,6.9c-1.2,1.7-2.8,2.8-5.9,3.3
		c-3.2,0.5-4.7,0.5-7.5,1.9C154.7,154.1,152.4,156.6,152.4,156.6z"/>
	<path d="M152.2,156.8c0,0,3.1-4.3,9.8-5c6.7-0.7,11.2,2.9,17.8,0.2c6.6-2.7,8-6.2,10-9.6c2.2-3.8,5-8.1,9.4-10.5
		c4.5-2.4,7-1.6,7-1.6l0.1,0.2c0,0-4.8-1.5-11.4,5.4c-4.1,4.3-5.1,11.1-10,14.7c-4.9,3.6-10.1,3.6-14.6,2.4
		c-4.5-1.2-8.2-1.4-11.3-0.3C156,153.7,152.2,156.8,152.2,156.8z"/>
	<path d="M151,173.5c0,0,0.3-3.8-1-6.1c-1.3-2.3-3.1-3-3.9-2.2c-0.8,0.8-0.1,1.5,0.3,1.5c0.3,0.1,0.5,0,0.5,0s-0.7,0.7-2,0.1
		c-1.3-0.7-1.4-2.2-0.3-3.5c1.1-1.2,3.4-0.4,4.2,0.6c0.8,1,1.9,2.6,2.2,4.9C151.3,171.1,151,173.5,151,173.5z"/>
	<path class="st0" d="M133.7,153.1c0,0,0.5-0.3,0.3-0.1c-0.1,0.2-0.2,0.2-0.2,0.2s-0.2,0-0.7,0.4c-0.5,0.4-1,1.2-0.7,1.8
		c0.3,0.7,0.9,0.5,1.1,0.3c0.2-0.3,0.1-0.5,0.1-0.5s-0.1,0.2-0.3,0.2c-0.2,0-0.5-0.2-0.3-0.6c0.2-0.4,0.8-0.2,0.9,0.2
		c0.2,0.5-0.2,1.3-1,1.2c-0.8-0.1-1-1.2-1-1.2s-0.5,1-0.3,1.9c0.2,1,1,1.4,1.7,1.3c0.6-0.1,0.8-0.6,0.8-0.7c0-0.1,0-0.1,0-0.1
		s-0.2,0.2-0.5,0.1c-0.3-0.2-0.3-0.7,0.2-0.7c0.5,0,0.8,0.8,0.4,1.3c-0.5,0.6-1.3,0.7-1.9,0.3c-0.5-0.3-1-1.1-0.9-2
		c0.1-0.7,0.4-1.5,0.4-1.5s-0.4,1.1-1.3,1.4c-0.8,0.2-1.4-0.3-1.3-0.9c0.1-0.5,1-0.5,1.1-0.1c0.1,0.4-0.4,0.6-0.5,0.5
		c-0.2-0.1-0.2-0.2-0.2-0.2s0.2,0.5,0.8,0.5c0.6,0,1.1-0.6,1.4-1.2c0.4-0.9,1.2-1.5,1.2-1.5s-0.3,0.3,0.2-0.1
		C133.7,153,133.7,153.1,133.7,153.1z"/>
	<path class="st0" d="M131.4,156.1c0,0,0.5-0.3,0.4-0.1c-0.2,0.2-0.2,0.2-0.2,0.2s-0.2,0-0.8,0.5c-0.6,0.4-1.1,1.2-0.8,2
		c0.3,0.7,1,0.6,1.2,0.3c0.2-0.3,0.2-0.6,0.2-0.6s-0.1,0.2-0.3,0.2c-0.2,0-0.6-0.3-0.3-0.7c0.3-0.4,0.8-0.2,1,0.3
		c0.2,0.5-0.3,1.4-1.1,1.2c-0.9-0.1-1-1.3-1-1.3s-0.5,1.1-0.4,2.1c0.2,1.1,1.1,1.6,1.7,1.4c0.6-0.1,0.9-0.7,0.9-0.7
		c0-0.1,0-0.1,0-0.1s-0.3,0.3-0.6,0.1c-0.3-0.2-0.3-0.8,0.3-0.8c0.5,0,0.8,0.9,0.4,1.4c-0.6,0.7-1.5,0.7-2.1,0.3
		c-0.6-0.4-1-1.2-0.9-2.2c0.1-0.8,0.4-1.6,0.4-1.6s-0.5,1.2-1.4,1.5c-0.9,0.2-1.5-0.4-1.3-1c0.2-0.6,1.1-0.5,1.2-0.1
		c0.1,0.4-0.4,0.6-0.6,0.5c-0.2-0.1-0.2-0.2-0.2-0.2s0.1,0.6,0.8,0.5c0.7,0,1.2-0.7,1.5-1.3c0.4-1,1.3-1.6,1.3-1.6s-0.3,0.3,0.2-0.1
		C131.5,156,131.4,156.1,131.4,156.1z"/>
	<path d="M129.1,160.3c0,0,0.4-0.1,0.2,0c-0.1,0.1-0.2,0.1-0.2,0.1s-0.1,0-0.6,0.1c-0.4,0.2-1,0.5-0.9,1.1c0.1,0.5,0.5,0.6,0.7,0.4
		c0.2-0.1,0.2-0.3,0.2-0.3s-0.1,0.1-0.2,0.1c-0.2,0-0.3-0.3-0.1-0.5c0.2-0.2,0.6,0,0.6,0.4c0,0.4-0.4,0.8-1,0.6
		c-0.5-0.3-0.4-1-0.4-1s-0.6,0.6-0.6,1.2c-0.1,0.8,0.4,1.2,0.8,1.3c0.4,0.1,0.7-0.2,0.7-0.3c0,0,0,0,0,0s-0.2,0.1-0.4-0.1
		c-0.1-0.2,0-0.5,0.3-0.4c0.3,0.1,0.4,0.7-0.1,1c-0.5,0.3-1.1,0.1-1.4-0.2c-0.3-0.4-0.4-1-0.1-1.6c0.2-0.5,0.6-0.9,0.6-0.9
		s-0.6,0.7-1.2,0.6c-0.6,0-0.9-0.6-0.6-0.9c0.2-0.3,0.8-0.1,0.7,0.2c0,0.3-0.4,0.3-0.5,0.2c-0.1-0.1-0.1-0.2-0.1-0.2s0,0.4,0.4,0.5
		c0.4,0.1,0.9-0.2,1.2-0.5c0.5-0.5,1.2-0.8,1.2-0.8s-0.3,0.1,0.1,0C129.1,160.3,129.1,160.3,129.1,160.3z"/>
	<path d="M151.4,172.7c0,0,0.7-3.4-0.6-7.5c-1.3-4.1-4.7-6.9-5.8-8c-1.2-1.1-2.4-2-4.8-3c-2.4-1-5.1-1.4-7.5-0.8
		c-2.4,0.7-5.7,2.7-6.9,6.1c-1.2,3.4,0.1,6.8,2.1,8.8c2,2,6.3,3.1,9.1,0.6c2.7-2.4,3.4-5.7,0.8-7.6c-2.5-1.9-4.9-0.2-4.6,1.8
		c0.3,2,2.1,2,2.5,1.7c0.4-0.3,0.4-0.3,0.4-0.3s-0.8,0.1-1.1-0.8c-0.3-0.9,0.9-1.7,1.8-0.9c1,0.8-0.1,2.8-1.9,2.8
		c-1.8,0.1-3.4-2.1-2.2-4.3c1.1-2.1,3.9-2.3,5.7-0.9c1.8,1.4,3.5,4.1,1.5,7.4c-2,3.4-5.7,4-8.6,3.4c-2.9-0.6-4.9-3-5.5-4.1
		c-0.6-1.1-1.6-3.6-1-6.6c0.6-2.9,2.8-5.9,6.1-7.2c3.3-1.3,5.9-1.1,8.9-0.1c3.3,1.1,7.7,5,9.2,7.8c1.4,2.7,2.5,5.8,2.4,8.4
		C151.5,172,151.4,172.7,151.4,172.7z"/>
	<path class="st0" d="M149,161.4c0,0-0.9-0.7-2-0.9c-1.1-0.2-3.2,0.4-4.4,0.2c-1.1-0.2-1.7-1-1.4-1.6c0.3-0.6,0.9-0.4,1-0.2
		c0.2,0.2,0,0.4,0,0.4s-0.2-0.5-0.5-0.2c-0.3,0.3,0,1.2,1.2,1.2c1.2,0.1,2.1-0.4,3.4-0.2C147.6,160.5,149,161.4,149,161.4z"/>
	<path d="M147.5,158.6c0,0-0.6-0.7-0.8-1.2c-0.2-0.5-0.2-0.7-0.2-0.7s-0.8-0.3-1.6-1.3c-0.8-1-1.1-2.8-0.2-4c0.9-1.2,2.1-0.6,2.4,0
		c0.3,0.6,0,1.3,0,1.3s0-0.3-0.5-0.5c-0.4-0.1-1.1,0.3-0.8,1.1c0.3,0.8,1.4,0.8,1.8-0.1c0.5-0.9,0.1-2.6-1.5-2.7
		c-1.6-0.1-2.3,2-2.3,2s-0.5-2.3,0.2-3.9c0.8-2,2.5-2.4,3.6-1.9c1.1,0.5,1.3,1.6,1.3,1.7c0,0.2,0,0.2,0,0.2s-0.4-0.6-1-0.4
		c-0.6,0.2-0.8,1.3,0.1,1.5c0.9,0.2,1.8-1.3,1.2-2.5c-0.7-1.5-2.3-1.8-3.5-1.3c-1.2,0.5-2.3,1.8-2.4,3.7c-0.1,1.5,0.1,3.1,0.1,3.1
		s-0.4-2.4-1.9-3.2c-1.5-0.8-2.8,0.1-2.7,1.3c0.1,1.2,1.7,1.3,2,0.6c0.3-0.7-0.5-1.3-0.8-1.2c-0.4,0.1-0.5,0.3-0.5,0.3
		s0.5-1,1.6-0.7c1.1,0.3,1.9,1.7,2.1,3c0.4,1.9,1.7,3.5,1.7,3.5s-0.1,0,0.7,0.8C146.7,157.8,147.5,158.6,147.5,158.6z"/>
	<path d="M128,152.8c0,0,0.3,0.1,0-0.1c-0.3-0.2-0.3-0.2-0.3-0.2s-0.2,0.1-1-0.1c-0.8-0.2-1.7-0.6-1.8-1.5c-0.1-0.9,0.6-1.1,1-0.9
		c0.4,0.2,0.5,0.5,0.5,0.5s-0.2-0.1-0.4,0c-0.2,0.1-0.4,0.5,0.1,0.8c0.5,0.3,0.9-0.2,0.8-0.8c-0.1-0.6-1-1.2-1.7-0.7
		c-0.8,0.6-0.2,1.8-0.2,1.8s-1.1-0.8-1.5-1.9c-0.4-1.2,0.2-2.1,0.9-2.3c0.7-0.2,1.2,0.2,1.3,0.3c0.1,0.1,0.1,0.1,0.1,0.1
		s-0.4-0.1-0.6,0.2c-0.2,0.3,0.1,0.9,0.6,0.6c0.5-0.3,0.3-1.3-0.4-1.6c-0.9-0.4-1.7,0.1-2.1,0.7c-0.3,0.7-0.3,1.7,0.4,2.6
		c0.6,0.7,1.3,1.3,1.3,1.3s-1.1-1-2.1-0.7c-1,0.2-1.2,1.1-0.7,1.6c0.5,0.5,1.3-0.1,1.1-0.5c-0.2-0.5-0.7-0.4-0.8-0.2
		c-0.1,0.2-0.1,0.3-0.1,0.3s-0.2-0.6,0.5-0.9c0.6-0.3,1.5,0,2.1,0.5c0.9,0.7,2.1,0.9,2.1,0.9s0,0,0.6,0.1
		C128.2,152.9,128,152.8,128,152.8z"/>
	<path d="M138.1,151.8c0,0,0.5,0.2,0.3,0c-0.1-0.2-0.2-0.2-0.2-0.2s-0.2,0-0.7-0.4c-0.5-0.4-1.1-1.1-0.8-1.8c0.2-0.7,0.8-0.6,1-0.4
		c0.2,0.3,0.2,0.5,0.2,0.5s-0.1-0.2-0.3-0.2c-0.2,0-0.5,0.3-0.2,0.6c0.2,0.4,0.7,0.2,0.9-0.3c0.1-0.5-0.3-1.3-1.1-1.1
		c-0.8,0.2-0.8,1.3-0.8,1.3s-0.5-1-0.4-1.9c0.1-1,0.8-1.5,1.4-1.4c0.6,0.1,0.8,0.6,0.9,0.6c0,0.1,0,0.1,0,0.1s-0.3-0.2-0.5-0.1
		c-0.2,0.2-0.2,0.7,0.3,0.7c0.5,0,0.7-0.8,0.2-1.3c-0.5-0.6-1.3-0.5-1.8-0.1c-0.5,0.4-0.8,1.2-0.6,2.1c0.2,0.7,0.5,1.4,0.5,1.4
		s-0.5-1.1-1.3-1.3c-0.8-0.2-1.3,0.4-1.1,1c0.2,0.5,1,0.4,1,0c0-0.4-0.4-0.5-0.6-0.4c-0.2,0.1-0.2,0.2-0.2,0.2s0.1-0.5,0.7-0.5
		c0.6,0,1.1,0.5,1.4,1.1c0.4,0.9,1.3,1.4,1.3,1.4s-0.3-0.2,0.2,0.1C138.1,151.8,138.1,151.8,138.1,151.8z"/>
	<path d="M101.9,138.2c0,0,0.5,0,0.3-0.1c-0.2-0.1-0.2-0.1-0.2-0.1s-0.1,0.1-0.7,0c-0.6-0.1-1.3-0.3-1.4-1c-0.1-0.6,0.4-0.8,0.6-0.7
		c0.3,0.1,0.4,0.3,0.4,0.3s-0.1-0.1-0.3,0c-0.2,0.1-0.2,0.4,0.1,0.6c0.3,0.2,0.7-0.2,0.5-0.6c-0.1-0.4-0.8-0.8-1.3-0.4
		c-0.5,0.5,0,1.3,0,1.3s-0.9-0.5-1.2-1.2c-0.4-0.8,0-1.5,0.5-1.7c0.5-0.2,0.9,0.1,0.9,0.1c0.1,0,0.1,0,0.1,0s-0.3-0.1-0.4,0.2
		c-0.1,0.2,0.2,0.6,0.5,0.4c0.3-0.2,0.1-0.9-0.4-1.1c-0.7-0.2-1.3,0.2-1.5,0.7c-0.2,0.5-0.1,1.2,0.4,1.9c0.5,0.5,1,0.9,1,0.9
		s-0.9-0.6-1.6-0.4c-0.7,0.2-0.8,0.9-0.4,1.2c0.4,0.3,0.9-0.1,0.8-0.4c-0.1-0.3-0.5-0.2-0.6-0.1c-0.1,0.1,0,0.2,0,0.2
		s-0.2-0.4,0.3-0.7c0.4-0.3,1.1-0.1,1.6,0.2c0.7,0.5,1.6,0.5,1.6,0.5s-0.3,0,0.1,0C101.9,138.2,101.9,138.2,101.9,138.2z"/>
	<path d="M132.8,163.9c0,0,0.5-0.2,0.3,0c-0.2,0.2-0.2,0.2-0.2,0.2s-0.2,0-0.8,0.3c-0.6,0.3-1.3,0.9-1.1,1.6c0.2,0.7,0.8,0.7,1,0.5
		c0.3-0.2,0.3-0.5,0.3-0.5s-0.1,0.1-0.3,0.1c-0.2,0-0.5-0.3-0.2-0.7c0.3-0.3,0.8-0.1,0.8,0.4c0,0.5-0.5,1.2-1.3,0.9
		c-0.8-0.3-0.6-1.4-0.6-1.4s-0.7,0.9-0.7,1.8c0,1,0.7,1.6,1.3,1.6c0.6,0,0.9-0.4,1-0.5c0-0.1,0-0.1,0-0.1s-0.3,0.2-0.5,0
		c-0.2-0.2-0.1-0.7,0.4-0.6c0.5,0.1,0.6,0.9,0.1,1.4c-0.6,0.5-1.5,0.3-1.9-0.1c-0.5-0.5-0.7-1.3-0.4-2.2c0.3-0.7,0.7-1.3,0.7-1.3
		s-0.7,1-1.6,1.1c-0.9,0-1.3-0.7-1-1.1c0.3-0.5,1.1-0.2,1.1,0.2c0,0.4-0.5,0.5-0.6,0.4c-0.2-0.1-0.2-0.2-0.2-0.2s0,0.5,0.6,0.6
		c0.6,0.1,1.2-0.4,1.6-0.9c0.6-0.8,1.5-1.2,1.5-1.2s-0.4,0.2,0.2,0C132.8,163.9,132.8,163.9,132.8,163.9z"/>
	<path d="M106.2,139.6C106.2,139.6,106.4,139.8,106.2,139.6c-0.3,0-0.4,0-0.4,0s-0.1-0.2-0.6-0.6c-0.6-0.4-1.4-0.8-2.1-0.3
		c-0.6,0.5-0.4,1,0,1.2c0.3,0.1,0.6,0,0.6,0s-0.2,0-0.3-0.2c-0.1-0.2,0.1-0.6,0.6-0.4c0.5,0.1,0.4,0.7-0.1,1
		c-0.5,0.3-1.4,0.1-1.5-0.8c-0.1-0.8,1.1-1.2,1.1-1.2s-1.2-0.2-2.1,0.1c-1,0.4-1.3,1.3-1,1.9c0.2,0.6,0.8,0.7,0.9,0.7
		c0.1,0,0.1,0,0.1,0s-0.3-0.2-0.2-0.5c0.1-0.3,0.7-0.4,0.8,0.1c0.1,0.5-0.7,0.9-1.3,0.6c-0.8-0.4-1-1.2-0.7-1.8
		c0.3-0.6,0.9-1.2,2-1.3c0.8-0.1,1.6,0.1,1.6,0.1s-1.3-0.2-1.7-1c-0.4-0.8,0.1-1.5,0.7-1.4c0.6,0,0.7,0.9,0.3,1
		c-0.4,0.2-0.7-0.2-0.6-0.4c0-0.2,0.2-0.2,0.2-0.2s-0.5,0.3-0.4,0.8c0.2,0.6,0.9,1,1.6,1.1c1,0.2,1.9,0.9,1.9,0.9s0,0,0.4,0.4
		C106.3,139.7,106.2,139.6,106.2,139.6z"/>
	<g>
		<path class="st0" d="M111.9,152.3c0,0,0.4-0.2,0.2-0.2c-0.2,0-0.2,0-0.2,0s-0.1,0.1-0.6,0.2c-0.5,0.1-1.2,0.2-1.5-0.3
			c-0.3-0.5,0-0.8,0.3-0.8c0.3,0,0.4,0.1,0.4,0.1s-0.1,0-0.2,0.1c-0.1,0.1-0.1,0.4,0.3,0.5c0.3,0,0.5-0.4,0.2-0.7
			c-0.3-0.3-0.9-0.4-1.2,0.1c-0.3,0.6,0.4,1.1,0.4,1.1s-0.9-0.1-1.4-0.6c-0.6-0.6-0.5-1.2-0.2-1.6c0.3-0.3,0.8-0.2,0.8-0.2
			c0.1,0,0.1,0,0.1,0s-0.3,0.1-0.3,0.3c0,0.2,0.4,0.5,0.6,0.2c0.2-0.3-0.2-0.8-0.7-0.8c-0.6,0.1-1,0.6-1,1.1c0,0.5,0.3,1.1,1,1.4
			c0.5,0.3,1.1,0.4,1.1,0.4s-1-0.2-1.4,0.2c-0.5,0.4-0.3,1,0.1,1.2c0.4,0.1,0.7-0.4,0.5-0.6c-0.2-0.2-0.5,0-0.6,0.1
			c0,0.1,0,0.2,0,0.2s-0.3-0.3,0-0.7c0.3-0.4,0.9-0.4,1.4-0.3c0.8,0.1,1.5-0.1,1.5-0.1s-0.3,0.1,0.1-0.1
			C112,152.3,111.9,152.3,111.9,152.3z"/>
		<path class="st0" d="M115.9,151.9C115.9,151.9,116.2,152,115.9,151.9c-0.3,0.1-0.3,0.1-0.3,0.1s-0.1-0.1-0.7-0.3
			c-0.6-0.1-1.5-0.1-1.8,0.5c-0.4,0.6,0,1,0.4,1c0.3,0,0.5-0.2,0.5-0.2s-0.2,0-0.3-0.1c-0.1-0.2-0.1-0.5,0.3-0.6
			c0.4,0,0.6,0.4,0.3,0.8c-0.3,0.4-1.1,0.5-1.5-0.1c-0.3-0.7,0.5-1.3,0.5-1.3s-1.1,0.2-1.7,0.8c-0.7,0.7-0.6,1.5-0.2,1.9
			c0.4,0.4,0.9,0.3,1,0.2c0.1,0,0.1,0,0.1,0s-0.3-0.1-0.3-0.3c0-0.3,0.4-0.6,0.7-0.2c0.3,0.4-0.2,1-0.9,1c-0.8,0-1.2-0.7-1.2-1.2
			c0-0.6,0.4-1.3,1.2-1.7c0.6-0.3,1.4-0.5,1.4-0.5s-1.1,0.3-1.8-0.2c-0.6-0.5-0.4-1.2,0.1-1.4c0.5-0.2,0.9,0.5,0.6,0.7
			c-0.3,0.3-0.6,0-0.7-0.1c0-0.2,0.1-0.3,0.1-0.3s-0.3,0.4,0,0.8c0.3,0.4,1.1,0.5,1.7,0.4c0.9-0.2,1.8,0.1,1.8,0.1s0,0,0.5,0.1
			C116.1,152,115.9,151.9,115.9,151.9z"/>
	</g>
	<path d="M107.7,141.6c0,0-0.5-0.8-0.5-1.3c0-0.5,0-0.7,0-0.7s-0.7-0.5-1.2-1.7c-0.5-1.2-0.4-2.9,0.8-3.9c1.1-1,2.2-0.1,2.3,0.6
		c0.1,0.7-0.4,1.2-0.4,1.2s0.1-0.3-0.3-0.6c-0.4-0.2-1.1,0-1.1,0.9c0.1,0.9,1.1,1.1,1.8,0.3c0.7-0.7,0.8-2.5-0.8-3
		c-1.5-0.5-2.7,1.4-2.7,1.4s0.1-2.3,1.2-3.8c1.3-1.7,3-1.8,4-1c0.9,0.7,0.9,1.8,0.8,2c0,0.2,0,0.2,0,0.2s-0.2-0.7-0.8-0.6
		c-0.6,0.1-1.1,1.1-0.2,1.5c0.8,0.4,2.1-0.8,1.8-2.1c-0.3-1.6-1.8-2.3-3-2.1c-1.3,0.2-2.6,1.2-3.2,3c-0.5,1.5-0.6,3-0.6,3
		s0.2-2.5-1-3.6c-1.2-1.1-2.7-0.5-3,0.6c-0.2,1.1,1.3,1.7,1.8,1c0.5-0.6-0.1-1.4-0.5-1.4c-0.4,0-0.5,0.2-0.5,0.2s0.7-0.8,1.7-0.3
		c1,0.6,1.4,2.1,1.3,3.4c-0.1,2,0.7,3.8,0.7,3.8s-0.1,0,0.5,1C107,140.6,107.7,141.6,107.7,141.6z"/>
	<path class="st0" d="M138,160.1c0,0-2-0.8-2.1-2.2c-0.1-1.4,0.9-1.9,1.5-1.9c0.6,0,1,0.4,1.2,0.7c0.1,0.3,0,0.5,0,0.5
		s-0.1-0.5-0.6-0.4c-0.5,0-0.8,0.7-0.2,1c0.6,0.3,1.1-0.5,1-1c-0.1-0.6-0.6-1.5-1.8-1.4c-1.4,0-2.2,1.9-1.8,3
		c0.4,1.1,1.2,1.4,1.4,1.5c0.2,0.1,1,0.2,1,0.2L138,160.1z"/>
	<path d="M107.1,140.2c0,0,0.9,3,2.7,4.9c1.8,1.9,3.6,2.5,5.7,2.3c2.2-0.2,3.8-2.2,3.1-4.4c-0.7-2.2-2.7-2.4-3.7-2.2
		c-1,0.2-2.1,1.2-1.6,2.7c0.5,1.5,1.6,2,2.9,1.6c1.3-0.5,1.2-2.1,0.8-2.6c-0.4-0.5-0.9-0.6-0.9-0.6s1-0.4,1.7,0.3
		c0.7,0.7,0.2,1.5,0.2,1.5s1.1-1.8,3.1-1.7c2,0,2.7,2.3,2.7,2.3s-1.4-1.9-3.1-1.1c-1.7,0.8-3.1,2.6-5,2.5c-1.9-0.1-2.7-1.5-2.9-2.4
		c-0.1-0.9,0.1-1.5,0.1-1.5s-0.8,0.3-1.7-0.6c-0.9-0.9-0.9-1.8-0.9-1.8s0.6,1.7,2.1,1.5c1.5-0.1,2.4-1,4.1-0.6
		c1.7,0.5,3.1,2.8,2.2,5.1c-0.9,2.3-4.5,3.6-7.5,1.6c-3-2-4.3-5.4-4.3-5.4L107.1,140.2z"/>
	<path d="M145.5,156.6c0,0-2.1-3.4-6.7-4.9c-4.6-1.5-6.3-1.2-8.6-2.3c-2.3-1.2-3.2-3.2-3-4.7c0.2-1.5,1-1.9,1.5-1.9
		c0.5,0,0.9,0.2,0.9,0.2s0.1-1.8,2-1.8c2,0,3.7,2.6,2.6,4.5c-0.9,1.5-2.5,0.9-2.5,0.9s0.9,0.1,1-0.6c0.1-1-1-1.1-1.5-0.5
		c-0.6,0.8,0,1.7,1.4,1.8c2,0.1,3.7-2.8,2.2-5.1c-1.1-1.7-4-3.1-6.5-1.3c-2.5,1.8-2.5,5.2-1.3,6.9c1.2,1.7,2.8,2.8,5.9,3.3
		c3.2,0.5,4.7,0.5,7.5,1.9C143.2,154.1,145.5,156.6,145.5,156.6z"/>
	<path d="M145.7,156.8c0,0-3.1-4.3-9.8-5c-6.7-0.7-11.2,2.9-17.8,0.2c-6.6-2.7-8-6.2-9.9-9.6c-2.2-3.8-5-8.1-9.4-10.5
		c-4.5-2.4-7-1.6-7-1.6l-0.1,0.2c0,0,4.8-1.5,11.4,5.4c4.1,4.3,5.1,11.1,10,14.7c4.9,3.6,10.1,3.6,14.6,2.4
		c4.5-1.2,8.2-1.4,11.3-0.3C142,153.7,145.7,156.8,145.7,156.8z"/>
	<g>
		<path d="M150.2,169.1c0,0,0.2,3.3,3.7,2.1c0,0,0.4,0.7,0,1c0,0,0.6,0,0.4,0.7c-0.1,0.7-0.9,0.5-0.9,0.3c0,0,0.1,0.4-0.1,0.5
			C153.3,173.7,150,173.5,150.2,169.1z"/>
		<path d="M149.6,169.4c0,0,0,3.4,2.4,4.5c0,0,0.2,0.2-0.1,0.4c-0.3,0.2-0.4,0-0.4,0S149.3,173.1,149.6,169.4z"/>
		<path d="M149.1,176.3c-0.8,0-0.7-1.1-0.7-1.1c-1.2,0.4-1.4-0.6-1.4-0.6c2-0.5,1.8-5.2,1.8-5.2s0.2-0.5,0.5,0c0,0-0.2,4.7,1.8,5.2
			c0,0-0.2,1-1.4,0.6c0,0,0.1,1.1-0.7,1.1H149.1z"/>
		<path d="M147.8,169.1c0,0-0.2,3.3-3.7,2.1c0,0-0.4,0.7,0,1c0,0-0.6,0-0.4,0.7c0.1,0.7,0.9,0.5,0.9,0.3c0,0-0.1,0.4,0.1,0.5
			C144.7,173.7,148,173.5,147.8,169.1z"/>
		<path d="M148.4,169.4c0,0,0,3.4-2.4,4.5c0,0-0.2,0.2,0.1,0.4c0.3,0.2,0.4,0,0.4,0S148.7,173.1,148.4,169.4z"/>
	</g>
	<rect x="100.2" y="149.5" class="st1" width="95.1" height="13.3"/>
	<g>
		<g>
			<g>
				<g>
					<path d="M146.1,27.2c0,0-0.3,3.7,1,6c1.3,2.3,3,3,3.8,2.2c0.8-0.8,0.1-1.5-0.3-1.5c-0.3-0.1-0.4,0-0.4,0s0.7-0.7,1.9-0.1
						c1.2,0.7,1.4,2.2,0.3,3.4c-1.1,1.2-3.3,0.4-4.1-0.6c-0.8-1-1.8-2.6-2.1-4.8C145.9,29.6,146.1,27.2,146.1,27.2z"/>
					<path d="M163.2,47.3c0,0-0.5,0.3-0.3,0.1c0.1-0.2,0.2-0.2,0.2-0.2s0.2,0,0.7-0.4c0.5-0.4,1-1.1,0.7-1.8
						c-0.3-0.7-0.9-0.5-1.1-0.3c-0.2,0.3-0.1,0.5-0.1,0.5s0.1-0.2,0.3-0.2c0.2,0,0.5,0.2,0.3,0.6c-0.2,0.4-0.8,0.2-0.9-0.2
						c-0.2-0.5,0.2-1.3,1-1.2c0.8,0.1,0.9,1.2,0.9,1.2s0.5-1,0.3-1.9c-0.2-1-1-1.4-1.6-1.3c-0.6,0.1-0.8,0.6-0.8,0.7
						c0,0.1,0,0.1,0,0.1s0.2-0.2,0.5-0.1c0.3,0.1,0.3,0.7-0.2,0.7c-0.5,0-0.8-0.8-0.4-1.3c0.5-0.6,1.3-0.6,1.9-0.3
						c0.5,0.3,1,1.1,0.9,2c-0.1,0.7-0.4,1.4-0.4,1.4s0.4-1.1,1.2-1.4c0.8-0.2,1.4,0.3,1.2,0.9c-0.1,0.5-1,0.5-1,0.1
						c-0.1-0.4,0.4-0.6,0.5-0.5c0.2,0.1,0.2,0.2,0.2,0.2s-0.1-0.5-0.7-0.5c-0.6,0-1.1,0.6-1.3,1.2c-0.4,0.9-1.2,1.5-1.2,1.5
						s0.3-0.2-0.1,0.1C163.1,47.3,163.2,47.3,163.2,47.3z"/>
					<path d="M165.3,44.3c0,0-0.5,0.3-0.4,0.1c0.1-0.2,0.2-0.2,0.2-0.2s0.2,0,0.7-0.4c0.5-0.4,1.1-1.2,0.8-1.9
						c-0.3-0.7-1-0.6-1.2-0.3c-0.2,0.3-0.2,0.6-0.2,0.6s0.1-0.2,0.3-0.2c0.2,0,0.6,0.3,0.3,0.7c-0.2,0.4-0.8,0.2-1-0.3
						c-0.2-0.5,0.2-1.3,1.1-1.2c0.9,0.1,1,1.3,1,1.3s0.5-1.1,0.4-2c-0.2-1.1-1-1.5-1.7-1.4c-0.6,0.1-0.9,0.6-0.9,0.7
						c0,0.1,0,0.1,0,0.1s0.3-0.3,0.6-0.1c0.3,0.2,0.3,0.7-0.2,0.7c-0.5,0-0.8-0.8-0.3-1.4c0.6-0.7,1.4-0.7,2-0.3
						c0.6,0.4,1,1.2,0.9,2.1c-0.1,0.8-0.4,1.5-0.4,1.5s0.5-1.2,1.4-1.4c0.9-0.2,1.5,0.4,1.3,1c-0.2,0.6-1.1,0.5-1.1,0.1
						c-0.1-0.4,0.4-0.6,0.6-0.5c0.2,0.1,0.2,0.2,0.2,0.2s-0.1-0.6-0.8-0.5c-0.6,0-1.2,0.6-1.5,1.3c-0.4,0.9-1.3,1.6-1.3,1.6
						s0.3-0.3-0.2,0.1C165.3,44.4,165.3,44.3,165.3,44.3z"/>
					<path d="M167.6,40.2c0,0-0.4,0.1-0.2,0c0.1-0.1,0.2-0.1,0.2-0.1s0.1,0,0.6-0.1c0.4-0.2,0.9-0.5,0.9-1.1
						c-0.1-0.5-0.5-0.6-0.7-0.4c-0.2,0.1-0.2,0.3-0.2,0.3s0.1-0.1,0.2-0.1c0.2,0,0.3,0.3,0.1,0.5c-0.2,0.2-0.6,0-0.6-0.4
						c0-0.4,0.4-0.8,1-0.6c0.5,0.3,0.4,1,0.4,1s0.6-0.6,0.6-1.2c0.1-0.7-0.4-1.2-0.8-1.2c-0.4-0.1-0.7,0.2-0.7,0.3s0,0,0,0
						s0.2-0.1,0.4,0.1c0.1,0.2,0,0.5-0.3,0.4c-0.3-0.1-0.3-0.7,0.1-1c0.5-0.3,1.1-0.1,1.3,0.2c0.3,0.4,0.4,0.9,0.1,1.5
						c-0.2,0.5-0.6,0.9-0.6,0.9s0.6-0.7,1.2-0.6c0.6,0,0.9,0.5,0.6,0.9c-0.2,0.3-0.8,0.1-0.7-0.2c0-0.3,0.4-0.3,0.5-0.2
						c0.1,0.1,0.1,0.2,0.1,0.2s0-0.4-0.4-0.5c-0.4-0.1-0.9,0.2-1.2,0.5c-0.5,0.5-1.2,0.8-1.2,0.8s0.3-0.1-0.1,0
						C167.6,40.2,167.6,40.2,167.6,40.2z"/>
					<path d="M145.8,28.1c0,0-0.7,3.4,0.6,7.3c1.2,4,4.6,6.8,5.7,7.8c1.1,1.1,2.4,2,4.7,2.9c2.3,1,5,1.4,7.4,0.7
						c2.4-0.7,5.6-2.6,6.7-6c1.2-3.4-0.1-6.7-2.1-8.6c-1.9-1.9-6.2-3.1-8.9-0.6c-2.6,2.4-3.3,5.6-0.8,7.5c2.5,1.9,4.8,0.2,4.5-1.8
						c-0.3-2-2.1-2-2.5-1.7c-0.4,0.3-0.4,0.3-0.4,0.3s0.8-0.1,1.1,0.8c0.3,0.9-0.8,1.7-1.8,0.9s0.1-2.7,1.8-2.8
						c1.8-0.1,3.3,2.1,2.1,4.2c-1.1,2-3.8,2.3-5.6,0.9c-1.8-1.3-3.4-4-1.5-7.3c2-3.4,5.6-3.9,8.4-3.3c2.8,0.6,4.8,2.9,5.4,4
						c0.6,1.1,1.6,3.6,1,6.4c-0.6,2.8-2.8,5.8-6,7.1c-3.2,1.3-5.8,1.1-8.8,0.1c-3.3-1-7.5-4.9-9-7.7c-1.4-2.7-2.4-5.7-2.3-8.2
						C145.7,28.7,145.8,28.1,145.8,28.1z"/>
					<path d="M148.2,39.1c0,0,0.9,0.6,2,0.8c1,0.2,3.1-0.4,4.3-0.2c1.1,0.2,1.7,1,1.4,1.5c-0.3,0.6-0.9,0.4-1,0.2
						c-0.2-0.2,0-0.4,0-0.4s0.2,0.4,0.5,0.2c0.3-0.3,0-1.2-1.2-1.2c-1.2-0.1-2.1,0.4-3.3,0.2C149.5,40,148.2,39.1,148.2,39.1z"/>
					<path d="M149.6,41.8c0,0,0.6,0.7,0.8,1.2c0.2,0.5,0.2,0.6,0.2,0.6s0.8,0.3,1.6,1.3c0.8,1,1.1,2.7,0.2,3.9
						c-0.9,1.2-2.1,0.6-2.4,0c-0.3-0.6,0-1.2,0-1.2s0,0.3,0.4,0.5c0.4,0.1,1.1-0.3,0.8-1.1c-0.3-0.8-1.3-0.8-1.8,0.1
						c-0.5,0.9-0.1,2.6,1.4,2.7c1.6,0.1,2.2-2,2.2-2s0.5,2.2-0.2,3.9c-0.8,1.9-2.4,2.4-3.5,1.9c-1-0.5-1.3-1.5-1.3-1.7
						c0-0.2,0-0.2,0-0.2s0.4,0.6,0.9,0.4c0.6-0.2,0.8-1.3-0.1-1.5c-0.9-0.2-1.8,1.2-1.2,2.4c0.7,1.5,2.2,1.8,3.4,1.3
						c1.1-0.5,2.2-1.8,2.4-3.6c0.1-1.5-0.1-3-0.1-3s0.4,2.4,1.8,3.2c1.4,0.8,2.7-0.1,2.7-1.3c-0.1-1.1-1.6-1.3-1.9-0.6
						c-0.3,0.7,0.5,1.3,0.8,1.2c0.4-0.1,0.5-0.3,0.5-0.3s-0.5,1-1.6,0.7c-1.1-0.3-1.8-1.7-2.1-2.9c-0.4-1.9-1.6-3.4-1.6-3.4
						s0.1,0-0.7-0.8C150.4,42.7,149.6,41.8,149.6,41.8z"/>
					<path d="M168.7,47.5c0,0-0.3,0,0,0.1c0.3,0.2,0.3,0.2,0.3,0.2s0.2-0.1,0.9,0.1c0.7,0.2,1.7,0.6,1.8,1.5c0.1,0.9-0.6,1.1-1,0.9
						c-0.4-0.2-0.5-0.5-0.5-0.5s0.1,0.1,0.4,0c0.2-0.1,0.4-0.5-0.1-0.8c-0.4-0.3-0.9,0.2-0.8,0.7c0.1,0.6,1,1.2,1.7,0.7
						c0.7-0.6,0.2-1.7,0.2-1.7s1.1,0.8,1.4,1.8c0.4,1.2-0.2,2-0.8,2.2c-0.6,0.2-1.2-0.2-1.2-0.3c-0.1-0.1-0.1-0.1-0.1-0.1
						s0.4,0.1,0.6-0.2c0.2-0.3-0.1-0.9-0.6-0.6c-0.5,0.3-0.3,1.2,0.4,1.6c0.9,0.4,1.7-0.1,2-0.7c0.3-0.7,0.3-1.7-0.4-2.5
						c-0.5-0.7-1.2-1.3-1.2-1.3s1.1,0.9,2.1,0.7c1-0.2,1.2-1.1,0.7-1.6c-0.5-0.5-1.2,0.1-1.1,0.5c0.1,0.4,0.7,0.4,0.8,0.2
						c0.1-0.2,0.1-0.3,0.1-0.3s0.2,0.6-0.4,0.9c-0.6,0.3-1.5,0-2.1-0.5c-0.9-0.7-2.1-0.9-2.1-0.9s0,0-0.6-0.1
						C168.6,47.5,168.7,47.5,168.7,47.5z"/>
					<path d="M158.8,48.6c0,0-0.5-0.2-0.3,0c0.1,0.2,0.2,0.2,0.2,0.2s0.2,0,0.7,0.4c0.5,0.4,1,1,0.8,1.7c-0.2,0.7-0.8,0.6-1,0.3
						c-0.2-0.2-0.2-0.5-0.2-0.5s0.1,0.2,0.3,0.2c0.2,0,0.5-0.3,0.2-0.6c-0.2-0.4-0.7-0.2-0.8,0.3c-0.1,0.5,0.3,1.2,1.1,1.1
						c0.8-0.2,0.8-1.2,0.8-1.2s0.5,1,0.4,1.8c-0.1,1-0.8,1.5-1.4,1.4c-0.6-0.1-0.8-0.6-0.8-0.6c0-0.1,0-0.1,0-0.1s0.3,0.2,0.5,0.1
						c0.2-0.2,0.2-0.7-0.3-0.7c-0.5,0-0.7,0.8-0.2,1.3c0.5,0.6,1.3,0.5,1.8,0.1c0.5-0.4,0.8-1.1,0.6-2c-0.2-0.7-0.5-1.4-0.5-1.4
						s0.5,1.1,1.3,1.2c0.8,0.2,1.3-0.4,1.1-1c-0.2-0.5-0.9-0.4-1,0c0,0.4,0.4,0.5,0.5,0.4c0.2-0.1,0.2-0.2,0.2-0.2s-0.1,0.5-0.7,0.5
						c-0.6,0-1.1-0.5-1.4-1.1c-0.4-0.8-1.2-1.4-1.2-1.4s0.3,0.2-0.1-0.1C158.8,48.5,158.8,48.6,158.8,48.6z"/>
					<path d="M194.3,61.8c0,0-0.5,0-0.2,0.1c0.2,0.1,0.2,0.1,0.2,0.1s0.1-0.1,0.7,0c0.6,0.1,1.3,0.3,1.4,1c0.1,0.6-0.3,0.8-0.6,0.7
						c-0.3-0.1-0.4-0.3-0.4-0.3s0.1,0.1,0.3,0c0.2-0.1,0.2-0.4-0.1-0.6c-0.3-0.2-0.6,0.2-0.5,0.6c0.1,0.4,0.8,0.8,1.3,0.4
						c0.5-0.5,0-1.3,0-1.3s0.8,0.5,1.2,1.2c0.4,0.8,0,1.5-0.5,1.7c-0.5,0.2-0.9-0.1-0.9-0.1c-0.1,0-0.1,0-0.1,0s0.3,0.1,0.4-0.2
						c0.1-0.2-0.2-0.6-0.5-0.4c-0.3,0.2-0.1,0.9,0.4,1.1c0.7,0.2,1.2-0.2,1.4-0.7c0.2-0.5,0.1-1.2-0.4-1.8c-0.4-0.5-1-0.9-1-0.9
						s0.9,0.6,1.5,0.4c0.7-0.2,0.8-0.9,0.4-1.2c-0.4-0.3-0.9,0.1-0.8,0.4c0.1,0.3,0.5,0.2,0.6,0.1c0.1-0.1,0-0.2,0-0.2
						s0.2,0.4-0.3,0.7c-0.4,0.3-1.1,0.1-1.5-0.2c-0.7-0.4-1.6-0.5-1.6-0.5s0.3,0-0.1,0C194.3,61.8,194.3,61.8,194.3,61.8z"/>
					<path d="M164,36.7c0,0-0.5,0.2-0.3,0c0.2-0.2,0.2-0.2,0.2-0.2s0.2,0,0.8-0.3c0.6-0.3,1.2-0.9,1.1-1.6c-0.2-0.7-0.8-0.7-1-0.5
						c-0.3,0.2-0.2,0.5-0.2,0.5s0.1-0.1,0.3-0.1c0.2,0,0.5,0.3,0.2,0.7c-0.3,0.3-0.8,0.1-0.8-0.4c0-0.5,0.5-1.2,1.2-0.9
						c0.8,0.3,0.6,1.3,0.6,1.3s0.7-0.9,0.7-1.8c0-1-0.7-1.6-1.3-1.6c-0.6,0-0.9,0.4-1,0.5c0,0.1,0,0.1,0,0.1s0.3-0.2,0.5,0
						c0.2,0.2,0.1,0.7-0.4,0.6c-0.5-0.1-0.6-0.9-0.1-1.3c0.6-0.5,1.4-0.3,1.9,0.1c0.4,0.5,0.7,1.3,0.4,2.1c-0.3,0.7-0.7,1.3-0.7,1.3
						s0.7-1,1.5-1c0.8,0,1.3,0.6,1,1.1c-0.3,0.5-1,0.2-1-0.2c0-0.4,0.5-0.5,0.6-0.3c0.2,0.1,0.2,0.2,0.2,0.2s0-0.5-0.6-0.6
						c-0.6-0.1-1.2,0.4-1.6,0.9c-0.6,0.8-1.5,1.2-1.5,1.2s0.4-0.2-0.2,0C164,36.7,164,36.7,164,36.7z"/>
					<path d="M190.1,60.5C190.1,60.5,189.9,60.3,190.1,60.5c0.3,0,0.4,0,0.4,0s0.1,0.2,0.6,0.6c0.5,0.4,1.4,0.7,2,0.3
						c0.6-0.4,0.4-1,0-1.1c-0.3-0.1-0.6,0-0.6,0s0.2,0,0.3,0.2c0.1,0.2-0.1,0.6-0.6,0.4c-0.4-0.1-0.4-0.7,0.1-0.9
						c0.5-0.3,1.4-0.1,1.4,0.7c0.1,0.8-1,1.2-1,1.2s1.2,0.2,2-0.1c1-0.4,1.3-1.3,1-1.9c-0.2-0.5-0.8-0.7-0.9-0.7c-0.1,0-0.1,0-0.1,0
						s0.3,0.2,0.2,0.5c-0.1,0.3-0.7,0.4-0.8-0.1c-0.1-0.5,0.7-0.9,1.3-0.6c0.8,0.4,1,1.2,0.7,1.8c-0.3,0.6-0.9,1.2-1.9,1.2
						c-0.8,0.1-1.6-0.1-1.6-0.1s1.3,0.2,1.7,0.9c0.4,0.7-0.1,1.4-0.7,1.4c-0.6,0-0.7-0.8-0.3-1c0.4-0.2,0.7,0.2,0.6,0.4
						c0,0.2-0.2,0.2-0.2,0.2s0.5-0.3,0.4-0.8c-0.2-0.6-0.9-1-1.5-1.1c-1-0.2-1.8-0.8-1.8-0.8s0,0-0.4-0.4
						C190,60.4,190.1,60.5,190.1,60.5z"/>
					<g>
						<path d="M184.5,48c0,0-0.4,0.2-0.2,0.2c0.2,0,0.2,0,0.2,0s0.1-0.1,0.6-0.2c0.5-0.1,1.2-0.1,1.5,0.3c0.3,0.5,0,0.8-0.3,0.8
							c-0.3,0-0.4-0.1-0.4-0.1s0.1,0,0.2-0.1c0.1-0.1,0.1-0.4-0.3-0.4c-0.3,0-0.5,0.4-0.2,0.7c0.2,0.3,0.9,0.4,1.2-0.1
							c0.3-0.5-0.4-1.1-0.4-1.1s0.9,0.1,1.4,0.6c0.6,0.6,0.5,1.2,0.2,1.5c-0.3,0.3-0.7,0.2-0.8,0.2c-0.1,0-0.1,0-0.1,0
							s0.3-0.1,0.3-0.3c0-0.2-0.3-0.5-0.5-0.2c-0.2,0.3,0.2,0.8,0.7,0.8c0.6,0,1-0.6,1-1c0-0.5-0.3-1-1-1.4
							c-0.5-0.2-1.1-0.4-1.1-0.4s0.9,0.2,1.4-0.2c0.5-0.4,0.3-1-0.1-1.1c-0.4-0.1-0.7,0.4-0.5,0.6c0.2,0.2,0.5,0,0.5-0.1
							c0-0.1-0.1-0.2-0.1-0.2s0.3,0.3,0,0.7c-0.3,0.4-0.9,0.4-1.4,0.3c-0.7-0.1-1.5,0.1-1.5,0.1s0.3-0.1-0.1,0.1
							C184.4,48,184.5,48,184.5,48z"/>
						<path d="M180.5,48.4C180.5,48.4,180.3,48.3,180.5,48.4c0.2-0.1,0.3-0.1,0.3-0.1s0.1,0.1,0.7,0.3c0.6,0.1,1.4,0.1,1.8-0.5
							c0.4-0.6,0-1-0.4-1c-0.3,0-0.5,0.2-0.5,0.2s0.2,0,0.3,0.1c0.1,0.1,0.1,0.5-0.3,0.5c-0.4,0-0.6-0.4-0.3-0.8
							c0.3-0.4,1.1-0.5,1.4,0.1c0.3,0.7-0.5,1.3-0.5,1.3s1.1-0.2,1.7-0.8c0.7-0.7,0.6-1.5,0.2-1.9c-0.4-0.4-0.9-0.3-1-0.2
							c-0.1,0-0.1,0-0.1,0s0.3,0.1,0.3,0.3c0,0.3-0.4,0.6-0.7,0.2c-0.3-0.4,0.2-1,0.9-1c0.8,0,1.2,0.6,1.2,1.2
							c0,0.6-0.4,1.3-1.2,1.7c-0.6,0.3-1.3,0.5-1.3,0.5s1.1-0.3,1.7,0.2c0.6,0.5,0.4,1.2-0.1,1.4c-0.5,0.2-0.9-0.5-0.6-0.7
							c0.3-0.3,0.6,0,0.7,0.1c0,0.2-0.1,0.3-0.1,0.3s0.3-0.4,0-0.8c-0.3-0.4-1.1-0.5-1.7-0.4c-0.9,0.2-1.8-0.1-1.8-0.1s0,0-0.5-0.1
							C180.4,48.4,180.5,48.4,180.5,48.4z"/>
					</g>
					<path d="M188.6,58.5c0,0,0.5,0.8,0.5,1.3c0,0.5,0,0.7,0,0.7s0.7,0.4,1.2,1.6c0.5,1.2,0.3,2.9-0.8,3.8c-1.1,1-2.2,0.1-2.3-0.6
						c-0.1-0.7,0.3-1.2,0.3-1.2s0,0.3,0.3,0.6c0.4,0.2,1.1,0,1.1-0.9c-0.1-0.9-1.1-1.1-1.8-0.3c-0.7,0.7-0.8,2.5,0.7,3
						c1.5,0.5,2.6-1.4,2.6-1.4s-0.1,2.3-1.2,3.7c-1.3,1.7-3,1.7-3.9,1c-0.9-0.7-0.8-1.8-0.8-2c0-0.2,0-0.2,0-0.2s0.2,0.7,0.8,0.6
						c0.6-0.1,1.1-1,0.2-1.4c-0.8-0.4-2,0.8-1.7,2.1c0.3,1.6,1.7,2.3,3,2.1c1.2-0.2,2.6-1.2,3.2-2.9c0.5-1.4,0.6-3,0.6-3
						s-0.2,2.4,1,3.5c1.2,1.1,2.7,0.5,2.9-0.6c0.2-1.1-1.3-1.6-1.7-1c-0.5,0.6,0.1,1.3,0.5,1.3c0.4,0,0.5-0.2,0.5-0.2
						s-0.7,0.8-1.7,0.3c-1-0.6-1.4-2.1-1.3-3.3c0.1-1.9-0.7-3.7-0.7-3.7s0.1,0-0.5-1C189.2,59.5,188.6,58.5,188.6,58.5z"/>
					<path d="M158.9,40.4c0,0,2,0.8,2,2.2c0.1,1.4-0.9,1.8-1.5,1.8c-0.6,0-1-0.4-1.1-0.7c-0.1-0.3,0-0.5,0-0.5s0.1,0.5,0.6,0.4
						c0.5,0,0.7-0.7,0.2-1c-0.6-0.3-1.1,0.5-1,1c0.1,0.6,0.6,1.5,1.7,1.4c1.4,0,2.2-1.8,1.7-2.9c-0.4-1.1-1.2-1.3-1.4-1.5
						c-0.2-0.1-1-0.2-1-0.2L158.9,40.4z"/>
					<path d="M170.7,42.5c0,0,1.7-2.4,3.8-3.5c2.1-1.1,3.8-1.1,5.6-0.4c1.8,0.8,2.7,3,1.4,4.7c-1.3,1.7-3,1.3-3.9,0.8
						c-0.8-0.5-1.4-1.6-0.6-2.8c0.9-1.1,2-1.3,3-0.5c1,0.8,0.5,2.1-0.1,2.5c-0.5,0.4-0.9,0.2-0.9,0.2s0.7,0.6,1.5,0.2
						c0.8-0.4,0.6-1.3,0.6-1.3s0.5,1.9,2.2,2.4c1.7,0.5,3-1.2,3-1.2s-1.8,1.3-3,0.1c-1.2-1.2-1.9-3.1-3.6-3.6
						c-1.7-0.5-2.8,0.5-3.2,1.3c-0.4,0.8-0.3,1.4-0.3,1.4s-0.6-0.5-1.6,0c-1.1,0.5-1.3,1.3-1.3,1.3s1-1.3,2.3-0.7
						c1.3,0.6,1.8,1.6,3.4,1.7c1.6,0.1,3.5-1.6,3.4-3.8c-0.2-2.2-2.8-4.4-6-3.5c-3.2,0.9-5.3,3.4-5.3,3.4L170.7,42.5z"/>
					<path d="M185.6,51.9c0,0,1.6,2.4,3.6,3.7c2,1.2,3.7,1.3,5.6,0.7c1.9-0.7,2.8-2.9,1.6-4.6c-1.2-1.7-3-1.5-3.8-1
						c-0.9,0.4-1.5,1.6-0.7,2.7c0.8,1.2,1.9,1.4,2.9,0.7c1.1-0.7,0.6-2.1,0.1-2.5c-0.5-0.4-0.9-0.3-0.9-0.3s0.8-0.6,1.5-0.1
						c0.8,0.5,0.6,1.3,0.6,1.3s0.6-1.8,2.3-2.3c1.8-0.4,3,1.4,3,1.4s-1.7-1.4-3-0.2c-1.3,1.1-2.1,3-3.8,3.4
						c-1.7,0.4-2.8-0.6-3.1-1.4c-0.4-0.8-0.3-1.4-0.3-1.4s-0.6,0.4-1.6-0.1c-1-0.5-1.2-1.4-1.2-1.4s0.9,1.3,2.3,0.8
						c1.3-0.5,1.9-1.5,3.5-1.5c1.6,0,3.4,1.7,3.2,4c-0.3,2.2-3.1,4.2-6.2,3.2c-3.1-1-5.1-3.7-5.1-3.7L185.6,51.9z"/>
					<path d="M189.2,59.9c0,0-0.9-3-2.7-4.8c-1.8-1.9-3.5-2.4-5.6-2.3c-2.1,0.2-3.7,2.2-3,4.4c0.7,2.1,2.6,2.4,3.7,2.1
						c1-0.2,2-1.2,1.5-2.6c-0.5-1.4-1.5-2-2.9-1.5c-1.3,0.5-1.2,2-0.8,2.5c0.4,0.5,0.9,0.6,0.9,0.6s-1,0.4-1.6-0.3
						c-0.7-0.7-0.2-1.5-0.2-1.5s-1.1,1.7-3,1.7c-1.9,0-2.7-2.3-2.7-2.3s1.4,1.9,3.1,1.1c1.7-0.8,3-2.5,4.9-2.5
						c1.9,0.1,2.7,1.5,2.8,2.4c0.1,0.9-0.1,1.5-0.1,1.5s0.7-0.3,1.7,0.6c0.9,0.9,0.9,1.8,0.9,1.8s-0.6-1.6-2.1-1.5
						c-1.5,0.1-2.4,1-4,0.6c-1.6-0.5-3-2.8-2.1-5c0.9-2.2,4.4-3.5,7.4-1.5c3,2,4.2,5.3,4.2,5.3L189.2,59.9z"/>
					<path d="M151.5,43.8c0,0,2.1,3.3,6.5,4.8c4.5,1.5,6.2,1.1,8.4,2.3c2.2,1.1,3.2,3.2,3,4.6c-0.2,1.4-1,1.8-1.5,1.9
						c-0.5,0-0.9-0.2-0.9-0.2s-0.1,1.8-1.9,1.8c-1.9,0-3.7-2.5-2.5-4.4c0.9-1.5,2.5-0.9,2.5-0.9s-0.9-0.1-1,0.6
						c-0.1,1,1,1.1,1.4,0.5c0.6-0.8,0-1.7-1.4-1.8c-1.9-0.1-3.6,2.7-2.2,5c1,1.6,3.9,3.1,6.4,1.3c2.4-1.7,2.4-5.1,1.3-6.7
						c-1.2-1.7-2.7-2.7-5.8-3.2c-3.1-0.5-4.6-0.5-7.3-1.8C153.8,46.2,151.5,43.8,151.5,43.8z"/>
					<path d="M151.4,43.6c0,0,3.1,4.3,9.6,4.9c6.6,0.7,11-2.8,17.4-0.2c6.4,2.6,7.8,6,9.7,9.4c2.1,3.7,4.9,7.9,9.2,10.3
						c4.4,2.3,6.8,1.6,6.8,1.6l0.1-0.2c0,0-4.7,1.5-11.2-5.3c-4-4.2-5-10.9-9.8-14.4c-4.8-3.5-9.9-3.5-14.3-2.4
						c-4.4,1.2-8.1,1.4-11.1,0.3C155,46.7,151.4,43.6,151.4,43.6z"/>
				</g>
			</g>
		</g>
		<g>
			<g>
				<g>
					<path d="M150.2,27.2c0,0,0.3,3.7-1,6c-1.3,2.3-3,3-3.8,2.2c-0.8-0.8-0.1-1.5,0.3-1.5c0.3-0.1,0.4,0,0.4,0s-0.7-0.7-1.9-0.1
						c-1.2,0.7-1.4,2.2-0.3,3.4c1.1,1.2,3.3,0.4,4.1-0.6c0.8-1,1.8-2.6,2.1-4.8C150.4,29.6,150.2,27.2,150.2,27.2z"/>
					<path d="M133.2,47.3c0,0,0.5,0.3,0.3,0.1c-0.1-0.2-0.2-0.2-0.2-0.2s-0.2,0-0.7-0.4c-0.5-0.4-1-1.1-0.7-1.8
						c0.3-0.7,0.9-0.5,1.1-0.3c0.2,0.3,0.1,0.5,0.1,0.5S133.2,45,133,45c-0.2,0-0.5,0.2-0.3,0.6c0.2,0.4,0.7,0.2,0.9-0.2
						c0.2-0.5-0.2-1.3-1-1.2c-0.8,0.1-0.9,1.2-0.9,1.2s-0.5-1-0.3-1.9c0.2-1,1-1.4,1.6-1.3c0.6,0.1,0.8,0.6,0.8,0.7
						c0,0.1,0,0.1,0,0.1s-0.2-0.2-0.5-0.1c-0.3,0.1-0.3,0.7,0.2,0.7c0.5,0,0.8-0.8,0.4-1.3c-0.5-0.6-1.3-0.6-1.9-0.3
						c-0.5,0.3-1,1.1-0.9,2c0.1,0.7,0.4,1.4,0.4,1.4s-0.4-1.1-1.2-1.4c-0.8-0.2-1.4,0.3-1.2,0.9c0.1,0.5,1,0.5,1,0.1
						c0.1-0.4-0.4-0.6-0.5-0.5c-0.2,0.1-0.2,0.2-0.2,0.2s0.2-0.5,0.7-0.5c0.6,0,1.1,0.6,1.3,1.2c0.4,0.9,1.2,1.5,1.2,1.5
						s-0.3-0.2,0.1,0.1C133.2,47.3,133.2,47.3,133.2,47.3z"/>
					<path d="M131,44.3c0,0,0.5,0.3,0.4,0.1c-0.1-0.2-0.2-0.2-0.2-0.2s-0.2,0-0.7-0.4c-0.5-0.4-1.1-1.2-0.8-1.9
						c0.3-0.7,1-0.6,1.2-0.3c0.2,0.3,0.2,0.6,0.2,0.6s-0.1-0.2-0.3-0.2c-0.2,0-0.6,0.3-0.3,0.7c0.2,0.4,0.8,0.2,1-0.3
						c0.2-0.5-0.2-1.3-1.1-1.2c-0.9,0.1-1,1.3-1,1.3s-0.5-1.1-0.4-2c0.2-1.1,1-1.5,1.7-1.4c0.6,0.1,0.9,0.6,0.9,0.7
						c0,0.1,0,0.1,0,0.1s-0.3-0.3-0.6-0.1c-0.3,0.2-0.3,0.7,0.2,0.7c0.5,0,0.8-0.8,0.4-1.4c-0.6-0.7-1.4-0.7-2-0.3
						c-0.6,0.4-1,1.2-0.9,2.1c0.1,0.8,0.4,1.5,0.4,1.5s-0.5-1.2-1.4-1.4c-0.9-0.2-1.5,0.4-1.3,1c0.2,0.6,1.1,0.5,1.1,0.1
						c0.1-0.4-0.4-0.6-0.6-0.5c-0.2,0.1-0.2,0.2-0.2,0.2s0.1-0.6,0.8-0.5c0.6,0,1.2,0.6,1.5,1.3c0.4,0.9,1.3,1.6,1.3,1.6
						s-0.3-0.3,0.2,0.1C131,44.4,131,44.3,131,44.3z"/>
					<path d="M128.7,40.2c0,0,0.4,0.1,0.2,0c-0.1-0.1-0.2-0.1-0.2-0.1s-0.1,0-0.6-0.1c-0.4-0.2-0.9-0.5-0.9-1.1
						c0.1-0.5,0.5-0.6,0.7-0.4c0.2,0.1,0.2,0.3,0.2,0.3s-0.1-0.1-0.2-0.1c-0.2,0-0.3,0.3-0.1,0.5c0.2,0.2,0.6,0,0.6-0.4
						c0-0.4-0.4-0.8-1-0.6c-0.5,0.3-0.4,1-0.4,1s-0.6-0.6-0.6-1.2c-0.1-0.7,0.4-1.2,0.8-1.2c0.4-0.1,0.7,0.2,0.7,0.3c0,0,0,0,0,0
						s-0.2-0.1-0.4,0.1c-0.1,0.2,0,0.5,0.3,0.4c0.3-0.1,0.3-0.7-0.1-1c-0.5-0.3-1.1-0.1-1.3,0.2c-0.3,0.4-0.4,0.9-0.1,1.5
						c0.2,0.5,0.6,0.9,0.6,0.9s-0.6-0.7-1.2-0.6c-0.6,0-0.9,0.5-0.6,0.9c0.2,0.3,0.8,0.1,0.7-0.2c0-0.3-0.4-0.3-0.5-0.2
						c-0.1,0.1-0.1,0.2-0.1,0.2s0-0.4,0.4-0.5c0.4-0.1,0.9,0.2,1.2,0.5c0.5,0.5,1.1,0.8,1.1,0.8s-0.3-0.1,0.1,0
						C128.7,40.2,128.7,40.2,128.7,40.2z"/>
					<path d="M150.6,28.1c0,0,0.7,3.4-0.6,7.3c-1.2,4-4.6,6.8-5.7,7.8c-1.1,1.1-2.4,2-4.7,2.9c-2.3,1-5,1.4-7.4,0.7
						c-2.4-0.7-5.6-2.6-6.7-6c-1.2-3.4,0.1-6.7,2.1-8.6c1.9-1.9,6.2-3.1,8.9-0.6c2.6,2.4,3.3,5.6,0.8,7.5c-2.5,1.9-4.8,0.2-4.5-1.8
						c0.3-2,2.1-2,2.5-1.7c0.4,0.3,0.4,0.3,0.4,0.3s-0.8-0.1-1.1,0.8c-0.3,0.9,0.8,1.7,1.8,0.9c0.9-0.8-0.1-2.7-1.8-2.8
						c-1.8-0.1-3.3,2.1-2.1,4.2c1.1,2,3.8,2.3,5.6,0.9c1.8-1.3,3.4-4,1.5-7.3c-2-3.4-5.6-3.9-8.4-3.3c-2.8,0.6-4.8,2.9-5.4,4
						c-0.6,1.1-1.6,3.6-1,6.4c0.6,2.8,2.8,5.8,6,7.1c3.2,1.3,5.8,1.1,8.8,0.1c3.3-1,7.5-4.9,9-7.7c1.4-2.7,2.4-5.7,2.3-8.2
						C150.6,28.7,150.6,28.1,150.6,28.1z"/>
					<path d="M148.2,39.1c0,0-0.9,0.6-2,0.8c-1,0.2-3.1-0.4-4.3-0.2c-1.1,0.2-1.7,1-1.4,1.5c0.3,0.6,0.9,0.4,1,0.2
						c0.2-0.2,0-0.4,0-0.4s-0.2,0.4-0.5,0.2c-0.3-0.3,0-1.2,1.2-1.2c1.2-0.1,2.1,0.4,3.3,0.2C146.9,40,148.2,39.1,148.2,39.1z"/>
					<path d="M146.7,41.8c0,0-0.6,0.7-0.8,1.2c-0.2,0.5-0.2,0.6-0.2,0.6s-0.8,0.3-1.6,1.3c-0.8,1-1,2.7-0.2,3.9
						c0.9,1.2,2.1,0.6,2.4,0c0.3-0.6,0-1.2,0-1.2s0,0.3-0.4,0.5c-0.4,0.1-1.1-0.3-0.8-1.1c0.3-0.8,1.3-0.8,1.8,0.1
						c0.5,0.9,0.1,2.6-1.4,2.7c-1.6,0.1-2.2-2-2.2-2s-0.5,2.2,0.2,3.9c0.8,1.9,2.4,2.4,3.5,1.9c1-0.5,1.3-1.5,1.3-1.7
						c0-0.2,0-0.2,0-0.2s-0.4,0.6-0.9,0.4c-0.6-0.2-0.8-1.3,0.1-1.5c0.9-0.2,1.8,1.2,1.2,2.4c-0.7,1.5-2.2,1.8-3.4,1.3
						c-1.1-0.5-2.2-1.8-2.4-3.6c-0.1-1.5,0.1-3,0.1-3s-0.4,2.4-1.8,3.2c-1.4,0.8-2.7-0.1-2.7-1.3c0.1-1.1,1.6-1.3,1.9-0.6
						c0.3,0.7-0.5,1.3-0.8,1.2c-0.4-0.1-0.5-0.3-0.5-0.3s0.5,1,1.6,0.7c1.1-0.3,1.8-1.7,2.1-2.9c0.4-1.9,1.6-3.4,1.6-3.4
						s-0.1,0,0.7-0.8C145.9,42.7,146.7,41.8,146.7,41.8z"/>
					<path d="M127.6,47.5c0,0,0.3,0,0,0.1c-0.3,0.2-0.3,0.2-0.3,0.2s-0.2-0.1-0.9,0.1c-0.7,0.2-1.7,0.6-1.8,1.5
						c-0.1,0.9,0.6,1.1,1,0.9c0.4-0.2,0.5-0.5,0.5-0.5s-0.1,0.1-0.4,0c-0.2-0.1-0.4-0.5,0.1-0.8c0.4-0.3,0.9,0.2,0.8,0.7
						c-0.1,0.6-1,1.2-1.7,0.7c-0.7-0.6-0.2-1.7-0.2-1.7s-1.1,0.8-1.4,1.8c-0.4,1.2,0.2,2,0.8,2.2c0.6,0.2,1.2-0.2,1.2-0.3
						c0.1-0.1,0.1-0.1,0.1-0.1s-0.4,0.1-0.6-0.2c-0.2-0.3,0.1-0.9,0.6-0.6c0.5,0.3,0.3,1.2-0.4,1.6c-0.9,0.4-1.7-0.1-2-0.7
						c-0.3-0.7-0.3-1.7,0.4-2.5c0.5-0.7,1.2-1.3,1.2-1.3s-1.1,0.9-2.1,0.7c-1-0.2-1.2-1.1-0.7-1.6c0.5-0.5,1.2,0.1,1.1,0.5
						c-0.1,0.4-0.7,0.4-0.8,0.2c-0.1-0.2-0.1-0.3-0.1-0.3s-0.2,0.6,0.5,0.9c0.6,0.3,1.5,0,2.1-0.5c0.9-0.7,2.1-0.9,2.1-0.9
						s0,0,0.6-0.1C127.8,47.5,127.6,47.5,127.6,47.5z"/>
					<path d="M137.5,48.6c0,0,0.5-0.2,0.3,0c-0.1,0.2-0.2,0.2-0.2,0.2s-0.2,0-0.7,0.4c-0.5,0.4-1,1-0.8,1.7c0.2,0.7,0.8,0.6,1,0.3
						c0.2-0.2,0.2-0.5,0.2-0.5s-0.1,0.2-0.3,0.2c-0.2,0-0.5-0.3-0.2-0.6c0.2-0.4,0.7-0.2,0.8,0.3c0.1,0.5-0.3,1.2-1.1,1.1
						c-0.8-0.2-0.8-1.2-0.8-1.2s-0.5,1-0.4,1.8c0.1,1,0.8,1.5,1.4,1.4c0.6-0.1,0.8-0.6,0.8-0.6c0-0.1,0-0.1,0-0.1s-0.3,0.2-0.5,0.1
						c-0.2-0.2-0.2-0.7,0.3-0.7c0.5,0,0.7,0.8,0.2,1.3c-0.5,0.6-1.3,0.5-1.8,0.1c-0.5-0.4-0.8-1.1-0.6-2c0.2-0.7,0.5-1.4,0.5-1.4
						s-0.5,1.1-1.3,1.2c-0.8,0.2-1.3-0.4-1.1-1c0.2-0.5,0.9-0.4,1,0c0,0.4-0.4,0.5-0.5,0.4c-0.2-0.1-0.2-0.2-0.2-0.2
						s0.1,0.5,0.7,0.5c0.6,0,1.1-0.5,1.4-1.1c0.4-0.8,1.2-1.4,1.2-1.4s-0.3,0.2,0.1-0.1C137.6,48.5,137.5,48.6,137.5,48.6z"/>
					<path d="M102,61.8c0,0,0.5,0,0.2,0.1C102.1,62,102,62,102,62s-0.1-0.1-0.7,0c-0.6,0.1-1.3,0.3-1.4,1c-0.1,0.6,0.4,0.8,0.6,0.7
						c0.3-0.1,0.4-0.3,0.4-0.3s-0.1,0.1-0.3,0c-0.2-0.1-0.2-0.4,0.1-0.6c0.3-0.2,0.6,0.2,0.5,0.6c-0.1,0.4-0.8,0.8-1.3,0.4
						c-0.5-0.5,0-1.3,0-1.3s-0.8,0.5-1.2,1.2c-0.4,0.8,0,1.5,0.5,1.7c0.5,0.2,0.9-0.1,0.9-0.1c0.1,0,0.1,0,0.1,0s-0.3,0.1-0.4-0.2
						c-0.1-0.2,0.2-0.6,0.5-0.4c0.3,0.2,0.1,0.9-0.4,1.1c-0.7,0.2-1.2-0.2-1.4-0.7c-0.2-0.5-0.1-1.2,0.4-1.8c0.4-0.5,1-0.9,1-0.9
						S99,63,98.4,62.8c-0.7-0.2-0.8-0.9-0.4-1.2c0.4-0.3,0.9,0.1,0.8,0.4c-0.1,0.3-0.5,0.2-0.6,0.1c-0.1-0.1,0-0.2,0-0.2
						s-0.2,0.4,0.3,0.7c0.4,0.3,1.1,0.1,1.5-0.2c0.7-0.4,1.6-0.5,1.6-0.5s-0.3,0,0.1,0C102.1,61.8,102,61.8,102,61.8z"/>
					<path d="M132.3,36.7c0,0,0.5,0.2,0.3,0c-0.2-0.2-0.2-0.2-0.2-0.2s-0.2,0-0.8-0.3c-0.6-0.3-1.2-0.9-1.1-1.6
						c0.2-0.7,0.8-0.7,1-0.5c0.3,0.2,0.2,0.5,0.2,0.5s-0.1-0.1-0.3-0.1c-0.2,0-0.5,0.3-0.2,0.7c0.3,0.3,0.8,0.1,0.8-0.4
						c0-0.5-0.5-1.2-1.2-0.9c-0.8,0.3-0.6,1.3-0.6,1.3s-0.7-0.9-0.7-1.8c0-1,0.7-1.6,1.3-1.6c0.6,0,0.9,0.4,1,0.5c0,0.1,0,0.1,0,0.1
						s-0.3-0.2-0.5,0c-0.2,0.2-0.1,0.7,0.4,0.6c0.5-0.1,0.6-0.9,0-1.3c-0.6-0.5-1.4-0.3-1.9,0.1c-0.4,0.5-0.7,1.3-0.4,2.1
						c0.3,0.7,0.7,1.3,0.7,1.3s-0.7-1-1.5-1c-0.8,0-1.3,0.6-1,1.1c0.3,0.5,1,0.2,1-0.2c0-0.4-0.5-0.5-0.6-0.3
						C128,34.9,128,35,128,35s0-0.5,0.6-0.6c0.6-0.1,1.2,0.4,1.6,0.9c0.6,0.8,1.5,1.2,1.5,1.2s-0.4-0.2,0.2,0
						C132.4,36.7,132.3,36.7,132.3,36.7z"/>
					<path d="M106.2,60.5C106.2,60.5,106.5,60.3,106.2,60.5c-0.3,0-0.4,0-0.4,0s-0.1,0.2-0.6,0.6c-0.5,0.4-1.4,0.7-2,0.3
						c-0.6-0.4-0.4-1,0-1.1c0.3-0.1,0.6,0,0.6,0s-0.2,0-0.3,0.2c-0.1,0.2,0.1,0.6,0.6,0.4c0.4-0.1,0.4-0.7-0.1-0.9
						c-0.5-0.3-1.4-0.1-1.4,0.7c-0.1,0.8,1,1.2,1,1.2s-1.2,0.2-2-0.1c-1-0.4-1.3-1.3-1-1.9c0.2-0.5,0.8-0.7,0.9-0.7
						c0.1,0,0.1,0,0.1,0s-0.3,0.2-0.2,0.5c0.1,0.3,0.7,0.4,0.8-0.1c0.1-0.5-0.7-0.9-1.3-0.6c-0.8,0.4-1,1.2-0.7,1.8
						c0.3,0.6,0.9,1.2,1.9,1.2c0.8,0.1,1.6-0.1,1.6-0.1s-1.3,0.2-1.7,0.9c-0.4,0.7,0.1,1.4,0.7,1.4c0.6,0,0.7-0.8,0.3-1
						c-0.4-0.2-0.7,0.2-0.6,0.4c0,0.2,0.2,0.2,0.2,0.2s-0.5-0.3-0.4-0.8c0.2-0.6,0.9-1,1.5-1.1c1-0.2,1.8-0.8,1.8-0.8s0,0,0.4-0.4
						C106.4,60.4,106.2,60.5,106.2,60.5z"/>
					<g>
						<path d="M111.9,48c0,0,0.4,0.2,0.2,0.2c-0.2,0-0.2,0-0.2,0s-0.1-0.1-0.6-0.2c-0.5-0.1-1.2-0.1-1.5,0.3c-0.3,0.5,0,0.8,0.3,0.8
							c0.3,0,0.4-0.1,0.4-0.1s-0.1,0-0.2-0.1c-0.1-0.1-0.1-0.4,0.3-0.4c0.3,0,0.5,0.4,0.2,0.7c-0.3,0.3-0.9,0.4-1.2-0.1
							c-0.3-0.5,0.4-1.1,0.4-1.1s-0.9,0.1-1.4,0.6c-0.6,0.6-0.5,1.2-0.2,1.5c0.3,0.3,0.7,0.2,0.8,0.2c0.1,0,0.1,0,0.1,0
							s-0.3-0.1-0.3-0.3c0-0.2,0.4-0.5,0.5-0.2c0.2,0.3-0.2,0.8-0.7,0.8c-0.6,0-1-0.6-1-1c0-0.5,0.3-1,1-1.4
							c0.5-0.2,1.1-0.4,1.1-0.4s-0.9,0.2-1.4-0.2c-0.5-0.4-0.3-1,0.1-1.1c0.4-0.1,0.7,0.4,0.5,0.6c-0.2,0.2-0.5,0-0.5-0.1
							c0-0.1,0-0.2,0-0.2s-0.3,0.3,0,0.7c0.3,0.4,0.9,0.4,1.4,0.3c0.7-0.1,1.5,0.1,1.5,0.1s-0.3-0.1,0.1,0.1
							C111.9,48,111.9,48,111.9,48z"/>
						<path d="M115.8,48.4C115.8,48.4,116.1,48.3,115.8,48.4c-0.2-0.1-0.3-0.1-0.3-0.1s-0.1,0.1-0.7,0.3c-0.6,0.1-1.4,0.1-1.8-0.5
							c-0.4-0.6,0-1,0.4-1c0.3,0,0.5,0.2,0.5,0.2s-0.2,0-0.3,0.1c-0.1,0.1-0.1,0.5,0.3,0.5c0.4,0,0.6-0.4,0.3-0.8
							c-0.3-0.4-1.1-0.5-1.4,0.1c-0.3,0.7,0.5,1.3,0.5,1.3s-1.1-0.2-1.7-0.8c-0.7-0.7-0.6-1.5-0.2-1.9c0.4-0.4,0.9-0.3,1-0.2
							c0.1,0,0.1,0,0.1,0s-0.3,0.1-0.3,0.3c0,0.3,0.4,0.6,0.7,0.2c0.3-0.4-0.2-1-0.9-1c-0.8,0-1.2,0.6-1.2,1.2
							c0,0.6,0.4,1.3,1.2,1.7c0.6,0.3,1.3,0.5,1.3,0.5s-1.1-0.3-1.7,0.2c-0.6,0.5-0.4,1.2,0.1,1.4c0.5,0.2,0.9-0.5,0.6-0.7
							c-0.3-0.3-0.6,0-0.7,0.1c0,0.2,0.1,0.3,0.1,0.3s-0.3-0.4,0-0.8c0.3-0.4,1.1-0.5,1.7-0.4c0.9,0.2,1.8-0.1,1.8-0.1s0,0,0.5-0.1
							C116,48.4,115.8,48.4,115.8,48.4z"/>
					</g>
					<path d="M107.7,58.5c0,0-0.5,0.8-0.5,1.3c0,0.5,0,0.7,0,0.7s-0.7,0.4-1.2,1.6c-0.5,1.2-0.3,2.9,0.8,3.8c1.1,1,2.2,0.1,2.3-0.6
						c0.1-0.7-0.4-1.2-0.4-1.2s0.1,0.3-0.3,0.6c-0.4,0.2-1.1,0-1.1-0.9c0.1-0.9,1.1-1.1,1.8-0.3c0.7,0.7,0.8,2.5-0.7,3
						c-1.5,0.5-2.6-1.4-2.6-1.4s0.1,2.3,1.2,3.7c1.3,1.7,3,1.7,3.9,1c0.9-0.7,0.8-1.8,0.8-2c0-0.2,0-0.2,0-0.2s-0.2,0.7-0.8,0.6
						c-0.6-0.1-1.1-1-0.2-1.4c0.8-0.4,2,0.8,1.7,2.1c-0.3,1.6-1.7,2.3-3,2.1c-1.2-0.2-2.6-1.2-3.2-2.9c-0.5-1.4-0.6-3-0.6-3
						s0.2,2.4-1,3.5c-1.2,1.1-2.7,0.5-2.9-0.6c-0.2-1.1,1.3-1.6,1.7-1c0.5,0.6-0.1,1.3-0.5,1.3c-0.4,0-0.5-0.2-0.5-0.2
						s0.7,0.8,1.7,0.3c1-0.6,1.4-2.1,1.3-3.3c-0.1-1.9,0.7-3.7,0.7-3.7s-0.1,0,0.5-1C107.1,59.5,107.7,58.5,107.7,58.5z"/>
					<path d="M137.5,40.4c0,0-2,0.8-2,2.2c-0.1,1.4,0.9,1.8,1.4,1.8c0.6,0,1-0.4,1.1-0.7c0.1-0.3,0-0.5,0-0.5s-0.1,0.5-0.6,0.4
						c-0.5,0-0.7-0.7-0.2-1c0.6-0.3,1.1,0.5,1,1c-0.1,0.6-0.6,1.5-1.7,1.4c-1.4,0-2.2-1.8-1.7-2.9c0.4-1.1,1.2-1.3,1.4-1.5
						c0.2-0.1,1-0.2,1-0.2L137.5,40.4z"/>
					<path d="M125.7,42.5c0,0-1.7-2.4-3.8-3.5c-2.1-1.1-3.8-1.1-5.6-0.4c-1.8,0.8-2.7,3-1.4,4.7c1.3,1.7,3,1.3,3.9,0.8
						c0.8-0.5,1.4-1.6,0.6-2.8c-0.9-1.1-2-1.3-3-0.5c-1,0.8-0.5,2.1,0.1,2.5c0.5,0.4,0.9,0.2,0.9,0.2s-0.7,0.6-1.5,0.2
						c-0.8-0.4-0.6-1.3-0.6-1.3s-0.5,1.9-2.2,2.4c-1.7,0.5-3-1.2-3-1.2s1.8,1.3,3,0.1c1.2-1.2,1.9-3.1,3.6-3.6
						c1.7-0.5,2.8,0.5,3.2,1.3c0.4,0.8,0.3,1.4,0.3,1.4s0.6-0.5,1.6,0c1.1,0.5,1.3,1.3,1.3,1.3s-1-1.3-2.3-0.7
						c-1.3,0.6-1.8,1.6-3.4,1.7c-1.6,0.1-3.5-1.6-3.4-3.8c0.2-2.2,2.8-4.4,6-3.5c3.2,0.9,5.3,3.4,5.3,3.4L125.7,42.5z"/>
					<path d="M110.7,51.9c0,0-1.6,2.4-3.6,3.7c-2,1.2-3.7,1.3-5.6,0.7c-1.9-0.7-2.8-2.9-1.6-4.6c1.2-1.7,3-1.5,3.8-1
						c0.9,0.4,1.5,1.6,0.7,2.7c-0.8,1.2-1.9,1.4-2.9,0.7c-1.1-0.7-0.6-2.1-0.1-2.5c0.5-0.4,0.9-0.3,0.9-0.3s-0.8-0.6-1.5-0.1
						c-0.8,0.5-0.6,1.3-0.6,1.3s-0.6-1.8-2.3-2.3c-1.8-0.4-3,1.4-3,1.4s1.7-1.4,3-0.2c1.3,1.1,2.1,3,3.8,3.4
						c1.7,0.4,2.8-0.6,3.1-1.4c0.4-0.8,0.3-1.4,0.3-1.4s0.6,0.4,1.6-0.1c1-0.5,1.2-1.4,1.2-1.4s-0.9,1.3-2.3,0.8
						c-1.3-0.5-1.9-1.5-3.5-1.5c-1.6,0-3.4,1.7-3.2,4c0.3,2.2,3.1,4.2,6.2,3.2c3.1-1,5.1-3.7,5.1-3.7L110.7,51.9z"/>
					<path d="M107.1,59.9c0,0,0.9-3,2.7-4.8c1.8-1.9,3.5-2.4,5.6-2.3c2.1,0.2,3.7,2.2,3,4.4c-0.7,2.1-2.6,2.4-3.7,2.1
						c-1-0.2-2-1.2-1.5-2.6c0.5-1.4,1.5-2,2.9-1.5c1.3,0.5,1.2,2,0.8,2.5c-0.4,0.5-0.9,0.6-0.9,0.6s1,0.4,1.6-0.3
						c0.7-0.7,0.2-1.5,0.2-1.5s1.1,1.7,3,1.7c1.9,0,2.7-2.3,2.7-2.3s-1.4,1.9-3.1,1.1c-1.7-0.8-3-2.5-4.9-2.5
						c-1.9,0.1-2.7,1.5-2.8,2.4c-0.1,0.9,0.1,1.5,0.1,1.5s-0.7-0.3-1.7,0.6c-0.9,0.9-0.9,1.8-0.9,1.8s0.6-1.6,2.1-1.5
						c1.5,0.1,2.4,1,4,0.6c1.6-0.5,3.1-2.8,2.1-5c-0.9-2.2-4.4-3.5-7.4-1.5c-3,2-4.2,5.3-4.2,5.3L107.1,59.9z"/>
					<path d="M144.8,43.8c0,0-2.1,3.3-6.5,4.8c-4.5,1.5-6.2,1.1-8.5,2.3c-2.2,1.1-3.2,3.2-3,4.6c0.2,1.4,1,1.8,1.5,1.9
						c0.5,0,0.9-0.2,0.9-0.2s0.1,1.8,1.9,1.8c1.9,0,3.7-2.5,2.5-4.4c-0.9-1.5-2.5-0.9-2.5-0.9s0.9-0.1,1,0.6c0.1,1-1,1.1-1.4,0.5
						c-0.6-0.8,0-1.7,1.4-1.8c1.9-0.1,3.6,2.7,2.2,5c-1,1.6-3.9,3.1-6.4,1.3c-2.4-1.7-2.4-5.1-1.3-6.7c1.2-1.7,2.7-2.7,5.8-3.2
						c3.1-0.5,4.6-0.5,7.3-1.8C142.5,46.2,144.8,43.8,144.8,43.8z"/>
					<path d="M145,43.6c0,0-3.1,4.3-9.6,4.9c-6.6,0.7-11-2.8-17.4-0.2c-6.4,2.6-7.8,6-9.7,9.4c-2.1,3.7-4.9,7.9-9.2,10.3
						c-4.4,2.3-6.8,1.6-6.8,1.6L92,69.5c0,0,4.7,1.5,11.2-5.3c4-4.2,5-10.9,9.8-14.4c4.8-3.5,9.9-3.5,14.3-2.4
						c4.4,1.2,8.1,1.4,11.1,0.3C141.3,46.7,145,43.6,145,43.6z"/>
				</g>
			</g>
		</g>
		<g>
			<path d="M149.4,31.6c0,0,0.2-3.3,3.6-2.1c0,0,0.4-0.6,0-0.9c0,0,0.6,0,0.4-0.7c-0.1-0.7-0.8-0.5-0.9-0.3c0,0,0.1-0.4-0.1-0.5
				C152.4,27,149.2,27.3,149.4,31.6z"/>
			<path d="M148.8,31.3c0,0,0-3.3,2.3-4.4c0,0,0.2-0.2-0.1-0.4c-0.3-0.2-0.4,0-0.4,0S148.5,27.7,148.8,31.3z"/>
			<path d="M148.3,24.5c-0.8,0-0.7,1.1-0.7,1.1c-1.2-0.4-1.4,0.5-1.4,0.5c2,0.5,1.7,5.1,1.7,5.1s0.2,0.5,0.5,0c0,0-0.2-4.6,1.7-5.1
				c0,0-0.2-1-1.4-0.5c0,0,0.1-1.1-0.7-1.1H148.3z"/>
			<path d="M147,31.6c0,0-0.2-3.3-3.6-2.1c0,0-0.4-0.6,0.1-0.9c0,0-0.6,0-0.4-0.7c0.1-0.7,0.8-0.5,0.9-0.3c0,0-0.1-0.4,0.1-0.5
				C144,27,147.2,27.3,147,31.6z"/>
			<path d="M147.6,31.3c0,0,0-3.3-2.3-4.4c0,0-0.2-0.2,0.1-0.4c0.3-0.2,0.4,0,0.4,0S147.9,27.7,147.6,31.3z"/>
		</g>
	</g>
	<g>
		<path d="M87.3,84.8c-0.9,0.2-1.4,0.5-1.7,0.8c-0.4,0.6-1,1.8-2.1,4.1c-1.8,4.4-5.9,13.7-7.7,18.5c-0.2,0.2-0.7,0.3-1.2,0.3
			c-0.4,0-0.7-0.1-1-0.3c-0.4-0.9-1-2.2-1.4-3.3l-1.6-3.5c-0.5-1.2-1-2.3-1.3-2.9c-0.3,0.6-0.8,1.5-1.3,2.6l-1.8,3.8
			c-0.6,1.2-1,2.3-1.6,3.5c-0.2,0.2-0.7,0.3-1.2,0.3c-0.4,0-0.6-0.1-1-0.3c-0.6-1.6-2.1-4.9-3.4-7.7L53,87.4c-1-2.2-1.2-2.4-2.5-2.6
			l-0.9-0.2c-0.3-0.4-0.3-1.1,0.1-1.3c1.4,0.1,2.9,0.1,4.9,0.1c1.6,0,3.1,0,4.5-0.1c0.3,0.1,0.4,1.1,0.1,1.3l-0.7,0.1
			c-0.7,0.1-0.9,0.3-0.9,0.6c0,0.3,0.8,2,1.9,4.6l3.7,8.2c1,2.3,1.6,3.4,2.1,4.3c0.4-0.7,1.3-2.5,1.9-3.8l0.5-1.1
			c0.3-0.6,0.4-1.1,0.4-1.3c0-0.2-0.3-1-0.4-1.4l-3.6-7.9c-0.9-1.9-1.1-2.1-2.5-2.3l-0.4,0c-0.4-0.3-0.3-1.2,0.1-1.3
			c1.6,0.1,3.1,0.1,4.7,0.1c1.9,0,3.3,0,4.3-0.1c0.4,0.1,0.4,1.1,0.1,1.3l-0.6,0.1c-0.4,0.1-1,0.3-1,0.5c0,0.3,0.1,0.7,0.3,1.1
			l1.1,2.6c0.3,0.8,0.8,1.8,1.2,2.5c0.4-0.8,0.8-1.7,1.2-2.5l0.3-0.7c0.6-1.4,1.1-2.5,1.1-2.8c0-0.3-0.1-0.4-0.7-0.5l-1.3-0.3
			c-0.3-0.3-0.2-1.1,0.1-1.3c1.1,0.1,2.4,0.1,3.7,0.1c1.5,0,2.8,0,3.8-0.1c0.3,0.2,0.4,1.1,0,1.3l-1,0.2c-1.3,0.3-1.5,0.3-2.8,2.5
			c-0.9,1.5-1.8,3.4-2.3,4.4c-0.3,0.7-0.8,1.8-0.8,1.9c0,0.1,0,0.3,0.3,0.9l1.8,3.8c1,2.1,1.5,3.2,1.7,3.8c1.8-4.3,3.8-9.1,5.6-13.6
			c0.3-0.6,1-2.6,1-3c0-0.4-0.6-0.5-1.1-0.7l-0.8-0.2c-0.3-0.3-0.2-1.1,0.1-1.3c1.2,0.1,2.7,0.1,3.8,0.1c1.3,0,2.4,0,3.4-0.1
			c0.3,0.2,0.4,1,0.1,1.3L87.3,84.8z"/>
		<path d="M95.4,99.6c-0.9,0-1,0-1.2,0.7l-1.5,4.3c-0.2,0.7-0.3,1-0.3,1.3c0,0.2,0.5,0.4,1.5,0.6l1.1,0.2c0.2,0.3,0.3,1.1-0.1,1.3
			c-1.3-0.1-2.6-0.1-4.2-0.1c-1.3,0-2.1,0.1-3.8,0.1c-0.4-0.2-0.4-1-0.1-1.3l1-0.1c0.9-0.1,1.6-0.4,2.3-1.9c0.6-1.5,1.3-3.3,2.4-6
			l3.4-9.1c0.9-2.4,1.5-3.7,1.4-4.7c1.8-0.4,3.2-2.2,3.2-2.2c0.5,0,0.7,0.2,0.9,0.7c0.3,1.1,0.7,2.5,1.7,5.1l5.1,14.6
			c0.8,2.2,1.1,3.1,2.5,3.3l1.4,0.2c0.2,0.2,0.3,1.1,0,1.3c-1.8-0.1-3.8-0.1-5.7-0.1c-1.9,0-3.3,0-5,0.1c-0.4-0.2-0.5-1-0.1-1.3
			l1.2-0.2c0.9-0.2,1-0.4,1-0.6c0-0.3-0.3-1.2-0.7-2.5l-1-3.2c-0.2-0.6-0.5-0.7-1.8-0.7H95.4z M99.7,97.6c0.9,0,1-0.1,0.7-1.1l-1-3
			c-0.5-1.6-1.2-3.6-1.5-4.4c-0.3,0.9-1,2.9-1.6,4.6l-0.9,2.8c-0.3,1-0.1,1.1,0.8,1.1H99.7z"/>
		<path d="M128,102.6c0,3.5,0.2,3.8,1.9,4l1.5,0.2c0.3,0.2,0.3,1.1,0,1.3c-2.4-0.1-4.3-0.1-6-0.1c-1.8,0-3.7,0-5.9,0.1
			c-0.3-0.2-0.3-1.1,0-1.3l1.3-0.2c1.7-0.3,1.9-0.5,1.9-4v-1.9c0-1.9,0-2.5-1-4.4l-4.4-9.2c-0.7-1.5-1.1-2.1-2.4-2.4l-1.3-0.2
			c-0.3-0.3-0.3-1.2,0.1-1.3c1.7,0.1,3.1,0.1,5.3,0.1c2.3,0,4.2,0,5.4-0.1c0.3,0.1,0.4,1,0.1,1.3l-1.3,0.3c-0.7,0.1-0.9,0.3-0.9,0.3
			c0,0.3,0.2,0.9,1,2.6l1.8,4c0.6,1.2,1.4,2.9,1.9,3.9c1.1-1.8,2.2-4.3,3.2-6.2c1.3-2.6,1.8-3.8,1.8-4.2c0-0.2-0.6-0.4-1.5-0.6
			l-0.7-0.1c-0.3-0.2-0.3-1.1,0-1.3c1.5,0.1,2.8,0.1,4.2,0.1c1.4,0,2.6,0,3.7-0.1c0.4,0.1,0.4,1,0.1,1.3l-1,0.2
			c-0.7,0.1-1.5,0.4-1.9,0.9c-0.6,0.7-1.5,2.1-3.2,5.3l-2.4,4.3c-1,1.8-1.2,2.7-1.2,4.8V102.6z"/>
		<path d="M151,93.4c0,1,0,1.1,1,1.1h2.9c2,0,2.4-0.3,2.8-2.1l0.2-0.9c0.3-0.3,1.2-0.3,1.4,0c-0.1,1.2-0.1,2.6-0.1,4
			c0,1.4,0,2.8,0.1,3.9c-0.2,0.3-1.2,0.4-1.4,0l-0.2-0.9c-0.4-1.8-0.8-2.1-2.8-2.1H152c-1,0-1,0.1-1,1.1v5c0,3.5,0.2,3.8,1.9,4
			l1.4,0.2c0.3,0.2,0.3,1.1,0,1.3c-2.3-0.1-4.1-0.1-5.9-0.1c-1.7,0-3.6,0-5.8,0.1c-0.3-0.2-0.3-1.1,0-1.3l1.2-0.2
			c1.7-0.3,1.9-0.5,1.9-4V88.7c0-3.5-0.2-3.8-1.9-4.1l-0.7-0.1c-0.3-0.2-0.3-1.2,0.1-1.3c1.6,0.1,3.5,0.1,5.3,0.1h7.8
			c2.4,0,4.5,0,5-0.1c0,0.6,0,3.3,0.1,5.8c-0.1,0.4-1,0.4-1.4,0.1c-0.4-1.5-0.7-2.4-1.1-2.9c-0.6-0.8-1.8-1.2-3.7-1.2h-2.9
			c-1.2,0-1.2,0.1-1.2,1.5V93.4z"/>
		<path d="M173.5,99.6c-0.9,0-1,0-1.2,0.7l-1.5,4.3c-0.2,0.7-0.3,1-0.3,1.3c0,0.2,0.5,0.4,1.5,0.6l1.1,0.2c0.2,0.3,0.3,1.1-0.1,1.3
			c-1.3-0.1-2.6-0.1-4.2-0.1c-1.3,0-2.1,0.1-3.8,0.1c-0.4-0.2-0.4-1-0.1-1.3l1-0.1c0.9-0.1,1.6-0.4,2.3-1.9c0.6-1.5,1.3-3.3,2.4-6
			l3.4-9.1c0.9-2.4,1.5-3.7,1.4-4.7c1.8-0.4,3.2-2.2,3.2-2.2c0.5,0,0.7,0.2,0.9,0.7c0.3,1.1,0.7,2.5,1.7,5.1l5.1,14.6
			c0.8,2.2,1.1,3.1,2.5,3.3l1.4,0.2c0.2,0.2,0.3,1.1,0,1.3c-1.8-0.1-3.8-0.1-5.7-0.1c-1.9,0-3.3,0-5,0.1c-0.4-0.2-0.5-1-0.1-1.3
			l1.2-0.2c0.9-0.2,1-0.4,1-0.6c0-0.3-0.3-1.2-0.7-2.5l-1-3.2c-0.2-0.6-0.5-0.7-1.8-0.7H173.5z M177.8,97.6c0.9,0,1-0.1,0.7-1.1
			l-1-3c-0.5-1.6-1.2-3.6-1.5-4.4c-0.3,0.9-1,2.9-1.6,4.6l-0.9,2.8c-0.3,1-0.2,1.1,0.8,1.1H177.8z"/>
		<path d="M199,89.4c0-3.7-0.1-4.1-1.6-4.4l-1-0.1c-0.4-0.2-0.4-1.1,0.1-1.3c2.8-0.2,5.7-0.3,9.3-0.3c3.2,0,5.9,0.5,7.3,1.3
			c2.2,1.3,3.3,3.1,3.3,5.5c0,3.3-2.2,4.7-4,5.6c-0.4,0.2-0.4,0.4-0.2,0.8c2.5,5,4,7.8,5.8,9.3c1,0.8,1.9,1,2.5,1
			c0.3,0.2,0.3,0.7,0.1,1c-0.6,0.3-1.8,0.3-2.9,0.3c-3.4,0-5.6-1.2-7.2-3.9c-1.2-2-2.1-3.8-2.9-5.8c-0.4-1-1-1.3-2-1.3
			c-1.3,0-1.4,0.1-1.4,0.8v4.6c0,3.4,0.2,3.7,1.9,4l1,0.2c0.3,0.2,0.3,1.1,0,1.3c-2-0.1-3.7-0.1-5.5-0.1c-1.9,0-3.5,0-5.4,0.1
			c-0.3-0.2-0.3-1.1,0-1.3l1-0.2c1.7-0.3,1.9-0.6,1.9-4V89.4z M204.1,94.1c0,1.3,0.1,1.4,2.3,1.4c1.3,0,2.1-0.3,2.8-1
			c0.6-0.6,1.3-1.8,1.3-4c0-3.4-2-5.5-4.9-5.5c-1.5,0-1.6,0.1-1.6,1.9V94.1z"/>
		<path d="M234.7,93.1c0,1,0,1.1,1,1.1h2.6c1.9,0,2.4-0.3,2.8-2.1l0.2-0.9c0.3-0.3,1.2-0.3,1.4,0c-0.1,1.2-0.1,2.5-0.1,4
			c0,1.4,0,2.8,0.1,4c-0.2,0.3-1.1,0.4-1.4,0l-0.2-0.9c-0.4-1.8-0.8-2.1-2.8-2.1h-2.6c-1,0-1,0-1,1.2v4.4c0,1.7,0.2,2.9,0.6,3.5
			c0.5,0.7,1.2,1,3.9,1c3.2,0,4.5-0.1,6.6-4.3c0.3-0.4,1.2-0.3,1.4,0.2c-0.1,1.9-1,5-1.6,6c-2-0.1-5.6-0.1-8.6-0.1h-4.9
			c-1.8,0-3.6,0-6.4,0.1c-0.3-0.2-0.3-1.1,0-1.3l1.8-0.3c1.7-0.3,1.9-0.5,1.9-3.9V88.7c0-3.4-0.2-3.6-1.9-4l-0.9-0.2
			c-0.3-0.2-0.3-1.1,0.1-1.3c1.8,0.1,3.6,0.1,5.4,0.1h7.9c2.4,0,4.5,0,5-0.1c0,0.6,0.3,3.3,0.5,5.8c-0.1,0.4-1,0.5-1.4,0.1
			c-0.4-1.3-0.9-2.4-1.4-2.9c-0.7-0.7-1.8-1.2-3.7-1.2h-3c-1.2,0-1.2,0.1-1.2,1.5V93.1z"/>
	</g>
	<g>
		<path class="st1" d="M86.8,84.2c-0.9,0.2-1.4,0.5-1.7,0.8c-0.4,0.6-1,1.8-2.1,4.1c-1.8,4.4-5.9,13.7-7.7,18.5
			c-0.2,0.2-0.7,0.3-1.2,0.3c-0.4,0-0.7-0.1-1-0.3c-0.4-0.9-1-2.2-1.4-3.3l-1.6-3.5c-0.5-1.2-1-2.3-1.3-2.9
			c-0.3,0.6-0.8,1.5-1.3,2.6l-1.8,3.8c-0.6,1.2-1,2.3-1.6,3.5c-0.2,0.2-0.7,0.3-1.2,0.3c-0.4,0-0.6-0.1-1-0.3
			c-0.6-1.6-2.1-4.9-3.4-7.7l-6.1-13.4c-1-2.2-1.2-2.4-2.5-2.6L49.1,84c-0.3-0.4-0.3-1.1,0.1-1.3c1.4,0.1,2.9,0.1,4.9,0.1
			c1.6,0,3.1,0,4.5-0.1c0.3,0.1,0.4,1.1,0.1,1.3L58,84.1c-0.7,0.1-0.9,0.3-0.9,0.6c0,0.3,0.8,2,1.9,4.6l3.7,8.2
			c1,2.3,1.6,3.4,2.1,4.3c0.4-0.7,1.3-2.5,1.9-3.8l0.5-1.1c0.3-0.6,0.4-1.1,0.4-1.3c0-0.2-0.3-1-0.4-1.4l-3.6-7.9
			c-0.9-1.9-1.1-2.1-2.5-2.3l-0.4,0c-0.4-0.3-0.3-1.2,0.1-1.3c1.6,0.1,3.1,0.1,4.7,0.1c1.9,0,3.3,0,4.3-0.1c0.4,0.1,0.4,1.1,0.2,1.3
			l-0.6,0.1c-0.4,0.1-1,0.3-1,0.5c0,0.3,0.1,0.7,0.3,1.1l1.1,2.6c0.3,0.8,0.8,1.8,1.2,2.5c0.4-0.8,0.8-1.7,1.2-2.5l0.3-0.7
			c0.6-1.4,1.1-2.5,1.1-2.8c0-0.3-0.1-0.4-0.7-0.5L71.3,84c-0.3-0.3-0.2-1.1,0.1-1.3c1.1,0.1,2.4,0.1,3.7,0.1c1.5,0,2.8,0,3.8-0.1
			c0.3,0.2,0.4,1.1,0,1.3l-1,0.2c-1.3,0.3-1.5,0.3-2.8,2.5c-0.9,1.5-1.8,3.4-2.3,4.4c-0.3,0.7-0.8,1.8-0.8,1.9c0,0.1,0,0.3,0.3,0.9
			l1.8,3.8c1,2.1,1.5,3.2,1.7,3.8c1.8-4.3,3.8-9.1,5.6-13.6c0.3-0.6,1-2.6,1-3c0-0.4-0.6-0.5-1.1-0.7L80.4,84
			c-0.3-0.3-0.2-1.1,0.1-1.3c1.2,0.1,2.7,0.1,3.8,0.1c1.3,0,2.4,0,3.4-0.1c0.3,0.2,0.4,1,0.1,1.3L86.8,84.2z"/>
		<path class="st1" d="M94.9,99c-0.9,0-1,0-1.2,0.7l-1.5,4.3c-0.2,0.7-0.3,1-0.3,1.3c0,0.2,0.5,0.4,1.5,0.6l1.1,0.2
			c0.2,0.3,0.3,1.1-0.1,1.3c-1.3-0.1-2.6-0.1-4.2-0.1c-1.3,0-2.1,0.1-3.8,0.1c-0.4-0.2-0.4-1-0.1-1.3l1-0.1c0.9-0.1,1.6-0.4,2.3-1.9
			c0.6-1.5,1.3-3.3,2.4-6l3.4-9.1c0.9-2.4,1.5-3.7,1.4-4.7c1.8-0.4,3.2-2.2,3.2-2.2c0.5,0,0.7,0.2,0.9,0.7c0.3,1.1,0.7,2.5,1.7,5.1
			l5.1,14.6c0.8,2.2,1.1,3.1,2.5,3.3l1.4,0.2c0.2,0.2,0.3,1.1,0,1.3c-1.8-0.1-3.8-0.1-5.7-0.1c-1.9,0-3.3,0-5,0.1
			c-0.4-0.2-0.5-1-0.1-1.3l1.2-0.2c0.9-0.1,1-0.4,1-0.6c0-0.3-0.3-1.2-0.7-2.5l-1-3.2c-0.2-0.6-0.5-0.7-1.8-0.7H94.9z M99.1,97
			c0.9,0,1-0.1,0.7-1.1l-1-3c-0.5-1.6-1.2-3.6-1.5-4.4c-0.3,0.9-1,2.9-1.6,4.6l-0.9,2.8c-0.3,1-0.1,1.1,0.8,1.1H99.1z"/>
		<path class="st1" d="M127.5,102c0,3.5,0.2,3.8,1.9,4l1.5,0.2c0.3,0.2,0.3,1.1,0,1.3c-2.4-0.1-4.3-0.1-6-0.1c-1.8,0-3.7,0-5.9,0.1
			c-0.3-0.2-0.3-1.1,0-1.3l1.3-0.2c1.7-0.3,1.9-0.5,1.9-4v-1.9c0-1.9,0-2.5-1-4.4l-4.4-9.2c-0.7-1.5-1.1-2.1-2.4-2.4L113,84
			c-0.3-0.3-0.3-1.2,0.2-1.3c1.7,0.1,3.1,0.1,5.3,0.1c2.3,0,4.2,0,5.4-0.1c0.3,0.1,0.4,1,0.1,1.3l-1.3,0.3c-0.7,0.1-0.9,0.3-0.9,0.3
			c0,0.3,0.2,0.9,1,2.6l1.8,4c0.6,1.2,1.4,2.9,1.9,3.9c1.1-1.8,2.2-4.3,3.2-6.2c1.3-2.6,1.8-3.8,1.8-4.2c0-0.2-0.6-0.4-1.5-0.6
			l-0.7-0.1c-0.3-0.2-0.3-1.1,0-1.3c1.5,0.1,2.8,0.1,4.2,0.1c1.4,0,2.6,0,3.7-0.1c0.4,0.1,0.4,1,0.1,1.3l-1,0.2
			c-0.7,0.1-1.5,0.4-1.9,0.9c-0.6,0.7-1.5,2.1-3.2,5.3l-2.4,4.3c-1,1.8-1.2,2.7-1.2,4.8V102z"/>
		<path class="st1" d="M150.4,92.8c0,1,0,1.1,1,1.1h2.9c2,0,2.4-0.3,2.8-2.1l0.2-0.9c0.3-0.3,1.2-0.3,1.4,0c-0.1,1.2-0.1,2.6-0.1,4
			c0,1.4,0,2.8,0.1,3.9c-0.2,0.3-1.2,0.4-1.4,0l-0.2-0.9c-0.4-1.8-0.8-2.1-2.8-2.1h-2.9c-1,0-1,0.1-1,1.1v5c0,3.5,0.2,3.8,1.9,4
			l1.4,0.2c0.3,0.2,0.3,1.1,0,1.3c-2.3-0.1-4.1-0.1-5.9-0.1c-1.7,0-3.6,0-5.8,0.1c-0.3-0.2-0.3-1.1,0-1.3l1.2-0.2
			c1.7-0.3,1.9-0.5,1.9-4V88.2c0-3.5-0.2-3.8-1.9-4.1l-0.7-0.1c-0.3-0.2-0.3-1.2,0.1-1.3c1.6,0.1,3.5,0.1,5.3,0.1h7.8
			c2.4,0,4.5,0,5-0.1c0,0.6,0,3.3,0.1,5.8c-0.2,0.4-1,0.4-1.4,0.1c-0.4-1.5-0.7-2.4-1.1-2.9c-0.6-0.8-1.8-1.2-3.7-1.2h-2.9
			c-1.2,0-1.2,0.1-1.2,1.5V92.8z"/>
		<path class="st1" d="M173,99c-0.9,0-1,0-1.2,0.7l-1.5,4.3c-0.2,0.7-0.3,1-0.3,1.3c0,0.2,0.5,0.4,1.5,0.6l1.1,0.2
			c0.2,0.3,0.3,1.1-0.1,1.3c-1.3-0.1-2.7-0.1-4.2-0.1c-1.3,0-2.1,0.1-3.8,0.1c-0.4-0.2-0.4-1-0.1-1.3l1-0.1c0.9-0.1,1.6-0.4,2.3-1.9
			c0.6-1.5,1.3-3.3,2.4-6l3.4-9.1c0.9-2.4,1.5-3.7,1.4-4.7c1.8-0.4,3.2-2.2,3.2-2.2c0.5,0,0.7,0.2,0.9,0.7c0.3,1.1,0.7,2.5,1.7,5.1
			l5.1,14.6c0.8,2.2,1.1,3.1,2.5,3.3l1.4,0.2c0.2,0.2,0.3,1.1,0,1.3c-1.8-0.1-3.8-0.1-5.7-0.1c-1.9,0-3.3,0-5,0.1
			c-0.4-0.2-0.5-1-0.1-1.3l1.2-0.2c0.9-0.1,1-0.4,1-0.6c0-0.3-0.3-1.2-0.7-2.5l-1-3.2c-0.2-0.6-0.5-0.7-1.8-0.7H173z M177.2,97
			c0.9,0,1-0.1,0.7-1.1l-1-3c-0.5-1.6-1.2-3.6-1.5-4.4c-0.3,0.9-1,2.9-1.6,4.6l-0.9,2.8c-0.3,1-0.1,1.1,0.8,1.1H177.2z"/>
		<path class="st1" d="M198.4,88.8c0-3.7-0.1-4.1-1.6-4.4l-1-0.1c-0.4-0.2-0.4-1.1,0.1-1.3c2.8-0.2,5.7-0.3,9.3-0.3
			c3.2,0,5.9,0.5,7.3,1.3c2.2,1.3,3.3,3.1,3.3,5.5c0,3.3-2.2,4.7-4,5.6c-0.4,0.2-0.4,0.4-0.2,0.8c2.5,5,4,7.8,5.8,9.3
			c1,0.8,1.9,1,2.5,1c0.3,0.2,0.3,0.7,0.2,1c-0.6,0.3-1.8,0.3-2.9,0.3c-3.4,0-5.6-1.2-7.2-3.9c-1.2-2-2.1-3.8-2.9-5.8
			c-0.4-1-1-1.3-2-1.3c-1.3,0-1.4,0.1-1.4,0.8v4.6c0,3.4,0.2,3.7,1.9,4l1,0.2c0.3,0.2,0.3,1.1,0,1.3c-2-0.1-3.7-0.1-5.5-0.1
			c-1.9,0-3.5,0-5.4,0.1c-0.3-0.2-0.3-1.1,0-1.3l1-0.2c1.7-0.3,1.9-0.6,1.9-4V88.8z M203.6,93.6c0,1.3,0.1,1.4,2.3,1.4
			c1.3,0,2.1-0.3,2.8-1c0.6-0.6,1.3-1.8,1.3-4c0-3.4-2-5.5-4.9-5.5c-1.5,0-1.6,0.1-1.6,1.9V93.6z"/>
		<path class="st1" d="M234.2,92.5c0,1,0,1.1,1,1.1h2.6c1.9,0,2.4-0.3,2.8-2.1l0.2-0.9c0.3-0.3,1.2-0.3,1.4,0
			c-0.1,1.2-0.1,2.5-0.1,4c0,1.4,0,2.8,0.1,4c-0.2,0.3-1.1,0.4-1.4,0l-0.2-0.9c-0.4-1.8-0.8-2.1-2.8-2.1h-2.6c-1,0-1,0-1,1.2v4.4
			c0,1.7,0.2,2.9,0.6,3.5c0.5,0.7,1.2,1,3.9,1c3.2,0,4.5-0.1,6.6-4.3c0.3-0.4,1.2-0.3,1.4,0.2c-0.2,1.9-1,5-1.6,6
			c-2-0.1-5.6-0.1-8.6-0.1h-4.9c-1.8,0-3.6,0-6.4,0.1c-0.3-0.2-0.3-1.1,0-1.3l1.8-0.3c1.7-0.3,1.9-0.5,1.9-3.9V88.1
			c0-3.4-0.2-3.6-1.9-4L226,84c-0.3-0.2-0.3-1.1,0.1-1.3c1.8,0.1,3.6,0.1,5.4,0.1h7.9c2.4,0,4.5,0,5-0.1c0,0.6,0.3,3.3,0.5,5.8
			c-0.2,0.4-1,0.5-1.4,0.1c-0.4-1.3-0.9-2.4-1.4-2.9c-0.7-0.7-1.8-1.2-3.7-1.2h-3c-1.2,0-1.2,0.1-1.2,1.5V92.5z"/>
	</g>
	<g>
		<path d="M86.2,83.7c-0.9,0.2-1.4,0.5-1.7,0.8c-0.4,0.6-1,1.8-2.1,4.1c-1.8,4.4-5.9,13.7-7.7,18.5c-0.2,0.2-0.7,0.3-1.2,0.3
			c-0.4,0-0.7-0.1-1-0.3c-0.4-0.9-1-2.2-1.4-3.3l-1.6-3.5c-0.5-1.2-1-2.3-1.3-2.9c-0.3,0.6-0.8,1.5-1.3,2.6l-1.8,3.8
			c-0.6,1.2-1,2.3-1.6,3.5c-0.2,0.2-0.7,0.3-1.2,0.3c-0.4,0-0.6-0.1-1-0.3c-0.6-1.6-2.1-4.9-3.4-7.7l-6.1-13.4
			c-1-2.2-1.2-2.4-2.5-2.6l-0.9-0.2c-0.3-0.4-0.3-1.1,0.1-1.3c1.4,0.1,2.9,0.1,4.9,0.1c1.6,0,3.1,0,4.5-0.1c0.3,0.1,0.4,1.1,0.1,1.3
			l-0.7,0.1c-0.7,0.1-0.9,0.3-0.9,0.6c0,0.3,0.8,2,1.9,4.6l3.7,8.2c1,2.3,1.6,3.4,2.1,4.3c0.4-0.7,1.3-2.5,1.9-3.8l0.5-1.1
			c0.3-0.6,0.4-1.1,0.4-1.3c0-0.2-0.3-1-0.4-1.4l-3.6-7.9c-0.9-1.9-1.1-2.1-2.5-2.3l-0.4,0c-0.4-0.3-0.3-1.2,0.1-1.3
			c1.6,0.1,3.1,0.1,4.7,0.1c1.9,0,3.3,0,4.3-0.1c0.4,0.1,0.4,1.1,0.1,1.3l-0.6,0.1c-0.4,0.1-1,0.3-1,0.5c0,0.3,0.1,0.7,0.3,1.1
			l1.1,2.6c0.3,0.8,0.8,1.8,1.2,2.5c0.4-0.8,0.8-1.7,1.2-2.5l0.3-0.7c0.6-1.4,1.1-2.5,1.1-2.8c0-0.3-0.1-0.4-0.7-0.5l-1.3-0.3
			c-0.3-0.3-0.2-1.1,0.1-1.3c1.1,0.1,2.4,0.1,3.7,0.1c1.5,0,2.8,0,3.8-0.1c0.3,0.2,0.4,1.1,0,1.3l-1,0.2c-1.3,0.3-1.5,0.3-2.8,2.5
			c-0.9,1.5-1.8,3.4-2.3,4.4c-0.3,0.7-0.8,1.8-0.8,1.9c0,0.1,0,0.3,0.3,0.9l1.8,3.8c1,2.1,1.5,3.2,1.7,3.8c1.8-4.3,3.8-9.1,5.6-13.6
			c0.3-0.6,1-2.6,1-3c0-0.4-0.6-0.5-1.1-0.7l-0.8-0.2c-0.3-0.3-0.2-1.1,0.1-1.3c1.2,0.1,2.7,0.1,3.8,0.1c1.3,0,2.4,0,3.4-0.1
			c0.3,0.2,0.4,1,0.1,1.3L86.2,83.7z"/>
		<path d="M94.3,98.4c-0.9,0-1,0-1.2,0.7l-1.5,4.3c-0.2,0.7-0.3,1-0.3,1.3c0,0.2,0.5,0.5,1.5,0.6l1.1,0.2c0.2,0.3,0.3,1.1-0.1,1.3
			c-1.3-0.1-2.6-0.1-4.2-0.1c-1.3,0-2.1,0.1-3.8,0.1c-0.4-0.2-0.4-1-0.1-1.3l1-0.1c0.9-0.1,1.6-0.4,2.3-1.9c0.6-1.5,1.3-3.3,2.4-6
			l3.4-9.1c0.9-2.4,1.5-3.7,1.4-4.7c1.8-0.4,3.2-2.2,3.2-2.2c0.5,0,0.7,0.2,0.9,0.7c0.3,1.1,0.7,2.5,1.7,5.1l5.1,14.6
			c0.8,2.2,1.1,3.1,2.5,3.3l1.4,0.2c0.2,0.2,0.3,1.1,0,1.3c-1.8-0.1-3.8-0.1-5.7-0.1c-1.9,0-3.3,0-5,0.1c-0.4-0.2-0.5-1-0.1-1.3
			l1.2-0.2c0.9-0.2,1-0.4,1-0.6c0-0.3-0.3-1.2-0.7-2.5l-1-3.2c-0.2-0.6-0.5-0.7-1.8-0.7H94.3z M98.5,96.4c0.9,0,1-0.1,0.7-1.1l-1-3
			c-0.5-1.6-1.2-3.6-1.5-4.4c-0.3,0.9-1,2.9-1.6,4.6l-0.9,2.8c-0.3,1-0.1,1.1,0.8,1.1H98.5z"/>
		<path d="M126.9,101.5c0,3.5,0.2,3.8,1.9,4l1.5,0.2c0.3,0.2,0.3,1.1,0,1.3c-2.4-0.1-4.3-0.1-6-0.1c-1.8,0-3.7,0-5.9,0.1
			c-0.3-0.2-0.3-1.1,0-1.3l1.3-0.2c1.7-0.3,1.9-0.5,1.9-4v-1.9c0-1.9,0-2.5-1-4.4l-4.4-9.2c-0.7-1.5-1.1-2.1-2.4-2.4l-1.3-0.2
			c-0.3-0.3-0.3-1.2,0.1-1.3c1.7,0.1,3.1,0.1,5.3,0.1c2.3,0,4.2,0,5.4-0.1c0.3,0.1,0.4,1,0.1,1.3l-1.3,0.3c-0.7,0.1-0.9,0.3-0.9,0.3
			c0,0.3,0.2,0.9,1,2.6l1.8,4c0.6,1.2,1.4,2.9,1.9,3.9c1.1-1.8,2.2-4.3,3.2-6.2c1.3-2.6,1.8-3.8,1.8-4.2c0-0.2-0.6-0.4-1.5-0.6
			l-0.7-0.1c-0.3-0.2-0.3-1.1,0-1.3c1.5,0.1,2.8,0.1,4.2,0.1c1.4,0,2.6,0,3.7-0.1c0.4,0.1,0.4,1,0.1,1.3l-1,0.2
			c-0.7,0.1-1.5,0.4-1.9,0.9c-0.6,0.7-1.5,2.1-3.2,5.3l-2.4,4.3c-1,1.8-1.2,2.7-1.2,4.8V101.5z"/>
		<path d="M149.8,92.2c0,1,0,1.1,1,1.1h2.9c2,0,2.4-0.3,2.8-2.1l0.2-0.9c0.3-0.3,1.2-0.3,1.4,0c-0.1,1.2-0.1,2.6-0.1,4
			c0,1.4,0,2.8,0.1,3.9c-0.2,0.3-1.2,0.4-1.4,0l-0.2-0.9c-0.4-1.8-0.8-2.1-2.8-2.1h-2.9c-1,0-1,0.1-1,1.1v5c0,3.5,0.2,3.8,1.9,4
			l1.4,0.2c0.3,0.2,0.3,1.1,0,1.3c-2.3-0.1-4.1-0.1-5.9-0.1c-1.7,0-3.6,0-5.8,0.1c-0.3-0.2-0.3-1.1,0-1.3l1.2-0.2
			c1.7-0.3,1.9-0.5,1.9-4V87.6c0-3.5-0.2-3.8-1.9-4.1l-0.7-0.1c-0.3-0.2-0.3-1.2,0.1-1.3c1.6,0.1,3.5,0.1,5.3,0.1h7.8
			c2.4,0,4.5,0,5-0.1c0,0.6,0,3.3,0.1,5.8c-0.1,0.4-1,0.4-1.4,0.1c-0.4-1.5-0.7-2.4-1.1-2.9c-0.6-0.8-1.8-1.2-3.7-1.2h-2.9
			c-1.2,0-1.2,0.1-1.2,1.5V92.2z"/>
		<path d="M172.4,98.4c-0.9,0-1,0-1.2,0.7l-1.5,4.3c-0.2,0.7-0.3,1-0.3,1.3c0,0.2,0.5,0.5,1.5,0.6l1.1,0.2c0.2,0.3,0.3,1.1-0.1,1.3
			c-1.3-0.1-2.6-0.1-4.2-0.1c-1.3,0-2.1,0.1-3.8,0.1c-0.4-0.2-0.4-1-0.1-1.3l1-0.1c0.9-0.1,1.6-0.4,2.3-1.9c0.6-1.5,1.3-3.3,2.4-6
			l3.4-9.1c0.9-2.4,1.5-3.7,1.4-4.7c1.8-0.4,3.2-2.2,3.2-2.2c0.5,0,0.7,0.2,0.9,0.7c0.3,1.1,0.7,2.5,1.7,5.1l5.1,14.6
			c0.8,2.2,1.1,3.1,2.5,3.3l1.4,0.2c0.2,0.2,0.3,1.1,0,1.3c-1.8-0.1-3.8-0.1-5.7-0.1c-1.9,0-3.3,0-5,0.1c-0.4-0.2-0.5-1-0.1-1.3
			l1.2-0.2c0.9-0.2,1-0.4,1-0.6c0-0.3-0.3-1.2-0.7-2.5l-1-3.2c-0.2-0.6-0.5-0.7-1.8-0.7H172.4z M176.6,96.4c0.9,0,1-0.1,0.7-1.1
			l-1-3c-0.5-1.6-1.2-3.6-1.5-4.4c-0.3,0.9-1,2.9-1.6,4.6l-0.9,2.8c-0.3,1-0.2,1.1,0.8,1.1H176.6z"/>
		<path d="M197.9,88.2c0-3.7-0.1-4.1-1.6-4.4l-1-0.1c-0.4-0.2-0.4-1.1,0.1-1.3c2.8-0.2,5.7-0.3,9.3-0.3c3.2,0,5.9,0.5,7.3,1.3
			c2.2,1.3,3.3,3.1,3.3,5.5c0,3.3-2.2,4.7-4,5.6c-0.4,0.2-0.4,0.4-0.2,0.8c2.5,5,4,7.8,5.8,9.3c1,0.8,1.9,1,2.5,1
			c0.3,0.2,0.3,0.7,0.1,1c-0.6,0.3-1.8,0.3-2.9,0.3c-3.4,0-5.6-1.2-7.2-3.9c-1.2-2-2.1-3.8-2.9-5.8c-0.4-1-1-1.3-2-1.3
			c-1.3,0-1.4,0.1-1.4,0.8v4.6c0,3.4,0.2,3.7,1.9,4l1,0.2c0.3,0.2,0.3,1.1,0,1.3c-2-0.1-3.7-0.1-5.5-0.1c-1.9,0-3.5,0-5.4,0.1
			c-0.3-0.2-0.3-1.1,0-1.3l1-0.2c1.7-0.3,1.9-0.6,1.9-4V88.2z M203,93c0,1.3,0.1,1.4,2.3,1.4c1.3,0,2.1-0.3,2.8-1
			c0.6-0.6,1.3-1.8,1.3-4c0-3.4-2-5.5-4.9-5.5c-1.5,0-1.6,0.1-1.6,1.9V93z"/>
		<path d="M233.6,91.9c0,1,0,1.1,1,1.1h2.6c1.9,0,2.4-0.3,2.8-2.1l0.2-0.9c0.3-0.3,1.2-0.3,1.4,0c-0.1,1.2-0.1,2.5-0.1,4
			s0,2.8,0.1,4c-0.2,0.3-1.1,0.4-1.4,0l-0.2-0.9c-0.4-1.8-0.8-2.1-2.8-2.1h-2.6c-1,0-1,0-1,1.2v4.4c0,1.7,0.2,2.9,0.6,3.5
			c0.5,0.7,1.2,1,3.9,1c3.2,0,4.5-0.1,6.6-4.3c0.3-0.4,1.2-0.3,1.4,0.2c-0.1,1.9-1,5-1.6,6c-2-0.1-5.6-0.1-8.6-0.1H231
			c-1.8,0-3.6,0-6.4,0.1c-0.3-0.2-0.3-1.1,0-1.3l1.8-0.3c1.7-0.3,1.9-0.5,1.9-3.9V87.5c0-3.4-0.2-3.6-1.9-4l-0.9-0.2
			c-0.3-0.2-0.3-1.1,0.1-1.3c1.8,0.1,3.6,0.1,5.4,0.1h7.9c2.4,0,4.5,0,5-0.1c0,0.6,0.3,3.3,0.5,5.8c-0.1,0.4-1,0.5-1.4,0.1
			c-0.4-1.3-0.9-2.4-1.4-2.9c-0.7-0.7-1.8-1.2-3.7-1.2h-3c-1.2,0-1.2,0.1-1.2,1.5V91.9z"/>
	</g>
	<path d="M147.7,194.1L3.7,99.4l0.4-0.3L147.7,5l0.2,0.1l143.8,94.4L147.7,194.1z M4.9,99.4l142.8,93.9l142.8-93.8L147.7,5.8
		L4.9,99.4z"/>
	<path d="M147.7,189.9l-1-0.7l0.2-0.4l0.8,0.5l1.1-0.7l0.2,0.4L147.7,189.9z M144.6,187.8l-2.1-1.4l0.2-0.4l2.1,1.4L144.6,187.8z
		 M151.2,187.6l-0.2-0.4l2.1-1.4l0.2,0.4L151.2,187.6z M140.4,185l-2.1-1.4l0.2-0.4l2.1,1.4L140.4,185z M155.5,184.8l-0.2-0.4
		l2.1-1.4l0.2,0.4L155.5,184.8z M136.1,182.2l-2.1-1.4l0.2-0.4l2.1,1.4L136.1,182.2z M159.7,182l-0.2-0.4l2.1-1.4l0.2,0.4L159.7,182
		z M131.9,179.4l-2.1-1.4l0.2-0.4l2.1,1.4L131.9,179.4z M164,179.2l-0.2-0.4l2.1-1.4l0.2,0.4L164,179.2z M127.6,176.7l-2.1-1.4
		l0.2-0.4l2.1,1.4L127.6,176.7z M168.2,176.4l-0.2-0.4l2.1-1.4l0.2,0.4L168.2,176.4z M123.4,173.9l-2.1-1.4l0.2-0.4l2.1,1.4
		L123.4,173.9z M172.5,173.6l-0.2-0.4l2.1-1.4l0.2,0.4L172.5,173.6z M119.2,171.1l-2.1-1.4l0.2-0.4l2.1,1.4L119.2,171.1z
		 M176.7,170.8l-0.2-0.4l2.1-1.4l0.2,0.4L176.7,170.8z M114.9,168.3l-2.1-1.4l0.2-0.4l2.1,1.4L114.9,168.3z M181,168.1l-0.2-0.4
		l2.1-1.4l0.2,0.4L181,168.1z M110.7,165.5l-2.1-1.4l0.2-0.4l2.1,1.4L110.7,165.5z M185.2,165.3l-0.2-0.4l2.1-1.4l0.2,0.4
		L185.2,165.3z M106.4,162.7l-2.1-1.4l0.2-0.4l2.1,1.4L106.4,162.7z M189.5,162.5l-0.2-0.4l2.1-1.4l0.2,0.4L189.5,162.5z
		 M102.2,159.9l-2.1-1.4l0.2-0.4l2.1,1.4L102.2,159.9z M193.7,159.7l-0.2-0.4l2.1-1.4l0.2,0.4L193.7,159.7z M97.9,157.1l-2.1-1.4
		l0.2-0.4l2.1,1.4L97.9,157.1z M198,156.9l-0.2-0.4l2.1-1.4l0.2,0.4L198,156.9z M93.7,154.3l-2.1-1.4l0.2-0.4l2.1,1.4L93.7,154.3z
		 M202.2,154.1l-0.2-0.4l2.1-1.4l0.2,0.4L202.2,154.1z M89.4,151.5l-2.1-1.4l0.2-0.4l2.1,1.4L89.4,151.5z M206.5,151.3l-0.2-0.4
		l2.1-1.4l0.2,0.4L206.5,151.3z M85.2,148.7l-2.1-1.4l0.2-0.4l2.1,1.4L85.2,148.7z M210.7,148.5l-0.2-0.4l2.1-1.4l0.2,0.4
		L210.7,148.5z M80.9,145.9l-2.1-1.4l0.2-0.4l2.1,1.4L80.9,145.9z M215,145.8l-0.2-0.4l2.1-1.4l0.2,0.4L215,145.8z M76.7,143.1
		l-2.1-1.4l0.2-0.4l2.1,1.4L76.7,143.1z M219.2,143l-0.2-0.4l2.1-1.4l0.2,0.4L219.2,143z M72.5,140.4l-2.1-1.4l0.2-0.4l2.1,1.4
		L72.5,140.4z M223.5,140.2l-0.2-0.4l2.1-1.4l0.2,0.4L223.5,140.2z M68.2,137.6l-2.1-1.4l0.2-0.4l2.1,1.4L68.2,137.6z M227.7,137.4
		l-0.2-0.4l2.1-1.4l0.2,0.4L227.7,137.4z M64,134.8l-2.1-1.4l0.2-0.4l2.1,1.4L64,134.8z M232,134.6l-0.2-0.4l2.1-1.4l0.2,0.4
		L232,134.6z M59.7,132l-2.1-1.4l0.2-0.4l2.1,1.4L59.7,132z M236.2,131.8l-0.2-0.4l2.1-1.4l0.2,0.4L236.2,131.8z M55.5,129.2
		l-2.1-1.4l0.2-0.4l2.1,1.4L55.5,129.2z M240.5,129l-0.2-0.4l2.1-1.4l0.2,0.4L240.5,129z M51.2,126.4l-2.1-1.4l0.2-0.4l2.1,1.4
		L51.2,126.4z M244.7,126.2l-0.2-0.4l2.1-1.4l0.2,0.4L244.7,126.2z M47,123.6l-2.1-1.4l0.2-0.4l2.1,1.4L47,123.6z M248.9,123.4
		l-0.2-0.4l2.1-1.4l0.2,0.4L248.9,123.4z M42.7,120.8l-2.1-1.4l0.2-0.4l2.1,1.4L42.7,120.8z M253.2,120.7l-0.2-0.4l2.1-1.4l0.2,0.4
		L253.2,120.7z M38.5,118l-2.1-1.4l0.2-0.4l2.1,1.4L38.5,118z M257.4,117.9l-0.2-0.4l2.1-1.4l0.2,0.4L257.4,117.9z M34.2,115.2
		l-2.1-1.4l0.2-0.4l2.1,1.4L34.2,115.2z M261.7,115.1l-0.2-0.4l2.1-1.4l0.2,0.4L261.7,115.1z M30,112.4l-2.1-1.4l0.2-0.4l2.1,1.4
		L30,112.4z M265.9,112.3l-0.2-0.4l2.1-1.4l0.2,0.4L265.9,112.3z M25.7,109.6l-2.1-1.4l0.2-0.4l2.1,1.4L25.7,109.6z M270.2,109.5
		l-0.2-0.4l2.1-1.4l0.2,0.4L270.2,109.5z M21.5,106.8l-2.1-1.4l0.2-0.4l2.1,1.4L21.5,106.8z M274.4,106.7l-0.2-0.4l2.1-1.4l0.2,0.4
		L274.4,106.7z M17.3,104.1l-2.1-1.4l0.2-0.4l2.1,1.4L17.3,104.1z M278.7,103.9l-0.2-0.4l2.1-1.4l0.2,0.4L278.7,103.9z M13,101.3
		l-2.1-1.4l0.2-0.4l2.1,1.4L13,101.3z M282.9,101.1l-0.2-0.4l1.9-1.2l-0.5-0.3l0.2-0.4l1,0.7L282.9,101.1z M12.3,98.5l-0.2-0.4
		l2.1-1.4l0.2,0.4L12.3,98.5z M282,97.9l-2.1-1.4l0.2-0.4l2.1,1.4L282,97.9z M16.6,95.7l-0.2-0.4l2.1-1.4l0.2,0.4L16.6,95.7z
		 M277.7,95.1l-2.1-1.4l0.2-0.4l2.1,1.4L277.7,95.1z M20.8,92.9l-0.2-0.4l2.1-1.4l0.2,0.4L20.8,92.9z M273.5,92.3l-2.1-1.4l0.2-0.4
		l2.1,1.4L273.5,92.3z M25.1,90.1l-0.2-0.4l2.1-1.4l0.2,0.4L25.1,90.1z M269.2,89.5l-2.1-1.4l0.2-0.4l2.1,1.4L269.2,89.5z
		 M29.3,87.3L29.1,87l2.1-1.4l0.2,0.4L29.3,87.3z M265,86.7l-2.1-1.4l0.2-0.4l2.1,1.4L265,86.7z M33.6,84.5l-0.2-0.4l2.1-1.4
		l0.2,0.4L33.6,84.5z M260.7,83.9l-2.1-1.4l0.2-0.4l2.1,1.4L260.7,83.9z M37.8,81.8l-0.2-0.4l2.1-1.4l0.2,0.4L37.8,81.8z
		 M256.5,81.1l-2.1-1.4l0.2-0.4l2.1,1.4L256.5,81.1z M42.1,79l-0.2-0.4l2.1-1.4l0.2,0.4L42.1,79z M252.2,78.3l-2.1-1.4l0.2-0.4
		l2.1,1.4L252.2,78.3z M46.3,76.2l-0.2-0.4l2.1-1.4l0.2,0.4L46.3,76.2z M248,75.5l-2.1-1.4l0.2-0.4l2.1,1.4L248,75.5z M50.6,73.4
		l-0.2-0.4l2.1-1.4l0.2,0.4L50.6,73.4z M243.7,72.8l-2.1-1.4l0.2-0.4l2.1,1.4L243.7,72.8z M54.8,70.6l-0.2-0.4l2.1-1.4l0.2,0.4
		L54.8,70.6z M239.5,70l-2.1-1.4l0.2-0.4l2.1,1.4L239.5,70z M59.1,67.8l-0.2-0.4l2.1-1.4l0.2,0.4L59.1,67.8z M235.2,67.2l-2.1-1.4
		l0.2-0.4l2.1,1.4L235.2,67.2z M63.3,65.1l-0.2-0.4l2.1-1.4l0.2,0.4L63.3,65.1z M231,64.4l-2.1-1.4l0.2-0.4l2.1,1.4L231,64.4z
		 M67.6,62.3l-0.2-0.4l2.1-1.4l0.2,0.4L67.6,62.3z M226.7,61.6l-2.1-1.4l0.2-0.4l2.1,1.4L226.7,61.6z M71.8,59.5l-0.2-0.4l2.1-1.4
		l0.2,0.4L71.8,59.5z M222.5,58.8l-2.1-1.4l0.2-0.4l2.1,1.4L222.5,58.8z M76.1,56.7l-0.2-0.4L78,55l0.2,0.4L76.1,56.7z M218.2,56
		l-2.1-1.4l0.2-0.4l2.1,1.4L218.2,56z M80.3,53.9l-0.2-0.4l2.1-1.4l0.2,0.4L80.3,53.9z M214,53.2l-2.1-1.4l0.2-0.4l2.1,1.4L214,53.2
		z M84.6,51.1l-0.2-0.4l2.1-1.4l0.2,0.4L84.6,51.1z M209.7,50.4l-2.1-1.4l0.2-0.4l2.1,1.4L209.7,50.4z M88.8,48.3L88.6,48l2.1-1.4
		L91,47L88.8,48.3z M205.5,47.7l-2.1-1.4l0.2-0.4l2.1,1.4L205.5,47.7z M93.1,45.6l-0.2-0.4l2.1-1.4l0.2,0.4L93.1,45.6z M201.2,44.9
		l-2.1-1.4l0.2-0.4l2.1,1.4L201.2,44.9z M97.4,42.8l-0.2-0.4l2.1-1.4l0.2,0.4L97.4,42.8z M197,42.1l-2.1-1.4l0.2-0.4l2.1,1.4
		L197,42.1z M101.6,40l-0.2-0.4l2.1-1.4l0.2,0.4L101.6,40z M192.7,39.3l-2.1-1.4l0.2-0.4l2.1,1.4L192.7,39.3z M105.9,37.2l-0.2-0.4
		l2.1-1.4l0.2,0.4L105.9,37.2z M188.5,36.5l-2.1-1.4l0.2-0.4l2.1,1.4L188.5,36.5z M110.1,34.4l-0.2-0.4l2.1-1.4l0.2,0.4L110.1,34.4z
		 M184.2,33.7l-2.1-1.4l0.2-0.4l2.1,1.4L184.2,33.7z M114.4,31.6l-0.2-0.4l2.1-1.4l0.2,0.4L114.4,31.6z M180,30.9l-2.1-1.4l0.2-0.4
		l2.1,1.4L180,30.9z M118.6,28.9l-0.2-0.4l2.1-1.4l0.2,0.4L118.6,28.9z M175.7,28.1l-2.1-1.4l0.2-0.4l2.1,1.4L175.7,28.1z
		 M122.9,26.1l-0.2-0.4l2.1-1.4l0.2,0.4L122.9,26.1z M171.5,25.4l-2.1-1.4l0.2-0.4l2.1,1.4L171.5,25.4z M127.1,23.3l-0.2-0.4
		l2.1-1.4l0.2,0.4L127.1,23.3z M167.2,22.6l-2.1-1.4l0.2-0.4l2.1,1.4L167.2,22.6z M131.4,20.5l-0.2-0.4l2.1-1.4l0.2,0.4L131.4,20.5z
		 M163,19.8l-2.1-1.4l0.2-0.4l2.1,1.4L163,19.8z M135.6,17.7l-0.2-0.4l2.1-1.4l0.2,0.4L135.6,17.7z M158.7,17l-2.1-1.4l0.2-0.4
		l2.1,1.4L158.7,17z M139.9,14.9l-0.2-0.4l2.1-1.4l0.2,0.4L139.9,14.9z M154.5,14.2l-2.1-1.4l0.2-0.4l2.1,1.4L154.5,14.2z
		 M144.1,12.1l-0.2-0.4l2.1-1.4l0.2,0.4L144.1,12.1z M150.3,11.4l-2.1-1.4l0.2-0.4l2.1,1.4L150.3,11.4z"/>
	<g>
		<path d="M135.7,155.9c0,0.5-0.7,0.9-1.6,1.1c0,0.1-0.1,0.3-0.1,0.6c0,0.2,0.1,0.4,0.3,0.4c0.2,0,0.4-0.1,0.7-0.4
			c0.1,0,0.1,0.1,0.1,0.1c-0.4,0.5-0.8,0.6-1.1,0.6c-0.4,0-0.5-0.4-0.5-0.7c0-0.4,0.3-1.3,1-1.8c0.4-0.3,0.6-0.3,0.8-0.3
			C135.6,155.5,135.7,155.7,135.7,155.9z M134.7,156.1c-0.3,0.3-0.4,0.6-0.5,0.8c0.4-0.1,0.7-0.3,0.9-0.5c0.2-0.2,0.3-0.4,0.3-0.5
			c0-0.1,0-0.2-0.2-0.2C135.1,155.7,134.9,155.8,134.7,156.1z"/>
		<path d="M138.5,155.9c0,0.1-0.1,0.2-0.1,0.2c0,0-0.1,0-0.1-0.1c-0.1-0.1-0.2-0.2-0.4-0.2c-0.2,0-0.3,0.2-0.3,0.3
			c0,0.1,0,0.3,0.2,0.6c0.2,0.3,0.3,0.5,0.3,0.8c0,0.2-0.1,0.4-0.4,0.7c-0.2,0.2-0.4,0.2-0.7,0.2c-0.3,0-0.4-0.2-0.4-0.4
			c0-0.1,0-0.1,0.1-0.2c0.1,0,0.1,0,0.2,0c0.1,0.1,0.3,0.3,0.5,0.3c0.2,0,0.3-0.2,0.3-0.4c0-0.1-0.1-0.3-0.3-0.6
			c-0.2-0.3-0.2-0.5-0.2-0.6c0-0.3,0.1-0.5,0.4-0.7c0.2-0.2,0.4-0.2,0.5-0.2C138.3,155.5,138.5,155.7,138.5,155.9z"/>
		<path d="M140.9,155.9l-0.6,1.8c0,0.1,0,0.2,0,0.2c0.1,0,0.5-0.4,0.8-0.6c0.1,0,0.1,0,0.1,0.1c-0.4,0.6-1,1-1.3,1
			c-0.1,0-0.2-0.1-0.2-0.2c0-0.1,0-0.2,0.1-0.4l0.6-1.9h-0.5c0-0.1,0-0.2,0.1-0.2l0.5-0.1l0.4-0.7c0.1,0,0.2,0,0.3,0l-0.2,0.7h0.7
			c0,0.1,0,0.2-0.1,0.2H140.9z"/>
		<path d="M143.3,157.9c0,0.3-0.2,0.4-0.4,0.4c-0.2,0-0.3-0.1-0.3-0.3c0-0.2,0.2-0.4,0.4-0.4C143.2,157.6,143.3,157.8,143.3,157.9z"
			/>
		<path d="M149.5,157c-0.8,0.6-0.9,0.8-0.9,0.8s0.1,0.1,0.2,0.1h0.8c0.6,0,0.6,0,0.9-0.4c0.1,0,0.1,0,0.1,0
			c-0.1,0.3-0.3,0.7-0.4,0.8c-0.2,0-0.3,0-0.5,0c-0.2,0-0.3,0-0.5,0h-1c-0.4,0-0.6,0-0.7,0c0,0,0,0,0-0.1c0,0,0,0,0,0
			c0.4-0.3,0.7-0.5,1.4-1.1c0.6-0.5,1.6-1.3,1.6-2.1c0-0.5-0.3-0.8-0.7-0.8c-0.4,0-0.8,0.3-1,0.6c-0.1,0-0.1,0-0.1-0.1
			c0.3-0.5,0.8-0.8,1.4-0.8c0.7,0,1.1,0.4,1.1,1c0,0.7-0.6,1.2-1.1,1.6L149.5,157z"/>
		<path d="M155.7,155.2c0,0.8-0.4,1.8-0.9,2.5c-0.3,0.4-0.7,0.7-1.2,0.7c-0.8,0-1-0.8-1-1.3c0-0.8,0.4-1.8,0.9-2.4
			c0.3-0.4,0.7-0.7,1.3-0.7C155.6,153.9,155.7,154.7,155.7,155.2z M153.9,154.9c-0.4,0.7-0.7,1.8-0.7,2.6c0,0.4,0.1,0.7,0.5,0.7
			c0.6,0,0.9-0.9,1.1-1.4c0.2-0.5,0.4-1.3,0.4-1.8c0-0.4-0.1-0.8-0.5-0.8C154.4,154.2,154.1,154.4,153.9,154.9z"/>
		<path d="M158.4,157.5c-0.2,0.5-0.1,0.6,0.2,0.7l0.2,0c0,0,0,0.1,0,0.2c-0.3,0-0.6,0-0.9,0c-0.2,0-0.5,0-0.8,0
			c-0.1,0-0.1-0.2,0-0.2l0.2,0c0.4-0.1,0.5-0.2,0.7-0.7l0.7-2.3c0.2-0.5,0.1-0.6-0.1-0.6l-0.3,0c0,0,0-0.1,0-0.1
			c0.6-0.1,1-0.2,1.2-0.4c0,0,0.1,0,0.1,0c-0.1,0.2-0.2,0.5-0.3,0.8L158.4,157.5z"/>
		<path d="M162.8,157c-0.8,0.6-0.9,0.8-0.9,0.8s0.1,0.1,0.2,0.1h0.8c0.6,0,0.6,0,0.9-0.4c0.1,0,0.1,0,0.1,0
			c-0.1,0.3-0.3,0.7-0.4,0.8c-0.2,0-0.3,0-0.5,0c-0.2,0-0.3,0-0.5,0h-1c-0.4,0-0.6,0-0.7,0c0,0,0,0,0-0.1c0,0,0,0,0,0
			c0.4-0.3,0.7-0.5,1.4-1.1c0.6-0.5,1.6-1.3,1.6-2.1c0-0.5-0.3-0.8-0.7-0.8c-0.4,0-0.8,0.3-1,0.6c-0.1,0-0.1,0-0.1-0.1
			c0.3-0.5,0.8-0.8,1.4-0.8c0.7,0,1.1,0.4,1.1,1c0,0.7-0.6,1.2-1.1,1.6L162.8,157z"/>
	</g>
	<rect x="118.7" y="150" width="60.6" height="0.2"/>
	<rect x="118.7" y="162.1" width="60.6" height="0.2"/>
	<path d="M110.8,148.3c0,0-1.6-2.5-3.7-3.8c-2.1-1.3-3.8-1.4-5.7-0.7c-1.9,0.7-2.9,3-1.7,4.7c1.2,1.8,3,1.5,3.9,1.1
		c0.9-0.4,1.5-1.6,0.7-2.8c-0.8-1.2-1.9-1.4-3-0.7c-1.1,0.7-0.6,2.1-0.1,2.5c0.5,0.4,0.9,0.3,0.9,0.3s-0.8,0.6-1.6,0.1
		c-0.8-0.5-0.6-1.3-0.6-1.3s-0.6,1.9-2.4,2.3c-1.8,0.5-3-1.4-3-1.4s1.8,1.4,3.1,0.2c1.3-1.2,2.1-3.1,3.9-3.5
		c1.8-0.4,2.8,0.7,3.2,1.5c0.4,0.8,0.3,1.4,0.3,1.4s0.6-0.4,1.7,0.1c1.1,0.6,1.3,1.4,1.3,1.4s-0.9-1.4-2.3-0.9
		c-1.4,0.5-1.9,1.5-3.5,1.5c-1.6,0-3.5-1.8-3.2-4.1c0.3-2.3,3.1-4.3,6.3-3.2c3.2,1.1,5.2,3.8,5.2,3.8L110.8,148.3z"/>
	<path d="M187.2,148.3c0,0,1.6-2.5,3.7-3.8c2.1-1.3,3.8-1.4,5.7-0.7c1.9,0.7,2.9,3,1.7,4.7c-1.2,1.8-3,1.5-3.9,1.1
		c-0.9-0.4-1.5-1.6-0.7-2.8c0.8-1.2,1.9-1.4,3-0.7c1.1,0.7,0.6,2.1,0.1,2.5c-0.5,0.4-0.9,0.3-0.9,0.3s0.8,0.6,1.6,0.1
		c0.8-0.5,0.6-1.3,0.6-1.3s0.6,1.9,2.4,2.3c1.8,0.5,3-1.4,3-1.4s-1.8,1.4-3.1,0.2c-1.3-1.2-2.1-3.1-3.9-3.5
		c-1.8-0.4-2.8,0.7-3.2,1.5c-0.4,0.8-0.3,1.4-0.3,1.4s-0.6-0.4-1.7,0.1c-1.1,0.6-1.3,1.4-1.3,1.4s0.9-1.4,2.3-0.9
		c1.4,0.5,1.9,1.5,3.5,1.5c1.6,0,3.5-1.8,3.2-4.1c-0.3-2.3-3.1-4.3-6.3-3.2c-3.2,1.1-5.2,3.8-5.2,3.8L187.2,148.3z"/>
</g>
</svg>
