<svg id="Layer_1" data-name="Layer 1" xmlns="http://www.w3.org/2000/svg" viewBox="0 0 651.21 182.23"><defs><style>.cls-1{fill:#984122;}.cls-2,.cls-5{fill:#fff;}.cls-3{fill:#f6b857;}.cls-4{fill:#5d1a10;}.cls-5{writing-mode:tb;text-orientation:upright;glyph-orientation-vertical:0deg;font-size:26.59px;font-family:Troika;}</style></defs><title>bfest2019</title><path class="cls-1" d="M139.28,108.73c-.7-5.18-6.69-6.86-11.84-6.45-.45,3.09-.41,6.75-1,9.09-1.06,4.6-1.84,8.37-1.14,12.06a9.44,9.44,0,0,1,2.14,1.27C133.34,119.93,140.17,115.21,139.28,108.73Z" transform="translate(-6.2)"/><path class="cls-1" d="M261.35,108.25a36.85,36.85,0,0,0-2.18-7.36,7.23,7.23,0,0,0-.95-1.68c-6.82-.12-5.62,13.48-5.63,17.55a10.4,10.4,0,0,1-3.57,8.09,11.42,11.42,0,0,1,2.64,3.5c2.11,4.42,2.39,4.54,6.52,3.43,5-1.35,4.62-2.76,4.54-7.61A90.23,90.23,0,0,0,261.35,108.25Z" transform="translate(-6.2)"/><path class="cls-2" d="M646.57,49.57l-.46-1.11L646,36.17a6.2,6.2,0,0,0-1.47-4l-1.38-1.64a6.22,6.22,0,0,0-4.8-2.24l-61.3,2.39c-.24-.13-.5-.26-.76-.37A6.29,6.29,0,0,0,571.48,28L571,28l-49.63,3.7a6.23,6.23,0,0,0-3,1c-.83.55-1.94,1.19-3.3,1.93a6.6,6.6,0,0,0-1.47-1.87,6.32,6.32,0,0,0-3.92-3.12A6.27,6.27,0,0,0,506,28.48a4.93,4.93,0,0,0-.55,0l-5.57.49-31.1-.71c-.69-8.69-1.5-12.07-2.3-13.94-.15-2.67-.73-8.49-4.7-11.3a7,7,0,0,0-5.71-3l-.53,0L391.15,4.84a6.17,6.17,0,0,0-.62.08l-2.83.49c-2.44.28-5.07,1.68-15,9.66a6.29,6.29,0,0,0-2.07,3.08,6.28,6.28,0,0,0-1.37,4.15l.3,7.8-1,.09a43.55,43.55,0,0,0-7.06,1.22c-1.06-1.68-3.23-3.3-7.67-3.3-.4,0-.83,0-1.63.05l-3.72.35L326,31.94c-13.33,2.52-24.83,6.15-34.17,10.8a6.1,6.1,0,0,0-2,1.58l-.29-.12a6.27,6.27,0,0,0-2.3-.44l-.8,0c-12.08-.35-22.14-.85-29.92-1.48l-.49,0c-.14,0-.17,0-7.9.49l-.63,0a6.67,6.67,0,0,0-1.09-1.51l-.08-.08a6.31,6.31,0,0,0-3.66-3.28,6.19,6.19,0,0,0-3.92-1.38l-5.52.18-32-2.5-.48,0a6.15,6.15,0,0,0-1.15.11l-7.42,1.39a6,6,0,0,0-2.28.91,43.35,43.35,0,0,1-7.12,3.47,9.17,9.17,0,0,0-2.9,1c-2.92-3.62-5.51-5.15-8.51-5.15a5.47,5.47,0,0,0-.6,0l-9.18.78-19.32,1-9,.19-.46,0-6.37.63-1.53.08a5.94,5.94,0,0,0-1.62.3l-3.45,1.12c.11-10.59-4.53-19.73-13.79-27.16a5.75,5.75,0,0,0-.64-.46c-9.35-5.77-19-8.7-28.76-8.7l-1.39,0-1.22,0a19.71,19.71,0,0,0-7.73,1.82L40.46,4a6,6,0,0,0-1.38.16l-1.59.36a6.65,6.65,0,0,0-1,.33C31.34,7,29.86,7.16,29.83,7.17A6.23,6.23,0,0,0,26,8.62a38.89,38.89,0,0,1-8.19,4.67c-2.48.45-8.24,2.5-8.54,11.67l-3,147c-.08,2.79.13,5.94,2.32,8.21a6.84,6.84,0,0,0,4.92,2.08l48.88-1.38,15.49,0a6.62,6.62,0,0,0,2-.34l8.25-2.84a45,45,0,0,0,14.37-9.55,6.33,6.33,0,0,0,3.82,5.27,6.27,6.27,0,0,0,4.82,2.28l.45,0,19.39-1.39,4.63-.25a5.82,5.82,0,0,0,1.07-.14A22,22,0,0,0,143,171a7.09,7.09,0,0,0,5.33,2.29l25.9-1.38c2.57-.13,5.62-1.39,14.32-7.6.39-.22.77-.45,1.13-.68l26.61.43v0a6.23,6.23,0,0,0,2.14,5.67l1.52,1.3a6.28,6.28,0,0,0,4.06,1.5l21.07-.31a12.26,12.26,0,0,0,4-.91,8.15,8.15,0,0,0,1.71.19l1.66,0a6.82,6.82,0,0,0,.79-.08l3.9-.61a6.2,6.2,0,0,0,2.7-1.12,70.67,70.67,0,0,0,8.6-7.3,9.13,9.13,0,0,0,2.18,3.84l.32.3a7.37,7.37,0,0,0,.74.93,6.81,6.81,0,0,0,5,2.08L295,169a7,7,0,0,0,1.53-.23c.41-.12.82-.25,1.23-.4a9.19,9.19,0,0,0,5,1.41l.57,0c.76,0,1.45-.12,2.09-.2a7.7,7.7,0,0,0,4.32.82l34-3.11a6.4,6.4,0,0,0,2.23-.62,29.2,29.2,0,0,1,7.79-2.65,8.93,8.93,0,0,0,2.08.52,6.1,6.1,0,0,0,1.17.51l.57.18a6.27,6.27,0,0,0,1.92.31c.21,0,.41,0,.57,0l10.25-.94a6.68,6.68,0,0,0,1.4.8l1.63.67a5.56,5.56,0,0,0,1.12.34s0,3,.08,7.68c5.13,4,11.1,3.56,17.83,2.92s13.25-1.35,19.87-2l6.58-2.38c5.5-3.2,11.2-6.54,17.42-7.81a39,39,0,0,1,12.84,0c6.44.83,16.13-.9,21.51-1.19,5.88-.31,11.7-1.06,17.59-.93,3.47.08,12.07-.63,12.39-1,0,0,3.72,6.12,8.38,5.63,5.22-.55,10.42.1,15.63-.36s16.66-.82,25.34-1.05c4.88-.14,20-1.62,19.66-1.81s.49,6.55,1.21,8.63a24.65,24.65,0,0,0,2.79,2.24c2.83,1.89,5.67,1.73,9,1.64,7.86-.21,16.09.15,23.78-1.77a65.12,65.12,0,0,0,14.06-5.22c2.69-1.4,6.67-3.53,8.52-6.5-.09-29.23-.19-63.7-.24-89,0-.57-.5-6.7,0-7,11.54-5.89,14.56-7.8,15.88-8.81A6.25,6.25,0,0,0,647,53.47V52A6.37,6.37,0,0,0,646.57,49.57Z" transform="translate(-6.2)"/><path class="cls-1" d="M75,101.61a9.7,9.7,0,0,1-1.57.16,89.88,89.88,0,0,1-17.06-1.57c-1,.09-2,.21-3,.38-4.43.76-8.61,1.41-13,0-.54-.18-1-.43-1.52-.65.42,8.64.79,17.27,1,26,.13,7.24,1.28,14.55,1.15,21.78a25.22,25.22,0,0,1-.76,5.43c12.63.75,26.22,2.13,36.19-5.16,11.41-8.34,5-25.27,4.27-38C78.59,107.35,76.88,104.37,75,101.61Z" transform="translate(-6.2)"/><path class="cls-1" d="M41.8,47.36c-.44,3.42-1,6.69-1.65,9.93,1.74,6,4.2,12,5.43,17.36.17.72.3,1.76.46,2.87a9.75,9.75,0,0,1,1.88.4c2.91.91,5.83,1.73,8.78,2.41a43,43,0,0,1,8.27.18c.87-6.62,5.43-10.88,8.36-16.72,3.58-7.16.25-16.88-.43-24.93a46.25,46.25,0,0,0-8.83-.37c-7.44.23-14.84.87-22.26,1.34A27.52,27.52,0,0,1,41.8,47.36Z" transform="translate(-6.2)"/><path class="cls-3" d="M499.09,99.24c-20,0-39.3.48-58,1.35,3,1.09,5.16,4.32,2.79,7.5-.62.82-.22,2.93-.23,4,0,2.15-.12,4.31-.21,6.46-.2,4.88,0,9.76,0,14.65.07,7.72.92,15.63.55,23.39,2.45-.48,4.95-.85,7.52-1.12,15.11-1.55,30.66,1.07,45.82,1.13a17.69,17.69,0,0,1,2.75.23,5,5,0,0,1,1.59-1.33,15,15,0,0,0,1.23-1.53,2.11,2.11,0,0,1,3.4-1.86,1.91,1.91,0,0,1,1.14,1.79c0,2,.21,4.08.28,6.12.32.24.63.47.93.72q10.3.41,20.6,1c1.16.07,2.31.15,3.47.25,3.32-2.73,7.51-2.16,11.62-2.13,6.53.06,13.1-.87,19.63-.93.8-.64,1.61-1.34,2.51-2.07a6.5,6.5,0,0,1,1.95-1.1c1.83-2.15,5.25-6.47,7.44-2.32,1.52,2.89,1.11,6.57.63,10.06,1.69,1.41,3.28,3,5.52,3.54a1.9,1.9,0,0,1,.92.53c3.12-.12,6.23-.2,9.35-.33,2.66-.11,5.89-.91,8.57-.7l1.13-.21q1.88-.39,3.72-.93c.84-.25,2-.91,3-1.15.33-.18.66-.37,1-.57l.31-.21c1.69-1.63,1.8-1.6,1.32-1.12l.26-.24c.66-.65,1.26-1.33,1.87-2a47.85,47.85,0,0,0,3.05-5.11c.36-.7.7-1.42,1-2.13,0-.06,0-.11.07-.16.82-2.18,1.53-4.4,2.15-6.64a116.2,116.2,0,0,0,2.75-13.17c.11-1,.23-2,.33-3q.33-3.44.52-6.87c.24-4.23.34-8.45.35-12.68a17.57,17.57,0,0,1,.73-5C580.49,101.81,538,99.26,499.09,99.24Z" transform="translate(-6.2)"/><path class="cls-3" d="M432.65,139a4.42,4.42,0,0,1-1.57-5.48c1.16-3.14.29-6.81.08-10.07-.25-3.92-1-7.8-1.18-11.72a6.21,6.21,0,0,1-.43-3.76c-1-2.46-.45-5.6,1.82-6.89-111.23,6-204,24.68-322,30.17q-13.35.63-26.32,1c-2.18.07-5.72,17.28-7.88,17.34l-5,.14q-8.68.23-17.15.37c-3.61.06-5.81-17-9.36-17q-15.78.18-30.65.13c0,.19,0,.39,0,.58,0,10.37-.6,20.72-.72,31.09,0,3.66-.24,7.33-.29,11,.77,0,1.53.05,2.3.06,9.27.14,18.52-.58,27.78-.83,8.34-.22,16.61.37,24.94.76,4.46.2,7.24-2.91,11.71-3,2.1,0,5.15-3.11,7.24-3.28.4,0,22.68-22.18,23.39-22.21.16-.06.32,5.8.71,5.72,8.16-1.72-4.53,18.3,3.7,16.95,9.92-1.62,19-7.87,29-7.49,3.06.11,6.82,6.78,9.88,6.93a14.41,14.41,0,0,1,8.82-2.19c1.49.15,3,.1,4.46.16l.28,0,.29-.06a60.13,60.13,0,0,0,8.17-2.6l.11,0,.57-.25,4-1.72c3.64-1.56,7.49-3.48,11.4-4.38a44.07,44.07,0,0,1,21.59.23c3.34.92,6.73-.33,9.88,1,.9.39,1.63,3.56,2.53,4l.35.13c5.25,2,10.68,2.32,16,3.74l-1.08-.29c-1.41-.32-2.56-.67,0,0a15.56,15.56,0,0,0,1.69.32c1.11.12,2.21.23,3.32.32.8.07,1.61.12,2.41.17,3.37-4.89,15.43-32.6,21.21-32.06,8.81.84-3.57,27.86,21.63,27.7a19.47,19.47,0,0,1,4.09-.64c11.82-.49,23.54-2.09,35.31-3.21,6.11-.58,12.23-1,18.37-1.07,4.21-.05,8.44-.68,12.66-.38a45.56,45.56,0,0,1,7.08,1c2.29.54,9.53,3.81,2.84,1.05,4.26,1.76,6.85-1.93,10.26,1.39.6.58,1.55,6.27,2.14,6.92a26.68,26.68,0,0,1,2.88.58l.9.07c2.64.16,5.28.15,7.92.07,5.6-.17,11.19-.67,16.79-.71.42,0,.83,0,1.24,0,5-2.62,10.06-5.16,15.3-7.37,1.61-.68,1-2.09,2.59-2.65.38-4.49,2.38-8.16,2.15-12.67C432.74,143.75,432.69,141.37,432.65,139Z" transform="translate(-6.2)"/><path class="cls-1" d="M643.67,50.76,643,49.08l-.07-12.9a3.1,3.1,0,0,0-.74-2l-1.38-1.65a3.13,3.13,0,0,0-2.4-1.12l-62.26,2.44,0,0a3.36,3.36,0,0,0-1.77-.84,3.14,3.14,0,0,0-2.86-1.85h-.24l-49.62,3.69a3.14,3.14,0,0,0-1.51.52,69.39,69.39,0,0,1-7.63,4.15l.13-.78,0-.15a3.41,3.41,0,0,0,.1-1,3.57,3.57,0,0,0-1.69-2.8,3.14,3.14,0,0,0-2.58-2.2l-.21,0-.2-.2a3.16,3.16,0,0,0-2.07-.77h-.27l-5.75.51-33.88-.78h-.24c-.72-10.69-1.58-14.49-2.48-16.26-.13-2.78-.65-8.06-3.92-9.81a3.81,3.81,0,0,0-3.39-2.17l-.3,0L391.35,8l-.29,0-3,.51c-1.46.17-3.64,1.16-13.36,9a3.18,3.18,0,0,0-1.15,2.16,3.17,3.17,0,0,0-1.12,2.51L372.83,33l-4,.35a40,40,0,0,0-7.5,1.4l-1.51-.39a2.63,2.63,0,0,0-.55-.09c-.59-3-4.24-3-5.46-3-.36,0-.75,0-1.34,0l-3.54.33L326.55,35c-13,2.46-24.26,6-33.35,10.53a3.12,3.12,0,0,0-1.73,3v0a19.68,19.68,0,0,0-3.11-1.5,3.05,3.05,0,0,0-1.15-.22l-.86,0c-12.15-.36-22.28-.87-30.1-1.49H256l-7.86.49-3-.12a3.43,3.43,0,0,0-1-2.36,3.14,3.14,0,0,0-.48-.42,3.14,3.14,0,0,0-2.45-2.29l-.13,0c0-.05-.1-.1-.15-.15a3.15,3.15,0,0,0-2.2-.91l-5.59.19L201,37.32h-.24a3.68,3.68,0,0,0-.58,0l-7.42,1.39a3.06,3.06,0,0,0-1.14.45,49.37,49.37,0,0,1-8,3.9,5.66,5.66,0,0,0-4.22,2.52c-3.61-5.36-5.85-6.62-8-6.62H171l-9.27.79-19.42,1-9,.18-.23,0-6.51.64-1.55.08a2.76,2.76,0,0,0-.8.15l-7.64,2.49.08-4c.22-9.75-4-18.2-12.62-25.1l-.31-.22c-8.85-5.46-18-8.23-27.12-8.23-.43,0-.86,0-1.29,0l-1.23,0A16.71,16.71,0,0,0,67,8.79L40.46,7.17a2.71,2.71,0,0,0-.69.08l-1.58.35a3.27,3.27,0,0,0-.53.17c-5.3,2.23-7.18,2.51-7.75,2.53A3.17,3.17,0,0,0,28,11a43.61,43.61,0,0,1-9.28,5.29c-2.26.28-6.1,1.78-6.32,8.72L9.35,172c-.1,3.06.32,4.77,1.43,5.92a3.71,3.71,0,0,0,2.67,1.14l48.87-1.38,15.48-.05a3.15,3.15,0,0,0,1-.17L87,174.71c6.19-2.41,12.4-7.23,18.51-14.37l.09,7.18,0,.29a3.23,3.23,0,0,0,2.69,2.89,3.15,3.15,0,0,0,2.83,1.79h.23l19.44-1.39,4.65-.25a3.21,3.21,0,0,0,.53-.07c1.18-.27,3.18-1,7.34-3.62l.07.07a4.67,4.67,0,0,0,1.52,1,4,4,0,0,0,3.48,1.9l25.73-1.38c1.49-.07,3.84-.7,12.8-7.12a20,20,0,0,0,1.9-1.18l31.14.5-.52,3.58a3.13,3.13,0,0,0,1.07,2.84l1.52,1.29a3.16,3.16,0,0,0,2,.75l21-.3a11,11,0,0,0,4-1.12,4.25,4.25,0,0,0,1.82.4l1.56,0a2.83,2.83,0,0,0,.41,0l3.89-.61a3.25,3.25,0,0,0,1.36-.56,66.56,66.56,0,0,0,10.2-9.07,3.1,3.1,0,0,0,.62-1c.55-1.48,1.06-3,1.53-4.51.15.92.3,1.73.44,2.42-.08,4.77.54,7.48,2.05,9a5.21,5.21,0,0,0,.5.45,3.73,3.73,0,0,0,.6.83,3.63,3.63,0,0,0,2.71,1.1l18.27-.51a2.79,2.79,0,0,0,.76-.11,15.44,15.44,0,0,0,2.61-1,5.9,5.9,0,0,0,4.45,1.91h.35q1.49-.1,2.64-.3a2.57,2.57,0,0,0,.4.06h.18a4,4,0,0,0,2.61.88l.51,0,34.05-3.11a3.07,3.07,0,0,0,1.11-.31,32.28,32.28,0,0,1,9.63-3.1,5.57,5.57,0,0,0,2.71.73,3.17,3.17,0,0,0,1.05.58l.57.18a3.11,3.11,0,0,0,1,.15h.28l11.72-1.07a3.19,3.19,0,0,0,1.41,1.15l1.64.68a3.23,3.23,0,0,0,1.19.23h.29l1.56-.14.25,7.22a3.1,3.1,0,0,0,1.37,2.48l.5.34a3.15,3.15,0,0,0,1.76.54h.2a3.14,3.14,0,0,0,1.85.6l.34,0,20.4-2.27,4.65-.06a3.25,3.25,0,0,0,1.3-.3l20.48-9.65a3.14,3.14,0,0,0,1.75-2.28,3.16,3.16,0,0,0,1.39-2.8l-3.23-53.84,7.81-.79.91.32a3.14,3.14,0,0,0,1,.19l2.16-.16-.45,53.67a3.13,3.13,0,0,0,1.06,2.38l.57.5a3.22,3.22,0,0,0,1.37.71c.08.1.17.19.26.29a3.54,3.54,0,0,0,2.63,1.05l47.75-1.86a3.12,3.12,0,0,0,1.67-.56,2,2,0,0,1,.4-.05c1.59-.06,3.07-.9,6.87-5.26q.06,3.15.15,6.81l.05.52a3.13,3.13,0,0,0,2.84,2.87l.95.11a3.18,3.18,0,0,0,1.86.61l51.6-3.24a2.85,2.85,0,0,0,.51-.07l1.8-.42a3.09,3.09,0,0,0,1.39-.72l7.59-6.79,0,15.09a4.61,4.61,0,0,0,4,4.77,2.56,2.56,0,0,0,.55.05l7.06-.33c10.38-.5,17.86-1,22.23-1.64,1-.06,2.79-.4,14-6.62a7.21,7.21,0,0,0,4.51-7l-.21-92.39c12.85-6.51,15.93-8.47,17.11-9.38a3.1,3.1,0,0,0,1.23-2.46l0-1.46A3.19,3.19,0,0,0,643.67,50.76ZM83,166.71c-17.66,9.14-36.4,4.08-55.2,5.83-6.31.58-11.54-5.77-10.17-11.82,1.18-5.17,3.68-9.67,3.78-15s-.9-11.11-1-16.6c-.28-12.37-.22-24.68-1.17-37-.92-11.94-1.82-24.08.56-35.92-1.4-7-1.8-14,.11-20.49a11.86,11.86,0,0,1,1-2.31c-1.67-5.55.94-12.4,8.37-12.54,11.26-.22,22.45-1.52,33.7-1.87C70.61,18.7,79,18,86,21.89c12.34,6.82,15.74,23.3,11.3,35.67a8.69,8.69,0,0,1-2.77,4,26.4,26.4,0,0,1-.6,3.5c-1.82,7.52-10.5,13.64-6.36,20.81C90.69,91.39,96.65,96,99.2,101.64c2.74,6.11,1.68,16.34,2.56,23.16C104,142.47,99.73,158,83,166.71Zm79.21-3.36a48.71,48.71,0,0,1-7.11-.92,10.24,10.24,0,0,1-9.88-6.71c-1-2.44-2-5-3-7.56a23.41,23.41,0,0,1-.78,4.28c-1.89,6.33-6.07,11.28-12.41,13.33C109.47,172.1,110.24,152,110.24,139c.35-14.2-1.7-28.35-1-42.54.3-6.54,1.64-12.52,2.86-18.89s-.59-11.71-1.44-17.94c-1.49-10.8,12.84-13.05,17.92-5.54,7.81-5.64,22.47-4.46,30-.7,17.05,8.58,16.89,31.42,4.89,43.91-2.62,2.73-7.69,4.79-9.69,7.82-2.23,3.36-.77,8.95-.07,12.6a136.16,136.16,0,0,0,5,18.1c5.29,3.67,10.15,7.06,13.83,12.62C177.52,156.15,170.13,164.06,162.16,163.35ZM210.85,81c1.46,2.37,6.43,3.57,8.78,5,7.78,4.54,6.33,18.54-3.93,18.47-2.82,0-10.12-.91-12,1.08-1.37,1.42-.34,9.66-1,12.3-1.4,5.91-2.77,8.09,3,11.86a39.62,39.62,0,0,0,11.48,4.83c12.18,3.25,8.38,21.25-4.07,19.15-7-1.16-18.3,1.79-24.86,2.09-10.13.45-16.44-5.36-12.88-14.68,5.26-13.77,3.8-27.9,5.43-42.19.77-6.7,3.19-13,3.92-19.73.8-7.42.12-15,.05-22.47-.08-8.47,8.71-11.74,14.53-9.17,4.46-2.8,9.38-1.87,14.64-3,12.24-2.53,18.47,16.06,6.15,18.6a40.61,40.61,0,0,1-8.53,1.29c-.1,1.45-.22,2.9-.35,4.34C211,71.41,209.36,78.55,210.85,81ZM296,156.25c-.29,2.93-3.4,4.84-6,5.16a21.11,21.11,0,0,1-7-.5c-3.16-.69-6.13-4.38-5-7.75,1.9-5.81-4.12-12.32-5.43-17.93a7,7,0,0,1-.05-3,9.62,9.62,0,0,1-1.28-4.45c-.21-4.45-.16-8.89-.09-13.34-5.41,2.38-11.74,3.62-17.23,2.42-.66,9.29-2.88,18.15-5,27.12a10.61,10.61,0,0,1,3.09,1.81,9.8,9.8,0,0,1-6,17h-5.24c-.21,0-.4,0-.6-.05-4.94,1.73-11.18,0-12.65-5.9-.13-.5-.25-1-.38-1.5a9.81,9.81,0,0,1,.83-7.2c2.42-11.25,6.29-22.29,6.56-33.86a9.75,9.75,0,0,1,2.48-6.44,10.52,10.52,0,0,1-.24-2.17c0-2.79-.09-5.47-.37-8.24a8.73,8.73,0,0,1,2.27-7.35,8.79,8.79,0,0,1-1.9-5.75c0-16.18,3.6-33.8,23.35-35.28C274.7,48,280.86,55.58,283.6,72.43c1.2,7.37,2.74,16.71,1.27,24.86,3.31,1.46,5.94,4.63,5.93,8.35,0,7-.33,14,0,21a9.7,9.7,0,0,1-.07,1.23,8.31,8.31,0,0,1,.79,4.46c-.33,3.93,1.81,8,3,11.68A29.47,29.47,0,0,1,296,156.25ZM410.46,41c1.88,8.47-1.89,18.85-2.83,27.06l-.87,7.5a6.8,6.8,0,0,1,7,4.29,19.46,19.46,0,0,1,1,2.67c1.48.22,3,.33,4.34.44.87-.2,1.74-.44,2.62-.69A6.19,6.19,0,0,1,428,80l.5.13a37,37,0,0,1,7.12-1.76,6.76,6.76,0,0,1,6.77,4.93,6.14,6.14,0,0,1,2.38,4.57c.2,3.34-2.6,7-6.13,6.91-1.27,0-2.52-.09-3.76-.2-4.69,2.09-10.79,2.43-16.62,1.82-1.15.15-2.3.26-3.44.34-.74,4-1.83,7.89-2.65,11.59-1.88,8.47-3.9,16.89-5.8,25.35,1.19,5.79,2.37,11.59,3.44,17.36.86,4.69.87,9.74-3.44,12.83-8.66,6.22-22,1.11-24.59-8.62a40.41,40.41,0,0,1-1-5.15,6.49,6.49,0,0,1-3.41,2.77,17.06,17.06,0,0,1-6.52,1c-.2.16-.37.33-.58.49-5,3.72-10.18-1.35-9.8-6.25-3-3.71-4.95-8.73-6.19-13.65-.08-.32-.16-.76-.26-1.28-2.52-1.94-5.3-3.52-7.43-6-6.5-7.45-6.68-18.2-8.25-27.51-.08-.12-.18-.22-.25-.35-1.81.27-3.74.44-5.78.59a20.82,20.82,0,0,1-4.64-.15c.11,2.25.3,4.5.63,6.76,1.17,8.09,3,15.25,3.09,23.4.08,6,1.44,7.65,4.91,12.14a24.61,24.61,0,0,1,4,7c1.13,3.09-.79,7.46-4.15,8.25-7.29,1.72-14.27,3.27-21.76,2.06a6.64,6.64,0,0,1-5.16-6c-1.27-16.71.19-33.56-.19-50.31-.39-17.56-1.24-35.09-1.31-52.65,0-6,6.66-8.11,10.47-5.71,3.23-3.66,11-1.55,11.56,4.18a95.34,95.34,0,0,1,.16,13c.7,5.67,1.92,11.31,2.2,17a72.75,72.75,0,0,1,.58,7.82c.45,0,.83,0,1,0,4.92-.6,4.7-.17,6.49-3.87,1.44-3,1.5-7,2.58-10.1s2.17-5.9,3.36-8.8a6.8,6.8,0,0,1,0-8.15,100.51,100.51,0,0,0,9.14-15.46c3.19-6.53,14.32-2.74,12.18,4.36a225.18,225.18,0,0,1-9.72,26.13c-2.64,6-3.63,12-5.77,18.08a19.94,19.94,0,0,1-.92,2.17c3.82,2.45,6.65,7,8.87,12.44a92.63,92.63,0,0,1,7.74,13c3.8,7.86,9.43,16,12.58,24.27,0-4.24.23-8.48.32-12.38.25-11.83,1.26-23.63,1.94-35.44,1.29-22.32-.12-44.54-.24-66.86,0-5.55,5.63-7.74,9.5-6.2a5.68,5.68,0,0,1,1-.39c11.81-3.54,23.54.74,35.42-1.28,7.58-1.28,16.93-3.67,21.37,4.51C459.2,40.51,428.24,41.24,410.46,41Zm58.45,39.94c3.67,4,17.31,3.4,22.54,5.27,6.61,2.37,3.06,11.64-2.62,12.32s-11.46.82-17.21,1c-.87,5.92-1.69,11.85-2.3,17.8-.4,3.9-.58,7.81-.86,11.72-.06.87.73,4.29-.09,4,3.73,2.67,16.64-.25,21,1.47,5.81,2.29,9.33,8.62,6.65,14.72-3,6.93-9.38,4.8-15.11,4-9.07-1.22-18.89,6.17-27.76,1-7.88-4.6-3.94-14.46-4.19-21.76a292.16,292.16,0,0,1,.6-37.54c1.38-15.16,2-30.36,2-45.58,0-5.4,5.42-7.63,9.27-6.3A14.18,14.18,0,0,1,463,42.1c8.71-3,18.72-.86,27.73-1.93,6-.71,8.56,6.8,5.22,10.91-6.91,8.51-18.73,6.76-28.41,8.49a6.19,6.19,0,0,1-1,.08c0,1.08,0,2.34,0,3.83C466.39,67.89,465.62,77.31,468.91,80.92Zm93.58,68.85a5.6,5.6,0,0,1-4.73,5.54c-9,5.93-24.19,2.09-35,1.36a5.8,5.8,0,0,1-3.94,1.37c-4.74,0-7-4.15-6.65-7.77-1.68-7.26-2.57-16.32,4.63-20.6,6.3-3.74,11.61-.87,14.46,4.16a43.81,43.81,0,0,0,7.38.71c.21,0,1.11,0,2.11-.1-.65-3.48-.15-8.08-.18-11-.08-6.25,0-12.5-.2-18.75a7.32,7.32,0,0,1,.09-1.43q-8.2.07-16.4.07a6.87,6.87,0,0,1-2.24-.39,6.31,6.31,0,0,1-8.12-2.2c-7.85-10.8-6.16-25-4.65-37.49.06-.52.13-1,.2-1.57a58.23,58.23,0,0,1-1.46-11.28c-.08-5.57,5.59-7.76,9.48-6.19a14.57,14.57,0,0,1,8.93-1.9c6.43.43,15.09-1.92,21.72-.19,4.37-3.22,12.23,2.09,9.63,8.65a7.35,7.35,0,0,1-.49.81,17.16,17.16,0,0,1,.83,4.42,6.78,6.78,0,0,1,2.25,4.48,6.57,6.57,0,0,1-6.13,6.9h-5.25a18.25,18.25,0,0,1-3.36.38,7.61,7.61,0,0,1-4.14-1.2,6.61,6.61,0,0,1-3.52-5.31,6.07,6.07,0,0,1,1-3.81,11.2,11.2,0,0,1,.95-2.52c-1.16.32-2.14.56-2.22.57-4.47.62-12.18-.85-14.42,2.76a8.85,8.85,0,0,0-.85,2.08c.92,4.4,2.07,8.76,2.75,13.25a101.38,101.38,0,0,1,.93,16.7c9.74,0,19.49-.06,29.23-.36A6.64,6.64,0,0,1,562,96.1c.48,13,1.29,26.05,1.78,39.09C564,139.77,564.36,145.33,562.49,149.77Zm58.15-94.61c-1.43,3.92-4.43,6.32-8,8.19A32.86,32.86,0,0,1,605.07,66c-.68.17-3.21,1-4.58,1.2a55.75,55.75,0,0,1-.37,5.73c-.14,4.3-.22,8.61-.45,12.91a161.52,161.52,0,0,1-2.25,19.87c-.68,3.79-1.24,7.54-1.73,11.27,0,.15,0,.31,0,.47a53.54,53.54,0,0,1-.9,7.71,161.77,161.77,0,0,0,0,29.36c.23,1.62.68,9.12,1,10.71.38,1.84-12.1,2.22-12.1,2.22-1.67-1.74-2.31-8.21-1.79-10.47-.11-1-.24-2.06-.34-3.09-.83-5.54-2.06-11-1.79-16.66a61.48,61.48,0,0,1,1.34-9.16c0-.42,0-.84.07-1.26.32-4.22.92-8.39,1.61-12.54.7-17.07-.18-34.41-.18-51.46,0-.19.05-.36.06-.55a67.49,67.49,0,0,1-7.26-.11,6.77,6.77,0,0,1-4.23,1.92,6.4,6.4,0,0,1-6.77-5.44c-2.43-2.24-3.1-5.75-.54-11.2,6.55-14,32.69-7.17,44.46-6.5C616.62,41.38,624.1,45.64,620.64,55.16Z" transform="translate(-6.2)"/><path class="cls-4" d="M34.84,69.74l0,2.36.88,7.77c1.14,0,1.81.58,2,1.83l1.37.35c.46,4.14,1.76,6.17,3.89,6.11L46,88.08a6.36,6.36,0,0,0,5.42-3.23l.13-3.54,3.81-.11a5.78,5.78,0,0,0,4.11,1.85l1.23,0q6.87-.19,9.93-4.14Q80.74,60.88,81,51L80.6,45.7Q77.09,33,66.67,33.26l-1.48,0-6.23,1-20.73,1c-.57,0-.84.41-.82,1.2l-.48.41q-2,0-2.32,3.92l0,2.68,1.15,19.72Q35.12,63.19,34.84,69.74ZM62,40.4V40l2.7-.08q7.06,5.55,6.91,11.85-.12,7.71-8.91,23.86l-1.47,0-4.31-.35h-.37Q56.72,66.68,62,40.4Z" transform="translate(-6.2)"/><path class="cls-4" d="M86.23,125.82q.55-27.4-6.8-27.2l-3.07.09q-4.15.75-4.11,2.16l-2-.34q-12-1-11.87-2.1l-5,.54-9.26-1.32-1.1,0L37.67,99q-2.2.45-3.33,14.18.09,28.41,1.13,37.36l-.18,5.67c0,.52.52.77,1.5.74q-.07,1.58.66,1.56l20.75-.59,11.18.08q6.5-.18,19.33-17l0-2.36-1.27-1.22Q86,137.47,86.23,125.82ZM63,135.77l-3.82-.29-.57-28.16,0-.39a75.72,75.72,0,0,0,14.55,1.55l1.6,0a48.41,48.41,0,0,1,1.56,13.65l-.16,9.68.38,4Zm12.43,8.07-1.84,0,.06-2,3.45.38Z" transform="translate(-6.2)"/><path class="cls-4" d="M155.76,74.25,155,68.66c-2.51-4.86-5.52-7.21-9-7A6.79,6.79,0,0,0,142.35,59l-5.11.27-2.31,2.47L131.1,62l-.43.49.6,21.07.08,11.2L133,97l1.19-.07c4.92-.26,7.39-.86,7.39-1.8Q155.92,88.15,155.76,74.25Z" transform="translate(-6.2)"/><path class="cls-4" d="M271.65,66.17c0-1.11-1.38-2-4.18-2.56l-2.26.07q-3.81.6-3.84,2.39l-1,0q-5,.14-6.76.91c0,.93-.39,1.4-1.26,1.43L251,102.28l1.23.3c0,.93.19,1.39.65,1.37l5.74-.16a2.39,2.39,0,0,0,2.53,2.61l1.65-.05,2.5-.73q2.46-2.09,3.24-2.1c.14-.94.47-1.41,1-1.42l.76-.64,0-1.73-.3-3.67a35.54,35.54,0,0,0,2.19-12.67ZM259,72.33l-2.18,13.22h-.26l.08-2.74.51-11.17,1.9-.38Z" transform="translate(-6.2)"/><path class="cls-4" d="M641.35,51.08l-.91-2.24-.08-13.51L639,33.68,574.57,36.2l0-1a2.09,2.09,0,0,1-2.53-1.82l-49.62,3.69a102.88,102.88,0,0,1-12.76,6.61l-.19-2.55.64-3.95.08-.3c0-.35-.55-.5-1.58-.46l0-1.59c-1.35-.18-2-.5-2.06-1l-5.92.52-34.05-.78-6.41,1.57,2.07-1.52c0-1.35.32-2.05,1.1-2.11q-1-14.65-2.51-16.34-.28-8.48-3.43-8.23,0-1.65-.84-1.59l-64.43,4.82-3.11.54q-1.63.12-11.81,8.32l0,1.72-1.13.39L376.66,35c-2.08.16-4.38.35-6.94.59A36.42,36.42,0,0,0,362,37.09l-2.36-.61-2.72.25L356.81,34q-.07-.65-3.45-.51l-3.36.3-22.28,3.39q-19.23,3.64-32.54,10.26l.17,2.39c.44.71,2.12.93,5,.66l.17,3.28c-1.15-1.21-3.94-1.83-8.39-1.87q-.91-1.42-4.35-2.78l-1,0q-18.39-.55-30.26-1.5l-7.81.49-4.1-.16-.32.79c-1.1,0-1.65.21-1.64.55l-1.08,1.57,0-2,.86-3.72.09-.27c0-.34-.48-.51-1.47-.53l.12-1.5c-1.28-.25-1.91-.59-1.9-1l-5.66.19-32.33-2.52L193.9,41a54.3,54.3,0,0,1-9.05,4.37q-2.78,0-3.12,4l-.29,4q-6.74-12.2-9.56-12.05l-9.38.79L143,43.1l-8.95.18-6.64.65-1.55.08-12.18,4a25.14,25.14,0,0,0,.42-3.87l.09-4.65q.3-13.14-11.44-22.58Q89.56,8.76,76.05,9.15l-1.22,0a13.79,13.79,0,0,0-6.57,1.92L41.05,9.43l-1.58.36c-4.29,1.8-7.24,2.72-8.88,2.77a48,48,0,0,1-10.49,6q-3.8.11-4,5.7l-3.05,147c-.08,2.57.25,3.85,1,3.83l48.85-1.38,15.48-.05,8-2.74c7.57-2.95,15.13-9.8,22.67-20.46l.2,16v.29a2,2,0,0,1,2.4,1.75l19.5-1.39,4.65-.25q2.7-.61,9-5l.73,0,0,.59q0,2.4,2.34,2.28c0,1,.28,1.51.83,1.48l25.72-1.38q2.19-.12,11.29-6.64a17.89,17.89,0,0,0,2.57-1.68l33.54.54a3.33,3.33,0,0,1,2-.47,1,1,0,0,0,.3-.07l-1.12,7.68,1.52,1.29,20.88-.3a16,16,0,0,0,4.82-1.75c.14.7.47,1,1,1l1.57,0,3.89-.61a62.5,62.5,0,0,0,9.73-8.64,76.25,76.25,0,0,0,4.75-25h.34q1.73,18,3,23.68c-.12,5.06.57,7.56,2.08,7.52,0,.71.15,1.06.56,1.05l18.26-.51a13,13,0,0,0,4.62-2.47h.26q.38,3.33,3.15,3.26a18.21,18.21,0,0,0,3.51-.52l0,.28,1.67.14c0,.55.36.79,1.08.73l34.05-3.11a34.32,34.32,0,0,1,12.27-3.59c0,.74,1,1,2.84.86l.63.76.57.18,14.53-1.32.09,1.63,1.63.68,4.45-.41.41-.08.37,10.57.5.34q2-.15,2,.6l20.56-2.29,4.8-.06L430,158.41c.2-1.32.65-2,1.35-2L427.9,99.51l11.51-1.16,1.58.56,2.44-.19c1.09-.89,2.05-1.66,2.9-2.32l-.5,59.19.58.5L448,156c0,.9.15,1.34.52,1.33l47.73-1.86a3.5,3.5,0,0,1,2.08-.61q1.18,0,6.21-6a31.51,31.51,0,0,0,3.86-4.87c0,4.06,0,9.15.2,15.33l0,.52c1.72.16,2.56.4,2.53.71l51.4-3.23,1.8-.41,12.8-11.46,0,22.13a1.48,1.48,0,0,0,1.38,1.64l6.91-.33q15.71-.75,22.09-1.62,1.66-.09,12.9-6.33a4.11,4.11,0,0,0,2.74-4.13L623,62.48q15.69-7.9,18.35-9.94ZM73.15,167.75l-51.92,1.47,2.94-143.1,59.89-1.69v.39q3.54,3,3.45,3.76,6.11,2.9,5.84,16.83l-.08,4.89a54.12,54.12,0,0,1-3,16Q77.68,79.63,77.66,82.54l-.12,3.94c0,1.62,2.33,3.55,7.08,5.78q11.56,19,11.46,23L94.83,122l-.13,3.54a2.63,2.63,0,0,0,2.75,1.34l1.1,0Q98.09,145.71,73.15,167.75Zm28.69-89.44c2.45-4.84,4.48-9.21,6.19-13.21L108.25,83A59.37,59.37,0,0,0,101.84,78.31Zm50.38,82.85-12.05-38.41Q138.42,111,137,111.08l-1.19.06a11,11,0,0,0-4.24.87l.8,50.21-14,.75-2.35.42-.37,0L114.18,55l10.58-.57,21,.11a28.8,28.8,0,0,0,8.59-1.7l3.14.42c1.21-.06,2.28,1.4,3.2,4.4q5.85,10,5.93,11.24-3,9.54-3,15.34,0,5.58-12,13.66-8.53,4-8.51,5.91l0,2.17a2.74,2.74,0,0,0,2.44,1l22.61,53.32ZM498.54,51.59l3.88-1.2v.29q0,1.35-4.57,2Zm-3.64,6.24.91,0,9.59-2.21L506,75.1q-4.65-.42-23.23.31h-.28l.26-.3.4-7.11c0-.74-.54-1.15-1.52-1.23l.13-7.15,2-.08,10.67-.65C494.76,58.89,494.93,58.53,494.9,57.83ZM449.5,11.34l0,.37-4.77.36,0-.37ZM378.3,78.45a18.7,18.7,0,0,0-1.25-2.38l-.06-.52a25.27,25.27,0,0,1,.89-8.38ZM340.63,57.37l-.49,2.22-.54,0-.06-2.17ZM289.57,81.79h.35a4.65,4.65,0,0,0,1.78,3.86l-.07,3.18,0,11.21-.06,1.06h-.26l-1.85-19Zm-5.2-23.11a6.05,6.05,0,0,0-1,3.43H283l-.21-3.67v-.23Zm-53.81-.36,3.76-.94v.28q-.1,1.28-4.47,1.66Zm-3.85,5.74h.87L237,62.44l.11-1.5a2.38,2.38,0,0,0,1-.17l-2.94,20.17q-5.1-.54-21.19-.8h-.26l.27-.27.82-6.73c0-.71-.44-1.13-1.37-1.25l.57-6.8,1.91,0,10.19-.06C226.51,65.06,226.69,64.73,226.71,64.06ZM177,96.21c.49-.3.93-.6,1.34-.88L177.2,111c-1-3-2.1-6.11-3.24-9.43Zm41,52.4c-.52,2.86-1,4.28-1.39,4.28l-36.45-.59,7.4-101.41,35.06.56q-4,5.56-4.14,7.46l-.21,2-7.58.11-13.74-.22a1.67,1.67,0,0,1-1.77,1.47l-1.48,28.6,10.24.65,14.09.22,3.3.28-.7,9.8-8.7-.14-10.62.06-5.66-.09c-.35,0-.56.41-.63,1.27-.93,0-1.42.14-1.49.48l-1.76,24c-1.18.76-1.8,1.51-1.87,2.26l-.12,1.5,1.63,1.53-.37,5.74c-.06.33.37.5,1.3.52-.08.82.06,1.23.41,1.23l27.23.44a23.27,23.27,0,0,0-2.39,6.48l0,1Zm-5.67-22.39.54-19-.15-1.51,7.57.12a35,35,0,0,0,6.89-.67l2.52,0a6.61,6.61,0,0,0,2.11-.64l-3.25,22.27Zm35.62,33.31,0-1.28,1.93.45V159Zm21.68-42.15-.36-.22-3.48.1,0-.56,3.83-.1.37.77Zm10.58,41L275,119.07c.05-3.65-.56-5.45-1.83-5.42,0-.71-.15-1.05-.56-1l-13.48.37c0-.89-.34-1.4-.92-1.53l-2.17.06-2.69.3a12.4,12.4,0,0,1-4.4,1.46c-.21.67-.88,1.21-2,1.61l-4.13,46.36-12.27.12,1.31,0L247.32,57.09l17.32-.2,13.13-.37L292.35,158Zm15.67-15.83h-.27L294,125.34v-.28h.35q2,0,4,12.22A6.51,6.51,0,0,0,295.85,142.52Zm2-83.44A8,8,0,0,0,300.69,57l.39,7.68C300.14,62.88,299.09,61,297.87,59.08Zm72.56,93.8-5.6.8-1.26-3.17,4.28-2.8-.08-1.58-1.06-.49-4.45.41,2.36-6.15v-.77l-1.72-.66-4.45.4-.19-4.27-1.24-.41q-.94-.21-5-9.6-6.68-24.3-8-24.17l-5,.45-.25-4-1.63-.61-1.72.16q-7.17.64-10.57,2.31l.14,2.11,10.34,46.34-.68,9,0,.29-19,1.73-1.53-28.47-4.85-80.28,0-.23,12.23-1.41c.11,1.59,2,2.22,5.8,1.87l.54,0-2,4.24,0,1.88c.05.54,1,.73,2.9.56l.54-.05,1.09,31.15c.07.7,3.08.78,9,.24l1.18-.11q1.41-3,9.73-27,3.15-14.16,5.83-15.63l7.26-.67L349.12,90l16.43,34q9.33,15.06,12.69,28.21ZM363,86.58l-2.8,1.32.87-4.67.55,0Zm59.57,68.71.06-.68,1.73-6.9.47,0,.19,6.07C425,154.15,424.21,154.66,422.54,155.29ZM419,95.15l-12.59.94c-.46,0-.66.48-.58,1.32l-1.57.79-.44.41.07,2,1.27,22.22q-1,4-.61,16.87l.08,1,2.18,21.85-.31.4-14.54,1.39-1.83.52-2-59.36L384.84,24l5-.75q11.07.53,38.22-.16l2.68-.2a38.46,38.46,0,0,0,13-3.3,68.17,68.17,0,0,1,3.24,16.66l-41.59,3.12-3.09.9.34,23.57.41,9.89-.11,6.69.33,1,2.42,2.15,21.75-1.93,11.42-.86-.17,3.4.34,9.06Zm25.93-34.1-2.45.18-7,1.2-7.61.2-.35,0q2.88-8.56,2.69-13.36L430,45l-.56-2.36,18.65-1.4c-.83.67-1.27,1.91-1.31,3.74l-.13,16.32C446,61.19,445.46,61.15,444.89,61.05ZM491,146.44l.48.51c-.35,3-.74,4.54-1.16,4.56L452.11,153l.83-106.72,36.78-1.43q-3.83,6.06-3.83,8.06L485.81,55l-7.93.54-14.43.56a1.73,1.73,0,0,1-1.75,1.65l.32,28.7c0,.35.51.51,1.49.47,0,.7.35,1,1.14,1,.81,1.57,1.39,2.35,1.76,2.33l3.28-.13c2.11-.43,3.18-1.17,3.19-2.23l14.79-.58,3.47.1-.07,10.32-9.12.35,0-.29q0-2.34-3.85-2.19l-2.64.1a4.8,4.8,0,0,0-4.62,3l-5.93.23c-.37,0-.56.47-.58,1.37-1,0-1.48.23-1.53.59l-.2,25.26c-1.18.86-1.78,1.69-1.8,2.47l0,1.58,1.8,1.51v6c-.05.35.42.51,1.39.47,0,.86.15,1.28.52,1.27l28.57-1.11a24,24,0,0,0-2.06,6.93ZM509.71,132l.25-5.46a6.31,6.31,0,0,1-1.7-3.1l-24.21.42-.74-20-.26-1.57L491,102a37,37,0,0,0,7.17-1.1l2.64-.1c1.94-.43,2.91-1.08,2.93-1.94l2.85-1.26.26,9.26,1.44.72,3.46-.18.28,1.15.64,0c.16.5.36.7.6.61l2.83-1.25c.19.88.7,1.2,1.54,1l.8-.35,1.2-.91c.11-.24.21-.46.32-.66l17.32-1,.37,13.53-13-.52a2.94,2.94,0,0,1-1.84,1q-.83.06-9.64,8.77C511,129.23,509.85,130.35,509.71,132Zm27.83-.34-.6-1.77.55,0Zm-11,23.94-11.87.52-.63-24.67,12.12-.83,4.46,17.72.64-.11c.16.5.36.7.59.61l2.75-1.19a1.21,1.21,0,0,0,1.72.88l.8-.35.85-.7v1.06l4.41-1c1.21-.08,1.8-.32,1.77-.71L543,104.59a4.65,4.65,0,0,0-.79-3l-21.54,1.07-.47-1.26a22,22,0,0,0-1-7.27L516.07,85q-.27-.93-2.43-.6l-1.15.49a3.34,3.34,0,0,0-1.12,1l-.94-36.39,44.82-3.07.3,19.47-12.58.8L542,54.06l-18.22,1.25-.68.64,1,36.73.78.53,4.56-.31A27.42,27.42,0,0,0,537.87,94l1.46-.1A7.19,7.19,0,0,0,543,92.21l14.94-1,1.66,62.1Zm45.65-45.92.52-7.08.36,0,.5,2.78.07,4.22Zm-.91-22.41,1.41-.69.23,7.32-.37,0Zm5.65-6-.12-2.51q-1.77-.47-34-1.9l.14-6.12L567.9,69l7.17-4.25v-.25l1.9-.09,0,16.83Zm39.68,33.36-2.37.11,1.93-9.73.49,0Zm.78-56-10.16.74-2.76.13a1.38,1.38,0,0,0-.39.09l-2.17.1-1.1-1.85q-7.68.81-7.65,3c-.85,0-1.3.31-1.34.82L592,93.09l.34,70.58c.4,0,.68.27.84.85l-9.08.43-.21-103.13L582,60.2l-12.56.6c-.25-.14-.53-.26-.77-.41l0-14.27,30.81-1.47,18.38-.57v.26l-.9,11.9Zm.83-18.43-.49,0,1.88-1.8,3.26-.16,0,.32Z" transform="translate(-6.2)"/><text class="cls-5" transform="translate(637.91 65.94)">2019</text></svg>