<?xml version="1.0" encoding="utf-8"?>
<!-- Generator: Adobe Illustrator 23.0.3, SVG Export Plug-In . SVG Version: 6.00 Build 0)  -->
<svg version="1.1" id="Layer_1" xmlns="http://www.w3.org/2000/svg" xmlns:xlink="http://www.w3.org/1999/xlink" x="0px" y="0px"
	 viewBox="0 0 243 78" style="enable-background:new 0 0 243 78;" xml:space="preserve">
<style type="text/css">
	.st0{fill:#F6B857;}
	.st1{fill:#5D1A10;}
	.st2{fill:#FFFFFF;}
	.st3{fill:#984122;}
</style>
<g>
	<path class="st0" d="M64.0019913,72.8191299c-1.1941185,0-2.3113098-0.7740555-2.9156418-2.0196991l-0.0532608-0.1097641
		c-0.0325432-0.0557785-0.0626259-0.1124573-0.0880241-0.1658478l-0.0453682-0.0933609
		c-0.0066566-0.0116348-0.0133133-0.0235672-0.0199699-0.035202c-0.0606537,0.0936661-0.1247635,0.184639-0.1923218,0.2717361
		c-0.6255379,0.8071671-1.5072594,1.2778625-2.4200478,1.2933731c-8.022522,0.1363144-8.0244942,0.1363144-8.0427399,0.1363144
		c-0.88591,0-1.7232513-0.4119339-2.3581581-1.1597366c-0.150898-0.1777802-0.2882347-0.3767319-0.4166946-0.6040268
		c-0.0564651-0.0829239-0.10923-0.1664429-0.1585426-0.2514572c-0.0591774-0.0862045-0.1141624-0.1733017-0.1656914-0.2621918
		c-0.0586853-0.0856094-0.1129303-0.1715164-0.1639671-0.2592087c-0.0591774-0.0865021-0.1144066-0.1736069-0.1659393-0.2624969
		c-0.0591774-0.0862045-0.1141624-0.1730042-0.1651993-0.2612991c-0.0591774-0.0865021-0.1139145-0.1730042-0.1649551-0.260994
		c-0.0586815-0.0856094-0.1131706-0.1715164-0.1637192-0.2589188c-0.021698-0.0313187-0.0426559-0.0629349-0.0631218-0.0948486
		l-0.9919319,1.7891159c-0.6292381,1.1343842-1.6786232,1.8114929-2.8071556,1.8114929l-18.6433582-0.053093
		c-0.9189529-0.0029831-1.795002-0.4632416-2.4311428-1.270401c-0.0784073-0.0823288-0.1538563-0.1697235-0.2261009-0.2610016
		c-0.0781612-0.0826263-0.1533642-0.169426-0.2251148-0.260704c-0.0784073-0.0823288-0.1536102-0.169426-0.2253609-0.2604065
		c-0.0776691-0.0820236-0.1528721-0.1685257-0.2246227-0.2595062c-0.0789013-0.0829239-0.1545963-0.1706161-0.226841-0.2624893
		c-0.0781612-0.0820312-0.1531162-0.1688309-0.2246208-0.2595139c-0.0784073-0.0826187-0.1538582-0.1697235-0.2258549-0.2606964
		c-0.0779152-0.0823288-0.1528702-0.1688309-0.2246208-0.2598114c-0.0784092-0.0826263-0.1538582-0.1700211-0.2261009-0.2612991
		c-0.0784092-0.0826263-0.1538582-0.1700211-0.2258549-0.2612991c-0.0779152-0.0823212-0.1528721-0.1688232-0.2246227-0.2595062
		c-0.0784073-0.0826263-0.1536102-0.1697235-0.2256069-0.260704c-0.0786552-0.0829239-0.1541042-0.1703186-0.2263489-0.2615967
		c-0.0776672-0.0823212-0.1528702-0.1688309-0.2243748-0.2595062c-0.0786552-0.0829239-0.1541042-0.1700211-0.2261009-0.2612991
		c-0.0781612-0.0823288-0.1531181-0.1691284-0.2246227-0.2598038c-0.0788994-0.0829239-0.1545963-0.1706238-0.2268391-0.2619019
		c-0.0774231-0.0820236-0.152132-0.1682281-0.2236366-0.2586136c-0.0786533-0.0829239-0.1543503-0.1706161-0.226841-0.2621918
		c-0.0779152-0.0826263-0.1531162-0.169426-0.2251148-0.2604065c-0.0781612-0.0826187-0.1533642-0.169426-0.2251148-0.2601013
		c-0.0784073-0.0829239-0.1538563-0.1700211-0.2256069-0.260704c-0.0784092-0.0829239-0.1538582-0.1700211-0.2253628-0.260704
		c-0.0784073-0.0826187-0.1538563-0.1700211-0.2258539-0.260994c-0.0779152-0.0823288-0.1528711-0.1691284-0.2243748-0.2595139
		c-0.0789013-0.0829239-0.1543512-0.1703186-0.2263479-0.2612953c-0.0781612-0.0826263-0.1536112-0.1697273-0.2253618-0.260704
		c-0.0781612-0.0826263-0.1533642-0.169426-0.2251148-0.2601051c-0.0784082-0.0829239-0.1538572-0.1700211-0.2258539-0.2610016
		c-0.0781622-0.0826225-0.1536112-0.1697235-0.2253618-0.2607002c-0.0786543-0.0829239-0.1541042-0.1703224-0.2261009-0.2610016
		c-0.0779152-0.0826225-0.1528711-0.169426-0.2243757-0.2598076c-0.0784073-0.0829239-0.1538572-0.1697235-0.2256079-0.2604027
		c-0.0784082-0.0829239-0.1536102-0.1700211-0.2253609-0.2607002c-0.0786552-0.0829239-0.1543512-0.1703224-0.2263479-0.2616005
		c-0.0779152-0.0826225-0.1528711-0.1691246-0.2243757-0.2595062c-0.0786543-0.0832214-0.1543503-0.17062-0.226347-0.2615967
		c-0.0779152-0.0823288-0.1526251-0.1688309-0.2241287-0.2592125c-0.0791483-0.0832214-0.1548433-0.1709175-0.227088-0.2621918
		c-0.0781612-0.0829239-0.1533642-0.1697273-0.2248678-0.2601051c-0.0779152-0.0826263-0.1531181-0.169426-0.2248688-0.2598076
		c-0.0784073-0.0829239-0.1538572-0.1703224-0.2258539-0.2610016c-0.0786552-0.0832214-0.1538572-0.1703224-0.2256079-0.2610016
		c-0.0781622-0.0826225-0.1531181-0.169426-0.2248688-0.2598038c-0.0784082-0.0829239-0.1541042-0.1703224-0.2261009-0.2612991
		c-0.0779152-0.0826263-0.1528711-0.1694298-0.2246218-0.25951c-0.0786543-0.0832214-0.1541042-0.17062-0.2261009-0.2615967
		c-0.0781622-0.0826263-0.1531181-0.169426-0.2248688-0.2598076c-0.0784082-0.0829239-0.1541033-0.1703224-0.2261009-0.2612991
		c-0.0781612-0.0829239-0.1533642-0.1697235-0.2251148-0.2601051c-0.0786543-0.083519-0.1538572-0.1703224-0.2253618-0.2607002
		c-0.0784073-0.0829239-0.1536102-0.1700249-0.2256079-0.260704c-0.0784082-0.0829239-0.1536102-0.1700211-0.2253609-0.2604027
		c-0.0784082-0.0832214-0.1536112-0.1700249-0.2253618-0.260704c-0.0786543-0.0832214-0.1538572-0.1703186-0.2256079-0.2607002
		c-0.0784082-0.0829239-0.1536112-0.1700249-0.2253618-0.2604065c-0.0781612-0.0829201-0.1533642-0.1700211-0.2251148-0.2604027
		c-0.0789013-0.083519-0.1545963-0.1709175-0.2263479-0.2612991c-0.0784073-0.0832214-0.1536102-0.1703186-0.2253609-0.2607002
		c-0.0781617-0.0829239-0.1533642-0.1697235-0.2246218-0.2598076c-0.0786548-0.0832214-0.1538572-0.1703224-0.2253613-0.2604027
		c-0.0786548-0.0832214-0.1541038-0.17062-0.2261014-0.2612991c-0.0786543-0.0832214-0.1538572-0.1703224-0.2253613-0.2604065
		c-0.0781612-0.0829201-0.1533642-0.1697235-0.2248683-0.2601051c-0.0786548-0.0832214-0.1538572-0.1703186-0.2256079-0.2607002
		c-0.0781617-0.0829239-0.1536107-0.1700249-0.2256079-0.2604027c-0.0786548-0.0838203-0.1541042-0.1709175-0.2258549-0.2612991
		c-0.0784078-0.0832214-0.1536107-0.1703224-0.2253613-0.260704c-0.0784082-0.0829239-0.1533642-0.1697235-0.2246218-0.2595062
		c-0.0781612-0.0829239-0.1536107-0.1700249-0.2256079-0.260704c-0.7710123-0.8176003-1.221735-1.9776382-1.2419534-3.2107506
		L3.7259469,11.8577995C3.7069614,10.7228212,4.045743,9.6367607,4.6796646,8.7994719L4.959517,8.4298954
		c0.644031-0.8519053,1.5237789-1.3569036,2.4772501-1.4216318l13.5594101-0.9252834
		c0.0547371-0.0038776,0.1873894-0.0068607,0.2233887-0.0068607c0.0189857,0,7.9843044,0.1234908,7.9843044,0.1234908
		c1.2177887,0.0184937,2.3406525,0.7677884,3.0036678,2.0038857l3.2702065,6.0972672
		c0.6228256-1.0028381,1.5942955-1.6730871,2.7105026-1.7470617l14.3134079-0.9455671
		c0.0690384-0.0041761,0.1336403-0.0065622,0.1982384-0.0065622c0.1782684,0,0.3592491,0.0164051,0.5375137,0.0483217
		l7.2088547,1.3145475c0.962101,0.1753922,1.8026466,0.7997046,2.3645706,1.7139521
		c0.1582947-0.1721115,0.3303986-0.32901,0.5153236-0.4680109l1.8127518-1.3655539
		c0.5557632-0.4193907,1.1970825-0.6493692,1.8534393-0.6642838c16.261528-0.3686819,16.2659683-0.3686819,16.2898865-0.3686819
		c0.9633331,0,1.9044724,0.4748716,2.5825272,1.3026161c0.5017624,0.6120825,0.8383255,1.3795729,0.9788666,2.2278986
		c0.0234299,0.0963469,0.0468521,0.2022381,0.0673141,0.3182716c0.0246582,0.099926,0.0493164,0.2099934,0.0705185,0.3307991
		c0.023674,0.0966444,0.0480804,0.2061167,0.0695343,0.3263254c0.0239182,0.0975399,0.0485687,0.2082043,0.0702667,0.3302021
		c0.0241699,0.0972424,0.0488205,0.2079048,0.0705185,0.3302021c0.0239182,0.0972424,0.0485764,0.2076073,0.0700302,0.32901
		c0.0239105,0.0972424,0.0485687,0.2076073,0.0702667,0.329607c0.0239182,0.0972404,0.0488205,0.2079048,0.0702744,0.3299046
		c0.0241623,0.0972404,0.0488205,0.2079048,0.0702667,0.3299046c0.0239182,0.0969429,0.0485764,0.2073078,0.0702744,0.3296051
		c0.023674,0.0969429,0.0483246,0.2067127,0.0697784,0.327816c0.0241623,0.0972424,0.0488205,0.2079067,0.0705185,0.330801
		c0.0234222,0.0945568,0.0480804,0.2055187,0.0700226,0.3281136c0.0155334,0.0629387,0.0313187,0.1312466,0.0463562,0.2049236
		l2.3482971-5.2734013c0.6095123-1.3679399,1.7853851-2.2529545,3.0690079-2.3093309
		c8.4744797-0.3707695,8.4828568-0.3707695,8.529213-0.3707695c1.2029953,0,2.3258591,0.7182732,3.0039139,1.9209623
		l4.6822968,8.3123398l-0.0623856-5.2993507c-0.0286026-2.4244699,1.5785141-4.425374,3.5826035-4.4605713
		c9.0009003-0.1580915,9.0041046-0.1580915,9.0228424-0.1580915c1.0146179,0,1.9392471,0.5145435,2.6022568,1.3393049
		c0.075943-0.1020145,0.1563263-0.199852,0.240654-0.2929173c0.6713943-0.7424345,1.5425186-1.1516829,2.4525909-1.1516829
		c0.0729828,0,0.1459656,0.0026846,0.2189484,0.0080538l9.6777191,0.6827765
		c0.7562256,0.0527973,1.4833374,0.3976154,2.0696716,0.9673424c0.6393585-1.0034342,1.6273499-1.6590672,2.7398529-1.7076883
		c19.352478-0.8435526,19.3608551-0.8435526,19.4074554-0.8435526c1.9619293,0,3.5572205,1.8586206,3.6316833,4.2311888
		l0.0968933,3.0696621l1.7533417-3.9376755c0.6095123-1.3679399,1.7853851-2.2529545,3.0690002-2.3093309
		c8.474472-0.3707695,8.4828644-0.3707695,8.5292206-0.3707695c1.2029877,0,2.3258514,0.7182732,3.0039062,1.9209623
		l3.773941,6.6995068c0.0397034-0.1067867,0.0833435-0.2114849,0.130188-0.3140965
		c0.0414276-0.1118565,0.0865479-0.2216263,0.135376-0.328413c0.0414124-0.1118565,0.0865326-0.2213268,0.1353607-0.3281136
		c0.0414276-0.1118584,0.0865479-0.2216263,0.1356049-0.32901c0.0414276-0.1115589,0.0865479-0.2210293,0.1351166-0.3275185
		c0.0414276-0.1118565,0.086792-0.2219238,0.1356201-0.32901c0.0411682-0.1112595,0.0865479-0.2213268,0.1356049-0.3287106
		c0.0411835-0.1112614,0.0863037-0.2204342,0.1348724-0.3269215c0.0416718-0.1124535,0.0870361-0.2228203,0.1361084-0.3302021
		c0.0411682-0.1109638,0.0863037-0.2204342,0.1348724-0.3272209c0.0414276-0.1115589,0.086792-0.2216263,0.1356049-0.3287106
		c0.0414276-0.1115589,0.0865479-0.2210312,0.1356201-0.328413c0.0411682-0.1115589,0.0862885-0.2210312,0.1351166-0.3281155
		c0.0414124-0.1115589,0.086792-0.2216263,0.1356049-0.3287106c0.0411835-0.1109629,0.0860596-0.2201357,0.1348724-0.3269224
		c0.5340576-1.4496698,1.6574249-2.4346113,2.9664459-2.5867367l7.681015-0.8933668
		c0.081131-0.0092468,0.1590424-0.015213,0.2367096-0.0178976c10.036972-0.3701725,10.043869-0.3701725,10.0830688-0.3701725
		c0.6573486,0,1.2900391,0.2108879,1.843338,0.6058187c0.2628326-0.0805368,0.5330658-0.1252804,0.8057709-0.1315441
		c22.4175415-0.5267735,22.4227295-0.5267735,22.4473877-0.5267735c1.9402313,0,3.5350189,1.8368464,3.6306763,4.181673
		l0.3816833,9.3512707c0.0490723,1.2065659-0.3197937,2.3976231-1.012146,3.2677231
		c-0.0170135,0.0211792-0.0342712,0.0423565-0.0520325,0.0629387c-0.0579376,0.0891876-0.1148987,0.1697254-0.1760406,0.2466831
		c-0.0167694,0.0208797-0.033783,0.0411625-0.0507965,0.0611477c-0.0572052,0.0879955-0.1131744,0.1673393-0.173584,0.243103
		c-0.0175018,0.0220737-0.0352631,0.0435505-0.0532532,0.0647297c-0.0572052,0.0879936-0.1134186,0.1676369-0.1738281,0.2437
		c-0.0172577,0.0217743-0.0350189,0.0429516-0.053009,0.0638313c-0.0569611,0.0879955-0.1131744,0.1676369-0.173584,0.2437
		c-0.0172577,0.0214767-0.0345306,0.0423565-0.0520325,0.0629387c-0.0572052,0.0882931-0.1134186,0.1679363-0.1738281,0.2439976
		c-0.0180054,0.0223732-0.0357513,0.0435505-0.0534973,0.0641327c-0.0579529,0.0894852-0.1151581,0.1703205-0.1767883,0.2475777
		c-0.0165253,0.0205803-0.0332947,0.0408649-0.0503082,0.0611477c-0.0572052,0.0876961-0.1134186,0.1673393-0.1738281,0.2434025
		c-0.0172577,0.0217743-0.0350037,0.0429535-0.0527649,0.0638332c-0.0572052,0.0879936-0.1131744,0.1673374-0.1738281,0.2437
		c-0.0172577,0.0214748-0.0347595,0.042654-0.0525208,0.0632362c-0.0579376,0.0894852-0.1151428,0.1703205-0.1767883,0.2475777
		c-0.0162659,0.0205803-0.0330353,0.0405655-0.0500488,0.0605507c-0.0579376,0.0891876-0.1148987,0.1697254-0.1763,0.2466831
		c-0.01651,0.0208797-0.0335236,0.0414619-0.0507812,0.0614471c-0.0572052,0.0879936-0.1134338,0.1676369-0.1738281,0.2437
		c-0.0172729,0.0214767-0.0345306,0.0423565-0.0522766,0.0629387c-0.0579529,0.0894852-0.1151428,0.1703205-0.1765442,0.2472782
		c-0.0165253,0.0208817-0.0335388,0.0414619-0.0507965,0.0614471c-0.0569458,0.0876961-0.1129303,0.1670418-0.173584,0.243103
		c-0.0172577,0.0217743-0.0347595,0.0429535-0.0525208,0.0638351c-0.0579376,0.0891876-0.115387,0.1703186-0.1770325,0.2475777
		c-0.0162659,0.0205803-0.0332794,0.0414619-0.0510406,0.0620422c-0.0567017,0.087101-0.1126709,0.1661453-0.1728363,0.241909
		c-0.0172577,0.0217743-0.0347595,0.0429535-0.0525208,0.0638351c-0.0579376,0.0891876-0.1151428,0.1700211-0.1767883,0.2472763
		c-0.0162659,0.0205841-0.0330353,0.0408669-0.050293,0.0608521c-0.0567169,0.0873985-0.1129303,0.1670418-0.1733398,0.243103
		c-0.0175018,0.0217743-0.0350189,0.043251-0.053009,0.0641327c-0.0579529,0.0891876-0.1154022,0.1703186-0.1770325,0.2475777
		c-0.0162811,0.0205803-0.0330505,0.0405655-0.0500641,0.0605507c-0.0569458,0.0876961-0.1134186,0.1676369-0.1740723,0.2439995
		c-0.0170135,0.0211754-0.0342712,0.0423546-0.0520172,0.0626373c-0.0572052,0.088295-0.1134186,0.1682358-0.1743317,0.2445946
		c-0.017746,0.0220757-0.0352478,0.043251-0.0527649,0.0638351c-0.0569458,0.0873985-0.1131744,0.1673393-0.1740723,0.2436981
		c-0.0172577,0.0217743-0.0347595,0.043251-0.0527649,0.0641327c-0.0569611,0.0876961-0.1131744,0.1673393-0.173584,0.2434006
		c-0.0175018,0.0217743-0.0350037,0.0429535-0.0527649,0.0638351c-0.0572052,0.0879936-0.1136627,0.1679344-0.1745605,0.2445946
		c-0.0172729,0.0214767-0.0347748,0.0426521-0.0522766,0.0632362c-0.0572052,0.0879936-0.1136627,0.1676369-0.1743317,0.2439957
		c-0.0172577,0.0217781-0.0347595,0.0429535-0.0525055,0.0638351c-0.0569611,0.0876961-0.1134186,0.1673393-0.1740875,0.2436981
		c-0.0172577,0.0220757-0.0350037,0.0435524-0.0534973,0.0650291c-0.0567169,0.0876961-0.1131744,0.167038-0.173584,0.2434006
		c-0.0170135,0.0214767-0.0345154,0.0423546-0.0520325,0.0629387c-0.027359,0.042057-0.0547333,0.082325-0.0823517,0.1214027
		l0.5039825,11.7053413c0.0500641,1.1648102-0.2934113,2.326931-0.9421234,3.1892776
		c-0.0569611,0.0760612-0.1176147,0.1476517-0.180481,0.2165565c-0.0113525,0.0161057-0.0231781,0.0319138-0.0350189,0.0477257
		c-0.0562134,0.0748672-0.1168671,0.1464577-0.1799927,0.2153625c-0.0110931,0.0155106-0.0224457,0.0310211-0.0340271,0.0465317
		c-0.0557251,0.0742722-0.1158905,0.1452637-0.1787567,0.2141685c-0.0113525,0.0161095-0.0231781,0.0319176-0.0350189,0.0477257
		c-0.0559692,0.0745735-0.1163788,0.1458626-0.1790009,0.2144699c-0.0091248,0.012825-0.0182495,0.0253525-0.0276184,0.0378799
		c-0.0604095,0.0805359-0.1225433,0.1539154-0.1859131,0.2234154c-0.0091248,0.0131264-0.0184937,0.0256538-0.0278625,0.0384789
		c-0.0616455,0.0817337-0.1235199,0.1551094-0.1861572,0.2237167c-0.0115814,0.0161057-0.0231781,0.0319176-0.0350037,0.0477257
		c-0.0559845,0.0742722-0.1161346,0.1455612-0.1790161,0.2144661c-0.0110931,0.0155106-0.0224304,0.0310211-0.0340271,0.0462341
		c-0.0564575,0.0751686-0.1168671,0.146759-0.1794891,0.2153625c-0.0086365,0.0122299-0.0175171,0.0241623-0.0261383,0.0360947
		c-0.0631256,0.0832214-0.1252594,0.157196-0.1881409,0.2261009c-0.0110931,0.0155106-0.0224304,0.0310211-0.0340271,0.0462341
		c-0.0564575,0.0754662-0.1168671,0.1467552-0.1794891,0.2153625c-0.0113525,0.0158081-0.0226898,0.0313187-0.0342712,0.0465317
		c-0.0564728,0.0754662-0.1168823,0.146759-0.1795044,0.2153625c-0.0113373,0.0161095-0.0231781,0.0319176-0.0350189,0.0477257
		c-0.0564575,0.0751686-0.1168671,0.1464577-0.1799927,0.2153625c-0.0110931,0.0155106-0.0224304,0.0310211-0.0340271,0.0465317
		c-0.0562134,0.0748711-0.1163788,0.1458626-0.179245,0.2147675c-0.0113525,0.0158081-0.0226898,0.03162-0.0345154,0.0471306
		c-0.0559845,0.0745697-0.1163788,0.1458588-0.1790161,0.2144661c-0.0113373,0.0158081-0.022934,0.03162-0.0347595,0.0474281
		c-0.0559692,0.0745697-0.1161346,0.145565-0.1790161,0.2144661c-0.0091248,0.0128288-0.0182343,0.0253563-0.0276031,0.0378838
		c-0.0606689,0.0808372-0.1230469,0.1548119-0.1869049,0.2246094c-0.0113373,0.0158081-0.0226898,0.0313187-0.0342712,0.0468292
		c-0.0559692,0.0745735-0.1161346,0.1458626-0.1790009,0.2144699c-0.0113525,0.0161057-0.022934,0.0316162-0.0347748,0.0474281
		c-0.0559692,0.0745697-0.1163788,0.1458626-0.1790009,0.2144661c-0.0086365,0.0119324-0.0172577,0.0238647-0.0258942,0.0357933
		c-0.0618896,0.0823288-0.1247559,0.156601-0.1886292,0.2266998c-0.010849,0.0155106-0.0221863,0.0307236-0.0335236,0.0456352
		c-0.0567169,0.0757675-0.1171265,0.1470566-0.1797485,0.2156639c-0.0110931,0.0155106-0.0224457,0.0310211-0.0340271,0.0462341
		c-0.0564575,0.0754662-0.1171265,0.1470528-0.1797485,0.2156601c-0.0088806,0.0125275-0.017746,0.0247574-0.0268707,0.0369873
		c-0.0611572,0.0814323-0.1237793,0.1557045-0.1876373,0.2258034c-0.0110931,0.015213-0.0221863,0.030426-0.0335388,0.0453377
		c-0.0567017,0.0754662-0.1171112,0.1470566-0.1799927,0.216259c-0.0113373,0.0155106-0.022934,0.0313187-0.0345154,0.0468292
		c-0.0562134,0.0745735-0.1166229,0.1461601-0.1795044,0.215065c-0.0086212,0.0122299-0.0172577,0.0241623-0.0263824,0.0360947
		c-0.061142,0.0817299-0.1237793,0.156002-0.1878815,0.2261009c-0.0110931,0.0158081-0.0224304,0.0310211-0.0340271,0.0465317
		c-0.0559692,0.0745697-0.1163788,0.1458626-0.179245,0.215065c-0.0113525,0.0155106-0.022934,0.0313187-0.0345306,0.0468292
		c-0.0562134,0.0748711-0.1166229,0.1461601-0.1794891,0.215065c-0.0088806,0.0125275-0.0180054,0.0250549-0.0271301,0.0372849
		c-0.0608978,0.0811348-0.1232758,0.1551094-0.187149,0.2252045c-0.0110931,0.0155144-0.0224304,0.0310249-0.0340118,0.0462379
		c-0.0562286,0.0748672-0.1166382,0.1461601-0.1792603,0.2150612c-0.0113373,0.0158119-0.022934,0.0313225-0.0345154,0.046833
		c-0.0559692,0.0745697-0.1163788,0.1461601-0.1792603,0.215065c-0.0110931,0.015213-0.0221863,0.0307236-0.033783,0.0456352
		c-0.0567017,0.0754662-0.1171112,0.1470566-0.1799927,0.2159615c-0.0083771,0.0119286-0.0170135,0.0235634-0.0256348,0.0354958
		c-0.0631256,0.0832214-0.1255035,0.157196-0.188385,0.226696c-0.0110931,0.015213-0.0224304,0.0307236-0.0337677,0.045639
		c-0.0567169,0.0754662-0.1173706,0.1473541-0.1802521,0.2162552c-0.010849,0.0155106-0.0221863,0.0307236-0.0335236,0.045639
		c-0.0567169,0.0757637-0.1173706,0.1473541-0.1802368,0.216259c-0.0088806,0.0125275-0.0180054,0.0250549-0.0271301,0.0372849
		c-0.0618896,0.0820274-0.1240234,0.155407-0.1868896,0.2246094c-0.0111084,0.0158081-0.0226898,0.0313187-0.0342865,0.0468292
		c-0.0564575,0.0751686-0.1168671,0.1464615-0.1797333,0.2156639c-0.0111084,0.0155106-0.0224457,0.0310211-0.0340271,0.0462341
		c-0.0562286,0.0748672-0.1166382,0.1461601-0.1795044,0.2150612c-0.0110931,0.0158119-0.0226898,0.0313225-0.0342712,0.046833
		c-0.0564728,0.0751686-0.1173706,0.1470528-0.1807404,0.2162552c-0.010849,0.0155144-0.0219421,0.0307236-0.0332794,0.045639
		c-0.0562134,0.0748711-0.1168671,0.1464577-0.1797485,0.2156601c-0.0110931,0.0155106-0.0224304,0.0310211-0.0340271,0.0462341
		c-0.0562134,0.0745735-0.1163788,0.1461601-0.1795044,0.215065c-0.0110931,0.0158081-0.0226746,0.0313225-0.0342712,0.046833
		c-0.0562134,0.0748672-0.1166229,0.1461601-0.1794891,0.2150612c-0.0086365,0.0122299-0.0175171,0.0241623-0.0263824,0.0363922
		c-0.0623932,0.0826263-0.124527,0.1563034-0.1876373,0.2255058c-0.010849,0.0155106-0.0222015,0.0307236-0.0335388,0.0456352
		c-0.0569611,0.0757675-0.1173706,0.1473541-0.1802368,0.2165565c-0.0110931,0.015213-0.0222015,0.030426-0.0335388,0.0453415
		c-0.0567017,0.0757637-0.1173706,0.1473503-0.1802368,0.2162552c-0.0086365,0.0122299-0.0175018,0.0241623-0.0263824,0.0363922
		c-0.0614014,0.0814323-0.1240234,0.156002-0.1881256,0.2261009c-0.010849,0.015213-0.021698,0.0301247-0.0330505,0.0450401
		c-0.0567017,0.0757637-0.1173553,0.1473541-0.180481,0.2165565c-0.0110931,0.0155106-0.0224304,0.0310211-0.0340271,0.0465317
		c-0.0562134,0.0748711-0.1166229,0.1464577-0.1797485,0.2153625c-0.0086212,0.0122299-0.0172577,0.0238647-0.0261383,0.0357933
		c-0.0613861,0.0817337-0.1240234,0.1563034-0.1881256,0.2264023c-0.0106049,0.015213-0.021698,0.0301285-0.0327911,0.0450363
		c-0.0569611,0.0757675-0.1176147,0.1476517-0.1807404,0.2165604c-0.0110931,0.0158081-0.0224304,0.0313187-0.0340271,0.0465317
		c-0.0564575,0.0751648-0.1168671,0.146759-0.1797333,0.2156601c-0.0088806,0.0122299-0.0177612,0.0244598-0.026886,0.0366898
		c-0.0608978,0.081131-0.1235199,0.1554108-0.1876373,0.2257996c-0.0110931,0.0155106-0.0221863,0.030426-0.0335236,0.045639
		c-0.0564728,0.0751724-0.1168823,0.146759-0.1799927,0.2156601c-0.0111084,0.0155106-0.0224457,0.0310211-0.033783,0.0462341
		c-0.0562134,0.0748749-0.1168823,0.146759-0.1799927,0.2159653c-0.0083923,0.0119247-0.0170135,0.0235596-0.0258942,0.0354919
		c-0.0613861,0.0817337-0.1242676,0.1563034-0.1883698,0.2266998c-0.010849,0.0149155-0.021698,0.0298233-0.0327911,0.0444412
		c-0.0569611,0.0760651-0.1176147,0.1479492-0.1809845,0.2171555c-0.0106049,0.015213-0.021698,0.0301285-0.0327911,0.0447388
		c-0.0567169,0.0757675-0.1176147,0.1476517-0.1804962,0.2168579c-0.010849,0.015213-0.0219421,0.0301285-0.0332794,0.0450363
		c-0.0572052,0.0763626-0.118103,0.1485519-0.1814728,0.2180481c-0.0110931,0.0149155-0.0219421,0.0301285-0.0332947,0.0450439
		c-0.0567017,0.07547-0.1171112,0.1470566-0.1799927,0.2159576c-0.0110931,0.0155106-0.0224304,0.0307236-0.0337677,0.0459366
		c-0.0564728,0.0751724-0.1171265,0.146759-0.1802521,0.2159576c-0.0086212,0.0122299-0.0175018,0.0244598-0.0263824,0.0363922
		c-0.0606537,0.0808334-0.1230316,0.154808-0.1868896,0.2249069c-0.0088806,0.0125275-0.0177612,0.0247574-0.0268707,0.0369873
		c-0.0618896,0.0820312-0.1242828,0.1560059-0.1873932,0.2255096c-0.0110931,0.0155106-0.0224457,0.0307236-0.033783,0.0459366
		c-0.0564575,0.0751648-0.1171112,0.147049-0.1802368,0.2162552c-0.0110931,0.015213-0.0221863,0.030426-0.0335388,0.045639
		c-0.0564575,0.0751648-0.1171112,0.1467514-0.1802368,0.2162552c-0.0083771,0.0116348-0.0170135,0.0232697-0.02565,0.0348969
		c-0.0613861,0.0820312-0.1242676,0.156601-0.1886139,0.2272949c-0.010849,0.015213-0.0219421,0.030426-0.0332947,0.0453415
		c-0.0564575,0.0754623-0.1171112,0.1470566-0.1802368,0.2162552c-0.010849,0.0149155-0.021698,0.0298309-0.0327911,0.0444489
		c-0.0572052,0.0760574-0.1178589,0.1482468-0.1809845,0.2174454c-0.0105896,0.0149155-0.021698,0.0298309-0.0327911,0.0444489
		c-0.0572052,0.0760651-0.1178589,0.1482468-0.1809692,0.2174454c-0.0083923,0.0116348-0.0170135,0.0235672-0.02565,0.035202
		c-0.0623779,0.0826263-0.1247559,0.156601-0.1881256,0.2260971c-0.010849,0.015213-0.021698,0.0301285-0.0330505,0.0450439
		c-0.0569458,0.0760651-0.1178589,0.1482468-0.1809692,0.217453c-0.0110931,0.0155106-0.0222015,0.030426-0.0335388,0.045639
		c-0.0564575,0.0751648-0.1171112,0.147049-0.1802368,0.2162552c-0.0083771,0.0116348-0.0170135,0.023262-0.02565,0.0348969
		c-0.0621338,0.0826263-0.1247559,0.1568985-0.1881256,0.2266998c-0.010849,0.015213-0.021698,0.0298309-0.0327911,0.0447388
		c-0.6026001,0.8012009-1.4623871,1.2871094-2.3583984,1.3321457c-8.1174622,0.4098511-8.1231232,0.4098511-8.1768799,0.4098511
		c-0.8799896,0-1.7131348-0.406868-2.3460693-1.1451263c-0.6622772-0.7728577-1.039032-1.8532486-1.0343475-2.9646606
		l0.0071411-1.7482529c-0.0125732,0.0178909-0.0251465,0.0357895-0.038208,0.0533905
		c-0.0559692,0.0909729-0.1151428,0.1795654-0.1772919,0.2648773c-0.0559692,0.0906754-0.1148987,0.1789703-0.1765289,0.2633896
		c-0.0559692,0.0909729-0.1148987,0.1789703-0.1767883,0.2639771c-0.0557251,0.0903854-0.1144104,0.1780777-0.1755524,0.2621994
		c-0.0562286,0.091568-0.1156464,0.179863-0.177536,0.2648773c-0.0557251,0.0909729-0.1148987,0.1792679-0.1767883,0.2639847
		c-0.0559692,0.0909729-0.1146545,0.1789703-0.1763,0.2636795c-0.0562134,0.0909805-0.1151428,0.1792755-0.1770325,0.2639847
		c-0.0559692,0.0909805-0.1151428,0.1792679-0.1767883,0.2639847c-0.0562134,0.0912781-0.115387,0.1795654-0.1770325,0.2642822
		c-0.0559692,0.0906754-0.1146545,0.1783752-0.1760406,0.2624893c-0.0559692,0.0909805-0.1148987,0.1789703-0.1765442,0.2636871
		c-0.5774536,0.9384079-1.4503021,1.5293121-2.4190674,1.6304321l-15.5393372,1.6256561
		c-0.0988617,0.0104446-0.1962585,0.0155106-0.2929077,0.0155106c-0.695816,0-1.3521729-0.2550354-1.898819-0.7072372
		c-0.1656799,0.0390778-0.3345795,0.0632401-0.5052032,0.0715942c-7.45961,0.364502-7.4662781,0.364502-7.5175629,0.364502
		c-1.5553284,0-2.8648529-1.2471313-3.2588654-2.9998627c-0.0066528,0.0164032-0.0135498,0.032814-0.0207062,0.0489197
		c-0.0315552,0.0876923-0.0655823,0.174202-0.1020813,0.2589111c-0.5365295,1.5039597-1.7368011,2.4662323-3.0953827,2.4662323
		c-0.0207214,0-0.0226898,0-7.1062927-0.1357193c-0.9263458-0.0181961-1.8159485-0.5026169-2.4409943-1.3291626
		c-0.6250458-0.8277512-0.9445953-1.9430389-0.8765411-3.0601196l0.3116608-5.1188889l-1.6315308,0.0498123
		c-0.0002441,0.001194-0.0005035,0.0020905-0.0009918,0.0032806c-0.0175018,0.0805397-0.0391998,0.1703224-0.0660858,0.2663727
		c-0.0172577,0.0790443-0.0384521,0.1667404-0.0645905,0.2604027c-0.0175018,0.0796432-0.0387115,0.1685295-0.0655823,0.2639809
		c-0.0175171,0.0799408-0.0389709,0.1691284-0.0655975,0.2639847c-0.0175018,0.0796432-0.0389557,0.168232-0.0653381,0.2627907
		c-0.0175018,0.0796432-0.0389557,0.168232-0.0653381,0.2627907c-0.0175018,0.0796432-0.0387115,0.1679306-0.0653381,0.2621918
		c-0.0192413,0.0876999-0.0406799,0.1744995-0.0643616,0.2601089c-0.017746,0.0805359-0.0391998,0.1703186-0.0660706,0.2660675
		c-0.0175018,0.0787506-0.0384674,0.1664429-0.0646057,0.2595062c-0.0175018,0.080246-0.0389557,0.1694336-0.0658264,0.26548
		c-0.0175171,0.0790405-0.0384674,0.167038-0.065094,0.2615967c-0.0175171,0.0793457-0.0387115,0.1682358-0.0653381,0.263382
		c-0.0175171,0.0790482-0.0387115,0.1670456-0.0648499,0.2610016c-0.0175018,0.0796432-0.0387115,0.1685333-0.0655823,0.2642822
		c-0.0175171,0.0793457-0.0387115,0.1679382-0.0655975,0.263092c-0.0172577,0.078743-0.0384674,0.1664429-0.0648499,0.2606964
		c-0.0172577,0.0793457-0.0384521,0.1676407-0.065094,0.2624969c-0.0172577,0.0796432-0.0386963,0.1685333-0.0655823,0.2642822
		c-0.0175018,0.0793381-0.0387115,0.1679306-0.0653381,0.2630844c-0.0172577,0.0787506-0.0384674,0.1667404-0.0648499,0.2610016
		c-0.0170135,0.0775528-0.0384674,0.1664429-0.0653381,0.2621918c-0.0170135,0.0775528-0.0382233,0.1664429-0.065094,0.2624969
		c-0.0179901,0.0823212-0.0401917,0.1744919-0.0682983,0.2735214c-0.3831635,1.6862183-1.5878906,2.8820419-3.0349731,2.9947968
		l-8.1598663,0.6320648c-0.0695343,0.0053711-0.1432495,0.0083542-0.2159882,0.0083542
		c-0.8264923,0-1.6157532-0.3615189-2.2336426-1.020134c-0.3156128,0.1410828-0.6499481,0.225502-0.9926758,0.2472763
		l-8.6113281,0.541687c-0.0571976,0.0035782-0.117363,0.0056686-0.1770325,0.0056686
		c-1.0079575,0-1.9227219-0.544075-2.5455475-1.4073181c-0.5700607,0.5604858-1.2720337,0.8793488-2.0186386,0.908287
		c-8.2224808,0.3182678-8.2269211,0.3182678-8.2680969,0.3182678c-0.4699554,0-0.9268417-0.116333-1.3472366-0.3376617
		c-0.3249741,0.1434784-0.6681976,0.2269974-1.0178299,0.2440033c-7.4591141,0.364502-7.4657745,0.364502-7.5173035,0.364502
		c-1.5380783,0-2.876442-1.2811356-3.2620697-3.0490799c-0.4418488,1.6456451-1.7183228,2.8226776-3.214241,2.8232803
		c-0.0209579,0-0.0234222,0-7.1070175-0.1357193c-0.3358231-0.0065689-0.6684418-0.0760651-0.9865112-0.2028351
		c-0.2985916,0.1046982-0.6097565,0.1580887-0.9273376,0.1580887c-0.0091248,0-0.0098648,0-16.1784363-0.1354218
		c-0.9036636-0.0080566-1.7501221-0.440567-2.3840485-1.2184982c-0.0954208-0.1175232-0.1844254-0.2410126-0.2670288-0.369873
		l-4.9081421,2.4155197C64.8694153,72.7174149,64.4406357,72.8191299,64.0019913,72.8191299z"/>
	<path class="st1" d="M235.5284576,25.2955894l-0.3816833-9.3515682c-0.0478363-1.1728611-0.8484344-2.0906878-1.8149719-2.0906878
		c-0.012085,0-22.4121246,0.5261765-22.4121246,0.5261765c-0.4444122,0.0103655-0.8432617,0.2203217-1.1540527,0.5485115
		c-0.0746155-0.1420221-0.1590729-0.2768841-0.2602539-0.3963852c-0.3402557-0.4017916-0.7961578-0.6258039-1.2700653-0.6258039
		c-0.0184937,0-10.0270996,0.3689795-10.0270996,0.3689795c-0.039444,0.0014915-0.0791473,0.0044746-0.1185913,0.0089483
		l-7.6812744,0.8933678c-0.6928558,0.0805368-1.2636871,0.6299801-1.5100403,1.3794975
		c-0.0525208,0.1044006-0.0977631,0.2136478-0.1355133,0.3285637c-0.0524902,0.1042881-0.0976105,0.2134609-0.1353302,0.3282623
		c-0.0525513,0.1043262-0.0977325,0.2135735-0.135498,0.3284512c-0.0525818,0.1043625-0.0977631,0.2136841-0.1354828,0.3285999
		c-0.0525208,0.1042137-0.097702,0.2134609-0.1353912,0.3283005c-0.0526428,0.1043262-0.0977936,0.2136478-0.135498,0.3285999
		c-0.0526428,0.1042881-0.0978241,0.2136097-0.1354828,0.3285618c-0.0525818,0.1041756-0.097702,0.2133865-0.1353302,0.3281898
		c-0.0526733,0.10425-0.0978546,0.2136097-0.1355286,0.3285618c-0.0526733,0.1041756-0.0977631,0.2134228-0.1353912,0.3283386
		c-0.0527039,0.10425-0.0978546,0.2136841-0.1355133,0.3286743c-0.0526733,0.1041393-0.0977631,0.2134228-0.1354065,0.3283386
		c-0.0527344,0.1041374-0.0978241,0.2134972-0.1354523,0.328413c-0.0527649,0.1042137-0.0978546,0.2136097-0.1354828,0.3286362
		c-0.0527344,0.1040649-0.0977936,0.2133484-0.135376,0.3282261c-0.0528259,0.1041775-0.0979462,0.2136478-0.1355438,0.3286743
		c-0.0528259,0.1041012-0.0978851,0.2134991-0.1354523,0.3284874c-0.0527954,0.1040268-0.0978241,0.2133865-0.135376,0.3283005
		c-0.0528564,0.1040649-0.0979462,0.2134991-0.1354828,0.3284893c-0.052887,0.1041012-0.0979156,0.2135353-0.1354523,0.3285618
		c-0.0528564,0.1039886-0.0978241,0.2133121-0.135376,0.3282261c-0.052948,0.1040649-0.0980072,0.2135735-0.1355438,0.3286362
		c-0.0529175,0.1039524-0.0978851,0.2133865-0.1353912,0.3283768c-0.052948,0.1039524-0.0979156,0.2133484-0.135437,0.3283386
		c-0.0530396,0.1040268-0.0980377,0.2136097-0.1355438,0.3287106c-0.0091248,0.0178967-0.0172272,0.0365028-0.0259247,0.0547733
		l-5.5193481-9.7985134c-0.3395233-0.6022396-0.9024353-0.9607792-1.5020752-0.9607792
		c-0.0219421,0-8.4631348,0.369278-8.4631348,0.369278c-0.6445312,0.0283375-1.2286377,0.4677124-1.5346375,1.1546659
		l-6.0593567,13.6066198c-0.0746155,0.1676731-0.1238098,0.3476887-0.1603241,0.5317688
		c-0.0328674,0.099144-0.0620728,0.1985836-0.0826416,0.3023129c-0.0328522,0.099144-0.0620728,0.1986217-0.0826263,0.302351
		c-0.0329132,0.0991802-0.0620728,0.198658-0.0826263,0.3024254c-0.0328827,0.0990677-0.0620728,0.1985455-0.0826263,0.3022385
		c-0.0329285,0.0991783-0.0621338,0.1987686-0.0827026,0.3025723c-0.0328827,0.0990314-0.0620422,0.1984348-0.0825653,0.3021278
		c-0.0329437,0.0991058-0.0621033,0.1985836-0.0826263,0.3023491c-0.03302,0.0991802-0.0621643,0.1987724-0.0827026,0.3025742
		c-0.0016937,0.0051079-0.003479,0.0101814-0.0051727,0.0153236l-0.0051727-0.1575699
		c0.0272369-0.0828476,0.0437927-0.1697235,0.0621948-0.2562256c0.0358734-0.100523,0.0621948-0.2043648,0.0847931-0.3105545
		c0.0358734-0.1005211,0.0622253-0.2044735,0.0848389-0.3106651c0.0358429-0.1005211,0.0621338-0.2043991,0.0847931-0.3105526
		c0.0358734-0.1005592,0.0621643-0.2045116,0.0848541-0.3107014c0.0358429-0.1005611,0.0621643-0.2044392,0.0848083-0.3105907
		c0.0358429-0.100523,0.0621033-0.204401,0.0847931-0.3105164c0.0358429-0.1005592,0.0621338-0.2045116,0.0848541-0.3106651
		c0.0358429-0.1005592,0.0620728-0.2044754,0.0848083-0.310627c0.0358124-0.1005592,0.0620117-0.2044373,0.0847931-0.3105526
		c0.0358124-0.1005974,0.0620422-0.2045135,0.0848236-0.3106289c0.0358124-0.1005592,0.0620117-0.2044373,0.0848083-0.3105526
		c0.0358124-0.1005974,0.0620422-0.2045116,0.0848541-0.3106651c0.0358124-0.1005592,0.0619812-0.2045116,0.0848236-0.310627
		c0.0357819-0.1005611,0.0619507-0.2044754,0.0848083-0.3105545c0.0357819-0.1005955,0.0619202-0.2045116,0.0847931-0.310627
		c0.0357819-0.1005974,0.0619507-0.2045498,0.0848541-0.3106651c0.0357513-0.1005974,0.0618896-0.2045498,0.0848083-0.310627
		c0.0357666-0.1005611,0.0618896-0.2044754,0.0848236-0.3105164c0.0357513-0.1005974,0.0618591-0.2045879,0.0848236-0.310627
		c0.0357208-0.1005974,0.0618286-0.2045879,0.0848236-0.3106289c0.1056519-0.2973919,0.1621399-0.6194649,0.1516876-0.9495182
		l-0.2862549-9.0887785c-0.0372314-1.1847925-0.8430176-2.1154451-1.8152161-2.1154451
		c-0.0222015,0-19.3418884,0.842061-19.3418884,0.842061c-0.929184,0.0406046-1.6654053,0.9225616-1.7379761,2.023984
		c-0.0208435,0.1068974-0.0317841,0.2170773-0.0391846,0.3292694c-0.0208282,0.1068993-0.0317993,0.2170048-0.0391388,0.3291969
		c-0.0208588,0.1069355-0.0318604,0.2172642-0.0392303,0.3294945c-0.0208435,0.1069355-0.0318756,0.2171898-0.0391693,0.3294201
		c-0.020874,0.1068611-0.0318756,0.2170773-0.0391846,0.3292694c-0.0208282,0.1068611-0.0319214,0.217041-0.0391693,0.3292332
		c-0.0208893,0.1069736-0.0319214,0.2171898-0.0391998,0.3294582c-0.020874,0.1068611-0.0319672,0.2170391-0.0391693,0.3292332
		c-0.0209045,0.1068974-0.0319977,0.2171154-0.0392151,0.3294201c-0.0208893,0.106823-0.0319519,0.2169285-0.0391388,0.3291206
		c-0.0209198,0.1069355-0.0320587,0.2171898-0.0392303,0.3295307c-0.0209045,0.1068993-0.0320587,0.2170792-0.0391693,0.3293457
		c-0.0209351,0.1068993-0.0320587,0.217041-0.0391846,0.3293076c-0.0208893,0.1068249-0.032074,0.2169285-0.0391693,0.3291969
		c-0.0209503,0.1068974-0.0321198,0.2171154-0.0391998,0.3294201c-0.0209656,0.1068974-0.0321198,0.2170029-0.0391693,0.3293438
		c-0.0209656,0.1068611-0.0321808,0.2170048-0.0392151,0.3293457c-0.0209503,0.106823-0.0321045,0.2169285-0.0391388,0.3291969
		c-0.0209656,0.1068974-0.0322418,0.2171135-0.0392303,0.3294945c-0.0209656,0.1068592-0.0322113,0.2170029-0.0391846,0.3293438
		c-0.0209808,0.1068611-0.032196,0.2169666-0.0391693,0.3293076c-0.0209503,0.1067867-0.0322418,0.2168922-0.0391693,0.3291969
		c-0.0210266,0.1068611-0.0323029,0.217041-0.0391998,0.3294201c-0.0210266,0.1068611-0.0323334,0.2169647-0.0392151,0.3293438
		c-0.0209808,0.1068611-0.0322876,0.2170048-0.0391693,0.3293839c-0.0210114,0.1067867-0.0323029,0.2168541-0.0391388,0.3291588
		c-0.0210571,0.1068974-0.0324249,0.2170773-0.0392303,0.3295689c-0.0210266,0.106823-0.0323639,0.2168903-0.0391846,0.3292694
		c-0.0210419,0.1067867-0.0324249,0.2168541-0.0391693,0.3291969c-0.0210419,0.106823-0.0324249,0.2169647-0.0391693,0.3293819
		c-0.0210571,0.106823-0.032486,0.2169285-0.0391998,0.3293457c-0.0210876,0.106823-0.0325165,0.2169285-0.0392151,0.3293457
		c-0.0210419,0.106823-0.0325165,0.2169285-0.0391693,0.3293438c-0.0210876,0.1067505-0.032486,0.2168179-0.0391388,0.3291969
		c-0.0211182,0.1068611-0.032608,0.2170029-0.0392303,0.3294945c-0.0210876,0.106823-0.0325775,0.2169285-0.0391846,0.3293819
		c-0.0211029,0.1067867-0.0325775,0.2168903-0.0391693,0.3293457c-0.0210876,0.1067486-0.032608,0.2167797-0.0391693,0.329195
		c-0.0211182,0.1067867-0.0326691,0.2168179-0.0392151,0.3293076c-0.0211334,0.1068249-0.0326691,0.2169285-0.0391998,0.3294201
		c-0.0211029,0.1067867-0.0326996,0.2168179-0.0391693,0.3293076c-0.0211487,0.1067505-0.0326691,0.2167797-0.0391388,0.3292332
		c-0.0211792,0.1068249-0.0327911,0.2169285-0.0392456,0.3294582c-0.0211639,0.1067867-0.0327606,0.2168541-0.0391693,0.3293438
		c-0.0211639,0.1067505-0.0327911,0.2167435-0.0391693,0.3292351c-0.0211792,0.1067848-0.0327911,0.2168522-0.0391693,0.3293819
		c-0.0211792,0.1067867-0.0328674,0.2168159-0.0392151,0.3294201c-0.0211639,0.1067104-0.0328522,0.2167034-0.0391693,0.329195
		c-0.0212402,0.1067848-0.0329132,0.2168541-0.0391998,0.3294182c-0.0212097,0.106678-0.0328827,0.216671-0.0391388,0.3291588
		c-0.0212402,0.1068268-0.03302,0.2169304-0.0392456,0.3295708c-0.021225,0.1067505-0.0329742,0.2167435-0.0391693,0.3292694
		c-0.0212097,0.1067886-0.0330048,0.2168159-0.0391693,0.329422c-0.0212402,0.1066742-0.0330048,0.2165909-0.0391693,0.3290825
		c-0.0212708,0.1067886-0.0330505,0.2167816-0.0392151,0.329422c-0.0128479,0.0645027-0.021698,0.12994-0.0290833,0.1967163
		c-0.0830688-0.5299416-0.3230438-0.9954529-0.665451-1.3199883l0.0075989-0.1107407
		c0.0054626-0.0445938,0.019577-0.0860901,0.0226898-0.1313553l0.0119629-0.1737175
		c0.0054169-0.0444794,0.0195007-0.0858688,0.0226135-0.1310196l0.0119629-0.1734543
		c0.0054321-0.0445938,0.0195465-0.0860176,0.0226593-0.1312828l0.0119476-0.1737518
		c0.0054016-0.0444832,0.019516-0.0858307,0.0226288-0.1309853l0.0119629-0.1736774
		c0.0053864-0.0445194,0.0195007-0.0859051,0.0226135-0.1310596l0.0119324-0.1734161
		c0.0054169-0.0445938,0.019577-0.0860538,0.0226898-0.131319l0.0119476-0.1736412
		c0.0054016-0.0445175,0.019516-0.0859051,0.0226288-0.1310577l0.0119629-0.1737156
		c0.0053864-0.0444813,0.0195007-0.0858688,0.0226135-0.1310215l0.0119629-0.1734543
		c0.0053864-0.0445938,0.0195312-0.0860176,0.022644-0.1312828l0.0119629-0.1737518
		c0.0053711-0.0444813,0.019516-0.0858307,0.0226288-0.1309853l0.0119476-0.1737518
		c0.0053711-0.0444813,0.019516-0.0858307,0.0226288-0.1309834l0.0119324-0.1733799
		c0.0053864-0.0446301,0.0195618-0.086092,0.0226746-0.1313572l0.0119629-0.1736393
		c0.0053711-0.0445194,0.019516-0.0858688,0.0226288-0.1310596l0.0119476-0.1737156
		c0.0053711-0.0445175,0.019516-0.0858688,0.0226288-0.1310215l0.0119629-0.1734161
		c0.0053558-0.0445938,0.0195312-0.0860558,0.022644-0.131321l0.0119629-0.1737518
		c0.0053558-0.0445175,0.019516-0.0858307,0.0226288-0.1309834l0.7633667-11.0849094
		c0.0406799-0.5906067-0.1173706-1.1761417-0.4386444-1.6238699c-0.3210297-0.4477272-0.7779236-0.7197638-1.2671051-0.7540674
		l-9.6851196-0.683075c-0.0352554-0.0026846-0.0705185-0.0038776-0.1057739-0.0038776
		c-0.4526978,0-0.8905945,0.2046242-1.2264175,0.5759907c-0.3622055,0.4003-0.5749969,0.9607792-0.5905304,1.553772
		l-0.0082245,0.3146915c-0.0001526,0.0046978-0.0013885,0.0091362-0.0015106,0.013834l-0.0082321,0.3147278
		c-0.0001526,0.0046997-0.0013885,0.0091362-0.0015106,0.013834l-0.0082245,0.3146915
		c-0.0001602,0.0046978-0.0013885,0.0091362-0.0015106,0.013834l-0.0082321,0.3146915
		c-0.0001526,0.0046978-0.0013885,0.0091343-0.0015106,0.0138321l-0.0082321,0.3146915
		c-0.0001526,0.0046997-0.0013809,0.0091362-0.001503,0.013834l-0.0082321,0.3147297
		c-0.0001526,0.0046978-0.0013885,0.0091343-0.0015106,0.0138321l-0.0082321,0.3150272
		c-0.0001526,0.0045872-0.0013504,0.0089111-0.0014801,0.0134983l-0.0082245,0.3146915
		c-0.0001526,0.0046978-0.0013885,0.0091343-0.0015106,0.0138321l-0.0082321,0.3146935
		c-0.0001526,0.0046978-0.0013885,0.0091343-0.0015106,0.0138321l-0.0082245,0.3147297
		c-0.0001526,0.0046978-0.0013885,0.0091343-0.0015106,0.0138321l-0.0082321,0.3146915
		c-0.0001526,0.0046997-0.0013885,0.0091362-0.0015106,0.013834l-0.0082245,0.3146915
		c-0.0001602,0.0046978-0.0013885,0.0091343-0.0015106,0.013834l-0.0082321,0.3146915
		c-0.0001526,0.0046978-0.0013885,0.0091343-0.0015106,0.0138321l-0.0082321,0.3147297
		c-0.0001526,0.0046978-0.0013809,0.0091343-0.001503,0.0138321l-0.0082321,0.3146935
		c-0.0001526,0.0046978-0.0013885,0.0091343-0.0015106,0.0138321l-0.0082321,0.3146915
		c-0.0001526,0.0046978-0.0013809,0.0091362-0.0015106,0.013834l-0.0082245,0.3147278
		c-0.0001526,0.0046997-0.0013885,0.0091362-0.0015106,0.013834l-0.0082321,0.3146915
		c-0.0001526,0.0046978-0.0013885,0.0091343-0.0015106,0.013834l-0.0082245,0.3146915
		c-0.0001526,0.0046978-0.0013885,0.0091343-0.0015106,0.0138321l-0.0082321,0.3146915
		c-0.0001526,0.0046978-0.0013885,0.0091362-0.0015106,0.013834l-0.0082245,0.3147297
		c-0.0001602,0.0046978-0.0013885,0.0091343-0.0015106,0.0138321l-0.0082321,0.3146915
		c-0.0001526,0.0046978-0.0013885,0.0091362-0.0015106,0.013834l-0.0082321,0.3146915
		c-0.0001526,0.0046978-0.0013809,0.0091343-0.001503,0.0138321l-0.0082321,0.3146935
		c-0.0001526,0.0046978-0.0013885,0.0091343-0.0015106,0.0138321l-0.0036697,0.1407909l-1.2923126,1.0324421l-0.1316681-8.9226322
		c-0.0177536-1.2006016-0.8277206-2.1598892-1.8171921-2.1598892c-0.008873,0-8.99646,0.157793-8.99646,0.157793
		c-1.0037689,0.0175991-1.805603,1.0159626-1.7912979,2.2302856l0.2608032,22.1475201l-0.8806686-10.4245777
		c-0.0308228-0.3636112-0.1361084-0.7126045-0.3062363-1.0147686l-7.0133286-12.4507618
		c-0.3395233-0.6022396-0.9024353-0.9607792-1.5020828-0.9607792c-0.0219421,0-8.4631348,0.369278-8.4631348,0.369278
		c-0.6445236,0.0283375-1.2286377,0.4677124-1.5346298,1.1546659l-4.5535507,10.2252855
		c-0.0046234-0.0184937-0.0080109-0.0373974-0.0130692-0.0557423c-0.0146713-0.1129017-0.0405884-0.2218876-0.0702362-0.3297176
		c-0.0146713-0.1128273-0.0405884-0.2217388-0.0702133-0.3295689c-0.0146713-0.1129017-0.0406189-0.2218876-0.0702362-0.3297939
		c-0.0146713-0.1128254-0.0406876-0.2217369-0.0702438-0.3295689c-0.0146713-0.1129379-0.0406494-0.221962-0.0702362-0.3298664
		c-0.0147018-0.1128273-0.0407181-0.2217388-0.0702438-0.3295689c-0.0147018-0.1128273-0.0407104-0.2217007-0.0702057-0.3295689
		c-0.0147018-0.1129379-0.0407486-0.2218494-0.0702438-0.329792c-0.0147324-0.1128654-0.0407791-0.221777-0.0702438-0.3297195
		c-0.0147018-0.1128254-0.0407715-0.2216625-0.0702057-0.3295689c-0.0147018-0.1128998-0.0408401-0.2218113-0.0702438-0.329792
		c-0.0147018-0.1128273-0.040863-0.2217007-0.0702362-0.3296051c-0.0147018-0.1128654-0.0409012-0.221777-0.0702438-0.3297558
		c-0.0147324-0.1128635-0.0409317-0.2217007-0.0702362-0.3296814c-0.0147324-0.1128635-0.0409317-0.2217007-0.0702438-0.3297176
		c-0.0147324-0.1127892-0.0409622-0.2214775-0.0702057-0.3294201c-0.0147324-0.1128635-0.0409927-0.2217388-0.0702438-0.329792
		c-0.0147324-0.1129017-0.0409927-0.2216644-0.0702438-0.3297176c-0.0147324-0.1128654-0.0410538-0.2217026-0.0702362-0.3297195
		c-0.0147629-0.1128635-0.0410843-0.2216625-0.0702438-0.3297176c-0.0147324-0.1128254-0.0410843-0.2215519-0.0702057-0.3295689
		c-0.0147629-0.1128254-0.0411148-0.2215881-0.0702438-0.3296432c-0.0147324-0.1128635-0.0411453-0.2216263-0.0702362-0.3297176
		c-0.0147629-0.1128273-0.0411453-0.2215519-0.0702133-0.329607c-0.0147324-0.1128998-0.0412064-0.2216263-0.0702362-0.3297176
		c-0.0147705-0.1128635-0.041214-0.2216625-0.0702438-0.329792c-0.0147629-0.1128273-0.0412369-0.2215519-0.0702438-0.3296814
		c-0.0147629-0.1128635-0.0412674-0.2215881-0.0702362-0.3297176c-0.0147629-0.1127892-0.0412979-0.221365-0.0702133-0.3294201
		c-0.0147629-0.1128635-0.0413284-0.2216635-0.0702362-0.3298292c-0.0592117-0.4519777-0.2310944-0.87465-0.5014572-1.2044792
		c-0.3414917-0.4170046-0.8065186-0.6511593-1.2910156-0.6511593c-0.0113449,0-16.2556152,0.3680859-16.2556152,0.3680859
		c-0.3281784,0.0074568-0.648468,0.1222973-0.9268417,0.3322906l-1.8130035,1.3658514
		c-0.5288811,0.3982124-0.852375,1.0965004-0.8570595,1.8502693l-0.0228081,3.6927071
		c-0.0107269-0.0269203-0.0226212-0.0528336-0.0342407-0.0791206c-0.0315628-0.1142807-0.0703964-0.2236023-0.1167793-0.3285236
		c-0.0315628-0.1142807-0.0704575-0.2236404-0.1168442-0.3285637c-0.031559-0.11413-0.0703621-0.223341-0.1166573-0.3281879
		c-0.0315895-0.1142445-0.0704231-0.2234917-0.1167488-0.328413c-0.03162-0.1142445-0.0704536-0.2234917-0.1167793-0.3284512
		c-0.0316505-0.1142807-0.070488-0.2236023-0.1168098-0.3285999c-0.0316238-0.1141682-0.0704575-0.223341-0.1167183-0.3282623
		c-0.0316849-0.1142063-0.070488-0.2234917-0.1167793-0.3284874c-0.0316544-0.1141701-0.070488-0.2233791-0.1167183-0.3283386
		c-0.0316849-0.1141701-0.0705185-0.2234173-0.1167488-0.328413c-0.0317154-0.1142445-0.0705795-0.2235661-0.1168098-0.3285999
		c-0.0317154-0.1141319-0.070549-0.2233047-0.1167526-0.3283005c-0.0317116-0.1141319-0.0705452-0.2233429-0.1167145-0.3283386
		c-0.0317459-0.1141701-0.0706139-0.2234535-0.1167831-0.3285255c-0.0317764-0.1141319-0.0705795-0.2233791-0.1167488-0.328413
		c-0.2131233-0.7657003-0.7589912-1.3506021-1.4459877-1.4758453l-7.2044144-1.313652
		c-0.0897484-0.0161076-0.1802406-0.0244589-0.270977-0.0244589c-0.0330391,0-0.0660782,0.001193-0.0991173,0.0032806
		l-14.3131638,0.9455671c-0.972702,0.0644302-1.730896,1.0448961-1.7185669,2.2234249l0.0364914,3.5342426l-0.1193047-0.2224464
		c-0.0113449-0.0230064-0.0198822-0.0476894-0.0319633-0.0702095l-0.1362572-0.2540283
		c-0.0113411-0.0229683-0.0198479-0.0476513-0.031929-0.0701714l-0.1362305-0.2539539
		c-0.0113716-0.0230045-0.0198784-0.0476875-0.0319595-0.0702457l-0.1360741-0.2536926
		c-0.0114021-0.0230789-0.0199738-0.0478745-0.0320854-0.070507l-0.1362267-0.2540283
		c-0.0113716-0.0230045-0.0198784-0.0476513-0.0319595-0.0701714l-0.1362305-0.2539902
		c-0.0113716-0.0230064-0.0198784-0.0476894-0.0319595-0.0702095l-4.93083-9.1931782
		c-0.3306446-0.6165571-0.8942947-0.9926958-1.5018349-1.0019426L21.2240353,8.275383
		c-0.0076427-0.0002985-0.0914764,0.0008955-0.1255016,0.0032816L7.5388761,9.203948
		C7.0652227,9.2361631,6.6206641,9.4911976,6.3003745,9.9147635l-0.2803454,0.370472
		c-0.3153582,0.4164066-0.4859819,0.9640608-0.4766126,1.5287161l0.6164155,37.389267
		c0.011157,0.6756935,0.2785578,1.2677917,0.6829262,1.6619377c0.0690079,0.0949669,0.1441178,0.1813583,0.2255464,0.2606659
		c0.0689464,0.0948944,0.1440258,0.1812096,0.2253923,0.260479c0.0689154,0.0949287,0.1439328,0.1812477,0.2253308,0.260479
		c0.0689459,0.095005,0.1440253,0.1813965,0.2255154,0.2606659c0.0689154,0.0949669,0.1439638,0.181282,0.2253923,0.2605133
		c0.0689154,0.095005,0.1439943,0.1813583,0.2254848,0.2605896c0.0688839,0.095005,0.1439018,0.1813202,0.2253923,0.2605171
		c0.0688839,0.0950394,0.1439638,0.1813965,0.2254534,0.2605896c0.0688848,0.0950432,0.1439333,0.1813583,0.2254229,0.2605171
		c0.0688543,0.0950012,0.1439028,0.1813927,0.2254238,0.2605515c0.0688534,0.0950775,0.1439323,0.1815071,0.2254848,0.2606277
		c0.0688219,0.0950432,0.1438398,0.1814308,0.2253609,0.260479c0.0688229,0.0951157,0.1439333,0.1815453,0.2254848,0.2606277
		c0.0688229,0.0951157,0.1438713,0.181469,0.2254229,0.2605133c0.0687923,0.0951157,0.1438103,0.1815453,0.2253923,0.2605553
		c0.0688229,0.0951538,0.1439018,0.1815796,0.2255154,0.2606277c0.0687923,0.0951157,0.1438408,0.1815796,0.2254543,0.2605896
		c0.0687304,0.0951157,0.1437483,0.1815453,0.2253609,0.260479c0.0687618,0.0951538,0.1438103,0.1816559,0.2254543,0.2605896
		c0.0687304,0.095192,0.1437788,0.1816177,0.2254543,0.2605515c0.0687294,0.095192,0.1437788,0.1816559,0.2254534,0.2605896
		c0.0687304,0.095192,0.1437483,0.1816216,0.2254229,0.2605171c0.0686998,0.095192,0.1436558,0.1815834,0.2252998,0.2604408
		c0.0687304,0.0953026,0.1438103,0.1818047,0.2255468,0.260704c0.0686684,0.0952263,0.1436863,0.1817284,0.2254229,0.2605515
		c0.0686378,0.0952263,0.1436863,0.1816559,0.2253923,0.260479c0.0686684,0.0952644,0.1436863,0.1817665,0.2254534,0.2605896
		c0.0686693,0.0953026,0.1437178,0.181881,0.2255163,0.2606659c0.0686378,0.0952644,0.1436243,0.1817665,0.2253609,0.260479
		c0.0686378,0.0953369,0.1436558,0.1818771,0.2254543,0.2605896c0.0686064,0.0953369,0.1436558,0.1818771,0.2254534,0.2605896
		c0.0685768,0.0953026,0.1435633,0.1818047,0.2253923,0.260479c0.0686073,0.0953751,0.1436253,0.1819153,0.2254543,0.2605896
		c0.0686064,0.0953751,0.1435633,0.1819534,0.2254534,0.2605896c0.0685148,0.0953407,0.1435013,0.181881,0.2253618,0.260479
		c0.0685759,0.0953751,0.1435633,0.1819916,0.2254534,0.2605896c0.0685453,0.0954514,0.1435947,0.1820679,0.2255163,0.2606277
		c0.0685139,0.0954132,0.1434698,0.1819534,0.2253609,0.260479c0.0684843,0.0954132,0.1434402,0.1819916,0.2253618,0.2605133
		c0.0685139,0.0954895,0.1435633,0.1821442,0.2255459,0.2606659c0.0684223,0.0953789,0.1433792,0.1819534,0.2252998,0.2604027
		c0.0684834,0.0955658,0.1435642,0.1822548,0.2256088,0.2607422c0.0684223,0.0954514,0.1434078,0.1821022,0.2253609,0.2605133
		c0.0684528,0.0954895,0.1434097,0.1821404,0.2254543,0.2605553c0.0683899,0.0954857,0.1433773,0.1821022,0.2253609,0.2604752
		c0.0684528,0.0956039,0.1434708,0.1822929,0.2255459,0.260704c0.0684223,0.095562,0.1433792,0.1821785,0.2254238,0.2605171
		c0.0683918,0.095562,0.1433163,0.1822128,0.2253609,0.2605133c0.0683918,0.0956383,0.1433792,0.1823654,0.2255154,0.2606659
		c0.0683308,0.095562,0.1433163,0.182251,0.2254238,0.2605133c0.0683289,0.0955658,0.1432552,0.1822166,0.2253304,0.2604408
		c0.0683613,0.0956802,0.1433773,0.1824417,0.2255764,0.260704c0.0683002,0.0956039,0.1432247,0.1823273,0.2253323,0.2604752
		c0.0682983,0.0956802,0.1432533,0.1823654,0.2254524,0.2605591c0.0683002,0.0956726,0.1432247,0.1823959,0.2254238,0.2605515
		c0.0682678,0.0956726,0.1432247,0.1824341,0.2254238,0.2605515c0.0682354,0.0956726,0.1431923,0.1824036,0.2253914,0.2605133
		c0.0682678,0.0957489,0.1432247,0.1825562,0.2255154,0.2606659c0.0682068,0.0957108,0.1431618,0.1824799,0.2254238,0.2605133
		c0.0682049,0.0957565,0.1431313,0.182518,0.2253914,0.2605591c0.0681763,0.0957489,0.1431313,0.1825104,0.2254238,0.2605133
		c0.0681744,0.095787,0.1431313,0.182663,0.2254848,0.2606277c0.0681744,0.0957489,0.1430702,0.1825485,0.2253609,0.2604752
		c0.0681763,0.0958633,0.1431618,0.1827393,0.2255459,0.260704c0.0680828,0.095787,0.1430092,0.1825867,0.2253304,0.2604446
		c0.0681458,0.0958939,0.1431007,0.1827316,0.2254848,0.2606277c0.0681152,0.0958557,0.1430397,0.182663,0.2254238,0.2605133
		c0.0680828,0.0958633,0.1430073,0.182663,0.2253914,0.2605133c0.0681152,0.0959015,0.1430397,0.1828156,0.2254543,0.2606277
		c0.0680828,0.0959396,0.1430702,0.1828537,0.2255154,0.2606277c0.2859859,0.4030609,0.7046242,0.6638336,1.1771069,0.6652527
		l18.6391335,0.053093c0.5206261,0,1.0073471-0.3140182,1.2974319-0.8372498l2.4025421-4.3332367
		c0.037014,0.0642776,0.0822296,0.1216965,0.1256866,0.1806107c0.048111,0.0926514,0.1041412,0.1784515,0.1649818,0.2608871
		c0.048111,0.0926895,0.1041451,0.1785965,0.1650467,0.2610016c0.0480804,0.0926514,0.1041107,0.1784515,0.1649818,0.260849
		c0.048111,0.0926971,0.104084,0.1786041,0.1649857,0.2609634c0.0480804,0.0926208,0.1040497,0.1784134,0.1649208,0.2607422
		c0.0480804,0.0927277,0.1040497,0.1786346,0.1650467,0.2610397c0.0480804,0.0927277,0.1040802,0.1786346,0.1650734,0.2609558
		c0.0480194,0.092659,0.1039276,0.1784897,0.1648941,0.2607422c0.0480461,0.0926895,0.1040192,0.1787109,0.1650429,0.2610016
		c0.0480499,0.0926895,0.1039276,0.1786728,0.1649857,0.2609253c0.0480461,0.0927277,0.1039581,0.1786728,0.1650124,0.2609253
		c0.0480194,0.092659,0.1038666,0.1785965,0.1649513,0.2608109c0.0480499,0.0927734,0.1039276,0.1788254,0.1650467,0.2610397
		c0.0480194,0.0927277,0.1038361,0.1786728,0.1649513,0.2608566c0.0480499,0.092804,0.1038971,0.178894,0.1651077,0.2610703
		c0.0479889,0.092659,0.1037445,0.1786346,0.1648598,0.2606659c0.0656509,0.1268845,0.1396828,0.2477646,0.2297707,0.3539505
		c0.291996,0.3440399,0.6831398,0.536026,1.0899773,0.536026l8.0173416-0.1358719
		c0.4244347-0.0071564,0.8280945-0.2230072,1.1183929-0.5975037c0.2900848-0.374794,0.4418182-0.8762131,0.4199944-1.3888931
		l-0.1703453-4.020153c0.0017586,0.0034294,0.0042534,0.005928,0.0060425,0.0093193l0.1033707,0.213089
		c0.0084457,0.0173759,0.0212059,0.0294571,0.0300217,0.0464249l0.1033707,0.2130814
		c0.0084457,0.0173798,0.0212059,0.0294571,0.0300217,0.0464249l0.1033707,0.213089
		c0.0083847,0.0172958,0.0211143,0.0293427,0.0298958,0.0462341l0.103466,0.2132721
		c0.0084457,0.0174103,0.0212364,0.0295334,0.0300827,0.0465317l0.1033096,0.212944
		c0.0084457,0.0173721,0.0212059,0.0294495,0.0300179,0.0464172l0.1033745,0.213089
		c0.0084457,0.0173721,0.0212059,0.0294571,0.0300179,0.0464172l0.1033745,0.213089
		c0.0084152,0.0173035,0.0211105,0.0293427,0.0298958,0.0462341l0.103466,0.2132797
		c0.0084457,0.0173721,0.0212059,0.0294495,0.0300179,0.0464172l0.1033745,0.213089
		c0.0084457,0.0174103,0.0212364,0.0295334,0.0300789,0.0465317l0.1033134,0.2129364
		c0.0084457,0.0173798,0.0212059,0.0294571,0.0300179,0.0464249l0.1033745,0.213089
		c0.0084152,0.0172958,0.0211105,0.0293427,0.0298958,0.0462341l0.103466,0.2132721
		c0.0084457,0.0173798,0.0211716,0.0294189,0.0299873,0.0463867l0.103405,0.2131271
		c0.0084419,0.0173721,0.0212021,0.0294495,0.0300179,0.0464172l0.1033745,0.213089
		c0.0084419,0.0173721,0.0212021,0.0294571,0.0300179,0.0464172l0.1033745,0.213089
		c0.0084114,0.0173416,0.0211411,0.0294189,0.0299568,0.0463486l0.103405,0.2131271
		c0.0084419,0.0173721,0.0212021,0.0294571,0.0300179,0.0464172l0.1033745,0.213089
		c0.0084419,0.0173721,0.0212021,0.0294571,0.0300179,0.0464249l0.1033745,0.2130814
		c0.0084419,0.0173798,0.0212021,0.0294571,0.0300179,0.0464249l0.1033745,0.213089
		c0.0084114,0.0172958,0.0211105,0.0293427,0.0298958,0.0462341l0.1034622,0.2132721
		c0.0084457,0.0174103,0.0212364,0.0295334,0.0300827,0.0465317l0.1033096,0.212944
		c0.0084457,0.0173721,0.0212059,0.0294495,0.0300217,0.0464172l0.1033707,0.213089
		c0.0084457,0.0173721,0.0212059,0.0294571,0.0300217,0.0464172l0.1033707,0.213089
		c0.2879601,0.5934448,0.8079681,0.9336014,1.3480682,0.9336014c0.1966705,0,0.3962631-0.0451202,0.5880356-0.1397095
		l6.3978958-3.1485214c0.0242233,0.0643539,0.0514069,0.1269913,0.081459,0.1878433
		c0.030571,0.0917206,0.071228,0.1778564,0.113327,0.2629395c0.0305405,0.0915375,0.0711365,0.1776276,0.1131744,0.2625656
		c0.030571,0.0915756,0.0710678,0.177742,0.1131744,0.2627182c0.0764313,0.2292328,0.1896973,0.4403839,0.3358841,0.6197968
		c0.290947,0.3570862,0.6873932,0.5595856,1.1018753,0.5631638c0,0,16.1622543,0.1356125,16.1658554,0.1356125
		c0.3636856,0,0.6951981-0.1572342,0.9615479-0.4110413c0.2742157,0.2815094,0.6174927,0.4489594,0.9811172,0.4558945
		c0,0,7.0691147,0.1356125,7.0775909,0.1356125c0.8300018-0.000267,1.5171814-0.7869568,1.5597763-1.7931137l0.1345291-3.16996
		l2.654747-0.2453766c0.0080795,0.0463486,0.0110321,0.0950394,0.0217285,0.1400833
		c0.0106049,0.0886993,0.0204391,0.1777802,0.0404053,0.2618942c0.0106049,0.0886612,0.0204086,0.1777039,0.0403748,0.2617798
		c0.0105743,0.088707,0.0204086,0.1777802,0.0403748,0.2618637c0.0105438,0.0887375,0.0204391,0.1778107,0.0404434,0.262001
		c0.0105057,0.088707,0.020401,0.1778564,0.0404053,0.2619705c0.0105057,0.0885925,0.020401,0.177597,0.0403442,0.2615967
		c0.0104752,0.0887833,0.0204315,0.1778183,0.0404358,0.2620087c0.0104446,0.0886688,0.0203705,0.1776276,0.0403442,0.261673
		c0.0104141,0.0888138,0.0204315,0.177887,0.0404053,0.2620468c0.0103836,0.0886993,0.020401,0.1776276,0.0403442,0.2616653
		c0.0103836,0.0888214,0.020462,0.1778564,0.0404358,0.2620087c0.0103912,0.0887451,0.0204315,0.177742,0.0404053,0.2618561
		c0.0103302,0.088707,0.0204086,0.1776352,0.0403442,0.261673c0.0103302,0.0888138,0.0204391,0.1778183,0.0404053,0.2619705
		c0.107872,0.9303207,0.762291,1.6281967,1.5405807,1.6281967c0.0214157,0,7.444603-0.3627167,7.444603-0.3627167
		c0.4305649-0.0210266,0.8348694-0.2565994,1.1173096-0.6503372c0.0149765-0.0208817,0.0247803-0.0456009,0.0389252-0.0671539
		c0.0591202,0.1026077,0.1269531,0.1986618,0.2028656,0.2863159c0.290947,0.3360596,0.6776581,0.522934,1.0787582,0.522934
		c0.0165482,0,8.2095413-0.3170776,8.2095413-0.3170776c0.4142609-0.0161438,0.8062744-0.2307205,1.0897903-0.5965347
		c0.2835236-0.3658066,0.4352493-0.8528366,0.4216919-1.3539963l-0.0020676-0.0762863
		c0.0035172-0.0628281,0.0120239-0.124794,0.0102921-0.1882935l-0.0020599-0.0763626
		c0.003479-0.0627899,0.0120163-0.1247177,0.0102921-0.188179l-0.002037-0.0758743
		c0.0035172-0.0629425,0.0120239-0.125061,0.0102997-0.1886673l-0.0020676-0.0763626
		c0.003479-0.0627899,0.0120163-0.1247177,0.0102921-0.188179l-0.0020294-0.0759125
		c0.003479-0.0629807,0.0120163-0.125061,0.0102921-0.1886673l-0.0020676-0.0763626
		c0.0034561-0.0627899,0.0120239-0.1247177,0.0102997-0.188179l-0.0020676-0.0762482
		c0.0034485-0.0628281,0.0120163-0.1248016,0.0102921-0.1882935l-0.0020294-0.0759888
		c0.0034485-0.0629425,0.0120163-0.1249847,0.0102921-0.188591l-0.0020676-0.0762558
		c0.0034256-0.0628204,0.0120239-0.124794,0.0102921-0.1882858l-0.0020294-0.0759583
		c0.003418-0.0629349,0.0120163-0.1250153,0.0102921-0.188591l-0.0020676-0.0762482
		c0.0033951-0.0628586,0.0120239-0.1248322,0.0102997-0.1883316l-0.0020676-0.0761337
		c0.0033875-0.0628662,0.0120163-0.1248703,0.0102921-0.1884079l-0.0020294-0.0758743
		c0.0033875-0.062973,0.0120163-0.1250534,0.0102921-0.1886673l-0.0020676-0.0763245
		c0.0033646-0.0628242,0.0120239-0.1247559,0.0102997-0.1882172l-0.002037-0.0758743
		c0.0033569-0.0629768,0.0120163-0.1250572,0.0102921-0.1887054l-0.0020599-0.0763245
		c0.0033264-0.0628242,0.0120163-0.1247559,0.0102921-0.1882172l-0.0020676-0.0762138
		c0.0033264-0.0628624,0.0120239-0.1248322,0.0102921-0.1883278l-0.0020294-0.0759506
		c0.0033264-0.0629768,0.0120163-0.1250191,0.0102921-0.1886292l-0.0020676-0.0762138
		c0.0033035-0.0628624,0.0120239-0.1248322,0.0102997-0.1883316l-0.002037-0.0759125
		c0.0032959-0.0629768,0.0120239-0.1250191,0.0102921-0.1886292l-0.0020599-0.0764351
		c0.0032654-0.0628281,0.0120163-0.1246834,0.0102921-0.1881447l-0.0020676-0.0760994
		c0.0032654-0.0629005,0.0120239-0.1249084,0.0102997-0.1884422l-0.002037-0.0760269
		c0.0032654-0.0629387,0.0120163-0.1249428,0.0102921-0.1885147l-0.0020599-0.0763245
		c0.0032349-0.0628624,0.0120163-0.1247597,0.0102921-0.1882553l-0.002037-0.0759888
		c0.0032349-0.0629387,0.0120239-0.1249809,0.0102921-0.1885529l-0.0020599-0.0762901
		c0.002739-0.0535049,0.0095825-0.1063004,0.0087509-0.1602898l0.9465332,0.7012329l0.3947906,6.8392906
		c0.0574188,0.9948578,0.7420654,1.7582474,1.5572128,1.7582474c0.0273438,0,0.0548935-0.0007477,0.0824509-0.002533
		l8.6106339-0.5419159c0.4469147-0.0282211,0.8624268-0.2868729,1.1412964-0.7105865
		c0.1790771-0.2721863,0.2822571-0.5975418,0.3184814-0.9356155c0.0198059-0.0862427,0.0292053-0.1746445,0.0387726-0.2635727
		c0.0197754-0.0862045,0.0291443-0.1745682,0.0387421-0.2634583c0.0197754-0.0862427,0.0291443-0.1745377,0.0387268-0.2634277
		c0.0197601-0.0862427,0.029129-0.1745682,0.0387421-0.2634583c0.0197601-0.0862045,0.029129-0.174614,0.0387421-0.2634277
		c0.0197601-0.0861664,0.0290985-0.1744919,0.0387115-0.2633133c0.0197906-0.0862732,0.029129-0.1746826,0.0388031-0.2636108
		c0.0044708-0.0194244,0.0102081-0.038063,0.0141602-0.0576401l0.0140228,2.4412079
		c0.0029449,0.5201035,0.183075,1.0153656,0.4974976,1.3698807c0.2899017,0.3268509,0.6708832,0.5070496,1.0648041,0.5070496
		c0.0330658,0,0.0665436-0.0012665,0.0997925-0.0038376l8.1593323-0.6321411
		c0.701767-0.0544815,1.2593384-0.6648865,1.4136658-1.4530334c0.027832-0.0845261,0.0475769-0.1727066,0.0652161-0.2624512
		c0.0278625-0.0846786,0.0476685-0.172966,0.0653381-0.2629013c0.027832-0.0845642,0.0475769-0.1727829,0.0652161-0.2625656
		c0.0278625-0.0847168,0.0476837-0.1730042,0.0653687-0.2629395c0.027832-0.0846405,0.0475922-0.1728592,0.0652771-0.2627182
		c0.0278015-0.0846024,0.0475311-0.1727829,0.0652466-0.2626038c0.027832-0.0847092,0.0475922-0.1730423,0.0653381-0.2629013
		c0.027832-0.084671,0.0475311-0.1729279,0.0652771-0.2627869c0.0278015-0.0846024,0.0475006-0.1727829,0.0652466-0.2625275
		c0.0278625-0.0847549,0.0475616-0.1730804,0.0653534-0.2629395c0.0277557-0.0846405,0.0474548-0.172821,0.0652466-0.2625732
		c0.0278015-0.0847092,0.0475159-0.1730042,0.0653381-0.2628632c0.027771-0.0846329,0.0474548-0.1728897,0.0652771-0.2626724
		c0.0278015-0.0846786,0.0474548-0.1729736,0.0653076-0.2627945c0.0278015-0.0846786,0.0473938-0.172966,0.0652771-0.2627182
		c0.027771-0.0845947,0.047348-0.1728516,0.0652466-0.2625618c0.0278015-0.0847511,0.0474091-0.1731186,0.0653381-0.2629013
		c0.027771-0.0847168,0.047348-0.1730461,0.0652771-0.2627907c0.027771-0.0846405,0.0473175-0.1728935,0.0652466-0.2625656
		c0.0278015-0.0847511,0.0473785-0.1730843,0.0653381-0.262867c0.027771-0.0846748,0.047287-0.1729698,0.0652924-0.2626762
		c0.0277557-0.0846786,0.0473022-0.173008,0.0652771-0.2626801c0.027771-0.0847893,0.0473022-0.1731529,0.0653381-0.2629395
		c0.0277405-0.0846748,0.0472412-0.1729698,0.0652466-0.2626038c0.0277405-0.084713,0.0472107-0.1730423,0.0652771-0.2627144
		c0.027771-0.0847511,0.0472717-0.1731567,0.0653381-0.2628632c0.02771-0.0847168,0.0472107-0.173008,0.0652771-0.2626801
		c0.02771-0.084713,0.0471649-0.1730423,0.0652466-0.2626801c0.0277405-0.0847855,0.0472565-0.1731529,0.0653381-0.2628632
		c0.0218506-0.0668526,0.0376434-0.1361656,0.0535736-0.2061157l3.59021-0.1093597
		c0.4183044-0.0125656,0.8147583-0.2276268,1.1007996-0.5967941c0.1568451-0.2026482,0.2687836-0.4440384,0.3392181-0.7026901
		l-0.5356445,8.7978401c-0.0315552,0.5188293,0.1150665,1.0305023,0.4051514,1.4142456
		c0.2900848,0.3840103,0.6982117,0.6062317,1.1281586,0.6144333c0,0,7.0690765,0.1356125,7.0775604,0.1356125
		c0.6608887-0.0002289,1.2252502-0.5026169,1.4517212-1.213768c0.0398407-0.0837021,0.0742645-0.170578,0.103363-0.2618942
		c0.0398254-0.0836716,0.0742188-0.1703949,0.1032867-0.2615967c0.0398102-0.0836716,0.0742188-0.170433,0.103302-0.261673
		c0.039856-0.0837784,0.0743103-0.1706543,0.1034393-0.2619705c0.0397644-0.0836639,0.0741577-0.1703186,0.1032562-0.2614822
		c0.0397797-0.0837479,0.0742188-0.1705475,0.1033325-0.2617874c0.0397644-0.0837402,0.0742188-0.1704636,0.1033478-0.2616653
		c0.0397644-0.0837479,0.0741577-0.1705475,0.1033478-0.2617493c0.0397797-0.0838165,0.0742035-0.1706924,0.1033936-0.2619705
		c0.0397034-0.0837021,0.0740967-0.1703949,0.1032562-0.2615204c0.0397491-0.0838165,0.0741882-0.1705856,0.103363-0.2618179
		c0.0397034-0.0837479,0.0741272-0.1704712,0.1033173-0.2616348c0.0397034-0.0838242,0.0741272-0.1705856,0.1033478-0.2617874
		c0.0396881-0.0838165,0.0741119-0.1706161,0.103363-0.2618179c0.0314178-0.0664444,0.0614319-0.1331482,0.0863647-0.204216
		l1.6631775-0.1537323l0.2737579,3.7388c0.0716248,0.978714,0.7499237,1.7231216,1.5551147,1.7231216
		c0.0213928,0,7.4446106-0.3627167,7.4446106-0.3627167c0.3923187-0.019165,0.7580261-0.223526,1.0344391-0.5562668
		c0.2331543,0.7038422,0.796463,1.1899414,1.442627,1.1899414c0.0451202,0,0.0904846-0.0022812,0.1362457-0.007164
		l15.5396881-1.625473c0.48526-0.050705,0.9046173-0.3674469,1.1610718-0.8277435
		c0.0652161-0.0810242,0.1240845-0.1693115,0.1765137-0.2633514c0.0652161-0.0810547,0.124054-0.169426,0.1765137-0.2634583
		c0.0651855-0.0810623,0.124054-0.169426,0.1764984-0.2634583c0.0652313-0.0811768,0.1240845-0.1695786,0.1766052-0.2636871
		c0.0652466-0.0812073,0.1242371-0.1696472,0.1767578-0.2638321c0.0651855-0.0812073,0.124115-0.1696548,0.1766357-0.2637634
		c0.0651245-0.0812454,0.124176-0.1695709,0.1766663-0.2637177c0.0651245-0.0812836,0.124115-0.1695786,0.1766357-0.2636871
		c0.0651245-0.0813217,0.1241455-0.1696167,0.1766663-0.2637253c0.0650635-0.0813522,0.124115-0.1696091,0.1766357-0.2637558
		c0.065033-0.0813599,0.1241455-0.1695786,0.1766663-0.2636871c0.065033-0.0814285,0.1241455-0.1696472,0.176651-0.2637558
		c0.0650024-0.0814362,0.124115-0.1695786,0.1766357-0.2637253c0.0650024-0.0815048,0.124176-0.1696854,0.1767273-0.2638321
		c0.0648804-0.0814362,0.124054-0.1694641,0.1765137-0.2635002c0.0650024-0.0815811,0.1242065-0.1697617,0.1767578-0.2639847
		c0.0649109-0.081543,0.1241455-0.1695747,0.1766663-0.2636833c0.0648499-0.0815811,0.124115-0.1696129,0.1766357-0.2637215
		c0.0648193-0.0815811,0.124115-0.1695404,0.1766052-0.2636108c0.0648346-0.0816574,0.124176-0.1696892,0.1767273-0.2638359
		c0.0647736-0.0816917,0.1241455-0.1696854,0.176651-0.2637939c0.0647583-0.0816574,0.1240845-0.1695786,0.1766052-0.2636871
		c0.0647278-0.0816917,0.124115-0.1695747,0.1766357-0.2636833c0.0647278-0.0818062,0.1241455-0.1696129,0.1766968-0.2637596
		c0.0646973-0.081768,0.1240845-0.1696129,0.1766357-0.2637215c0.0646973-0.0818443,0.1242065-0.1696892,0.1767273-0.2638359
		c0.0646362-0.0818405,0.1240845-0.1695747,0.1766052-0.2636833c0.0645905-0.0818787,0.1240845-0.1695404,0.1766052-0.263649
		c0.064621-0.0819168,0.124176-0.169651,0.1767273-0.2638321c0.0645294-0.0818825,0.124115-0.1695786,0.17659-0.2636108
		c0.0425415-0.0539894,0.0794373-0.113945,0.1168518-0.1733055l-0.0324554,8.0133057
		c-0.0021362,0.5165558,0.1708069,1.0115662,0.478241,1.3701782c0.2915955,0.3401566,0.6806183,0.5290833,1.0840912,0.5290833
		c0.0216064,0,8.1016693-0.4080887,8.1016693-0.4080887c0.4167938-0.0210342,0.8092346-0.2427673,1.0900116-0.6159973
		c0.020401-0.0271072,0.0346985-0.0590286,0.0536499-0.0873642c0.0551453-0.0555191,0.1113281-0.109581,0.1601868-0.17453
		c0.020401-0.0271072,0.034729-0.0590668,0.0536804-0.0874023c0.0551453-0.0555573,0.1113281-0.1095428,0.1601715-0.1744995
		c0.0204163-0.0270996,0.0347443-0.0590973,0.0537262-0.0874329c0.0551147-0.0555573,0.1112976-0.1095428,0.1601105-0.1744614
		c0.0203705-0.0271072,0.0347137-0.0590591,0.0536652-0.0873566c0.0550995-0.0555954,0.1113586-0.109581,0.160202-0.1745377
		c0.020401-0.0271454,0.0347443-0.0591354,0.0537262-0.087471c0.0550385-0.0555954,0.1112976-0.1095047,0.1601105-0.1744232
		c0.020401-0.0271454,0.034729-0.0590973,0.0537262-0.0874329c0.0550385-0.0556335,0.1112823-0.1095505,0.1601105-0.1744614
		c0.0203705-0.0271072,0.0346985-0.059021,0.0536652-0.087326c0.055069-0.0556641,0.1113434-0.1096191,0.160202-0.1745682
		c0.020401-0.0271072,0.0346985-0.0590973,0.0536804-0.0874329c0.0550232-0.0556717,0.1113281-0.1095505,0.1601562-0.1744614
		c0.0203705-0.0270691,0.034668-0.0589905,0.0536194-0.0872879c0.0550537-0.0557404,0.1113586-0.1096573,0.1602478-0.1746063
		c0.020401-0.0271072,0.0346985-0.0591049,0.0536804-0.0874405c0.0550232-0.0557022,0.1112976-0.1095428,0.160141-0.1744614
		c0.0203857-0.0271072,0.0346832-0.0590591,0.0536652-0.0873566c0.0550079-0.0557404,0.1113586-0.109581,0.160202-0.1745377
		c0.020401-0.0271072,0.0346832-0.0590591,0.0536652-0.0873566c0.0549774-0.0557785,0.1113281-0.109581,0.1601715-0.1745377
		c0.0203705-0.0271072,0.034668-0.059021,0.0536652-0.0873184c0.0549774-0.0558167,0.1113434-0.1096268,0.160202-0.1745758
		c0.020401-0.0271072,0.0346985-0.0590973,0.0537262-0.0874329c0.0549469-0.0558167,0.1112823-0.1095505,0.1601105-0.1744614
		c0.020401-0.0271454,0.0346985-0.0591354,0.0537109-0.0874329c0.0549622-0.0558167,0.1112976-0.1095505,0.1601562-0.1744614
		c0.020401-0.0271072,0.034668-0.0590973,0.0536804-0.0874023c0.0549316-0.0558548,0.1112976-0.1095428,0.1601562-0.1744919
		c0.020401-0.0271072,0.034668-0.0590973,0.0536804-0.0874023c0.0549316-0.0558548,0.1113281-0.1095428,0.1601715-0.1744919
		c0.0204163-0.0271072,0.0346832-0.0591354,0.0536957-0.0874405c0.0548859-0.0558929,0.1112976-0.1095428,0.160141-0.1744576
		c0.020401-0.0271454,0.0347137-0.0591736,0.0537262-0.0874748c0.0548859-0.0558891,0.1112976-0.1095085,0.160141-0.1744194
		c0.0204315-0.0271454,0.0347137-0.0591736,0.0537567-0.087513c0.0548553-0.0559273,0.1112671-0.1095085,0.16008-0.1744232
		c0.0203705-0.0271034,0.0346375-0.0590591,0.0536652-0.0873222c0.0548859-0.0559654,0.1113434-0.1096191,0.160202-0.174572
		c0.020401-0.0271416,0.034668-0.0591354,0.0537262-0.0874329c0.0548248-0.0559654,0.1112823-0.1095467,0.1601105-0.1744614
		c0.020401-0.0271072,0.034668-0.0590973,0.0536804-0.0873985c0.0548401-0.0560036,0.1112976-0.109581,0.1601562-0.1744957
		c0.020401-0.0271072,0.034668-0.0590973,0.0536804-0.0873604c0.0548706-0.0560036,0.1113281-0.1095848,0.1601715-0.1745377
		c0.0204163-0.0271034,0.0346832-0.0591316,0.0536957-0.0873947c0.0548248-0.0560417,0.1112976-0.1095467,0.160141-0.1744995
		c0.020401-0.0271072,0.0346527-0.0590973,0.0536652-0.0873604c0.0548248-0.0560417,0.1113586-0.109581,0.160202-0.1745338
		c0.020401-0.0271454,0.0346832-0.0591354,0.0537262-0.0874367c0.0547943-0.0560379,0.1112976-0.1095428,0.1601105-0.1744576
		c0.020401-0.0271072,0.0346069-0.0590973,0.0536652-0.0873604c0.0547943-0.056118,0.1113434-0.1095848,0.160202-0.1745377
		c0.020401-0.0271034,0.0346069-0.0590973,0.0536652-0.0873604c0.0547638-0.0561142,0.1113129-0.109581,0.1601715-0.1745338
		c0.020401-0.0271072,0.0346375-0.0591354,0.0536804-0.0873985c0.0547791-0.0561142,0.1113281-0.109581,0.1601868-0.1744957
		c0.020401-0.0271454,0.034668-0.0591736,0.0537109-0.0874367c0.0547485-0.0561523,0.1112671-0.1095428,0.1601257-0.1744576
		c0.020401-0.0271072,0.0346069-0.0591011,0.0536499-0.0873604c0.0547638-0.0561905,0.1113586-0.1095848,0.160202-0.1745377
		c0.0204163-0.0271034,0.0346527-0.0591354,0.0536957-0.0873947c0.0547333-0.0561905,0.1112976-0.1095467,0.160141-0.1744995
		c0.020401-0.0271072,0.0346527-0.0591736,0.0537262-0.0874329c0.0547028-0.0561905,0.1112976-0.1095467,0.160141-0.1744614
		c0.020401-0.0271072,0.0346069-0.0590973,0.0536652-0.0873604c0.0547028-0.0562286,0.1113281-0.1095848,0.1601715-0.1745338
		c0.0203705-0.0271072,0.0346069-0.0591354,0.0536652-0.0873604c0.0547028-0.0562668,0.1113434-0.1095848,0.160202-0.1745377
		c0.020401-0.0271072,0.0346069-0.0591354,0.0536804-0.0873947c0.0546875-0.0562668,0.1112976-0.1095848,0.1601562-0.1744995
		c0.0203705-0.0271072,0.0346069-0.0590973,0.0536499-0.0873222c0.054718-0.0563011,0.1113586-0.1096191,0.1602173-0.174572
		c0.0203705-0.0271072,0.0345764-0.0591354,0.0536499-0.0873604c0.0546722-0.0563011,0.1113281-0.1095848,0.1601715-0.1745338
		c0.0204163-0.0271072,0.0345917-0.0591354,0.0536652-0.0873604c0.0546722-0.0563393,0.1113586-0.1095848,0.160202-0.1745377
		c0.020401-0.0271072,0.0346222-0.0591354,0.0536957-0.0873947c0.0546112-0.0563393,0.1112976-0.1095848,0.160141-0.1744995
		c0.020401-0.0271454,0.0346222-0.0591736,0.0537262-0.0874367c0.0546112-0.0563354,0.1112976-0.1095428,0.1601105-0.1744576
		c0.020401-0.0271072,0.0345764-0.0591354,0.0536652-0.0873604c0.0546112-0.0563774,0.1113434-0.1095848,0.160202-0.1745338
		c0.020401-0.0271072,0.0345764-0.0591736,0.0536957-0.0873985c0.0546112-0.0563774,0.1112823-0.1095848,0.160141-0.1744995
		c0.020401-0.0271072,0.0345764-0.0591354,0.0536499-0.0873604c0.0546265-0.0564117,0.1113586-0.109581,0.1602173-0.1745338
		c0.020401-0.0271454,0.0346069-0.0592079,0.0537109-0.0874367c0.0545502-0.0564117,0.1112976-0.1095428,0.1601257-0.1744576
		c0.020401-0.0271072,0.0345764-0.0591354,0.0536499-0.0873604c0.0545807-0.0564499,0.1113586-0.1095848,0.160202-0.1745338
		c0.0204163-0.0271454,0.0346222-0.0592117,0.0537262-0.0874367c0.0545502-0.0564499,0.1112671-0.1095467,0.1601105-0.1744614
		c0.0203705-0.0271072,0.0345917-0.0591698,0.0536652-0.0873604c0.0545807-0.056488,0.1113586-0.109581,0.160202-0.1745338
		c0.020401-0.0271454,0.0346069-0.0592079,0.0537262-0.0874367c0.0545197-0.056488,0.1112823-0.1095428,0.1601105-0.1744576
		c0.020401-0.0271072,0.0345459-0.0591354,0.0536652-0.0873604c0.0545502-0.0565262,0.1113434-0.1095848,0.160202-0.1745377
		c0.020401-0.0271416,0.0346069-0.0592079,0.0537109-0.0874329c0.0545044-0.0565262,0.1112976-0.1095467,0.1601257-0.1744614
		c0.0203705-0.0271072,0.0345459-0.0591698,0.0536499-0.0873604c0.0545197-0.0565605,0.1113586-0.109581,0.1602173-0.1745338
		c0.0204315-0.0271454,0.0346069-0.0592461,0.0537415-0.0875092c0.0544586-0.0565643,0.1112671-0.1095085,0.16008-0.1744232
		c0.0203857-0.0271072,0.0345612-0.0591354,0.0536652-0.0873222c0.0544891-0.0566025,0.1113586-0.109623,0.160202-0.174572
		c0.020401-0.0271454,0.0345917-0.0592117,0.0537262-0.0874367c0.0544586-0.0565987,0.1112976-0.1095467,0.1601105-0.1744614
		c0.020401-0.0271034,0.0345459-0.0591698,0.0536652-0.0873604c0.0544586-0.0566368,0.1113586-0.109581,0.160202-0.1745338
		c0.020401-0.0271072,0.0345459-0.0592079,0.0536957-0.0874329c0.0544281-0.0566406,0.1112823-0.1095467,0.160141-0.1744614
		c0.020401-0.0271072,0.0345459-0.0592117,0.0536957-0.0873985c0.0544281-0.056675,0.1112823-0.1095467,0.160141-0.1744957
		c0.020401-0.0271072,0.0345154-0.0591736,0.0536499-0.0873604c0.0544281-0.056675,0.1113586-0.1095848,0.1602173-0.1745377
		c0.020401-0.0271034,0.0345459-0.0592079,0.0536804-0.0873947c0.0543976-0.056675,0.1112976-0.1095848,0.160141-0.1744995
		c0.0204163-0.0271072,0.0345306-0.0591736,0.0536652-0.0873604c0.0544281-0.0567131,0.1113586-0.109581,0.160202-0.1745338
		c0.0204163-0.0271072,0.0345612-0.0591736,0.0536957-0.0873604c0.0543976-0.0567513,0.1112976-0.1095848,0.160141-0.1745338
		c0.020401-0.0271072,0.0345459-0.0591736,0.0536957-0.0873604c0.0543976-0.0567513,0.1113281-0.1095848,0.1601715-0.1745377
		c0.020401-0.0271072,0.0345764-0.0592461,0.0537262-0.0874329c0.0543671-0.0567513,0.1112823-0.1095467,0.1601105-0.1744614
		c0.020401-0.0271072,0.0345154-0.0591736,0.0536652-0.0873604c0.0543671-0.0567856,0.1113434-0.109581,0.160202-0.1745338
		c0.020401-0.0271072,0.0345459-0.0592117,0.0536804-0.0873985c0.0543671-0.0567856,0.1112976-0.1095467,0.1601562-0.1744957
		c0.0203705-0.0270729,0.0344849-0.0591354,0.0536194-0.0872879c0.0543671-0.0568237,0.1113586-0.1096573,0.1602478-0.1746101
		c0.020401-0.0271416,0.0345459-0.0592461,0.0537109-0.0874329c0.054306-0.0568237,0.1112976-0.1095467,0.1601105-0.1744614
		c0.0203857-0.0271072,0.0345306-0.0592079,0.0536652-0.0873604c0.0543365-0.0568619,0.1113586-0.109581,0.160202-0.1745338
		c0.0204315-0.0271454,0.0345917-0.0592461,0.0537567-0.0874748c0.0542755-0.0568237,0.1112671-0.1095085,0.16008-0.1744194
		c0.3267059-0.4343071,0.4963379-1.0085068,0.4711914-1.5949364l-0.5428162-12.6082191
		c0.0538788-0.0679741,0.0971832-0.1449661,0.1424561-0.2202492c0.0266571-0.0294914,0.0571136-0.0527573,0.0823517-0.0844498
		c0.0547028-0.0687943,0.0984344-0.146946,0.1443329-0.2231941c0.0266876-0.0295296,0.0571442-0.0527954,0.0823822-0.0844879
		c0.0547333-0.0687943,0.0984497-0.1469803,0.1443634-0.2232323c0.0266571-0.0295296,0.0571136-0.0527573,0.0823517-0.0844498
		c0.0547028-0.0687943,0.0983887-0.146946,0.1443024-0.223156c0.0266876-0.0295296,0.0572052-0.0527954,0.0824432-0.0845261
		c0.0547791-0.0688324,0.0984497-0.1470566,0.1444244-0.2233429c0.0266418-0.0294914,0.0570831-0.0527229,0.0823059-0.0843773
		c0.0547333-0.0687943,0.0983429-0.1469803,0.1443329-0.2231941c0.0266571-0.0295296,0.0571289-0.0527954,0.0823822-0.0844879
		c0.0547333-0.0687943,0.0983429-0.1470184,0.1443634-0.2232323c0.0266571-0.0295296,0.0571136-0.0527573,0.0823517-0.0844498
		c0.0547028-0.0687943,0.0983124-0.1470184,0.1443329-0.2231941c0.0266571-0.0295677,0.0571747-0.0527954,0.0824127-0.0844879
		c0.0547333-0.0687943,0.0982819-0.1470566,0.1443329-0.2232323c0.0266571-0.0295677,0.0571442-0.0527573,0.0823822-0.0844498
		c0.0547485-0.0688286,0.0983276-0.1471291,0.1443939-0.2233047c0.0266266-0.0295296,0.0571136-0.0527229,0.0823212-0.0844154
		c0.0547485-0.0687943,0.0982971-0.1470566,0.1443634-0.2232285c0.0266418-0.0295677,0.0571442-0.0527611,0.0823669-0.0844536
		c0.0547333-0.0687943,0.0982513-0.1470566,0.1443329-0.2231941c0.0266571-0.0295677,0.0571289-0.0527954,0.0823822-0.0844879
		c0.0547333-0.0687943,0.0982513-0.1471291,0.1443634-0.2232304c0.0266571-0.0295677,0.0571442-0.0527592,0.0823822-0.0844517
		c0.0547333-0.0687923,0.0982208-0.147131,0.1443634-0.2232304c0.0266266-0.0295677,0.0571136-0.0527592,0.0823517-0.0844517
		c0.0547333-0.0687923,0.0982208-0.1471672,0.1443634-0.2232685c0.0266266-0.0295677,0.0571442-0.052721,0.0823517-0.0844135
		c0.0547333-0.0688305,0.0982056-0.1471672,0.1443634-0.2232685c0.0266266-0.0295677,0.0571442-0.0527592,0.0823517-0.0844517
		c0.054718-0.0687542,0.0981445-0.1471291,0.1443024-0.223156c0.0266724-0.029604,0.0572052-0.0527954,0.0824585-0.0845261
		c0.0547333-0.0687923,0.0981293-0.1471672,0.1443329-0.2232304c0.0266266-0.029604,0.0571289-0.0527592,0.0823822-0.0844517
		c0.0547028-0.0687923,0.0980682-0.1471672,0.1443024-0.2231922c0.0266266-0.0296059,0.0571747-0.0527973,0.0824127-0.0844898
		c0.0547333-0.0687923,0.0980988-0.1471672,0.1443329-0.2231922c0.0266266-0.0296059,0.0571442-0.0527973,0.0823822-0.0844898
		c0.0547638-0.0688305,0.0981293-0.1472416,0.1443939-0.2233047c0.0265961-0.0295677,0.0571136-0.0527592,0.0823212-0.0844154
		c0.0547028-0.0687923,0.0980377-0.1471672,0.1443024-0.2231541c0.0266266-0.0296421,0.0572052-0.0527973,0.0824432-0.084528
		c0.0547485-0.0687923,0.098053-0.1472034,0.1443329-0.2231922c0.0266418-0.029604,0.0571442-0.0527973,0.0823975-0.0844898
		c0.0547333-0.0687923,0.0980377-0.1472416,0.1443329-0.2232304c0.0265961-0.029604,0.0571289-0.0527592,0.0823822-0.0844517
		c0.0547333-0.0687923,0.0980377-0.1472778,0.1443634-0.2232304c0.0265961-0.029604,0.0571136-0.0527592,0.0823517-0.0844517
		c0.0547333-0.0687923,0.0980072-0.147316,0.1443634-0.2232666c0.0265961-0.0296059,0.0571442-0.0527229,0.0823517-0.0844154
		c0.0547028-0.0687923,0.0979462-0.1472778,0.1443024-0.2231922c0.0266266-0.0296421,0.0572052-0.0527973,0.0824432-0.084528
		c0.0547333-0.0687923,0.0979767-0.147316,0.1443634-0.2232285c0.0265961-0.0296421,0.0571136-0.0527592,0.0823517-0.0844536
		c0.0547485-0.0687923,0.0979919-0.1473522,0.1443634-0.2232666c0.0266113-0.0296421,0.0571442-0.052721,0.0823669-0.0844154
		C235.3699188,26.4926109,235.5531158,25.9014072,235.5284576,25.2955894z"/>
	<g>
		<g>
			<path class="st2" d="M9.0131836,48.2993164l-0.590332-35.8100586l12.8979492-0.8803711l7.2851562,0.1166992l4.5083008,8.4047852
				l-4.3452148,9.2504883l6.4067383,8.0629883l-6.0498047,10.9130859L9.0131836,48.2993164z M17.0029297,42.3417969
				l7.7866211-0.4995117l-0.1430664-8.9702148h-7.6435547V42.3417969z M16.4990234,27.2583008L23.6147461,27L23.46875,18.6933594
				l-6.9697266-0.0859375V27.2583008z"/>
			<path class="st3" d="M21.305603,12.6125717l6.6972656,0.1036911l3.9926453,7.4439621l-3.8677979,8.2340012l-0.5275879,1.1231232
				l0.7719727,0.9714813l5.6056824,7.0543594l-5.4400635,9.8117447L9.9966736,47.3021393L9.4381104,13.4223938L21.305603,12.6125717
				 M15.4989319,28.2949905l2.0725098-0.0751724l5.0987244-0.1849365l1.961731-0.0711594l-0.0345459-1.9627533l-0.1119385-6.3549805
				l-0.0341797-1.9405899l-1.9407654-0.0240402l-4.9867859-0.0617523l-2.0247498-0.0250702v2.0249252v6.6016693V28.2949905
				 M16.0031433,43.4080276l2.1280212-0.1364899l5.7713623-0.3701782l1.9021301-0.1220093l-0.0303955-1.9057846
				l-0.1121826-7.0335846l-0.0314026-1.9681091H23.662323h-5.6591797h-2v2v7.4037704V43.4080276 M21.2528992,10.6115189
				l-13.5596619,0.925293l-0.280365,0.3704605l0.6164246,37.389267l21.6845093,0.0617523l6.4997253-11.7229462v-0.4933701
				l-6.2756042-7.8974152l4.2024841-8.9464874V19.927887l-4.9308472-9.1931763L21.2528992,10.6115189L21.2528992,10.6115189z
				 M17.4989319,26.2211304v-6.6016693l4.9867859,0.0617447l0.1119385,6.3549805L17.4989319,26.2211304L17.4989319,26.2211304z
				 M18.0031433,41.2756424v-7.4037704h5.6591797l0.1121826,7.0335846L18.0031433,41.2756424L18.0031433,41.2756424z"/>
		</g>
		<g>
			<path class="st2" d="M49.7724609,37.625l-3.159668,0.7373047l0.4213867,9.9423828l-7.2714844,0.1235352l-0.3139648-30.409668
				l13.2456055-0.8754883l6.2954102,1.1479492l0.6586914,16.1860352l-3.5839844,2.0024414l5.8378906,9.1982422l-6.6376953,3.2666016
				L49.7724609,37.625z M45.7749023,23.4589844l0.1230469,9.2651367l6.8457031-0.5913086l0.0615234-8.8212891L45.7749023,23.4589844
				z"/>
			<path class="st3" d="M52.6368103,18.149231l5.3862305,0.9819107l0.6008301,14.7725067l-2.1240845,1.1870193l-1.8463745,1.0318146
				l1.1334229,1.7858047l4.6740112,7.3642807l-4.7357483,2.3305511l-4.704071-9.6959534l-0.6977539-1.4381714l-1.5565796,0.3636017
				l-1.5745544,0.3677902l-1.6134033,0.3768616l0.0701294,1.6553497l0.3426819,8.0897751l-5.239563,0.0888672l-0.2937927-28.4574432
				L52.6368103,18.149231 M44.9123535,33.8130264l2.1434021-0.1851196l4.8664856-0.4202957l1.8152771-0.1567688l0.0126038-1.821991
				l0.0475464-6.8820572l0.0142212-2.0564804l-2.0560608,0.0430984l-5.0094604,0.1050034l-1.9842224,0.0415878l0.0263062,1.9844818
				l0.0953979,7.1973495L44.9123535,33.8130264 M52.7519531,16.1372604l-14.3131714,0.9455872l0.3341064,32.3622513
				l9.3036804-0.1578064l-0.4295044-10.1393356l1.5745544-0.3677902l5.5820007,11.5054932l8.5403137-4.2028503l-5.8684998-9.2462692
				l3.1967163-1.786438l-0.7157898-17.5994797L52.7519531,16.1372604L52.7519531,16.1372604z M51.7977295,24.3329773
				l-0.0475769,6.8820572l-4.8664856,0.4202881L46.788269,24.437973L51.7977295,24.3329773L51.7977295,24.3329773z"/>
		</g>
		<g>
			<polygon class="st2" points="66.1152344,47.9804688 66.296875,18.5820312 67.4575195,17.7080078 82.3110352,17.3710938 
				82.1660156,23.706543 73.1010742,23.7592773 72.9594727,29.9638672 79.7929688,29.9116211 79.7226562,35.6118164 
				72.5424805,35.5063477 72.612793,41.9638672 83.1577148,41.6499023 82.9399414,48.121582 			"/>
			<path class="st3" d="M81.2869873,18.3945007l-0.0986328,4.3175507l-7.1214905,0.0412445l-1.9438171,0.011261
				l-0.0440979,1.9433212l-0.0953979,4.2028503l-0.0467834,2.0611877l2.0616455-0.0158615l4.7822266-0.0367966l-0.0455627,3.6777954
				l-5.1520081-0.0755844l-2.0513611-0.0301056l0.0221558,2.0514603l0.0476074,4.4128494l0.0220032,2.0381851l2.037384-0.0606537
				l8.461731-0.2518845l-0.1490784,4.4321899l-14.852356-0.1246796l0.1723938-27.9056931l0.5082703-0.3828964L81.2869873,18.3945007
				 M83.3342896,16.3475647l-16.2215881,0.3677826l-1.8129883,1.3658447l-0.1908569,30.8908234l18.7979736,0.1577911
				l0.2862549-8.5110016l-10.5917358,0.3152924l-0.0476074-4.4128494l7.1563416,0.1049957l0.0956726-7.7226257l-6.8227234,0.0524979
				l0.0953979-4.2028503l9.0650024-0.0524979L83.3342896,16.3475647L83.3342896,16.3475647z"/>
		</g>
		<g>
			<path class="st2" d="M102.3867188,41.9980469l-8.7075195,0.8051758l-0.2338867,5.5180664l-6.1875-0.1191406l1.0708008-17.5859375
				L94.0625,17.7402344l7.1655273-0.3144531l6.6049805,11.7260742l1.6123047,19.0820312l-6.578125,0.3222656L102.3867188,41.9980469
				z M94.3237305,30.8686523l-0.4267578,6.0395508l8.012207-0.5029297l-0.3662109-5.4335938l-3.6665039-8.2905273
				L94.3237305,30.8686523z"/>
			<path class="st3" d="M100.6582031,18.4518967l6.1967773,11.0011368l1.5065002,17.8329315l-4.5684814,0.223587
				l-0.3345337-4.5676117l-0.1488953-2.0330429l-2.0298157,0.1876068l-6.8227234,0.6305847l-1.7401123,0.16082l-0.0740356,1.7459259
				l-0.1556091,3.6688385l-4.1678162-0.0800018l0.9963379-16.3652802l5.4087219-12.145607L100.6582031,18.4518967
				 M92.8190308,37.9772263l2.2812195-0.1429672l5.8685303-0.3677902l2.0053711-0.125679l-0.1349792-2.0047531l-0.286499-4.2553482
				l-0.0236816-0.3519516l-0.1427002-0.3226166l-2.671814-6.041481l-1.8464355-4.175209l-1.8173523,4.1879654l-2.5761108,5.9364853
				l-0.1362305,0.3138733l-0.0241089,0.341301l-0.3341064,4.7281418L92.8190308,37.9772263 M101.7979126,16.4000702
				l-8.3970642,0.367775l-6.0593567,13.6066208l-1.14505,18.8078308l8.2062073,0.1575012l0.2384338-5.6212006l6.8227234-0.6305771
				l0.4771118,6.5145645l8.5878906-0.4202881l-1.7175903-20.3314819L101.7979126,16.4000702L101.7979126,16.4000702z
				 M94.9751587,35.8381805l0.3341064-4.7281418l2.5761108-5.9364777l2.671814,6.0414734l0.286499,4.2553558L94.9751587,35.8381805
				L94.9751587,35.8381805z"/>
		</g>
		<g>
			<polygon class="st2" points="128.8188477,39.8837891 121.5444336,34.4956055 121.9072266,47.9584961 114.4267578,48.2480469 
				114.0688477,17.8554688 121.0419922,17.7329102 121.2480469,31.6928711 128.0717773,26.2426758 128.2954102,17.6811523 
				135.9414062,18.2202148 135.2802734,27.8237305 128.5244141,32.4125977 135.4746094,35.7719727 137.2456055,47.9375 
				129.3125,48.4365234 			"/>
			<path class="st3" d="M120.0567627,18.7502441l0.1612244,10.9181824l0.0602722,4.0796814l0.2405701-0.1921921l0.0813599,3.0192032
				l0.2808228,10.4223938l-5.4663086,0.2117462l-0.3341064-28.3716431L120.0567627,18.7502441 M129.2676697,18.752182
				l5.6079102,0.3955154l-0.5593567,8.1223297l-4.9203796,3.341301l-2.8670349,1.9469299l3.1201782,1.5082932l4.9125061,2.3746872
				l1.5383911,10.5660553l-5.8467712,0.3679657l-0.408844-7.0817108l-0.0539551-0.9346008l-0.7522583-0.5572433
				l-5.2481384-3.8875656l-2.5794373-1.9107361l2.2555847-1.8018951l4.8664551-3.8875732l0.7267456-0.5805588l0.024292-0.9298477
				L129.2676697,18.752182 M127.3229065,16.610054l-0.238678,9.1412735l-4.8664551,3.8875732l-0.1908569-12.9235535
				l-8.969574,0.1574936l0.3816833,32.4144516l9.4945068-0.3677826l-0.3340759-12.398262l5.2481384,3.8875732l0.5247192,9.088768
				l10.0194397-0.6305695l-2.0040894-13.7644196l-5.8682556-2.8367004l5.7252502-3.8878632l0.7633667-11.0849075
				L127.3229065,16.610054L127.3229065,16.610054z"/>
		</g>
		<g>
			<polygon class="st2" points="143.1655273,17.5146484 160.4677734,16.7597656 160.6894531,23.7954102 150.1015625,23.6904297 
				150.3017578,30.9052734 158.7519531,30.4321289 158.9716797,37.1279297 150.3242188,37.3911133 150.8037109,48.1020508 
				143.3447266,48.6801758 			"/>
			<path class="st3" d="M159.500061,17.8032837l0.1568909,4.9819183l-8.5072937-0.0843277l-2.0767212-0.0205917l0.0576782,2.0760193
				l0.1430054,5.148407l0.0571289,2.0563354l2.053894-0.1149902l6.4013672-0.3583755l0.1533203,4.6713257l-6.6316528,0.2018127
				l-2.027771,0.0617142l0.0906067,2.0267029l0.3904114,8.7307739l-5.4221802,0.420105l-0.1674194-29.1283493L159.500061,17.8032837
				 M161.4353333,15.7169876l-19.2750549,0.8405762l0.1908569,33.2025223l9.4942627-0.7355804l-0.4768677-10.6646118
				l8.635498-0.2628021l-0.2862549-8.7206879l-8.4449158,0.4727783l-0.1430054-5.1484146l10.5917358,0.1049957
				L161.4353333,15.7169876L161.4353333,15.7169876z"/>
		</g>
		<g>
			<path class="st2" d="M179.1054688,41.9980469l-8.7080078,0.8051758l-0.234375,5.5180664l-6.1865234-0.1191406
				l1.0703125-17.5859375l5.734375-12.8759766l7.1650391-0.3144531l6.6044922,11.7260742l1.6123047,19.0820312l-6.578125,0.3222656
				L179.1054688,41.9980469z M171.0419922,30.8686523l-0.4267578,6.0395508l8.0126953-0.5029297l-0.3662109-5.4335938
				l-3.6669922-8.2905273L171.0419922,30.8686523z"/>
			<path class="st3" d="M177.3767395,18.4518967l6.1968079,11.0011368l1.5065002,17.8329315l-4.568512,0.223587
				l-0.3345337-4.5676117l-0.1488953-2.0330429l-2.0298157,0.1876068l-6.8227234,0.6305847l-1.7401123,0.16082l-0.0740356,1.7459259
				l-0.1556091,3.6688385l-4.1678162-0.0800018l0.9963379-16.3652802l5.4087219-12.145607L177.3767395,18.4518967
				 M169.5375977,37.9772263l2.2812195-0.1429672l5.8685303-0.3677902l2.0053711-0.125679l-0.1349792-2.0047607
				l-0.2865295-4.2553482l-0.0237122-0.3519516l-0.1426392-0.3226013l-2.6717834-6.041481l-1.8464661-4.1752396
				l-1.8173523,4.1879883l-2.5761108,5.9364853l-0.1362305,0.3138733l-0.0241089,0.341301L169.6987,35.697197
				L169.5375977,37.9772263 M178.516449,16.4000702l-8.3970642,0.367775l-6.0593567,13.6066208l-1.14505,18.8078308
				l8.2062073,0.1575012l0.2384338-5.6212006l6.8227234-0.6305771l0.4771118,6.5145645l8.5879211-0.4202881l-1.7175903-20.3314819
				L178.516449,16.4000702L178.516449,16.4000702z M171.6937256,35.8381805l0.3341064-4.7281418l2.5761108-5.9364777
				l2.6717834,6.0414734l0.2865295,4.2553558L171.6937256,35.8381805L171.6937256,35.8381805z"/>
		</g>
		<g>
			<polygon class="st2" points="190.4365234,40.4785156 200.6972656,41.1005859 200.9169922,36.515625 190.8115234,30.0605469 
				191.578125,18.4003906 198.4306641,17.6030273 207.28125,17.2797852 207.2451172,24.0214844 198.7871094,24.0737305 
				198.2226562,27.8969727 208.0205078,32.8144531 207.3300781,47.1210938 191.1181641,48.8168945 			"/>
			<path class="st3" d="M206.276001,18.3178024l-0.0256958,4.710144l-6.6109924,0.0406418l-1.7153931,0.0105438l-0.250824,1.6969986
				l-0.3338623,2.2589264l-0.2114868,1.4309464l1.2927551,0.6489258l8.5697937,4.3017426l-0.6178589,12.7991638
				l-14.3406372,1.500061l-0.504364-6.1693039l8.098877,0.4907684l2.0220642,0.1225281l0.0966187-2.023468l0.1430054-2.9944916
				l0.0552673-1.1571426l-0.9762573-0.6236801l-9.1182251-5.8252106l0.6721497-10.2384033l5.9474182-0.6917114
				L206.276001,18.3178024 M208.2873535,16.2422638l-9.9716492,0.3677902l-7.6812744,0.893364l-0.8587952,13.0813293
				l10.1146545,6.4617844l-0.1430054,2.9944916l-10.4011536-0.6302795l0.8590393,10.5071335l18.0821838-1.8914337
				l0.7633667-15.8133392l-9.7329712-4.8856201l0.3338623-2.258934l8.5878906-0.052803L208.2873535,16.2422638
				L208.2873535,16.2422638z"/>
		</g>
		<g>
			<polygon class="st2" points="218.9765625,24.6074219 212.0917969,24.8706055 212.0166016,17.6918945 232.4238281,17.2128906 
				232.7226562,24.5268555 225.1816406,24.4213867 226.1865234,47.7607422 218.8808594,48.1298828 			"/>
			<path class="st3" d="M231.4649048,18.2353745l0.2153625,5.2766571l-5.4258423-0.0757828l-2.117157-0.0295868l0.091095,2.1154099
				l0.9166565,21.2902298l-5.2592163,0.2658844l0.0866089-21.4237595l0.0084534-2.0863724l-2.0848694,0.0797424
				l-4.8152466,0.1841812l-0.0534668-5.1635361L231.4649048,18.2353745 M233.3830872,16.1897659l-22.3761292,0.5255814
				l0.0951843,9.193779l6.8703003-0.2627945l-0.0951538,23.535965l9.3512573-0.4727783l-1.0020447-23.2734756l7.538269,0.1052933
				L233.3830872,16.1897659L233.3830872,16.1897659z"/>
		</g>
	</g>
</g>
</svg>
