<?xml version="1.0" encoding="utf-8"?>
<!-- Generator: Adobe Illustrator 23.0.3, SVG Export Plug-In . SVG Version: 6.00 Build 0)  -->
<svg version="1.1" id="Layer_1" xmlns="http://www.w3.org/2000/svg" xmlns:xlink="http://www.w3.org/1999/xlink" x="0px" y="0px"
	 viewBox="0 0 587.4 153.8" style="enable-background:new 0 0 587.4 153.8;" xml:space="preserve">
<style type="text/css">
	.st0{fill:#FFFFFF;}
	.st1{font-family:'SwistblnkMoabhoers-Bold';}
	.st2{font-size:72px;}
	.st3{fill:none;stroke:#5D1A10;stroke-width:2;stroke-linejoin:round;stroke-miterlimit:10;}
	.st4{fill:#5D1A10;}
	.st5{font-size:25px;}
	.st6{font-size:17.8721px;}
	.st7{font-size:11.7525px;}
	.st8{fill:#F6B857;}
</style>
<g>
	<g>
		<text transform="matrix(1 0 0 1 318.0292 103.3994)" class="st0 st1 st2">9am  2pm</text>
		<g>
			<path class="st0" d="M450,87.2c-0.1,0.2-0.3,0.2-0.5,0.3c-0.2,0-0.3,0-0.5,0c0,0-0.1,0-0.2-0.1c-0.1,0-0.2,0-0.2,0l-0.1,0
				c-0.1,0-0.2,0-0.3-0.1c-0.1,0-0.2,0-0.2,0c0,0-0.1,0-0.2,0c-0.1,0-0.1,0-0.2,0l-0.3,0c0,0,0,0-0.1,0c0,0,0,0,0,0
				c-0.1-0.1-0.3-0.1-0.5-0.1l-1.3,0c-0.1,0-0.2,0-0.3,0c-0.1,0-0.2,0-0.3,0l-0.5,0c-0.2,0-0.3,0-0.5,0c-0.2,0-0.3,0-0.5,0.1
				c-0.3-0.1-0.5-0.1-0.7-0.1c-0.2,0-0.3,0-0.3,0.1c0,0-0.2,0-0.4,0c-0.2,0-0.4,0-0.7,0c-0.2,0-0.4,0-0.6,0c-0.2,0-0.3,0-0.3,0h0
				c-0.1,0-0.1,0-0.2,0c-0.1,0-0.1,0-0.1,0c-0.1,0-0.2,0-0.3,0c-0.1,0-0.2,0-0.3,0c-0.3,0-0.4,0-0.5-0.1c-0.1-0.1-0.2-0.2-0.2-0.4v0
				c0,0-0.1-0.2-0.1-0.4c0-0.2-0.1-0.4-0.1-0.7c0-0.3,0-0.5,0-0.8c0-0.3,0.1-0.5,0.2-0.6v0c0.1-0.2,0.2-0.3,0.3-0.4
				c0.1-0.1,0.2-0.1,0.3-0.1c0.1,0,0.2,0,0.3,0c0.1,0,0.2,0,0.3,0c0,0,0.1,0,0.1,0c0.1,0,0.1,0,0.1,0l1.5,0c0,0,0.1,0,0.2,0
				c0.1,0,0.3,0,0.4,0c0.2,0,0.3,0,0.5,0c0.2,0,0.3,0,0.3,0c0.1,0,0.2,0,0.3,0c0.1,0,0.2,0,0.3,0l0.4,0c0,0,0.1,0,0.2,0
				c0.2,0,0.4,0,0.7,0c0.3,0,0.7,0,1.1,0c0.4,0,0.7,0,1,0.1c0.3,0,0.5,0,0.5,0c0.1,0,0.1,0,0.3,0c0.1,0,0.2,0,0.4,0
				c0.1,0,0.3-0.1,0.4-0.1l0,0c0.1,0,0.2,0,0.4,0c0.2,0,0.4,0.1,0.5,0.3c0.3,0.3,0.4,0.8,0.4,1.4c0,0.3,0,0.5-0.1,0.8
				C450.1,86.8,450,87,450,87.2z"/>
		</g>
		<text transform="matrix(1 0 0 1 9.8046 103.3994)" class="st0 st1 st2">may 5</text>
	</g>
	<g>
		<g>
			<polygon class="st0" points="224.2,41.6 228.5,34.4 235,39.5 239.8,34 244.6,39.5 252.9,35.7 256,42.1 263.8,39.9 266,47.2 
				273,46.8 273.8,54.5 282.5,55.7 279.1,63.4 288.2,66.4 283,73.3 290.4,78 284.3,83.9 290.8,89.5 283.8,94.6 287.8,101 
				279.9,104.4 282.1,112.6 273.4,113 273.8,121.1 266.4,120.3 264.2,127.9 256,125 252.9,132.2 245.5,127.9 240.3,133.9 
				235.5,127.5 228.9,132.2 224.6,124.1 217.2,127.9 214.1,120.7 206.7,122.8 206.7,113.4 198,111.3 200.6,104 191.9,101 
				196.7,94.2 190.6,89.5 195.4,83.9 189.7,77.1 198.9,74.1 194.1,66.4 201.1,63.9 199.3,55.3 207.6,55.7 207.6,46.3 215,47.6 
				217.6,39.5 			"/>
			<polygon class="st3" points="227.5,40 231.8,32.7 238.4,37.8 243.2,32.3 248,37.8 256.2,34 259.3,40.4 267.1,38.3 269.3,45.5 
				276.3,45.1 277.1,52.8 285.9,54.1 282.4,61.8 291.5,64.7 286.3,71.6 293.7,76.3 287.6,82.3 294.1,87.8 287.2,92.9 291.1,99.4 
				283.2,102.8 285.4,110.9 276.7,111.3 277.1,119.4 269.7,118.6 267.6,126.3 259.3,123.3 256.2,130.5 248.8,126.3 243.6,132.2 
				238.8,125.8 232.3,130.5 227.9,122.4 220.5,126.3 217.5,119 210,121.1 210,111.7 201.3,109.6 203.9,102.3 195.2,99.4 200,92.5 
				193.9,87.8 198.7,82.3 193.1,75.4 202.2,72.4 197.4,64.7 204.4,62.2 202.6,53.6 210.9,54.1 210.9,44.7 218.3,46 220.9,37.8 			
				"/>
		</g>
		<g>
			<text transform="matrix(1.0199 0 0 1 205.4013 78.6729)"><tspan x="0" y="0" class="st4 st1 st5">second</tspan><tspan x="10" y="13.1" class="st4 st1 st6">sunday</tspan><tspan x="5.7" y="22.8" class="st4 st1 st7">of jazz Fest</tspan></text>
			<g>
				<g>
					<g>
						<path class="st8" d="M272,58.2c-0.6,0-0.6,0.1-1.2,0.1c-0.6,0-0.6,0.3-1.2,0.3c-0.6,0-0.6-0.5-1.2-0.5c-0.6,0-0.6,0.1-1.2,0.1
							c-0.6,0-0.6,0.1-1.2,0.1c-0.6,0-0.6,0.3-1.2,0.3c-0.6,0-0.6,0.3-1.2,0.3c-0.6,0-0.6-0.7-1.2-0.7c-0.6,0-0.6,0.1-1.2,0.1
							c-0.6,0-0.6,0.5-1.2,0.5c-0.6,0-0.6-0.2-1.2-0.2c-0.6,0-0.6,0.3-1.2,0.3c-0.6,0-0.6-0.1-1.2-0.1c-0.6,0-0.6-0.2-1.2-0.2
							c-0.6,0-0.6,0-1.2,0c-0.6,0-0.6-0.3-1.2-0.3c-0.6,0-0.6,0.2-1.2,0.2c-0.6,0-0.6,0.1-1.2,0.1c-0.6,0-0.6-0.2-1.2-0.2
							c-0.6,0-0.6,0-1.2,0c-0.6,0-0.6,0.2-1.2,0.2c-0.6,0-0.6-0.3-1.2-0.3c-0.6,0-0.6,0.2-1.2,0.2c-0.6,0-0.6-0.1-1.2-0.1
							c-0.6,0-0.6,0-1.2,0c-0.6,0-0.6,0.1-1.2,0.1c-0.6,0-0.6-0.2-1.2-0.2c-0.6,0-0.6,0.2-1.2,0.2c-0.6,0-0.6,0.2-1.2,0.2
							c-0.6,0-0.6-0.1-1.2-0.1c-0.6,0-0.6,0.3-1.2,0.3c-0.6,0-0.6-0.6-1.2-0.6c-0.6,0-0.6,0.1-1.2,0.1c-0.6,0-0.6,0.4-1.2,0.4
							c-0.6,0-0.6-0.4-1.2-0.4c-0.6,0-0.6,0.2-1.2,0.2c-0.6,0-0.6-0.2-1.2-0.2c-0.6,0-0.6,0-1.2,0c-0.6,0-0.6,0.1-1.2,0.1
							c-0.6,0-0.6-0.2-1.2-0.2c-0.6,0-0.6,0.1-1.2,0.1c-0.6,0-0.6,0-1.2,0c-0.6,0-0.6,0.1-1.2,0.1c-0.6,0-0.6-0.1-1.2-0.1
							c-0.6,0-0.6,0.1-1.2,0.1c-0.6,0-0.6,0.3-1.2,0.3c-0.6,0-0.6,0.1-1.2,0.1c-0.6,0-0.6-0.3-1.2-0.3s-0.6-0.1-1.2-0.1
							c-0.5,0-1.2-0.1-1.2-0.4c0-0.2,0.7-0.3,1.2-0.3c0.6,0,0.6-0.2,1.2-0.2c0.6,0,0.6-0.2,1.2-0.2c0.6,0,0.6,0.4,1.2,0.4
							c0.6,0,0.6-0.1,1.2-0.1c0.6,0,0.6-0.3,1.2-0.3c0.6,0,0.6,0.3,1.2,0.3c0.6,0,0.6-0.1,1.2-0.1c0.6,0,0.6,0.3,1.2,0.3
							c0.6,0,0.6-0.2,1.2-0.2c0.6,0,0.6-0.2,1.2-0.2c0.6,0,0.6,0.1,1.2,0.1c0.6,0,0.6,0,1.2,0c0.6,0,0.6,0.2,1.2,0.2
							c0.6,0,0.6-0.6,1.2-0.6c0.6,0,0.6,0,1.2,0c0.6,0,0.6,0.1,1.2,0.1c0.6,0,0.6,0,1.2,0c0.6,0,0.6,0.1,1.2,0.1
							c0.6,0,0.6-0.1,1.2-0.1c0.6,0,0.6,0.4,1.2,0.4c0.6,0,0.6,0.1,1.2,0.1c0.6,0,0.6-0.4,1.2-0.4c0.6,0,0.6,0.3,1.2,0.3
							c0.6,0,0.6-0.3,1.2-0.3c0.6,0,0.6,0.2,1.2,0.2c0.6,0,0.6,0,1.2,0c0.6,0,0.6,0.1,1.2,0.1c0.6,0,0.6,0.2,1.2,0.2
							c0.6,0,0.6-0.5,1.2-0.5c0.6,0,0.6,0.5,1.2,0.5c0.6,0,0.6-0.6,1.2-0.6c0.6,0,0.6,0,1.2,0c0.6,0,0.6,0,1.2,0
							c0.6,0,0.6,0.4,1.2,0.4c0.6,0,0.6,0,1.2,0c0.6,0,0.6-0.1,1.2-0.1c0.6,0,0.6-0.1,1.2-0.1c0.6,0,0.6-0.2,1.2-0.2
							c0.6,0,0.6,0.3,1.2,0.3c0.6,0,0.6,0,1.2,0s0.6-0.4,1.2-0.4c0.6,0,0.6,0.3,1.2,0.3c0.6,0,0.6-0.1,1.2-0.1
							c0.6,0,0.6,0.3,1.2,0.3c0.6,0,0.6-0.2,1.2-0.2c0.6,0,0.6-0.3,1.2-0.3c0.6,0,0.6,0,1.2,0c0.6,0,0.6,0.5,1.2,0.5
							c0.6,0,0.6-0.5,1.2-0.5c0.5,0,1.3,0.4,1.3,0.6C273.3,58.2,272.5,58.2,272,58.2z"/>
					</g>
				</g>
			</g>
			<g>
				<g>
					<g>
						<path class="st8" d="M272,107.8c-0.6,0-0.6-0.1-1.2-0.1c-0.6,0-0.6,0.2-1.2,0.2c-0.6,0-0.6-0.3-1.2-0.3
							c-0.6,0-0.6,0.3-1.2,0.3c-0.6,0-0.6-0.1-1.2-0.1c-0.6,0-0.6,0.2-1.2,0.2c-0.6,0-0.6-0.3-1.2-0.3c-0.6,0-0.6,0.2-1.2,0.2
							c-0.6,0-0.6-0.5-1.2-0.5c-0.6,0-0.6,0.6-1.2,0.6c-0.6,0-0.6,0-1.2,0c-0.6,0-0.6-0.6-1.2-0.6c-0.6,0-0.6,0-1.2,0
							c-0.6,0-0.6,0.4-1.2,0.4c-0.6,0-0.6,0-1.2,0c-0.6,0-0.6-0.1-1.2-0.1c-0.6,0-0.6-0.2-1.2-0.2c-0.6,0-0.6,0.5-1.2,0.5
							c-0.6,0-0.6-0.1-1.2-0.1c-0.6,0-0.6,0-1.2,0c-0.6,0-0.6-0.3-1.2-0.3c-0.6,0-0.6,0.1-1.2,0.1c-0.6,0-0.6-0.3-1.2-0.3
							c-0.6,0-0.6,0.1-1.2,0.1c-0.6,0-0.6,0.2-1.2,0.2c-0.6,0-0.6-0.2-1.2-0.2c-0.6,0-0.6-0.1-1.2-0.1c-0.6,0-0.6,0.2-1.2,0.2
							c-0.6,0-0.6,0.2-1.2,0.2c-0.6,0-0.6-0.4-1.2-0.4c-0.6,0-0.6,0.2-1.2,0.2c-0.6,0-0.6-0.1-1.2-0.1c-0.6,0-0.6,0.3-1.2,0.3
							c-0.6,0-0.6-0.4-1.2-0.4c-0.6,0-0.6,0.1-1.2,0.1c-0.6,0-0.6-0.1-1.2-0.1c-0.6,0-0.6-0.1-1.2-0.1c-0.6,0-0.6,0.1-1.2,0.1
							c-0.6,0-0.6-0.1-1.2-0.1c-0.6,0-0.6,0.2-1.2,0.2c-0.6,0-0.6,0.4-1.2,0.4c-0.6,0-0.6-0.3-1.2-0.3c-0.6,0-0.6-0.3-1.2-0.3
							c-0.6,0-0.6,0.6-1.2,0.6c-0.6,0-0.6-0.4-1.2-0.4c-0.6,0-0.6-0.1-1.2-0.1c-0.6,0-0.6,0.1-1.2,0.1c-0.6,0-0.6,0.4-1.2,0.4
							s-0.6-0.3-1.2-0.3c-0.5,0-1.3-0.1-1.3-0.3s0.8-0.1,1.3-0.1c0.6,0,0.6-0.3,1.2-0.3c0.6,0,0.6,0,1.2,0c0.6,0,0.6,0,1.2,0
							c0.6,0,0.6-0.3,1.2-0.3c0.6,0,0.6,0.5,1.2,0.5c0.6,0,0.6-0.2,1.2-0.2c0.6,0,0.6,0.1,1.2,0.1c0.6,0,0.6-0.5,1.2-0.5
							c0.6,0,0.6,0.2,1.2,0.2c0.6,0,0.6,0.3,1.2,0.3c0.6,0,0.6-0.2,1.2-0.2c0.6,0,0.6,0.3,1.2,0.3c0.6,0,0.6-0.6,1.2-0.6
							c0.6,0,0.6,0.1,1.2,0.1c0.6,0,0.6,0.2,1.2,0.2c0.6,0,0.6-0.1,1.2-0.1c0.6,0,0.6,0.3,1.2,0.3c0.6,0,0.6-0.1,1.2-0.1
							c0.6,0,0.6,0,1.2,0c0.6,0,0.6-0.2,1.2-0.2c0.6,0,0.6,0.4,1.2,0.4c0.6,0,0.6-0.5,1.2-0.5c0.6,0,0.6-0.1,1.2-0.1
							c0.6,0,0.6,0.4,1.2,0.4c0.6,0,0.6,0.1,1.2,0.1c0.6,0,0.6-0.4,1.2-0.4c0.6,0,0.6,0.3,1.2,0.3c0.6,0,0.6-0.1,1.2-0.1
							c0.6,0,0.6,0.1,1.2,0.1c0.6,0,0.6-0.4,1.2-0.4c0.6,0,0.6,0.3,1.2,0.3c0.6,0,0.6,0.1,1.2,0.1c0.6,0,0.6-0.2,1.2-0.2
							c0.6,0,0.6-0.2,1.2-0.2c0.6,0,0.6-0.1,1.2-0.1c0.6,0,0.6,0.3,1.2,0.3c0.6,0,0.6,0.4,1.2,0.4c0.6,0,0.6-0.1,1.2-0.1
							c0.6,0,0.6-0.1,1.2-0.1c0.6,0,0.6-0.3,1.2-0.3s0.6,0.1,1.2,0.1c0.6,0,0.6,0.3,1.2,0.3c0.6,0,0.6-0.1,1.2-0.1
							c0.6,0,0.6-0.2,1.2-0.2c0.6,0,0.6,0.1,1.2,0.1c0.6,0,0.6,0.3,1.2,0.3c0.6,0,0.6-0.4,1.2-0.4c0.6,0,0.6-0.3,1.2-0.3
							c0.6,0,0.6,0.2,1.2,0.2c0.5,0,1.2,0.3,1.2,0.6S272.5,107.8,272,107.8z"/>
					</g>
				</g>
			</g>
		</g>
	</g>
</g>
</svg>
