<?xml version="1.0" encoding="utf-8"?>
<!-- Generator: Adobe Illustrator 23.0.3, SVG Export Plug-In . SVG Version: 6.00 Build 0)  -->
<svg version="1.1" id="Layer_1" xmlns="http://www.w3.org/2000/svg" xmlns:xlink="http://www.w3.org/1999/xlink" x="0px" y="0px"
	 viewBox="0 0 144 70" style="enable-background:new 0 0 144 70;" xml:space="preserve">
<style type="text/css">
	.st0{fill:#F6B857;}
	.st1{fill:#5D1A10;}
	.st2{fill:#FFFFFF;}
	.st3{fill:#984122;}
</style>
<g>
	<path class="st0" d="M75.3064575,64.4143753c-1.3133469,0-2.4467926-0.9306526-2.9316483-2.2905388l-0.4800644,0.45578
		c-0.5348816,0.5079803-1.2087402,0.8017921-1.8969879,0.8268509c-13.5068626,0.4862061-13.507618,0.4862061-13.5485497,0.4862061
		c-0.7463684,0-1.4720154-0.3111153-2.0435371-0.8760681l-0.4065361-0.4014931
		c-0.5126534,0.5360222-1.1723557,0.8826294-1.9000244,0.9369164l-7.1612282,0.5348244
		c-0.0553322,0.004776-0.1288567,0.0077591-0.2008667,0.0077591c-0.7867928,0-1.5422554-0.341835-2.1276741-0.9625702
		c-0.0990448-0.1052933-0.1824226-0.2093964-0.2498856-0.3006706c-0.0639229-0.0736771-0.120266-0.145565-0.1695366-0.2126808
		c-0.0669556-0.0772552-0.1250687-0.1524239-0.1743355-0.2198334c-0.0598831-0.0695038-0.1104164-0.1336327-0.1536217-0.1917992
		c-0.0631638-0.0724831-0.1187515-0.1437759-0.1677666-0.2099953c-0.0631676-0.0727806-0.1184998-0.1437721-0.1670113-0.2093964
		c-0.0621567-0.071888-0.1167297-0.1416855-0.1647377-0.2064133c-0.0621529-0.0715904-0.1172333-0.141983-0.1667557-0.2093964
		c-0.062912-0.0721855-0.1184998-0.1434746-0.167263-0.2093964c-0.0656929-0.0760651-0.1230469-0.1497421-0.1738319-0.2192421
		c-0.0598831-0.0697975-0.1104126-0.1339302-0.1548843-0.1935883c-0.062912-0.0724831-0.1182442-0.143177-0.1675148-0.2099915
		c-0.0619011-0.0715904-0.1162224-0.1407928-0.1647339-0.2064133c-0.0619049-0.0712929-0.1169853-0.1419868-0.1665077-0.2088013
		c-0.0621529-0.0715904-0.1169815-0.1416855-0.1670074-0.2093964c-0.0667038-0.0769577-0.1248169-0.1518288-0.1776237-0.2240143
		c-0.0603867-0.0703964-0.1101608-0.1339302-0.1510925-0.1888161c-0.0626602-0.0718842-0.1177406-0.141983-0.1677666-0.2099915
		c-0.0662003-0.0760651-0.1233025-0.1497383-0.1702957-0.2132759c-0.0679665-0.0787468-0.125576-0.1536179-0.1723175-0.2174492
		c-0.0123787-0.0143166-0.0242538-0.0283394-0.0356255-0.0417595l-0.0080833,1.4189453
		c-0.0121307,2.057579-1.4399261,3.7318573-3.1830482,3.7327538l-7.2160549-0.0414619
		c-0.6877499-0.0038795-1.3580647-0.2771072-1.9096279-0.7740517c-0.0876732-0.0641327-0.1725693-0.1330376-0.2546844-0.2067146
		c-0.0891895-0.0647278-0.1758537-0.1348228-0.2594852-0.2099915c-0.0879269-0.0641327-0.1733265-0.1333351-0.2559471-0.2070122
		c-0.0889378-0.0650253-0.1753483-0.1348228-0.2587261-0.2096939c-0.0884323-0.0644302-0.1743374-0.1339302-0.2572117-0.2082024
		c-0.0886841-0.0647316-0.1748428-0.1345291-0.2579689-0.2090988c-0.0884323-0.0644302-0.1743374-0.1339302-0.2572098-0.2082062
		c-0.088686-0.0644302-0.1745911-0.1342278-0.2577171-0.2084999c-0.0886841-0.0647278-0.1748428-0.1345291-0.2577171-0.2088013
		c-0.0886841-0.0647278-0.1750946-0.1345253-0.2582207-0.2090988c-0.0879269-0.0641327-0.1735802-0.1336327-0.2562008-0.2076073
		c-0.0886841-0.0644302-0.1745892-0.1342278-0.2577152-0.2084999c-0.0891895-0.0650291-0.1758537-0.1351242-0.2592335-0.2099953
		c-0.087925-0.0641327-0.1733265-0.1333351-0.2559471-0.2073097c-0.0889378-0.0647278-0.1753483-0.1348228-0.2589798-0.2096939
		c-0.0876732-0.0641327-0.1733265-0.1333351-0.2559471-0.2070122c-0.0889378-0.0650253-0.1756001-0.1351242-0.2592316-0.2099915
		c-0.0881805-0.0644302-0.1738319-0.1339302-0.2567062-0.2079048c-0.0886841-0.0647278-0.1750946-0.1348267-0.2584743-0.2093964
		c-0.0881786-0.0644302-0.1738319-0.1336327-0.2564526-0.2076073c-0.0889378-0.0650291-0.1756001-0.1351242-0.2592316-0.2096977
		c-0.0876751-0.0644302-0.1730747-0.1333313-0.2556953-0.2073097c-0.088686-0.0647278-0.1750965-0.1345253-0.2584743-0.209095
		c-0.0884323-0.0647316-0.1745911-0.1345291-0.2579689-0.2088013c-0.0881805-0.0647278-0.1740856-0.1342278-0.256958-0.2082062
		c-0.0889378-0.0650253-0.1753483-0.1351204-0.2589798-0.2096939c-0.0876751-0.0641327-0.1730747-0.1333351-0.2556953-0.2070084
		c-0.0889378-0.0650291-0.1753483-0.1351242-0.2589798-0.2096977c-0.0881786-0.0647278-0.1740837-0.1342278-0.2572098-0.2082024
		c-0.0881805-0.0647278-0.1738319-0.1339302-0.2569599-0.2082024c-0.0889359-0.0650291-0.1756001-0.1351242-0.2594833-0.2099953
		c-0.0874214-0.0641327-0.172823-0.1333351-0.2556953-0.2070122c-0.0886841-0.0650253-0.1750965-0.1351204-0.258728-0.2096939
		c-0.0881786-0.0644302-0.1740837-0.1342278-0.2574635-0.2084999c-0.0881786-0.0644302-0.1740837-0.133934-0.2574635-0.2082062
		c-0.0884304-0.0650253-0.1745892-0.1348228-0.2577152-0.2088013c-0.0886841-0.0650253-0.1750965-0.1348228-0.2584743-0.2093964
		c-0.0881786-0.0647278-0.1738319-0.1339302-0.2567062-0.2079048c-0.0879269-0.0644302-0.1738319-0.1339302-0.256958-0.2079048
		c-0.0886841-0.0650253-0.1753483-0.1351242-0.2592316-0.2096939c-0.0881805-0.0650291-0.1738319-0.1342316-0.2567062-0.2079048
		c-0.0884323-0.0650291-0.1745892-0.1348267-0.2579689-0.2090988c-0.0884314-0.0647316-0.1743374-0.1345291-0.2577162-0.2085037
		c-0.0881796-0.0647278-0.1740847-0.1345253-0.2572107-0.2085037c-0.0884323-0.0650253-0.1745901-0.1345253-0.2577162-0.2084999
		c-0.0881796-0.0647278-0.1740847-0.1342278-0.2572107-0.2082024c-0.0884323-0.0650291-0.1745901-0.1348267-0.2584743-0.2090988
		c-0.0884323-0.0650291-0.1743374-0.1348267-0.2574635-0.2088013c-0.0876741-0.0644302-0.1735802-0.1339302-0.2567062-0.2079048
		c-0.0884314-0.0647278-0.1748428-0.1348267-0.2584734-0.2090988c-0.0884323-0.0650253-0.1745901-0.1348267-0.2579689-0.2088013
		c-0.0876741-0.0644302-0.1733274-0.1339302-0.2567062-0.2079048c-0.0886841-0.0650253-0.1748428-0.1351242-0.2584743-0.2090988
		c-0.0881786-0.0650253-0.1740847-0.1345253-0.2574635-0.2085037c-0.0884314-0.0653229-0.1745901-0.1348228-0.2579689-0.2087975
		c-0.0876741-0.0647278-0.1733265-0.1342316-0.2564526-0.2079048c-0.0884323-0.0650291-0.1748428-0.1351242-0.2587271-0.2094002
		c-0.0879269-0.0647278-0.1738319-0.1342278-0.256958-0.2079048c-0.0876741-0.0647278-0.1738319-0.1345253-0.2574635-0.2084999
		c-0.0884323-0.0650291-0.1748428-0.1351242-0.2584743-0.2093964c-0.0879269-0.0647316-0.1738319-0.1342316-0.256958-0.2082062
		c-0.0881796-0.0647278-0.1743383-0.1345253-0.2582216-0.2088013c-0.0881796-0.0653229-0.1740856-0.1348228-0.2574644-0.2084999
		c-0.0879259-0.0647278-0.1738319-0.1345291-0.2572107-0.2082024c-0.0879269-0.0650291-0.1740847-0.1345291-0.2577162-0.2088013
		c-0.0884314-0.0650253-0.1745901-0.1348267-0.2582216-0.2088013c-0.0879269-0.0650253-0.1740847-0.1348267-0.2579689-0.2088013
		c-0.0879269-0.0650253-0.1738319-0.1345253-0.256958-0.2082024c-0.0884323-0.0653229-0.1745901-0.1351242-0.2579689-0.2090988
		c-0.0853996-0.0629387-0.1692839-0.1306496-0.2506418-0.2025375c-0.2716122-0.1959724-0.5040627-0.4128265-0.7072039-0.6595078
		c-0.6912856-0.8375893-1.0760913-1.9910622-1.054615-3.1630287l0.6480808-35.053688
		c0.0401731-2.1891222,1.460392-4.0265646,3.3035679-4.2744403l8.6413279-1.1606312
		c0.1440163-0.0187922,0.2832336-0.028039,0.4214401-0.028039c1.3161221,0,2.5412846,0.827744,3.2088203,2.1643639
		c0.0773144,0.1225958,0.14604,0.2442966,0.2081947,0.3680854c0.0778198,0.1234903,0.1473026,0.2460856,0.2097092,0.3707695
		c0.0773163,0.1225953,0.14604,0.2439981,0.2076893,0.3671904c0.0778217,0.1234903,0.1470509,0.2457876,0.2092056,0.370173
		c0.0778198,0.1231918,0.1467972,0.2451911,0.208952,0.3692784c0.0773144,0.1219988,0.1462917,0.2442961,0.2092056,0.3695765
		c0.0778198,0.1237888,0.147049,0.2457876,0.208952,0.3695765c0.0778198,0.1231918,0.147049,0.2454891,0.2092056,0.3695765
		c0.0770607,0.1222973,0.1460381,0.2442961,0.2084465,0.3689795c0.0780735,0.1231928,0.1473026,0.2457876,0.2099628,0.371068
		c0.0773144,0.1225958,0.1460381,0.2439985,0.2076893,0.3674889c0.0778198,0.1231918,0.147049,0.2454891,0.208952,0.369278
		c0.0775681,0.1225958,0.1465435,0.2448931,0.208952,0.3695765c0.0783253,0.1237888,0.1478081,0.2466831,0.2099628,0.371068
		c0.0775681,0.1225958,0.1462917,0.2445946,0.2084465,0.3683834c0.0778217,0.1231918,0.1470509,0.2457876,0.2092056,0.370471
		c0.0778198,0.1225958,0.1465454,0.244297,0.2081947,0.3677874c0.0641766,0.1014166,0.1222878,0.2022381,0.1753483,0.3039532
		l3.1037121-6.506515c0.6591969-1.3816614,1.9030571-2.2401285,3.2459602-2.2401285c0.0432053,0,0.0520477,0,8.927845,0.3504863
		c1.5685349,0.0626397,2.9172478,1.2647328,3.4066582,3.0135846c0.0439606,0.1199107,0.0833778,0.2428045,0.1184959,0.3683834
		c0.0434608,0.1190162,0.0826225,0.2413135,0.1174889,0.3659968c0.0437126,0.1196127,0.0833778,0.2422085,0.1179962,0.3671904
		c0.0437088,0.1190157,0.0828705,0.241313,0.1177406,0.3662949c0.0280457,0.0763617,0.0540695,0.1539164,0.0785751,0.2329617
		c0.5460052-0.3913517,1.1814537-0.6219263,1.8588448-0.6344547c8.6387978-0.1580915,8.642334-0.1580915,8.6627998-0.1580915
		c1.1076775,0,2.1130219,0.5783768,2.7979927,1.5054502c0.1402283-0.2690544,0.3054695-0.5205097,0.4931984-0.7489967
		c0.6879997-0.8360958,1.6481209-1.3220038,2.6345139-1.3336368c8.5291481-0.1058917,8.5316734-0.1058917,8.5455666-0.1058917
		c1.3085403,0,2.4670029,0.8000031,3.1320114,2.0170107c0.5755692-0.6099949,1.3143539-1.0108919,2.1334839-1.1036587
		l7.8714676-0.8930688c0.0831223-0.0092468,0.1622086-0.014914,0.2415466-0.0178971
		c10.2856522-0.3698745,10.2927322-0.3698745,10.3326492-0.3698745c0.9780579,0,1.902298,0.4444461,2.602684,1.2513099
		c0.0320892,0.0369873,0.0634155,0.0745716,0.0942383,0.112752c0.5828934-0.5020151,1.2923737-0.8032837,2.0574341-0.8357973
		c9.954422-0.4232678,9.9630127-0.4232678,10.0102615-0.4232678c0.9644089,0,1.8795547,0.4337077,2.5766525,1.2211833
		c0.2256317,0.2556314,0.4219513,0.5431786,0.5851669,0.8536949c0.559906-0.4921722,1.2352676-0.7964239,1.9571304-0.8557835
		l17.8940887-1.4711466c0.0861664-0.0071588,0.1725769-0.0107384,0.258728-0.0107384
		c0.9154053,0,1.795929,0.3961239,2.4793854,1.1155901c0.7451019,0.7844925,1.197876,1.9090309,1.2423401,3.0857697
		l0.3423615,8.9831848c0.0452271,1.1803188-0.3223877,2.3513889-1.00914,3.2125416
		c-0.0515289,0.0647278-0.1056061,0.1258774-0.1611938,0.1843414c-0.0285492,0.0405655-0.0596313,0.0823269-0.0922241,0.1234894
		c-0.0522919,0.0653248-0.106369,0.1264744-0.1619568,0.185236c-0.0285492,0.0405674-0.0596313,0.0823269-0.0922241,0.1234913
		c-0.0522919,0.0653248-0.106369,0.12677-0.1622009,0.1855335c-0.0283051,0.0402679-0.0596313,0.0826244-0.0924835,0.1237888
		c-0.0520477,0.0653248-0.1061096,0.1264725-0.1616974,0.1849365c-0.0283051,0.0402699-0.0593719,0.0823269-0.0919647,0.1228943
		c-0.0525665,0.0659218-0.1068878,0.1273689-0.1627197,0.1861305c-0.0310822,0.0441456-0.0649414,0.0897846-0.1005554,0.1339302
		c-0.0464935,0.0587635-0.0985413,0.1175251-0.1538696,0.1753922c-0.0283051,0.0402699-0.0593872,0.0820293-0.0917206,0.1228943
		c-0.0523071,0.0653248-0.106369,0.1267719-0.1622162,0.1855335c-0.0285492,0.0405674-0.0593719,0.0820293-0.0917206,0.1225967
		c-0.0525513,0.0662193-0.1068726,0.1276665-0.1627045,0.1864281c-0.0283051,0.0402679-0.0596313,0.0823269-0.0922241,0.1234913
		c-0.0523071,0.0653248-0.1066284,0.12677-0.1624603,0.1858311c-0.0298157,0.0420589-0.0621643,0.0856094-0.0960083,0.1279659
		c-0.0497742,0.0623417-0.1025848,0.1219978-0.1574097,0.1798668c-0.0288086,0.0408649-0.0598907,0.082922-0.0924835,0.1234894
		c-0.0522919,0.0656223-0.106369,0.1270695-0.1619568,0.1855335c-0.0287933,0.0408649-0.0596313,0.0826263-0.0922241,0.1231918
		c-0.0522919,0.0659218-0.1068726,0.1276665-0.1627045,0.18643c-0.0298157,0.0423565-0.0621643,0.0856075-0.0957642,0.1276665
		c-0.0492706,0.0620441-0.1025848,0.1222973-0.1581726,0.1810589c-0.0287933,0.0405674-0.0596161,0.0823269-0.0922241,0.1231918
		c-0.0520477,0.0653248-0.106369,0.1267719-0.1622009,0.1855354c-0.0285492,0.0408649-0.0596313,0.0826244-0.0922241,0.1234894
		c-0.0523071,0.0653248-0.1066284,0.1270695-0.1624603,0.185833c-0.0272827,0.0387764-0.0565948,0.0784492-0.0871735,0.1169281
		c-0.0550842,0.0692024-0.1106567,0.1324387-0.1672668,0.1920967c-0.0285492,0.0402679-0.0591125,0.0817299-0.0914612,0.1219978
		c-0.0520477,0.0653248-0.1061096,0.1267719-0.1614532,0.185236c-0.0287933,0.0408649-0.0601349,0.0829239-0.0927277,0.1237888
		c-0.0525513,0.0662193-0.1071167,0.127964-0.163208,0.1870251c-0.0285492,0.0402699-0.0591278,0.0817318-0.091217,0.1217003
		c-0.0520477,0.0653248-0.1061249,0.1267719-0.1616974,0.185236c-0.029068,0.0414619-0.0601349,0.0832233-0.0927277,0.1243858
		c-0.0523071,0.0656223-0.1068878,0.1273689-0.1629791,0.1864281c-0.0285492,0.0405674-0.0593719,0.0817318-0.0914612,0.1222973
		c-0.0517883,0.0650272-0.1058655,0.1261768-0.1614532,0.1849384c-0.0287933,0.0411625-0.0598755,0.0829239-0.0924683,0.1234894
		c-0.0525513,0.0662212-0.107132,0.1279659-0.1632233,0.187027c-0.0288086,0.0408649-0.0593719,0.0817299-0.091217,0.1217003
		c-0.0522919,0.0659218-0.1066132,0.1273689-0.1624603,0.1861305c-0.0298157,0.042654-0.062149,0.085907-0.0960083,0.1282635
		c-0.0495148,0.0623417-0.1030884,0.1228924-0.1591797,0.1819534c-0.0285492,0.0405674-0.0591278,0.0814323-0.0909576,0.1214027
		c-0.0290527,0.0363903-0.058609,0.0715885-0.0886841,0.1055927l4.4117432-0.2669659
		c0.0581207-0.0038776,0.1250763-0.0059643,0.1910248-0.0059643c0.95961,0,1.8709564,0.4298286,2.5662994,1.210146
		c0.7367554,0.826252,1.1594696,1.9886742,1.1594696,3.1883812v9.7718506c0,1.1952324-0.4201813,2.3546715-1.1526489,3.1809235
		c-0.1821747,0.2055206-0.3873444,0.3892632-0.6240845,0.5583916c-0.081604,0.0715904-0.1649933,0.1384048-0.2496338,0.2007484
		c-0.0843811,0.0739746-0.1702881,0.1434746-0.2574615,0.2073097c-0.084137,0.0739746-0.1705475,0.1434746-0.2579651,0.2076073
		c-0.084137,0.0739746-0.1700439,0.143177-0.2572174,0.2073059c-0.0838776,0.0736771-0.1695251,0.1428795-0.2564545,0.2067146
		c-0.0843811,0.0739746-0.1702881,0.1434746-0.2577057,0.2073097c-0.0838928,0.0742722-0.1700439,0.1434746-0.2577209,0.2076073
		c-0.0838776,0.0739746-0.1697845,0.143177-0.2572174,0.2073059c-0.084137,0.0739746-0.1700287,0.1434784-0.2574615,0.2073097
		c-0.084137,0.0742722-0.1702881,0.1434746-0.2579651,0.2079048c-0.0836334,0.0736771-0.169281,0.1425819-0.2564545,0.2064133
		c-0.0836334,0.0739746-0.1697845,0.143177-0.2577209,0.2079086c-0.0836182,0.0733757-0.1695251,0.1425781-0.2572021,0.2070084
		c-0.084137,0.0739746-0.1703033,0.1434746-0.2582245,0.2079048c-0.0836334,0.0736771-0.169281,0.1428795-0.2566986,0.2070122
		c-0.0836334,0.0736771-0.1695404,0.1428795-0.2574768,0.2073097c-0.0838776,0.0739746-0.1700287,0.143177-0.2577057,0.2073059
		c-0.0833893,0.0736771-0.1690369,0.1428795-0.2567139,0.2070122c-0.0838776,0.0739746-0.1700439,0.1434746-0.2584686,0.2082024
		c-0.0828705,0.073082-0.1682739,0.1419868-0.2556915,0.2058182c-0.0836334,0.0739746-0.1700439,0.1437759-0.258728,0.2085037
		c-0.0833893,0.0736771-0.169281,0.1428795-0.2572174,0.2070084c-0.083374,0.0736771-0.169281,0.143177-0.2572021,0.2073097
		c-0.0831299,0.0733795-0.1690369,0.1425819-0.256958,0.2070122c-0.0836334,0.0739746-0.1697998,0.143177-0.2577209,0.2079048
		c-0.0836334,0.0736771-0.1695404,0.1428795-0.2577209,0.2073097c-0.0831146,0.0736732-0.1687775,0.1425781-0.2566986,0.2067108
		c-0.0836334,0.0742722-0.1700439,0.1437721-0.2584839,0.2084999c-0.0831146,0.0733795-0.1687775,0.1422844-0.2566986,0.2067146
		c-0.0831299,0.0736771-0.169281,0.1428795-0.2577209,0.2073097c-0.0831146,0.0736771-0.169281,0.1428795-0.2574615,0.2073059
		c-0.0828705,0.0733795-0.1685181,0.1422844-0.2564545,0.2067146c-0.083374,0.0739746-0.1697845,0.1434746-0.2584686,0.2082024
		c-0.0828781,0.0733795-0.1687775,0.1425819-0.2567062,0.2070122c-0.0828781,0.0733757-0.1690292,0.1425781-0.2574615,0.2070084
		c-0.0833817,0.0739746-0.1697922,0.1434784-0.2582245,0.2082062c-0.0831299,0.0733757-0.1687775,0.1425781-0.2567062,0.2067108
		c-0.0828705,0.0733795-0.1685257,0.1425819-0.2567062,0.2070122c-0.083374,0.0739746-0.1697922,0.1434746-0.2584763,0.2082024
		c-0.0828705,0.0733795-0.1685257,0.1422806-0.2566986,0.2067108c-0.0828781,0.0733795-0.1687851,0.1428795-0.2574692,0.2073097
		c-0.083374,0.0739746-0.1695328,0.1434746-0.2584686,0.2082024c-0.0826263,0.0733795-0.1682739,0.1422844-0.2564545,0.2067146
		c-0.0828781,0.0733795-0.1687775,0.1425819-0.2574692,0.2073097c-0.0828705,0.0733757-0.1685257,0.1425781-0.256958,0.2070084
		c-0.0828705,0.0736771-0.1690292,0.143177-0.2579651,0.2079048c-0.0826187,0.073082-0.1682739,0.1422844-0.2567062,0.2067146
		c-0.0826187,0.0733757-0.1685257,0.1425781-0.2572098,0.2073097c-0.0831299,0.0736732-0.1695404,0.143177-0.258728,0.2082024
		c-0.0823669,0.0730782-0.1680222,0.1422806-0.2564545,0.2067108c-0.0826187,0.0733795-0.1687775,0.1425819-0.2577133,0.2076073
		c-0.0823669,0.073082-0.1680222,0.1419868-0.2564545,0.2064133c-0.0826187,0.0736771-0.1687775,0.1428795-0.2574615,0.2076073
		c-0.0828781,0.0736771-0.1690369,0.143177-0.2582245,0.2079086c-0.0821152,0.0730782-0.1677704,0.1422806-0.2567062,0.2070084
		c-0.0831223,0.0736771-0.1695328,0.143177-0.258728,0.2082024c-0.0818634,0.0727844-0.1672592,0.1413879-0.2556915,0.2058182
		c-0.0828705,0.074276-0.1695404,0.1437759-0.2589798,0.2088013c-0.0823669,0.0733795-0.1680222,0.1422844-0.2567062,0.2067108
		c-0.0823669,0.0733795-0.1682739,0.1425819-0.256958,0.2073097c-0.0823669,0.073082-0.1680222,0.1422844-0.256958,0.2067146
		c-0.0826187,0.0736732-0.1690292,0.143177-0.2584763,0.2082024c-0.0821152,0.0733795-0.1677628,0.1422806-0.256958,0.2070084
		c-0.0818634,0.073082-0.167511,0.1419868-0.2564545,0.2067146c-0.0826187,0.0736771-0.1690292,0.143177-0.2587204,0.2082024
		c-0.0821152,0.0733795-0.1680222,0.1425819-0.2572174,0.2073097c-0.0821152,0.073082-0.1677628,0.141983-0.2564468,0.2067108
		c-0.0823746,0.0736771-0.1685257,0.1428795-0.2579727,0.2076073c-0.0823669,0.0736771-0.1682739,0.1428795-0.2577133,0.2076073
		c-0.0803452,0.0715904-0.1639786,0.1393013-0.2514038,0.2028351c-0.555603,0.5035095-1.2342529,0.7782288-1.9333725,0.7782288
		c-0.0507889,0-0.1020813-0.0014877-0.1536179-0.0044708l-13.6180344-0.7448235
		c-0.607399-0.0334091-1.1683121-0.2654762-1.6387711-0.6422119c-0.5096207,0.486805-1.1369858,0.7791252-1.8037643,0.8259544
		l-6.8992081,0.4841232c-0.0654449,0.0044708-0.1270905,0.0068588-0.1887436,0.0068588
		c-0.8075104,0-1.5778809-0.3579445-2.1693649-1.0079117c-0.083374-0.0915718-0.1624603-0.1885147-0.2364883-0.2896347
		c-0.3203812,0.1697235-0.6675415,0.2780037-1.0293503,0.3146935l-13.1389847,1.3410912
		C75.495697,64.4095993,75.4006958,64.4143753,75.3064575,64.4143753z"/>
	<path class="st1" d="M135.7292633,33.7306519c-0.3469086-0.3892632-0.8067627-0.6049232-1.28302-0.6049232
		c-0.0315857,0-0.0636749,0.0008926-0.09552,0.0029793l-8.3868866,0.5076866l0.0267181-0.9176407
		c0.0130768-0.0153236,0.0287704-0.0266228,0.0414352-0.0425072c0.0356293-0.0446663,0.062439-0.0964203,0.093956-0.1445198
		c0.0548325-0.0526848,0.1113052-0.1028709,0.1603165-0.1643562c0.0356293-0.0446663,0.062439-0.0963821,0.0939636-0.1444435
		c0.0548248-0.0527611,0.1113281-0.1029091,0.160347-0.1643944c0.0356216-0.0446663,0.062439-0.0964565,0.0939865-0.144556
		c0.0547638-0.0527592,0.1112976-0.1028347,0.1603165-0.1643181c0.0355911-0.044632,0.0623398-0.0964203,0.0939255-0.1444454
		c0.0547638-0.0528336,0.1113281-0.1029091,0.1603775-0.1643925c0.0356293-0.0446682,0.0623779-0.0964584,0.0939636-0.1444817
		c0.0547333-0.0528717,0.1113281-0.1029091,0.1603394-0.1643944c0.0356293-0.0446682,0.0623474-0.0964584,0.0939636-0.1444817
		c0.0547028-0.0529079,0.1113281-0.1029091,0.160347-0.1643925c0.0356216-0.0446682,0.0623398-0.0964966,0.0939865-0.1445198
		c0.0546722-0.0529461,0.1112671-0.1028709,0.1602859-0.1643181c0.0356216-0.0446682,0.0623474-0.0965328,0.0940247-0.144558
		c0.0546341-0.0529823,0.1112595-0.1028709,0.1602859-0.1643181c0.0355835-0.0446301,0.0622406-0.0964584,0.0939178-0.1444454
		c0.0546417-0.0530205,0.1113281-0.1029091,0.1603851-0.1643925c0.0356293-0.0446682,0.0623169-0.0965328,0.0939941-0.1445198
		c0.0545959-0.0530567,0.1112976-0.1028709,0.1603088-0.1643562c0.0356293-0.0446682,0.0622559-0.0965328,0.0939636-0.1444817
		c0.0545959-0.0530949,0.1112976-0.1028709,0.1603394-0.1643562c0.0356293-0.0446682,0.0622559-0.0966072,0.0939941-0.144556
		c0.0545349-0.053133,0.1112976-0.1028709,0.1603088-0.1643181c0.0356293-0.0446682,0.0622559-0.096571,0.0939941-0.1445198
		c0.0545502-0.0531693,0.1112671-0.1028709,0.1602783-0.1643181c0.0356293-0.0446682,0.0622253-0.0966454,0.0939941-0.144558
		c0.0545197-0.0532055,0.1112976-0.1028709,0.1603088-0.1643181c0.0356293-0.0446682,0.0621948-0.0966454,0.0939941-0.144556
		c0.0544891-0.0532455,0.1112976-0.1028728,0.1603241-0.16432c0.0355835-0.0446682,0.0621185-0.0965691,0.0939178-0.1444435
		c0.0544891-0.0533199,0.1113281-0.1029091,0.1603851-0.1643944c0.0356293-0.0447044,0.0621796-0.0966816,0.0940247-0.144556
		c0.0544434-0.053318,0.1112671-0.1028709,0.1602783-0.1643181c0.0355988-0.044632,0.062088-0.0966072,0.0939331-0.1444454
		c0.0544434-0.0533924,0.1113281-0.1029091,0.1603699-0.1643925c0.0356598-0.0447063,0.0621948-0.0967579,0.0940552-0.1446323
		c0.0543518-0.0533562,0.1112366-0.1027966,0.1602173-0.1642437c0.0355988-0.0446301,0.0620575-0.0966072,0.0939026-0.1444073
		c0.0544128-0.0534687,0.1113586-0.1029453,0.1604004-0.1644306c0.0356293-0.0446682,0.0621033-0.0966816,0.0939636-0.1444817
		c0.0543823-0.0534687,0.1113281-0.1029091,0.1603394-0.1643925c0.0356293-0.0446701,0.0620728-0.0966835,0.0939636-0.1444836
		c0.0543518-0.0535049,0.1113281-0.1029091,0.1603546-0.1643925c0.0355835-0.044632,0.062027-0.0966816,0.0939178-0.1444454
		c0.0543213-0.0535431,0.1113281-0.1029091,0.1603851-0.1643925c0.035614-0.0446682,0.0620575-0.096756,0.0939941-0.144558
		c0.0542908-0.0535793,0.1112976-0.1028709,0.1603088-0.1643181c0.0356293-0.0446682,0.062027-0.0967178,0.0939636-0.1444817
		c0.0542603-0.0536175,0.1112976-0.1029091,0.1603088-0.1643562c0.0356293-0.0446682,0.0619965-0.0967197,0.0939636-0.1444817
		c0.0542603-0.0536537,0.1113281-0.1029091,0.1603394-0.1643925c0.0355988-0.044632,0.0619354-0.0967197,0.0939026-0.1444092
		c0.0542603-0.05369,0.1113586-0.1029453,0.1604004-0.1644287c0.0356293-0.0446701,0.0619965-0.0967941,0.0939941-0.1445198
		c0.0542297-0.05373,0.1112976-0.1028728,0.1603088-0.1643562c0.0355988-0.044632,0.0619049-0.0967197,0.0939026-0.1444073
		c0.0542297-0.0537663,0.1113586-0.1029472,0.1604156-0.1644306c0.035614-0.0446682,0.0619202-0.0967941,0.0939484-0.1444817
		c0.0541992-0.0537663,0.1113281-0.1029091,0.1603546-0.1643944c0.035614-0.0446682,0.0619354-0.0968685,0.0939941-0.144556
		c0.0541534-0.0538044,0.1112518-0.1028347,0.1602783-0.1643181c0.0355835-0.044632,0.0618744-0.0967197,0.0938873-0.144371
		c0.0541687-0.0538788,0.1113739-0.1029453,0.1604156-0.1644669c0.0356293-0.0446682,0.0619049-0.0968323,0.0939636-0.1444836
		c0.0541229-0.0538769,0.1113281-0.1029072,0.1603394-0.1643925c0.0355988-0.0446301,0.0618439-0.0967941,0.0939331-0.1444454
		c0.0540924-0.053915,0.1113281-0.1029091,0.1603699-0.1643925c0.3451385-0.4328136,0.5273132-1.0123825,0.5045776-1.6062698
		l-0.3423615-8.9834843c-0.0224915-0.5920973-0.2465973-1.1484013-0.621048-1.5427351
		c-0.3423615-0.3603296-0.7840118-0.5577955-1.2398224-0.5577955c-0.0429535,0-0.0861511,0.00179-0.129364,0.0053692
		l-17.893837,1.4711475c-0.7058792,0.0579786-1.2916183,0.5782642-1.565155,1.2961645
		c-0.0648041,0.1102543-0.1205826,0.227108-0.1675491,0.3505983c-0.0648041,0.1102171-0.1206131,0.2270699-0.1675415,0.3505983
		c-0.0648727,0.1102533-0.1207733,0.2270699-0.1676483,0.3507099c-0.0648651,0.1102161-0.1207733,0.2270327-0.167572,0.3506727
		c-0.0648727,0.1101418-0.1207733,0.2269211-0.1675186,0.350523c-0.0648727,0.1101799-0.1208649,0.2269211-0.1675491,0.3505983
		c-0.0649033,0.1101789-0.1209259,0.2268839-0.1675491,0.3505974c-0.0649338,0.1101799-0.1210251,0.2268839-0.1676102,0.3506727
		c-0.0649338,0.1101055-0.1210251,0.2267351-0.167511,0.3505239c-0.0649643,0.1101418-0.1211548,0.2268467-0.1676102,0.3507099
		c-0.0451965,0.0765848-0.0839157,0.1574574-0.1202698,0.240941l-0.0246048-4.0735826
		c-0.0037842-0.5941858-0.210968-1.1615257-0.5743027-1.5725641c-0.3474121-0.3925447-0.8092804-0.6108894-1.2885818-0.6108894
		c-0.0222321,0-9.9430466,0.4217758-9.9430466,0.4217758c-0.8389969,0.0356455-1.5232086,0.7258797-1.7269821,1.6410217
		c-0.0436478,0.112752-0.0773087,0.230463-0.1044083,0.3523502c-0.0436783,0.1127892-0.077446,0.2305374-0.1044769,0.3525
		c-0.0436783,0.1126776-0.0774078,0.2303514-0.1043854,0.3522377c-0.0437393,0.1127157-0.0774994,0.230464-0.1044388,0.3524628
		c-0.0437164,0.1126776-0.0775681,0.2303886-0.1044464,0.3523502c-0.0437775,0.112752-0.0776978,0.230464-0.1045074,0.3525743
		c-0.0437469,0.1126404-0.0776291,0.2303143-0.1043854,0.3522758c-0.0438004,0.1126776-0.0777206,0.2303514-0.1044388,0.3524256
		c-0.043808,0.1126022-0.0777588,0.2303143-0.1044159,0.3523502c-0.0438385,0.1126776-0.0778503,0.2303514-0.1044769,0.3525
		c-0.0438385,0.1126022-0.0779114,0.2302389-0.1044464,0.3523874c-0.043869,0.1126032-0.0779419,0.2302017-0.1044083,0.3523512
		c-0.0005417,0.0013409-0.0012054,0.0026093-0.0017395,0.003952l0.0232773-4.1869307
		c0.0032806-0.5971689-0.1993484-1.170475-0.5614166-1.5877771c-0.3486786-0.4017916-0.8158493-0.6258049-1.3014679-0.6258049
		c-0.0186996,0-10.2747955,0.3686819-10.2747955,0.3686819c-0.0404205,0.0014915-0.0808487,0.0044746-0.1212769,0.0089483
		l-7.87146,0.8930693c-0.8994827,0.1020136-1.6074448,0.9515324-1.6789474,2.0149221l-0.8800278,13.0816364
		c-0.0048904,0.0727081-0.0021439,0.144371-0.0009766,0.2162571l-0.0051804,0.0768833
		c-0.0048599,0.0725956-0.0021744,0.1441479-0.0009766,0.2159595l-0.0051804,0.0771809
		c-0.0048981,0.0726337-0.002182,0.1442223-0.0009766,0.2160339l-0.0051804,0.0771065
		c-0.0048981,0.0726337-0.0022125,0.1442966-0.0009842,0.2161083l-0.0051804,0.077034
		c-0.0048904,0.07267-0.0022354,0.1443691-0.0009766,0.2162189l-0.0051804,0.0769577
		c-0.0048904,0.07267-0.0022736,0.144371-0.0009766,0.2162209l-0.0051804,0.0769196
		c-0.0048981,0.0725956-0.0023041,0.1441841-0.0009766,0.2159595l-0.0051804,0.0771828
		c-0.0048981,0.0725937-0.0023041,0.1442585-0.0009842,0.216032l-0.0051727,0.0771084
		c-0.0048981,0.0726318-0.0023422,0.1442585-0.0009842,0.2160702l-0.0051804,0.0770702
		c-0.0048904,0.07267-0.0023651,0.1443329-0.0009766,0.2161446l-0.0051804,0.0769958
		c-0.0048599,0.0725212-0.0023956,0.1440716-0.0009766,0.2157726l-0.0052109,0.0774059
		c-0.0048981,0.0725956-0.0024338,0.1441841-0.0009842,0.2159214l-0.0051727,0.077219
		c-0.0048981,0.0725956-0.0024643,0.1442585-0.0009842,0.2159958l-0.0051804,0.0771446
		c-0.0048904,0.0726318-0.0024948,0.1442966-0.0009766,0.2160702l-0.0051804,0.0770702
		c-0.0048981,0.07267-0.0024948,0.144371-0.0009766,0.2161465l-0.0051804,0.0769939
		c-0.0048981,0.07267-0.0025253,0.1444454-0.0009766,0.2162209l-0.0051804,0.0769196
		c-0.0048981,0.0727081-0.0025635,0.1444454-0.0009842,0.216259l-0.0051804,0.0768814
		c-0.0048904,0.0726337-0.0025864,0.1442966-0.0009766,0.2160339l-0.0051804,0.0771446
		c-0.0048904,0.0726337-0.0026169,0.1442966-0.0009766,0.2160339l-0.0046158,0.0688305L73.091835,12.0885019
		c-0.0545807-1.1668949-0.8721924-2.0784578-1.8598557-2.0784578c-0.0065689,0-8.5266151,0.1055937-8.5266151,0.1055937
		c-0.4967384,0.0059652-0.9707336,0.2460861-1.3168793,0.6666689c-0.3458977,0.4205837-0.5353928,0.9870291-0.5262985,1.5734596
		l0.2433777,15.3946209c-0.0077057-0.0395222-0.0219803-0.0755405-0.0318031-0.1140194
		c-0.0097923-0.12047-0.0288048-0.2366161-0.0575142-0.3489208c-0.0098534-0.1203957-0.0288353-0.2365036-0.0574799-0.3487701
		c-0.0098839-0.12047-0.0288658-0.2366543-0.0575142-0.348959c-0.0099792-0.1203957-0.0288963-0.2365398-0.0575104-0.3488827
		c-0.0100441-0.1203575-0.0289307-0.236578-0.0575142-0.3488827c-0.0100746-0.1202831-0.0289612-0.2364292-0.0574799-0.3487339
		c-0.0101395-0.1203957-0.0289917-0.236578-0.0575104-0.3489933c-0.0102348-0.1203213-0.0290565-0.2364674-0.0575142-0.3488846
		c-0.0102654-0.1202831-0.0290565-0.2365036-0.0575104-0.3488827c-0.0103302-0.1202469-0.0290909-0.2364292-0.0575142-0.3488445
		c-0.0103607-0.1202106-0.0291176-0.2363548-0.0574799-0.348772c-0.0104218-0.1202831-0.0291519-0.2365398-0.0575142-0.3490314
		c-0.0104866-0.1202087-0.0291824-0.2363167-0.0575104-0.348772c-0.0105515-0.1202087-0.0292168-0.2364273-0.0575142-0.3489189
		c-0.0106125-0.1201725-0.0292435-0.2363548-0.0575104-0.3488083c-0.010643-0.1202087-0.0292778-0.2364674-0.0575447-0.3489952
		c-0.0107079-0.1201344-0.0292473-0.2363167-0.0574799-0.3488464c-0.0107384-0.1200962-0.0293121-0.2363167-0.0575142-0.3488445
		c-0.0107994-0.12006-0.0293083-0.2362804-0.0574799-0.3488083c-0.0108643-0.1200981-0.0294037-0.2363548-0.0575447-0.3489571
		c-0.0109291-0.12006-0.0293732-0.2362804-0.0574799-0.3488464c-0.0109596-0.12006-0.029438-0.2363167-0.0575142-0.3489208
		c-0.0110207-0.1199856-0.0294647-0.2362041-0.0575104-0.3487701c-0.011055-0.1199856-0.0294685-0.2362061-0.0574837-0.3488083
		c-0.011116-0.12006-0.0295296-0.2363548-0.0575409-0.3490314c-0.0111504-0.1199493-0.0295334-0.2362061-0.0574837-0.3488464
		c-0.0112114-0.1199112-0.0295906-0.2361679-0.0575104-0.3488083c-0.0112457-0.1199474-0.0295944-0.2362061-0.0575142-0.3488827
		c-0.0113068-0.1199112-0.0295906-0.2361679-0.0574799-0.3488464c-0.0113373-0.1199112-0.0296249-0.2362041-0.0575142-0.3489189
		c-0.0113983-0.119875-0.0296555-0.2361679-0.0575104-0.3488827c-0.0114326-0.1198368-0.0296898-0.2361698-0.0575142-0.3488846
		c-0.0114937-0.1198349-0.0297508-0.2361298-0.0575104-0.3488445c-0.0115585-0.1197987-0.0297203-0.2360563-0.0574799-0.3487711
		c-0.0115929-0.119874-0.0297508-0.2361679-0.0575142-0.3489952c-0.0116539-0.1197615-0.0297813-0.2360563-0.0575104-0.3488083
		c-0.0116882-0.1197615-0.0298157-0.2360935-0.0575142-0.3488827c-0.0117188-0.1197996-0.0298462-0.2360935-0.0575142-0.3489199
		c-0.0117798-0.1197252-0.0298424-0.2359819-0.0574799-0.3487339c-0.0118103-0.1197996-0.0298767-0.2361679-0.0575104-0.3490324
		c-0.0118446-0.1197243-0.029911-0.235981-0.0575142-0.3488083c-0.0119057-0.1197243-0.0299416-0.2360563-0.0575104-0.3489199
		c-0.01194-0.1196499-0.0299721-0.2360191-0.0575142-0.3488455c-0.1096573-1.0953817-0.8900681-1.9417315-1.840271-1.9417315
		l-8.6339989,0.157794c-1.0134315,0.0184937-1.8280182,0.9900112-1.8340797,2.1861391l-0.0126953,2.5931129
		c-0.026722-0.1012688-0.0575447-0.199666-0.0967712-0.2934017c-0.029213-0.127965-0.0690079-0.250001-0.1177711-0.3665562
		c-0.0293121-0.1280775-0.0691376-0.2501879-0.1179314-0.3668547c-0.0293732-0.1278906-0.0690079-0.2499266-0.1177406-0.3664818
		c-0.0294685-0.1279278-0.0690727-0.2500763-0.117836-0.3667431c-0.0295296-0.1278534-0.0691032-0.250001-0.1178055-0.3666315
		c-0.0296249-0.1278524-0.0691338-0.2500381-0.117836-0.3667049c-0.029686-0.1277781-0.0691338-0.2499266-0.1178017-0.3665934
		c-0.0297546-0.127779-0.0691681-0.250001-0.117836-0.3666687c-0.0298462-0.1277781-0.0691681-0.2500381-0.117836-0.3667431
		c-0.0298767-0.1275911-0.0691376-0.2497396-0.1177101-0.3663692c-0.0299721-0.1278162-0.0692635-0.2501879-0.1179619-0.3670416
		c-0.0300369-0.1276293-0.0691681-0.2498894-0.1177711-0.3665562c-0.0300674-0.1275921-0.0691986-0.249815-0.117775-0.366519
		c-0.0301933-0.1276293-0.0693245-0.2501125-0.1179314-0.3668919c-0.0302238-0.1274424-0.0691948-0.2497396-0.1177063-0.3664074
		c-0.0302887-0.1275167-0.069294-0.2499266-0.117836-0.3667049c-0.0303535-0.1275177-0.069294-0.2499638-0.1178703-0.3667803
		c-0.0304108-0.1274061-0.0692291-0.249815-0.1177711-0.3665562c-0.0304756-0.1273689-0.069294-0.249815-0.1178055-0.3665943
		c-0.2159615-0.9008985-0.8997307-1.5677171-1.7246742-1.6003046c0,0-8.8447227-0.3492932-8.8656921-0.3492932
		c-0.6708221,0-1.2921181,0.4268475-1.6228542,1.1200643l-4.5942039,9.6312113l-0.0261497-0.053915
		c-0.0466805-0.0962715-0.1015072-0.184267-0.1598091-0.2681599l-0.0488281-0.100708
		c-0.0468044-0.096571-0.1017914-0.1848259-0.1602516-0.26898l-0.0484161-0.0998878
		c-0.0469322-0.0967579-0.1019802-0.1852741-0.1605663-0.2696514l-0.0481014-0.0992165
		c-0.0470581-0.0970182-0.1022339-0.1857586-0.1609154-0.2703972l-0.0477524-0.0984716
		c-0.0471535-0.0972414-0.1024551-0.1862049-0.1612625-0.2710676l-0.0474052-0.0978003
		c-0.0472488-0.0974646-0.102644-0.1866522-0.1615467-0.2717018l-0.047121-0.0972033
		c-0.0473747-0.0976887-0.1028671-0.1871748-0.1619263-0.2724848l-0.0467434-0.096384
		c-0.0475006-0.097949-0.103117-0.1876211-0.1622715-0.2731552l-0.0463963-0.0957127
		c-0.0476265-0.0982103-0.1033707-0.1881437-0.1626511-0.2739382l-0.0460167-0.0949297
		c-0.0477219-0.0984344-0.1035919-0.1886282-0.1629982-0.2746468L25.0244064,13.42941
		c-0.0478172-0.0985842-0.1037178-0.1889648-0.1631889-0.2751694l-0.0454483-0.0937357
		c-0.0479412-0.0988455-0.1039696-0.1894865-0.163599-0.2759151l-0.0450687-0.0929537
		c-0.048069-0.0991049-0.1042233-0.1900454-0.1639786-0.2767344l-0.0446892-0.0921335
		c-0.0481644-0.0993662-0.1044445-0.1905298-0.1643257-0.2774429l-0.044342-0.0914249
		c-0.0482903-0.0995903-0.1046658-0.1909781-0.1646729-0.2781515l-0.0439949-0.0907164
		c-0.0484161-0.0998144-0.1049194-0.1914253-0.16502-0.2788229l-0.0436478-0.090045
		c-0.0485115-0.1000385-0.1050777-0.1918726-0.1653061-0.2794571l-0.0433617-0.0894489
		c-0.0486069-0.1002617-0.1053295-0.1923571-0.1656837-0.2802019l-0.0429859-0.088666
		c-0.0487309-0.100522-0.1055489-0.1928415-0.1660309-0.2809105l-0.0426369-0.0879574
		c-0.0488262-0.100709-0.1057396-0.1932526-0.1662827-0.2815075l-0.0423527-0.0873604
		c-0.048954-0.1009703-0.1059933-0.1938114-0.1666946-0.2823286l-0.041975-0.0865402
		c-0.049078-0.1011934-0.1061802-0.1941843-0.1669769-0.2829237l-0.0416908-0.0859814
		c-0.0491734-0.1014175-0.1064014-0.1946316-0.167326-0.2835951l-0.0413418-0.0852728
		c-0.0493011-0.1016407-0.1066227-0.195117-0.1676731-0.2843037L22.103117,8.2651453
		c-0.049427-0.101902-0.1068764-0.1956387-0.1680527-0.2850871L21.8944492,7.896277
		c-0.0495224-0.1020885-0.1070671-0.1960487-0.1683369-0.2856836l-0.0403309-0.0831847
		c-0.3342743-0.6893392-0.953804-1.1066413-1.6162853-1.1066413c-0.0699883,0-0.14048,0.0047727-0.2109737,0.0140195
		L11.2174482,7.595418c-0.9260092,0.1243854-1.6316977,1.0374393-1.6519108,2.1372204L8.9174576,44.7860298
		c-0.0108652,0.5897102,0.1791382,1.1597366,0.527813,1.5821075c0.1239309,0.1503372,0.2683277,0.2682343,0.4201155,0.3698387
		c0.0814199,0.0784874,0.1667891,0.1478004,0.2574949,0.2084656c0.0814838,0.0786362,0.1669474,0.1479874,0.2577791,0.2086868
		c0.081358,0.0785637,0.1667891,0.1478386,0.2575274,0.2084656c0.0814199,0.0787125,0.1668835,0.1480637,0.2577162,0.2086525
		c0.081357,0.0787086,0.1668205,0.1480217,0.2576523,0.2085762c0.0813265,0.0787086,0.1668215,0.1480598,0.2576532,0.2085762
		c0.0813265,0.0787849,0.1668205,0.148098,0.2576532,0.2085762c0.0812941,0.0787849,0.1667576,0.1481361,0.2576532,0.2085762
		c0.0812941,0.0788612,0.1667891,0.1481743,0.2576847,0.2085762c0.0812311,0.0788612,0.1667261,0.1482124,0.2576218,0.2085419
		c0.0812311,0.0789337,0.1667252,0.1482849,0.2576523,0.2085762c0.0812311,0.078968,0.1667576,0.1483955,0.2577486,0.2086868
		c0.0811672,0.0789719,0.1666622,0.1482849,0.2576208,0.2085037c0.0811367,0.0790062,0.1666002,0.1483574,0.2575588,0.2085381
		c0.0811682,0.0790825,0.1666622,0.1484718,0.2576847,0.2086143c0.0811043,0.0791206,0.1666937,0.1484718,0.2577162,0.2085762
		c0.0810413,0.0791206,0.1665363,0.1484718,0.2575264,0.2084999c0.0810738,0.0792351,0.1666946,0.1486244,0.2578115,0.2086906
		c0.0810413,0.0792313,0.1665678,0.1485825,0.2576208,0.2085381c0.0810099,0.0792694,0.1665363,0.1486206,0.2576218,0.2085762
		c0.0809784,0.0793457,0.1665363,0.148735,0.2576847,0.2086143c0.0809469,0.0793457,0.1664734,0.1486588,0.2575903,0.2085037
		c0.080946,0.07938,0.1665049,0.1488075,0.2576523,0.2085762c0.0809155,0.0794563,0.1664734,0.1488457,0.2576542,0.2085762
		c0.080883,0.0795288,0.1664734,0.1488457,0.2576847,0.2085762c0.0808506,0.079567,0.1664085,0.1489182,0.2576523,0.2086143
		c0.0808201,0.079567,0.166441,0.1489563,0.2576847,0.2085762c0.0808201,0.0796432,0.166378,0.1490326,0.2576523,0.2085762
		c0.0807571,0.0796814,0.1663799,0.1490326,0.2576542,0.2085762c0.0807571,0.0797157,0.1663475,0.1491051,0.2576523,0.2085762
		c0.0806942,0.079792,0.1662846,0.1491814,0.2576218,0.2085762c0.0806942,0.0798302,0.1663151,0.1491814,0.2576847,0.2085762
		c0.0806313,0.0798302,0.1662521,0.1492195,0.2575893,0.2085419c0.0806637,0.0799026,0.1663151,0.1493645,0.2577477,0.2086487
		c0.0806007,0.0799408,0.1661892,0.149292,0.2575588,0.2085037c0.0805988,0.0800514,0.1662846,0.1494408,0.2577801,0.2086525
		c0.0805035,0.0800133,0.1660938,0.1494026,0.2575264,0.2084999c0.0805359,0.0801277,0.1662197,0.1495895,0.2577477,0.2086525
		c0.0804729,0.0801277,0.1661263,0.1495514,0.2576218,0.2085762c0.0804729,0.0802383,0.1661568,0.1496658,0.2577152,0.2086143
		c0.0803795,0.0802002,0.1660328,0.1495895,0.2575283,0.2084656c0.08041,0.080349,0.1660938,0.1497383,0.2576847,0.2086105
		c0.0803452,0.0803528,0.1660614,0.1497803,0.2576847,0.2085762c0.0803452,0.0804291,0.1660614,0.1498909,0.2576847,0.2086525
		c0.0802822,0.0804253,0.1659985,0.1498146,0.2576199,0.2085037c0.0802841,0.0805359,0.1660004,0.1499634,0.2576847,0.2086143
		c0.0802212,0.080574,0.1659374,0.1500359,0.2576542,0.2085762c0.0801888,0.0806122,0.165905,0.1500359,0.2575893,0.2085381
		c0.0801582,0.0806503,0.1658726,0.1501122,0.2576218,0.2085381c0.0801563,0.080761,0.165905,0.1501884,0.2577152,0.2086143
		c0.0800953,0.0807991,0.1658745,0.1502991,0.2576847,0.2086143c0.0800323,0.0808372,0.1658421,0.1503372,0.2576542,0.2085762
		c0.0799999,0.0809097,0.1658096,0.1503372,0.2576523,0.2085762c0.0799999,0.080986,0.1657467,0.1504135,0.2576542,0.2085762
		c0.079998,0.0810623,0.1658401,0.1505623,0.2577782,0.2086525c0.079874,0.0810204,0.1656532,0.150486,0.2575588,0.2085037
		c0.079874,0.081131,0.1656837,0.1505966,0.2576218,0.2085381c0.0798416,0.0812073,0.1657143,0.1507454,0.2577152,0.2086487
		c0.0797787,0.0812492,0.1656208,0.1507492,0.2576542,0.20858c0.0797787,0.0812798,0.1655884,0.1507454,0.2576218,0.2085381
		c0.0797138,0.0813942,0.165556,0.1508942,0.2576523,0.2085762c0.0796833,0.0814705,0.1655579,0.1509323,0.2576847,0.2085762
		c0.0796528,0.081543,0.1655579,0.1510468,0.2576847,0.2086143c0.0795898,0.081543,0.165432,0.1510429,0.2575893,0.2085381
		c0.0795574,0.0816574,0.1654625,0.1511574,0.2576542,0.2085762c0.079525,0.0817337,0.1654625,0.1512337,0.2577152,0.2086143
		c0.0794945,0.0817299,0.165369,0.1513062,0.2576218,0.2085762c0.0794315,0.0818443,0.1653366,0.1513443,0.2576218,0.2085419
		c0.0793991,0.0819168,0.1653671,0.1514168,0.2576847,0.2085762c0.0793686,0.0819893,0.1653042,0.1514893,0.2576523,0.2085762
		c0.2382927,0.24646,0.5409832,0.3905678,0.8600655,0.3924675l7.2062321,0.0412407
		c0.7253952-0.0002251,1.3157425-0.6914291,1.3207664-1.5487022l0.0402336-6.9117355
		c0.0160141,0.0184555,0.0282669,0.0404892,0.0449753,0.058239c0.005146,0.0054817,0.0113373,0.0091705,0.0165482,0.0145416
		c0.0476608,0.0667419,0.0939903,0.1347885,0.1496391,0.1938095c0.0051498,0.0054474,0.0112762,0.0091362,0.0164871,0.0145073
		c0.0476265,0.0667763,0.0940247,0.1348228,0.149704,0.1938477c0.0051155,0.0054054,0.0112114,0.0090599,0.0163612,0.0143929
		c0.0476265,0.0668526,0.0940819,0.1349373,0.1497955,0.1939964c0.0051498,0.0054436,0.0112762,0.0091362,0.0164871,0.0145035
		c0.0475616,0.0668564,0.0940514,0.1348267,0.149704,0.1938515c0.0051155,0.0054436,0.0112419,0.0090981,0.0164223,0.0144272
		c0.0475311,0.0669289,0.0940514,0.1348991,0.1497345,0.193924c0.0051155,0.0054436,0.0112724,0.0090599,0.0164528,0.014431
		c0.0475006,0.0669632,0.0940552,0.1348991,0.1497345,0.1939583c0.0051155,0.0054436,0.0112457,0.0090599,0.0164223,0.014431
		c0.0474396,0.0669632,0.0940552,0.1348991,0.1497345,0.193924c0.0051498,0.0054817,0.0113411,0.0091705,0.016552,0.0145416
		c0.0473747,0.0669632,0.0939903,0.1348228,0.1496391,0.1938095c0.005146,0.0054436,0.0112762,0.0091362,0.0164871,0.0145035
		c0.0473404,0.0670395,0.0940208,0.1348267,0.1497002,0.1938515c0.0051193,0.0054054,0.0112457,0.0090599,0.0163918,0.014389
		c0.0473442,0.0671158,0.0940857,0.1349373,0.1497688,0.1940002c0.005146,0.0054436,0.0113068,0.0091362,0.0165176,0.0145035
		c0.0472794,0.0670776,0.0940208,0.1348267,0.1496696,0.1938477c0.0051155,0.0054436,0.0112419,0.0090981,0.0164223,0.014431
		c0.0472183,0.0671501,0.0940552,0.1348991,0.1497345,0.193924c0.0051498,0.0054817,0.0113068,0.0091324,0.0165176,0.0145035
		c0.047184,0.0671883,0.0940247,0.134861,0.1496735,0.1938858c0.0051155,0.0054436,0.0112724,0.0090981,0.0164528,0.014431
		c0.0471535,0.0672264,0.0940247,0.1348991,0.149704,0.1939201c0.005146,0.0054436,0.0112762,0.0090981,0.0164871,0.0144691
		c0.0470886,0.0672646,0.0940208,0.134861,0.1497002,0.1938858c0.0051804,0.0054817,0.0113411,0.0091705,0.016552,0.0145416
		c0.0470238,0.0672646,0.0939903,0.1348228,0.1496391,0.1938095c0.005085,0.0054092,0.0111809,0.0090599,0.0163269,0.0143547
		c0.0470276,0.0674133,0.0941162,0.1349373,0.1498299,0.1940384c0.0051804,0.0054779,0.0113373,0.0091705,0.0165825,0.014576
		c0.0469322,0.0673409,0.093956,0.1347885,0.1496048,0.1937752c0.0051193,0.0054436,0.0112457,0.0090981,0.0164261,0.014431
		c0.0469322,0.0674477,0.0940514,0.1348991,0.1497345,0.1939201c0.005146,0.0054817,0.0113068,0.0091743,0.0165176,0.0145416
		c0.0468674,0.0674515,0.0940208,0.1347885,0.1496696,0.1938133c0.0051155,0.0054054,0.0112114,0.0090218,0.0163612,0.0143547
		c0.0468369,0.0675621,0.0940857,0.1349754,0.1497955,0.1940346c0.0051498,0.0054436,0.0112762,0.0090981,0.0164871,0.0144691
		c0.0467758,0.067524,0.0940208,0.134861,0.149704,0.1938858c0.0051804,0.0054779,0.0113373,0.0092087,0.0165787,0.014576
		c0.0466805,0.0675621,0.0939598,0.1347885,0.1496086,0.1937752c0.0051155,0.0054436,0.0112114,0.0090981,0.0163918,0.014431
		c0.0466805,0.0676727,0.0940857,0.1348991,0.149765,0.1939583c0.0051498,0.0054817,0.0113068,0.0091362,0.0165176,0.0145035
		c0.0466194,0.0676384,0.0940247,0.1348267,0.1496735,0.1938515c0.005146,0.0054436,0.0113068,0.0091324,0.0165176,0.0145035
		c0.0465546,0.0676727,0.0939903,0.1348267,0.1496391,0.1938477c0.0051498,0.0054817,0.0113373,0.0091743,0.0165482,0.0145416
		c0.046524,0.0677109,0.0939903,0.1347885,0.1496429,0.1938133c0.0051155,0.0054054,0.0112114,0.0090599,0.0163574,0.014389
		c0.0464897,0.0678253,0.0940857,0.1349373,0.1497993,0.1940002c0.0051804,0.0054817,0.0113373,0.0091705,0.0165482,0.0145416
		c0.0463943,0.0678215,0.0939903,0.1347885,0.1496391,0.1938095c0.0051498,0.0054436,0.0112762,0.0091362,0.0164871,0.0145035
		c0.0463638,0.0678635,0.0940208,0.1348267,0.149704,0.1938515c0.0051155,0.0054436,0.0112114,0.0090981,0.0163918,0.0144272
		c0.0463295,0.0679741,0.0940857,0.134903,0.149765,0.1939621c0.005146,0.0054817,0.0113068,0.0091362,0.0165176,0.0145035
		c0.0462379,0.0679741,0.0940208,0.1348267,0.1496696,0.1938477c0.0051193,0.0054436,0.0112457,0.0090981,0.0164261,0.014431
		c0.0462036,0.0680466,0.0940514,0.1348991,0.1497345,0.193924c0.005146,0.0054436,0.0112419,0.0091362,0.0164528,0.0144653
		c0.0461426,0.0680847,0.0940552,0.1348648,0.1497345,0.1938858c0.0051155,0.0054436,0.0112762,0.0091362,0.0164528,0.0144691
		c0.0461121,0.068119,0.0940247,0.1348991,0.149704,0.193924c0.0051804,0.0054779,0.0113068,0.0091705,0.016552,0.0145378
		c0.0460129,0.0681229,0.0939903,0.1348267,0.1496391,0.1938133c0.005146,0.0054436,0.0112724,0.0091362,0.0164833,0.0145035
		c0.0459862,0.0681953,0.0940552,0.1348267,0.149704,0.1938477c0.0051155,0.0054436,0.0112114,0.0090981,0.0163918,0.014431
		c0.0459213,0.0682716,0.0940857,0.1348991,0.149765,0.1939621c0.0051498,0.0054779,0.0113068,0.0091324,0.0165176,0.0145035
		c0.0458603,0.0682678,0.0940247,0.1348228,0.1496735,0.1938477c0.2431259,0.2578316,0.5577202,0.3993301,0.8827095,0.3993301
		c0.0276031,0,0.0555534-0.0010414,0.0835037-0.00317l7.1612282-0.5349007
		c0.716835-0.0535431,1.2661552-0.773716,1.2362175-1.6210365l-0.0661354-1.8815117
		c0.0173073,0.0375099,0.0363846,0.0737495,0.0561218,0.1096573c0.0293427,0.077404,0.068409,0.1484718,0.1076965,0.2196884
		c0.0293121,0.0774422,0.068409,0.1486206,0.1077614,0.2198334c0.0293427,0.077446,0.0683479,0.1486969,0.1077919,0.2198753
		c0.0293427,0.077404,0.0682526,0.1486206,0.1077003,0.2197266c0.0293083,0.077404,0.0682487,0.1486206,0.1077271,0.2196884
		c0.0293083,0.0774422,0.0681572,0.1486931,0.1076965,0.2197227c0.0293427,0.0774803,0.0681572,0.1488457,0.1077957,0.2198753
		c0.0809441,0.2139435,0.2008667,0.4070473,0.3567886,0.5610771l1.2828026,1.2665215
		c0.237915,0.2350121,0.5380135,0.363163,0.8474312,0.363163c0.0134239,0,13.4913483-0.485199,13.4913483-0.485199
		c0.2870255-0.0103645,0.5634766-0.1307259,0.7872391-0.3430672l2.6695099-2.5330811
		c0.1485977-0.1410179,0.2620392-0.3193932,0.3457718-0.5147705l0.2504807,2.9915886
		c0.0673676,0.8041801,0.641037,1.4061203,1.3130569,1.4061203c0.0381851,0,0.0764923-0.0019035,0.1152115-0.005928
		l13.1391449-1.3411713c0.4972992-0.0507088,0.9117966-0.4243851,1.0990829-0.9403076
		c0.0371094-0.0693893,0.0708389-0.1412773,0.0985031-0.217453c0.0369873-0.0693855,0.0707779-0.1411247,0.0984116-0.217186
		c0.0369873-0.0694275,0.0708771-0.1412048,0.0985107-0.2173424c0.0369186-0.0694618,0.0707474-0.1411247,0.0984116-0.2172241
		c0.0368881-0.0695381,0.0708084-0.141201,0.0984726-0.2173042c0.0368576-0.0695343,0.0708084-0.1412354,0.0984802-0.2173386
		c0.0367889-0.0695724,0.0708084-0.141201,0.0984726-0.2173004c0.0367279-0.0696106,0.0707779-0.1411247,0.0984421-0.2172279
		c0.0367355-0.0697212,0.0708389-0.1413498,0.0985413-0.2175217c0.0366058-0.0696144,0.0706787-0.1409798,0.0983505-0.2169685
		c0.0366364-0.069725,0.0707779-0.1412735,0.0985031-0.2173767c0.0223618-0.0425797,0.042984-0.0863876,0.0620651-0.1313934
		l0.0303802,2.8961334c0.0044556,0.4263992,0.1565857,0.8318825,0.4208374,1.1222649
		c0.2450867,0.2692795,0.5668564,0.4179726,0.8999252,0.4179726c0.0259933,0,0.0521469-0.0010796,0.0782928-0.002758
		l6.8989639-0.4841537c0.4073868-0.0286369,0.7582703-0.2767372,0.9833679-0.6390419
		c0.0582962-0.0650253,0.1108856-0.1357193,0.1583862-0.2120819c0.0582352-0.0650253,0.1108246-0.1356468,0.1583557-0.2119713
		c0.0582352-0.0650253,0.1107635-0.1356812,0.1583252-0.2119675c0.0582047-0.0650635,0.1106949-0.1357574,0.1583557-0.2120056
		c0.0582047-0.0651398,0.110733-0.1358719,0.1584167-0.2120819c0.0581436-0.0651398,0.1106033-0.1357956,0.1583252-0.2119713
		c0.0581818-0.0651741,0.1106415-0.1359062,0.1583939-0.2120438c0.0581436-0.0652122,0.1105652-0.1359062,0.1583557-0.2120056
		c0.0451584-0.0506706,0.0864716-0.1046982,0.1255112-0.1620064l0.0036316,0.7627907
		c0.0039444,0.8299828,0.5577164,1.5105972,1.2598724,1.5491104l13.6244659,0.7451591
		c0.0204391,0.0010414,0.0408707,0.0016747,0.0611191,0.0016747c0.3217926,0,0.6306152-0.1425781,0.8719025-0.394146
		c0.0918121-0.0573082,0.1785126-0.125206,0.2575302-0.2074203c0.0917511-0.0573845,0.1783829-0.125206,0.2574615-0.2073479
		c0.0917206-0.0574188,0.1783218-0.1253166,0.2574005-0.2073097c0.0917511-0.0574913,0.1783829-0.1254654,0.2575607-0.2074203
		c0.0916824-0.0574951,0.1782532-0.1254272,0.257431-0.2073059c0.0916824-0.0575714,0.1782227-0.125618,0.2574921-0.207386
		c0.0916901-0.0576057,0.1782227-0.1257629,0.2575607-0.2074585c0.0916214-0.0576439,0.1780624-0.1256905,0.2574005-0.2072716
		c0.0915604-0.0576782,0.1780014-0.1257629,0.2574005-0.2073059c0.0916214-0.0577583,0.1780624-0.1259537,0.2575607-0.2074203
		c0.0915222-0.0578308,0.1779327-0.1259537,0.2574615-0.2073479c0.0915298-0.0578308,0.1778412-0.1260643,0.2574005-0.2073097
		c0.0915298-0.0578651,0.1778412-0.1261368,0.257431-0.2073441c0.0914993-0.0579414,0.1778412-0.1262131,0.2574997-0.2073479
		c0.0915527-0.0580177,0.1779022-0.1263618,0.2576218-0.2074585c0.0914307-0.0580139,0.1775894-0.1262856,0.2573013-0.2072334
		c0.0914993-0.0580521,0.1777191-0.1265106,0.2575302-0.2074203c0.0914307-0.0581284,0.177681-0.1265869,0.2575531-0.2074203
		c0.0913391-0.0581284,0.1774673-0.1265106,0.257309-0.2072334c0.0914307-0.0582428,0.1776199-0.1267357,0.2575912-0.2074585
		c0.0913391-0.0582428,0.1774597-0.1267357,0.2574005-0.2073097c0.0913696-0.0583153,0.1774902-0.1268082,0.2575226-0.2073822
		c0.0913086-0.0583534,0.1773376-0.1268845,0.25737-0.2073097c0.0914001-0.0584259,0.1775284-0.1270332,0.2576523-0.2074585
		c0.0912476-0.0583534,0.1772156-0.1269569,0.257309-0.2071953c0.0913391-0.0585022,0.1773682-0.127182,0.2575912-0.2074966
		c0.0912399-0.0585022,0.1772079-0.1271057,0.257431-0.2073097c0.0912399-0.0585365,0.1772079-0.1272545,0.257431-0.2073441
		c0.0912399-0.0585785,0.1771774-0.1272583,0.2574921-0.2073479c0.091217-0.0586128,0.1771164-0.1274033,0.2574692-0.2073822
		c0.0912094-0.058651,0.1771164-0.1274452,0.2574921-0.207386c0.0912094-0.0586853,0.1770248-0.1274796,0.2574615-0.2073441
		c0.0911484-0.0587273,0.1769943-0.1275558,0.2574615-0.2073479c0.0911484-0.0587616,0.1769638-0.1275902,0.2574387-0.2073059
		c0.0911484-0.0588379,0.1769867-0.1277046,0.2575531-0.2074242c0.0911179-0.0588341,0.1768951-0.127739,0.257431-0.2073441
		c0.0911179-0.058876,0.1768646-0.1277771,0.2574692-0.2073479c0.0911484-0.0589104,0.1768951-0.1278877,0.2575531-0.2074203
		c0.0910568-0.0589485,0.176712-0.1278877,0.25737-0.2072716c0.0910873-0.059021,0.1768036-0.1280365,0.2575302-0.2074203
		c0.0910187-0.059021,0.1767044-0.1280403,0.2574005-0.2073097c0.0910492-0.0590591,0.1767349-0.1281128,0.2575607-0.2073822
		c0.0910187-0.0590591,0.1766357-0.1281509,0.2574615-0.2073441c0.0909576-0.0591011,0.1765747-0.1281891,0.2574005-0.2073097
		c0.0910492-0.0591736,0.1766968-0.1283379,0.2576141-0.2074966c0.0909271-0.0591736,0.1764526-0.1282234,0.257309-0.2072334
		c0.0909882-0.0592461,0.1766205-0.1284142,0.2575531-0.2074203c0.0909729-0.0592461,0.1765289-0.1284485,0.2575073-0.2073822
		c0.0908966-0.059288,0.1763458-0.1284142,0.25737-0.2072716c0.0909576-0.0593224,0.1764221-0.1285629,0.2574921-0.207386
		c0.0909576-0.0593948,0.1764526-0.1285973,0.2575531-0.2073822c0.0908661-0.0593948,0.1763611-0.1286736,0.257431-0.2073479
		c0.0908966-0.059433,0.1763306-0.1287079,0.2574615-0.2073441c0.0908356-0.059433,0.1762695-0.1287498,0.257431-0.2073479
		c0.0908661-0.0594711,0.1763-0.1287842,0.2575073-0.2073441c0.0908203-0.0595474,0.1762543-0.1288986,0.2574921-0.207386
		c0.0908356-0.0595436,0.1762238-0.1289711,0.2574921-0.2073822c0.0908051-0.0595436,0.1761627-0.1290092,0.2574615-0.2073822
		c0.090744-0.0595856,0.1760406-0.1289368,0.257309-0.2071991c0.0908356-0.0596542,0.1762238-0.1291199,0.2576141-0.2074585
		c0.0907745-0.0596542,0.1760864-0.129158,0.2574768-0.2073441c0.0907898-0.0596962,0.1761017-0.1291962,0.2575226-0.2074203
		c0.0906982-0.0596962,0.1759491-0.129158,0.25737-0.2072716c0.0907593-0.0597687,0.1760712-0.1293068,0.2575836-0.2074585
		c0.090683-0.0597687,0.1759491-0.1293068,0.2574005-0.2073097c0.0907135-0.0598068,0.1759491-0.1293793,0.2574615-0.2073441
		c0.0907135-0.059845,0.1759186-0.1293831,0.2574615-0.2073479c0.0906525-0.059845,0.175827-0.1294174,0.25737-0.2072716
		c0.0907745-0.0599174,0.1760101-0.1296425,0.2576904-0.207531c0.0906067-0.0598831,0.1756897-0.1294937,0.257309-0.2072372
		c0.1353607-0.0894852,0.2650452-0.1916466,0.3792114-0.3203583c0.3681335-0.4152145,0.5765839-0.9897118,0.5765839-1.5907593
		v-9.7718544C136.3091278,34.7221527,136.099411,34.1458664,135.7292633,33.7306519z"/>
	<g>
		<g>
			<polygon class="st2" points="33.5693359,21.1875 29.3510742,31.3422852 24.8325195,31.7016602 20.2094727,21.3217773 
				20.0805664,43.472168 11.9399414,43.4257812 12.5537109,10.2431641 19.6269531,9.2929688 26.9150391,24.3251953 
				34.1152344,9.230957 41.3325195,9.5161133 42.5083008,42.9716797 34.4033203,43.5771484 			"/>
			<path class="st3" d="M34.7340088,10.2562714l5.6316986,0.2227173l1.1095886,31.567276L35.3638,42.5027618l-0.6249237-16.7868347
				l-0.33992-9.1309814l-3.5056458,8.4380493l-2.2312775,5.3706665l-3.2035522,0.2550812l-2.4487915-5.4979401l-3.7729034-8.4707489
				l-0.0540466,9.2728271l-0.0962372,16.5136566l-6.1278381-0.0350952l0.5789032-31.3114014l5.5049438-0.7394104
				l6.0653992,12.5101166l1.8143005,3.7420502l1.7904816-3.7535248L34.7340088,10.2562714 M33.4962311,8.2057648
				l-6.5886841,13.812439l-6.6968384-13.812439l-8.6410675,1.1606445l-0.6480865,35.0533905l10.1532593,0.0581665
				l0.1078949-18.5134277l3.0243683,6.7901764l5.8327332-0.4644318l2.7004547-6.4999542l0.7021484,18.8615265l10.0991974-0.754364
				L42.2992706,8.5538788L33.4962311,8.2057648L33.4962311,8.2057648z"/>
		</g>
		<g>
			<polygon class="st2" points="49.1523438,42.1650391 49.2924805,13.6176758 55.9199219,13.4960938 56.3134766,35.534668 
				64.2226562,34.4111328 63.8818359,12.8876953 70.4189453,12.8066406 71.6728516,39.7011719 68.5146484,42.6982422 
				50.3549805,43.3525391 			"/>
			<path class="st3" d="M69.4656219,13.8188171l1.1875458,25.4722137l-2.5521698,2.4217072l-17.3506775,0.6247864
				l-0.5957794-0.5882263l0.1330872-27.1497803l4.6503296-0.0851135l0.3554077,19.9067535l0.0404053,2.2628021l2.2406464-0.3183899
				l5.9155884-0.8405762l1.7462616-0.2481537l-0.0278778-1.7635803L64.897995,13.875351L69.4656219,13.8188171
				 M71.3734436,11.7950439l-8.5069122,0.1053009l0.3421021,21.6445312l-5.9155884,0.8405762l-0.3911285-21.9073334
				l-8.6046906,0.1575012l-0.1467896,29.9455414l1.8090668,1.7861328l18.9694214-0.683075l3.764679-3.5722656L71.3734436,11.7950439
				L71.3734436,11.7950439z"/>
		</g>
		<g>
			<polygon class="st2" points="76.7685547,35.6621094 87.2822266,36.2841797 87.5078125,31.6938477 77.1533203,25.2382812 
				77.9365234,13.5874023 84.9794922,12.7885742 94.0791016,12.4643555 94.0419922,19.206543 85.3740234,19.2587891 
				84.7949219,23.0883789 94.8359375,28.0068359 94.1289062,42.3037109 77.4667969,44.0048828 			"/>
			<path class="st3" d="M93.0733032,13.5012054l-0.0261993,4.71138l-6.8231964,0.0407104l-1.7093811,0.0101776l-0.2561035,1.6901093
				l-0.3423615,2.2592316l-0.2197876,1.4503632l1.317337,0.6453552l8.7908478,4.306488L93.1721954,41.396286l-14.7937927,1.5101013
				l-0.5172882-6.1779022l8.354187,0.4940338l2.0167694,0.1192627l0.0989075-2.0178528l0.1467896-2.9944916l0.0575256-1.1735229
				l-0.9970398-0.621582l-9.3468323-5.8271637l0.6875153-10.2199249l6.1368256-0.6962585L93.0733032,13.5012054
				 M95.0848541,11.4275665l-10.2179413,0.3674774l-7.87146,0.8930664l-0.8800354,13.0816498l10.3647461,6.4617615
				l-0.1467896,2.9944916l-10.6578369-0.6302643l0.879776,10.5071259l18.529541-1.8914337l0.7822418-15.8130493
				l-9.9736176-4.8859253l0.3423615-2.2592163l8.8002472-0.0525055L95.0848541,11.4275665L95.0848541,11.4275665z"/>
		</g>
		<g>
			<polygon class="st2" points="100.9833984,12.9106445 108.8554688,12.5756836 109.0390625,42.9624023 101.3046875,43.5053711 			
				"/>
			<path class="st3" d="M107.8620453,13.6189423l0.1716919,28.4118042l-5.7403717,0.402832l-0.29953-28.5649109
				L107.8620453,13.6189423 M109.849472,11.5325623l-9.8758392,0.4202728l0.3421021,32.6244507l9.7292938-0.6827698
				L109.849472,11.5325623L109.849472,11.5325623z"/>
		</g>
		<g>
			<polygon class="st2" points="116.3691406,42.6845703 116.2314453,13.6616211 132.1621094,12.3515625 132.4257812,19.2719727 
				123.6425781,19.4282227 123.1425781,36.605957 133.5878906,35.9731445 133.5878906,43.6264648 			"/>
			<path class="st3" d="M131.2022705,13.4342651l0.1850586,4.8556824l-6.8086243,0.1214142l-1.90802,0.0340271l-0.055481,1.9075012
				l-0.440155,15.130249l-0.0636292,2.1867371l2.1836548-0.1322327l8.2928772-0.5021515v5.5347137l-15.2229919-0.8325806
				l-0.1288147-27.1551056L131.2022705,13.4342651 M133.1212463,11.2697601l-17.8938599,1.4711609l0.1465454,30.8908081
				l19.2140198,1.0508575v-9.7718506l-10.4137573,0.6305695l0.440155-15.1302643l8.8492432-0.1577911L133.1212463,11.2697601
				L133.1212463,11.2697601z"/>
		</g>
	</g>
</g>
</svg>
