<?xml version="1.0" encoding="utf-8"?>
<!-- Generator: Adobe Illustrator 23.0.3, SVG Export Plug-In . SVG Version: 6.00 Build 0)  -->
<svg version="1.1" id="Layer_1" xmlns="http://www.w3.org/2000/svg" xmlns:xlink="http://www.w3.org/1999/xlink" x="0px" y="0px"
	 viewBox="0 0 57 9" style="enable-background:new 0 0 57 9;" xml:space="preserve">
<style type="text/css">
	.st0{fill:#F6B857;}
</style>
<g>
	<g>
		<g>
			<path class="st0" d="M54.2,4.8c-0.6,0-0.6,0-1.2,0c-0.6,0-0.6-0.5-1.2-0.5c-0.6,0-0.6,0.1-1.2,0.1c-0.6,0-0.6,0-1.2,0
				c-0.6,0-0.6,0.3-1.2,0.3c-0.6,0-0.6,0.2-1.2,0.2c-0.6,0-0.6-0.4-1.2-0.4c-0.6,0-0.6,0.4-1.2,0.4c-0.6,0-0.6-0.6-1.2-0.6
				c-0.6,0-0.6,0.5-1.2,0.5c-0.6,0-0.6-0.4-1.2-0.4c-0.6,0-0.6,0-1.2,0c-0.6,0-0.6,0.2-1.2,0.2c-0.6,0-0.6-0.3-1.2-0.3
				c-0.6,0-0.6,0.1-1.2,0.1c-0.6,0-0.6,0.4-1.2,0.4c-0.6,0-0.6-0.1-1.2-0.1c-0.6,0-0.6-0.4-1.2-0.4c-0.6,0-0.6,0.4-1.2,0.4
				c-0.6,0-0.6,0.2-1.2,0.2c-0.6,0-0.6,0-1.2,0c-0.6,0-0.6-0.1-1.2-0.1c-0.6,0-0.6-0.5-1.2-0.5c-0.6,0-0.6,0.4-1.2,0.4
				c-0.6,0-0.6-0.3-1.2-0.3c-0.6,0-0.6,0.2-1.2,0.2c-0.6,0-0.6,0.1-1.2,0.1c-0.6,0-0.6-0.2-1.2-0.2c-0.6,0-0.6,0.1-1.2,0.1
				c-0.6,0-0.6,0.1-1.2,0.1c-0.6,0-0.6,0.2-1.2,0.2c-0.6,0-0.6-0.1-1.2-0.1c-0.6,0-0.6-0.3-1.2-0.3c-0.6,0-0.6,0.1-1.2,0.1
				c-0.6,0-0.6,0.3-1.2,0.3c-0.6,0-0.6-0.1-1.2-0.1C9.6,4.5,9.6,4.3,9,4.3c-0.6,0-0.6,0.3-1.2,0.3c-0.6,0-0.6,0.1-1.2,0.1
				c-0.6,0-0.6,0.2-1.2,0.2c-0.6,0-0.6-0.4-1.2-0.4S3.5,4.4,2.8,4.4C2.4,4.4,2,4.4,2,4.1s0.3-0.5,0.8-0.5c0.6,0,0.6-0.2,1.2-0.2
				c0.6,0,0.6,0,1.2,0c0.6,0,0.6,0.1,1.2,0.1c0.6,0,0.6,0.3,1.2,0.3c0.6,0,0.6,0.1,1.2,0.1c0.6,0,0.6,0.2,1.2,0.2
				c0.6,0,0.6-0.2,1.2-0.2c0.6,0,0.6-0.1,1.2-0.1c0.6,0,0.6,0.1,1.2,0.1c0.6,0,0.6,0.2,1.2,0.2c0.6,0,0.6-0.2,1.2-0.2
				c0.6,0,0.6,0.2,1.2,0.2c0.6,0,0.6-0.2,1.2-0.2c0.6,0,0.6,0,1.2,0c0.6,0,0.6-0.3,1.2-0.3c0.6,0,0.6-0.1,1.2-0.1
				c0.6,0,0.6-0.1,1.2-0.1c0.6,0,0.6,0.7,1.2,0.7c0.6,0,0.6-0.1,1.2-0.1c0.6,0,0.6-0.1,1.2-0.1c0.6,0,0.6-0.3,1.2-0.3
				c0.6,0,0.6,0.2,1.2,0.2c0.6,0,0.6-0.3,1.2-0.3c0.6,0,0.6,0.2,1.2,0.2c0.6,0,0.6,0.5,1.2,0.5c0.6,0,0.6-0.4,1.2-0.4
				c0.6,0,0.6,0.1,1.2,0.1c0.6,0,0.6-0.3,1.2-0.3c0.6,0,0.6,0.1,1.2,0.1c0.6,0,0.6-0.1,1.2-0.1c0.6,0,0.6,0.6,1.2,0.6
				c0.6,0,0.6-0.5,1.2-0.5c0.6,0,0.6,0.1,1.2,0.1c0.6,0,0.6,0,1.2,0c0.6,0,0.6-0.1,1.2-0.1c0.6,0,0.6,0.4,1.2,0.4
				c0.6,0,0.6-0.2,1.2-0.2c0.6,0,0.6,0.1,1.2,0.1c0.6,0,0.6,0.1,1.2,0.1c0.6,0,0.6-0.3,1.2-0.3c0.6,0,0.6,0.2,1.2,0.2
				s0.6,0.1,1.2,0.1c0.5,0,0.6,0,0.6,0.3C54.8,4.4,54.6,4.8,54.2,4.8z"/>
		</g>
	</g>
</g>
</svg>
