<?xml version="1.0" encoding="utf-8"?>
<!-- Generator: Adobe Illustrator 23.0.3, SVG Export Plug-In . SVG Version: 6.00 Build 0)  -->
<svg version="1.1" id="Layer_1" xmlns="http://www.w3.org/2000/svg" xmlns:xlink="http://www.w3.org/1999/xlink" x="0px" y="0px"
	 viewBox="0 0 119 130" style="enable-background:new 0 0 119 130;" xml:space="preserve">
<style type="text/css">
	.st0{fill:#FFFFFF;}
	.st1{fill:none;stroke:#5D1A10;stroke-width:2;stroke-linejoin:round;stroke-miterlimit:10;}
	.st2{fill:#5D1A10;}
	.st3{font-family:'SwistblnkMoabhoers-Bold';}
	.st4{font-size:29.0356px;}
	.st5{font-size:17.8721px;}
	.st6{font-size:11.7525px;}
	.st7{fill:#F6B857;}
</style>
<g>
	<g>
		<g>
			<polygon class="st0" points="39.2,21.2 43.6,13.9 50.1,19.1 54.9,13.5 59.7,19.1 68,15.2 71,21.6 78.9,19.5 81,26.7 88,26.3 
				88.9,34 97.6,35.3 94.1,43 103.3,46 98,52.8 105.4,57.5 99.3,63.5 105.9,69 98.9,74.2 102.8,80.6 95,84 97.2,92.1 88.5,92.5 
				88.9,100.7 81.5,99.8 79.3,107.5 71,104.5 68,111.8 60.6,107.5 55.3,113.5 50.5,107.1 44,111.8 39.7,103.6 32.2,107.5 
				29.2,100.2 21.8,102.4 21.8,93 13.1,90.8 15.7,83.6 7,80.6 11.8,73.7 5.7,69 10.5,63.5 4.8,56.7 13.9,53.7 9.2,46 16.1,43.4 
				14.4,34.9 22.7,35.3 22.7,25.9 30.1,27.2 32.7,19.1 			"/>
			<polygon class="st1" points="42.5,19.5 46.9,12.3 53.4,17.4 58.2,11.8 63,17.4 71.3,13.5 74.3,19.9 82.2,17.8 84.4,25.1 
				91.3,24.6 92.2,32.3 100.9,33.6 97.4,41.3 106.6,44.3 101.4,51.1 108.8,55.8 102.7,61.8 109.2,67.4 102.2,72.5 106.2,78.9 
				98.3,82.3 100.5,90.4 91.8,90.9 92.2,99 84.8,98.1 82.6,105.8 74.3,102.8 71.3,110.1 63.9,105.8 58.7,111.8 53.9,105.4 
				47.3,110.1 43,102 35.6,105.8 32.5,98.5 25.1,100.7 25.1,91.3 16.4,89.1 19,81.9 10.3,78.9 15.1,72.1 9,67.4 13.8,61.8 8.1,55 
				17.3,52 12.5,44.3 19.4,41.7 17.7,33.2 26,33.6 26,24.2 33.4,25.5 36,17.4 			"/>
		</g>
		<g>
			<text transform="matrix(1.0199 0 0 1 28.7865 58.2159)"><tspan x="0" y="0" class="st2 st3 st4">last</tspan><tspan x="1.9" y="13.1" class="st2 st3 st5">sunday</tspan><tspan x="-2.5" y="22.8" class="st2 st3 st6">of jazz Fest</tspan></text>
			<g>
				<g>
					<g>
						<path class="st7" d="M87,38.2c-0.6,0-0.6-0.2-1.2-0.2c-0.6,0-0.6,0.3-1.2,0.3c-0.6,0-0.6-0.1-1.2-0.1c-0.6,0-0.6,0-1.2,0
							c-0.6,0-0.6,0-1.2,0c-0.6,0-0.6-0.6-1.2-0.6c-0.6,0-0.6,0.3-1.2,0.3c-0.6,0-0.6-0.3-1.2-0.3c-0.6,0-0.6,0.6-1.2,0.6
							c-0.6,0-0.6-0.4-1.2-0.4c-0.6,0-0.6,0.1-1.2,0.1c-0.6,0-0.6,0-1.2,0c-0.6,0-0.6,0.3-1.2,0.3c-0.6,0-0.6-0.4-1.2-0.4
							c-0.6,0-0.6,0.4-1.2,0.4c-0.6,0-0.6-0.4-1.2-0.4c-0.6,0-0.6,0.3-1.2,0.3c-0.6,0-0.6-0.1-1.2-0.1c-0.6,0-0.6,0.2-1.2,0.2
							c-0.6,0-0.6-0.4-1.2-0.4c-0.6,0-0.6,0.4-1.2,0.4c-0.6,0-0.6-0.1-1.2-0.1c-0.6,0-0.6,0.2-1.2,0.2c-0.6,0-0.6-0.3-1.2-0.3
							c-0.6,0-0.6,0.3-1.2,0.3c-0.6,0-0.6-0.1-1.2-0.1c-0.6,0-0.6-0.6-1.2-0.6c-0.6,0-0.6,0.3-1.2,0.3c-0.6,0-0.6-0.2-1.2-0.2
							c-0.6,0-0.6,0.5-1.2,0.5c-0.6,0-0.6-0.2-1.2-0.2c-0.6,0-0.6-0.1-1.2-0.1c-0.6,0-0.6-0.1-1.2-0.1c-0.6,0-0.6,0.3-1.2,0.3
							c-0.6,0-0.6-0.1-1.2-0.1c-0.6,0-0.6-0.2-1.2-0.2c-0.6,0-0.6-0.1-1.2-0.1c-0.6,0-0.6,0.2-1.2,0.2c-0.6,0-0.6,0.4-1.2,0.4
							c-0.6,0-0.6,0-1.2,0c-0.6,0-0.6-0.1-1.2-0.1c-0.6,0-0.6-0.2-1.2-0.2c-0.6,0-0.6-0.2-1.2-0.2c-0.6,0-0.6,0.6-1.2,0.6
							c-0.6,0-0.6-0.3-1.2-0.3c-0.6,0-0.6,0.2-1.2,0.2c-0.6,0-0.6-0.5-1.2-0.5c-0.6,0-0.6,0.4-1.2,0.4s-0.6-0.2-1.2-0.2
							c-0.5,0-0.7-0.1-0.7-0.4s0.1-0.3,0.7-0.3c0.6,0,0.6-0.5,1.2-0.5c0.6,0,0.6,0,1.2,0c0.6,0,0.6,0.6,1.2,0.6c0.6,0,0.6,0,1.2,0
							c0.6,0,0.6-0.4,1.2-0.4c0.6,0,0.6-0.2,1.2-0.2c0.6,0,0.6,0,1.2,0c0.6,0,0.6,0.5,1.2,0.5c0.6,0,0.6-0.2,1.2-0.2
							c0.6,0,0.6-0.3,1.2-0.3c0.6,0,0.6,0.1,1.2,0.1c0.6,0,0.6,0.4,1.2,0.4c0.6,0,0.6-0.3,1.2-0.3c0.6,0,0.6-0.2,1.2-0.2
							c0.6,0,0.6,0.5,1.2,0.5c0.6,0,0.6,0.1,1.2,0.1c0.6,0,0.6-0.5,1.2-0.5c0.6,0,0.6-0.2,1.2-0.2c0.6,0,0.6,0.5,1.2,0.5
							c0.6,0,0.6-0.2,1.2-0.2c0.6,0,0.6-0.2,1.2-0.2c0.6,0,0.6,0.2,1.2,0.2c0.6,0,0.6,0.2,1.2,0.2c0.6,0,0.6-0.1,1.2-0.1
							c0.6,0,0.6,0.1,1.2,0.1c0.6,0,0.6-0.3,1.2-0.3c0.6,0,0.6,0.4,1.2,0.4c0.6,0,0.6-0.1,1.2-0.1c0.6,0,0.6,0.2,1.2,0.2
							c0.6,0,0.6-0.6,1.2-0.6c0.6,0,0.6,0,1.2,0c0.6,0,0.6,0.4,1.2,0.4c0.6,0,0.6-0.3,1.2-0.3c0.6,0,0.6,0.5,1.2,0.5
							c0.6,0,0.6-0.4,1.2-0.4c0.6,0,0.6,0,1.2,0c0.6,0,0.6,0.4,1.2,0.4c0.6,0,0.6-0.5,1.2-0.5c0.6,0,0.6,0.5,1.2,0.5
							c0.6,0,0.6-0.3,1.2-0.3c0.6,0,0.6,0.5,1.2,0.5c0.6,0,0.6-0.1,1.2-0.1c0.6,0,0.6-0.1,1.2-0.1c0.6,0,0.6-0.5,1.2-0.5
							c0.6,0,0.6,0.4,1.2,0.4c0.6,0,0.6-0.2,1.2-0.2c0.6,0,0.6,0.4,1.2,0.4c0.6,0,0.6-0.4,1.2-0.4c0.6,0,0.6,0.4,1.2,0.4
							c0.5,0,1.3-0.1,1.3,0.2S87.6,38.2,87,38.2z"/>
					</g>
				</g>
			</g>
			<g>
				<g>
					<g>
						<path class="st7" d="M87,87.1c-0.6,0-0.6-0.2-1.2-0.2c-0.6,0-0.6,0.1-1.2,0.1c-0.6,0-0.6,0.3-1.2,0.3c-0.6,0-0.6,0.1-1.2,0.1
							c-0.6,0-0.6-0.3-1.2-0.3c-0.6,0-0.6,0.2-1.2,0.2c-0.6,0-0.6-0.4-1.2-0.4C78,87,78,87,77.4,87c-0.6,0-0.6,0.5-1.2,0.5
							c-0.6,0-0.6,0-1.2,0c-0.6,0-0.6,0.1-1.2,0.1c-0.6,0-0.6-0.1-1.2-0.1c-0.6,0-0.6-0.4-1.2-0.4c-0.6,0-0.6,0.4-1.2,0.4
							c-0.6,0-0.6-0.2-1.2-0.2c-0.6,0-0.6,0.4-1.2,0.4c-0.6,0-0.6-0.2-1.2-0.2c-0.6,0-0.6-0.2-1.2-0.2c-0.6,0-0.6-0.1-1.2-0.1
							c-0.6,0-0.6-0.2-1.2-0.2c-0.6,0-0.6,0.6-1.2,0.6c-0.6,0-0.6,0-1.2,0c-0.6,0-0.6,0.1-1.2,0.1c-0.6,0-0.6-0.6-1.2-0.6
							c-0.6,0-0.6,0.3-1.2,0.3c-0.6,0-0.6,0.2-1.2,0.2C55,87.5,55,87,54.4,87c-0.6,0-0.6,0.1-1.2,0.1c-0.6,0-0.6,0-1.2,0
							c-0.6,0-0.6,0-1.2,0c-0.6,0-0.6,0.4-1.2,0.4c-0.6,0-0.6-0.4-1.2-0.4c-0.6,0-0.6,0.4-1.2,0.4c-0.6,0-0.6-0.2-1.2-0.2
							c-0.6,0-0.6-0.1-1.2-0.1c-0.6,0-0.6,0.1-1.2,0.1c-0.6,0-0.6-0.3-1.2-0.3c-0.6,0-0.6-0.1-1.2-0.1c-0.6,0-0.6,0.5-1.2,0.5
							c-0.6,0-0.6-0.4-1.2-0.4c-0.6,0-0.6-0.2-1.2-0.2c-0.6,0-0.6,0.6-1.2,0.6c-0.6,0-0.6,0-1.2,0c-0.6,0-0.6,0.1-1.2,0.1
							c-0.6,0-0.6-0.6-1.2-0.6c-0.6,0-0.6,0.6-1.2,0.6c-0.6,0-0.6,0-1.2,0c-0.6,0-0.6-0.2-1.2-0.2s-0.6,0.1-1.2,0.1
							c-0.5,0-1.2-0.5-1.2-0.7s0.6-0.5,1.2-0.5c0.6,0,0.6,0,1.2,0c0.6,0,0.6-0.3,1.2-0.3c0.6,0,0.6,0.1,1.2,0.1
							c0.6,0,0.6,0.2,1.2,0.2c0.6,0,0.6-0.1,1.2-0.1c0.6,0,0.6,0.3,1.2,0.3c0.6,0,0.6-0.4,1.2-0.4c0.6,0,0.6,0.4,1.2,0.4
							c0.6,0,0.6,0.1,1.2,0.1c0.6,0,0.6,0,1.2,0c0.6,0,0.6,0,1.2,0c0.6,0,0.6-0.2,1.2-0.2c0.6,0,0.6,0.3,1.2,0.3
							c0.6,0,0.6-0.2,1.2-0.2c0.6,0,0.6,0.1,1.2,0.1c0.6,0,0.6-0.1,1.2-0.1c0.6,0,0.6-0.2,1.2-0.2c0.6,0,0.6,0.6,1.2,0.6
							c0.6,0,0.6,0,1.2,0c0.6,0,0.6-0.1,1.2-0.1c0.6,0,0.6-0.5,1.2-0.5c0.6,0,0.6,0.4,1.2,0.4c0.6,0,0.6-0.2,1.2-0.2
							c0.6,0,0.6,0,1.2,0c0.6,0,0.6-0.2,1.2-0.2c0.6,0,0.6,0.3,1.2,0.3c0.6,0,0.6-0.1,1.2-0.1c0.6,0,0.6-0.1,1.2-0.1
							c0.6,0,0.6,0.4,1.2,0.4c0.6,0,0.6-0.1,1.2-0.1c0.6,0,0.6,0.2,1.2,0.2c0.6,0,0.6-0.4,1.2-0.4c0.6,0,0.6-0.2,1.2-0.2
							c0.6,0,0.6,0.2,1.2,0.2c0.6,0,0.6,0.5,1.2,0.5c0.6,0,0.6-0.2,1.2-0.2c0.6,0,0.6-0.4,1.2-0.4c0.6,0,0.6,0.4,1.2,0.4
							c0.6,0,0.6,0.1,1.2,0.1c0.6,0,0.6-0.2,1.2-0.2c0.6,0,0.6,0,1.2,0c0.6,0,0.6-0.1,1.2-0.1c0.6,0,0.6,0.1,1.2,0.1
							c0.6,0,0.6,0,1.2,0c0.6,0,0.6-0.1,1.2-0.1c0.6,0,0.6-0.1,1.2-0.1c0.6,0,0.6,0.3,1.2,0.3c0.6,0,0.6,0,1.2,0
							c0.6,0,0.6,0.2,1.2,0.2c0.5,0,1.2,0,1.2,0.2S87.6,87.1,87,87.1z"/>
					</g>
				</g>
			</g>
		</g>
	</g>
</g>
</svg>
